<svg width="24" height="24" viewBox="0 0 24 24" fill="none" xmlns="http://www.w3.org/2000/svg">
<rect width="24" height="24" rx="12" fill="#E31E24"/>
<g clip-path="url(#clip0_2106_5389)">
<path opacity="0.987" fill-rule="evenodd" clip-rule="evenodd" d="M11.6663 2.98242C11.8773 2.98242 12.0882 2.98242 12.2991 2.98242C12.5031 3.04901 12.7023 3.1369 12.8968 3.24609C13.3538 3.67969 13.8109 4.11328 14.2679 4.54688C14.3558 4.57617 14.4437 4.60547 14.5316 4.63477C15.2126 4.50899 15.8981 4.43281 16.5882 4.40625C17.1827 4.52054 17.5988 4.85453 17.8362 5.4082C17.9657 6.07934 18.1063 6.7473 18.2581 7.41211C18.3129 7.47746 18.3773 7.5302 18.4515 7.57031C19.0192 7.84826 19.57 8.15292 20.1038 8.48438C20.6484 9.03991 20.7714 9.6786 20.473 10.4004C20.1934 10.9124 19.9532 11.4397 19.7523 11.9824C19.7581 12.0293 19.764 12.0762 19.7698 12.123C20.049 12.693 20.3185 13.2672 20.5784 13.8457C20.723 14.4807 20.5648 15.0256 20.1038 15.4805C19.57 15.8119 19.0192 16.1166 18.4515 16.3945C18.3773 16.4346 18.3129 16.4874 18.2581 16.5527C18.1108 17.1315 17.9936 17.7174 17.9066 18.3105C17.6399 19.209 17.0364 19.625 16.096 19.5586C15.5715 19.492 15.05 19.4159 14.5316 19.3301C14.4455 19.3619 14.3576 19.3912 14.2679 19.418C13.8109 19.8516 13.3538 20.2852 12.8968 20.7188C12.7023 20.8279 12.5031 20.9158 12.2991 20.9824C12.0882 20.9824 11.8773 20.9824 11.6663 20.9824C11.4624 20.9158 11.2631 20.8279 11.0687 20.7188C10.6116 20.2852 10.1546 19.8516 9.69757 19.418C9.61421 19.3921 9.53216 19.3628 9.45148 19.3301C8.84496 19.4293 8.2356 19.5114 7.62335 19.5762C6.91137 19.5457 6.41334 19.2058 6.12921 18.5566C5.99981 17.8855 5.85919 17.2175 5.70733 16.5527C5.65257 16.4874 5.58812 16.4346 5.51398 16.3945C4.94622 16.1166 4.39544 15.8119 3.86163 15.4805C3.31707 14.9249 3.19402 14.2862 3.49249 13.5645C3.77201 13.0525 4.01225 12.5251 4.21319 11.9824C4.20733 11.9356 4.20148 11.8887 4.19562 11.8418C3.91648 11.2718 3.64695 10.6976 3.38702 10.1191C3.24247 9.48415 3.40068 8.93923 3.86163 8.48438C4.39544 8.15292 4.94622 7.84826 5.51398 7.57031C5.58812 7.5302 5.65257 7.47746 5.70733 7.41211C5.85461 6.83337 5.9718 6.24742 6.0589 5.6543C6.32556 4.75589 6.92909 4.33987 7.86944 4.40625C8.39173 4.47919 8.9132 4.55536 9.4339 4.63477C9.52179 4.60547 9.60968 4.57617 9.69757 4.54688C10.1546 4.11328 10.6116 3.67969 11.0687 3.24609C11.2631 3.1369 11.4624 3.04901 11.6663 2.98242ZM9.5921 7.3418C10.7209 7.2699 11.4416 7.7738 11.7542 8.85352C11.8686 9.96618 11.394 10.6986 10.3304 11.0508C9.34326 11.1988 8.62256 10.8297 8.16827 9.94336C7.84262 8.97505 8.09458 8.19574 8.92413 7.60547C9.13873 7.48534 9.36137 7.39745 9.5921 7.3418ZM15.3226 8.04492C15.8154 8.0973 15.9854 8.35514 15.8323 8.81836C13.4944 11.1562 11.1566 13.4941 8.81866 15.832C8.39394 15.9887 8.13614 15.8422 8.04523 15.3926C8.06407 15.3067 8.09335 15.2247 8.13312 15.1465C10.471 12.8086 12.8089 10.4707 15.1468 8.13281C15.2106 8.1062 15.2692 8.07691 15.3226 8.04492ZM13.846 12.8613C14.7473 12.8318 15.3977 13.2185 15.7972 14.0215C16.1228 14.9898 15.8709 15.7691 15.0413 16.3594C14.0669 16.8418 13.229 16.6719 12.5276 15.8496C11.9173 14.7696 12.1107 13.8614 13.1077 13.125C13.3469 13.0044 13.593 12.9165 13.846 12.8613Z" fill="white"/>
<path opacity="0.952" fill-rule="evenodd" clip-rule="evenodd" d="M9.76711 8.32617C10.4863 8.33637 10.8203 8.69967 10.7691 9.41602C10.5095 10.0628 10.0583 10.2445 9.41555 9.96094C9.01016 9.62632 8.92227 9.22202 9.15188 8.74805C9.30621 8.5286 9.51128 8.38798 9.76711 8.32617Z" fill="white"/>
<path opacity="0.953" fill-rule="evenodd" clip-rule="evenodd" d="M13.8458 13.8805C14.3932 13.8052 14.7506 14.0279 14.918 14.5484C14.9492 15.3493 14.5683 15.695 13.7755 15.5855C13.3138 15.395 13.1205 15.0493 13.1954 14.5484C13.3027 14.2127 13.5195 13.99 13.8458 13.8805Z" fill="white"/>
</g>
<defs>
<clipPath id="clip0_2106_5389">
<rect width="18" height="18" fill="white" transform="translate(3 3)"/>
</clipPath>
</defs>
</svg>
