<svg width="124" height="36" viewBox="0 0 124 36" fill="none" xmlns="http://www.w3.org/2000/svg">
<path d="M122.978 31.5206C122.978 33.4193 121.408 34.9573 119.466 34.9573H4.53299C2.59193 34.9573 1.01636 33.4193 1.01636 31.5206V4.11377C1.01636 2.21594 2.59193 0.672546 4.53299 0.672546H119.465C121.408 0.672546 122.977 2.21594 122.977 4.11377L122.978 31.5206Z" fill="#83B2C0"/>
<path d="M119.096 0.713863C121.211 0.713863 122.932 2.39178 122.932 4.45382V31.1758C122.932 33.2378 121.211 34.9158 119.096 34.9158H4.89952C2.7846 34.9158 1.06366 33.2378 1.06366 31.1758V4.45382C1.06366 2.39178 2.7846 0.713863 4.89952 0.713863H119.096ZM119.096 0.000164032H4.89952C2.38834 0.000164032 0.331665 2.00542 0.331665 4.45382V31.1758C0.331665 33.6242 2.38834 35.6295 4.89952 35.6295H119.096C121.607 35.6295 123.664 33.6242 123.664 31.1758V4.45382C123.664 2.00542 121.607 0.000164032 119.096 0.000164032Z" fill="#83B2C0"/>
<path d="M27.856 17.6226C27.8295 14.7518 30.2669 13.3551 30.3783 13.2901C28.9979 11.3278 26.8583 11.0597 26.1065 11.0383C24.3095 10.8539 22.5664 12.0867 21.651 12.0867C20.7173 12.0867 19.3077 11.0561 17.7884 11.0864C15.8334 11.1158 14.0044 12.2194 13.0013 13.9332C10.9311 17.4275 12.4751 22.5626 14.4584 25.3871C15.4506 26.7704 16.6099 28.3149 18.1273 28.2606C19.6119 28.2009 20.1664 27.3378 21.9579 27.3378C23.733 27.3378 24.2537 28.2606 25.8013 28.2259C27.3946 28.2009 28.3977 26.8363 29.3551 25.4405C30.5017 23.855 30.9621 22.2936 30.9804 22.2134C30.9429 22.201 27.8861 21.0635 27.856 17.6226Z" fill="white"/>
<path d="M24.9325 9.18023C25.731 8.20666 26.2773 6.88214 26.1256 5.53802C24.97 5.58791 23.5247 6.31742 22.6924 7.26961C21.9561 8.10868 21.2983 9.48397 21.4683 10.7773C22.7664 10.8717 24.0993 10.1387 24.9325 9.18023Z" fill="white"/>
<path d="M45.1416 8.91553C45.1416 9.96392 44.8191 10.7531 44.175 11.2831C43.5785 11.7721 42.7307 12.0171 41.6326 12.0171C41.0881 12.0171 40.6222 11.9939 40.2321 11.9476V6.21928C40.7409 6.13912 41.2891 6.09814 41.8811 6.09814C42.9271 6.09814 43.7155 6.31994 44.2472 6.76352C44.8429 7.265 45.1416 7.98204 45.1416 8.91553ZM44.1321 8.94136C44.1321 8.26173 43.9476 7.74065 43.5785 7.37724C43.2094 7.01471 42.6704 6.833 41.9605 6.833C41.6591 6.833 41.4023 6.85259 41.1895 6.89357V11.2484C41.3073 11.2662 41.5229 11.2742 41.8363 11.2742C42.569 11.2742 43.1345 11.0756 43.5328 10.6783C43.9311 10.281 44.1321 9.70205 44.1321 8.94136Z" fill="white"/>
<path d="M50.494 9.83126C50.494 10.477 50.3049 11.0061 49.9266 11.4212C49.5301 11.8479 49.0048 12.0608 48.3489 12.0608C47.7167 12.0608 47.2133 11.8568 46.8378 11.447C46.4633 11.0382 46.276 10.5225 46.276 9.90073C46.276 9.2505 46.4688 8.71695 46.8561 8.30276C47.2435 7.88857 47.7642 7.68103 48.4202 7.68103C49.0523 7.68103 49.5603 7.88501 49.9449 8.29385C50.3103 8.69112 50.494 9.20418 50.494 9.83126ZM49.5009 9.86154C49.5009 9.47407 49.415 9.14183 49.2442 8.86481C49.0432 8.5299 48.7573 8.36244 48.3854 8.36244C48.0008 8.36244 47.7085 8.5299 47.5075 8.86481C47.3357 9.14183 47.2508 9.47942 47.2508 9.87847C47.2508 10.2659 47.3367 10.5982 47.5075 10.8752C47.7149 11.2101 48.0036 11.3776 48.3763 11.3776C48.7417 11.3776 49.0286 11.2074 49.2351 10.8663C49.4123 10.5839 49.5009 10.249 49.5009 9.86154Z" fill="white"/>
<path d="M57.6706 7.76643L56.3231 11.9653H55.4461L54.8879 10.142C54.7463 9.68685 54.6311 9.23436 54.5416 8.78543H54.5243C54.4411 9.24683 54.326 9.69843 54.178 10.142L53.5851 11.9653H52.698L51.4309 7.76643H52.4148L52.9018 9.76256C53.0196 10.2347 53.1164 10.6845 53.1941 11.1102H53.2115C53.2827 10.7593 53.4006 10.3121 53.5668 9.77147L54.178 7.76732H54.9582L55.5438 9.72872C55.6854 10.207 55.8005 10.6675 55.8891 11.1111H55.9156C55.9805 10.6791 56.0782 10.2186 56.208 9.72872L56.7305 7.76732H57.6706V7.76643Z" fill="white"/>
<path d="M62.6352 11.9652H61.6778V9.56023C61.6778 8.81914 61.3891 8.4486 60.8099 8.4486C60.5258 8.4486 60.2965 8.55014 60.1183 8.75412C59.942 8.9581 59.8525 9.1986 59.8525 9.47383V11.9643H58.8951V8.96612C58.8951 8.59735 58.8832 8.19741 58.8604 7.76452H59.7017L59.7465 8.42099H59.773C59.8845 8.21701 60.0507 8.04866 60.2691 7.91416C60.5285 7.75739 60.819 7.67812 61.137 7.67812C61.5389 7.67812 61.8733 7.8046 62.1392 8.05846C62.4699 8.36932 62.6352 8.8334 62.6352 9.44978V11.9652Z" fill="white"/>
<path d="M65.2753 11.9653H64.3188V5.83974H65.2753V11.9653Z" fill="white"/>
<path d="M70.9122 9.83126C70.9122 10.477 70.7231 11.0061 70.3448 11.4212C69.9484 11.8479 69.4221 12.0608 68.7671 12.0608C68.134 12.0608 67.6306 11.8568 67.2561 11.447C66.8815 11.0382 66.6942 10.5225 66.6942 9.90073C66.6942 9.2505 66.887 8.71695 67.2743 8.30276C67.6617 7.88857 68.1824 7.68103 68.8375 7.68103C69.4706 7.68103 69.9776 7.88501 70.3631 8.29385C70.7285 8.69112 70.9122 9.20418 70.9122 9.83126ZM69.9182 9.86154C69.9182 9.47407 69.8323 9.14183 69.6615 8.86481C69.4614 8.5299 69.1746 8.36244 68.8036 8.36244C68.4181 8.36244 68.1258 8.5299 67.9257 8.86481C67.754 9.14183 67.669 9.47942 67.669 9.87847C67.669 10.2659 67.7549 10.5982 67.9257 10.8752C68.1331 11.2101 68.4218 11.3776 68.7945 11.3776C69.1599 11.3776 69.4459 11.2074 69.6524 10.8663C69.8305 10.5839 69.9182 10.249 69.9182 9.86154Z" fill="white"/>
<path d="M75.5452 11.9655H74.6855L74.6142 11.4818H74.5877C74.2936 11.8675 73.8742 12.0608 73.3298 12.0608C72.9232 12.0608 72.5943 11.9334 72.3468 11.6804C72.122 11.4506 72.0096 11.1647 72.0096 10.8253C72.0096 10.3123 72.2289 9.92122 72.6702 9.65044C73.1105 9.37966 73.7299 9.24694 74.5274 9.25317V9.17479C74.5274 8.62164 74.2296 8.34552 73.6331 8.34552C73.2082 8.34552 72.8337 8.44973 72.5103 8.65638L72.3157 8.04356C72.7158 7.80217 73.2101 7.68103 73.7929 7.68103C74.9185 7.68103 75.483 8.26001 75.483 9.41796V10.9643C75.483 11.3838 75.5041 11.7178 75.5452 11.9655ZM74.5512 10.5225V9.8749C73.4951 9.85709 72.9671 10.1395 72.9671 10.7211C72.9671 10.9402 73.0274 11.1041 73.1507 11.2137C73.274 11.3232 73.4312 11.3776 73.6184 11.3776C73.8286 11.3776 74.025 11.3125 74.204 11.1834C74.384 11.0533 74.4946 10.8886 74.5357 10.6864C74.5457 10.6409 74.5512 10.5857 74.5512 10.5225Z" fill="white"/>
<path d="M80.9848 11.9654H80.1352L80.0905 11.2911H80.064C79.7926 11.8042 79.3304 12.0607 78.6808 12.0607C78.1619 12.0607 77.7298 11.8621 77.3872 11.4648C77.0446 11.0676 76.8738 10.5518 76.8738 9.91852C76.8738 9.23889 77.0592 8.68842 77.432 8.26799C77.7928 7.87607 78.235 7.68011 78.7612 7.68011C79.3395 7.68011 79.7442 7.86984 79.9744 8.25018H79.9927V5.83986H80.951V10.8342C80.951 11.243 80.962 11.6198 80.9848 11.9654ZM79.9927 10.1946V9.49453C79.9927 9.37339 79.9836 9.27541 79.9662 9.20059C79.9123 8.97613 79.7963 8.78729 79.62 8.63498C79.4418 8.48266 79.2271 8.40606 78.9796 8.40606C78.6223 8.40606 78.3428 8.54412 78.1372 8.82114C77.9335 9.09816 77.8303 9.45178 77.8303 9.88378C77.8303 10.2989 77.928 10.6356 78.1245 10.8948C78.3318 11.1709 78.6114 11.309 78.9613 11.309C79.2756 11.309 79.5268 11.1941 79.7177 10.9634C79.9023 10.7505 79.9927 10.4939 79.9927 10.1946Z" fill="white"/>
<path d="M89.174 9.83126C89.174 10.477 88.9849 11.0061 88.6067 11.4212C88.2102 11.8479 87.6858 12.0608 87.0289 12.0608C86.3977 12.0608 85.8943 11.8568 85.5179 11.447C85.1433 11.0382 84.9561 10.5225 84.9561 9.90073C84.9561 9.2505 85.1488 8.71695 85.5362 8.30276C85.9235 7.88857 86.4443 7.68103 87.1011 7.68103C87.7324 7.68103 88.2413 7.88501 88.625 8.29385C88.9904 8.69112 89.174 9.20418 89.174 9.83126ZM88.1819 9.86154C88.1819 9.47407 88.096 9.14183 87.9252 8.86481C87.7233 8.5299 87.4382 8.36244 87.0655 8.36244C86.6818 8.36244 86.3894 8.5299 86.1875 8.86481C86.0158 9.14183 85.9308 9.47942 85.9308 9.87847C85.9308 10.2659 86.0167 10.5982 86.1875 10.8752C86.3949 11.2101 86.6836 11.3776 87.0564 11.3776C87.4218 11.3776 87.7096 11.2074 87.916 10.8663C88.0923 10.5839 88.1819 10.249 88.1819 9.86154Z" fill="white"/>
<path d="M94.3214 11.9652H93.3649V9.56023C93.3649 8.81914 93.0762 8.4486 92.4961 8.4486C92.212 8.4486 91.9827 8.55014 91.8055 8.75412C91.6282 8.9581 91.5396 9.1986 91.5396 9.47383V11.9643H90.5813V8.96612C90.5813 8.59735 90.5703 8.19741 90.5475 7.76452H91.388L91.4327 8.42099H91.4592C91.5716 8.21701 91.7379 8.04866 91.9553 7.91416C92.2157 7.75739 92.5053 7.67812 92.8241 7.67812C93.2252 7.67812 93.5595 7.8046 93.8254 8.05846C94.157 8.36932 94.3214 8.8334 94.3214 9.44978V11.9652Z" fill="white"/>
<path d="M100.765 8.46574H99.7104V10.5055C99.7104 11.0239 99.8977 11.2831 100.269 11.2831C100.44 11.2831 100.583 11.2689 100.695 11.2395L100.72 11.9476C100.531 12.0171 100.282 12.0518 99.9763 12.0518C99.5981 12.0518 99.3039 11.9396 99.091 11.7151C98.8773 11.4907 98.7713 11.113 98.7713 10.583V8.46574H98.1418V7.76651H98.7713V6.99692L99.7095 6.72079V7.76562H100.764V8.46574H100.765Z" fill="white"/>
<path d="M105.834 11.9653H104.876V9.57814C104.876 8.82547 104.587 8.44869 104.009 8.44869C103.565 8.44869 103.261 8.66692 103.095 9.10338C103.067 9.19513 103.05 9.30736 103.05 9.43919V11.9644H102.094V5.83974H103.05V8.37031H103.069C103.37 7.9098 103.802 7.67999 104.362 7.67999C104.759 7.67999 105.087 7.80647 105.347 8.06033C105.671 8.37654 105.834 8.84685 105.834 9.46858V11.9653Z" fill="white"/>
<path d="M111.063 9.66735C111.063 9.83481 111.05 9.97555 111.027 10.0905H108.156C108.169 10.5055 108.306 10.8217 108.571 11.0409C108.814 11.2368 109.128 11.3348 109.512 11.3348C109.936 11.3348 110.324 11.2689 110.673 11.1362L110.823 11.7846C110.414 11.9574 109.934 12.0438 109.377 12.0438C108.71 12.0438 108.185 11.8523 107.805 11.4693C107.423 11.0863 107.234 10.5723 107.234 9.92745C107.234 9.29414 107.41 8.76682 107.766 8.3464C108.137 7.89747 108.638 7.673 109.271 7.673C109.891 7.673 110.361 7.89747 110.679 8.3464C110.936 8.70269 111.063 9.1436 111.063 9.66735ZM110.149 9.42596C110.157 9.14895 110.093 8.91023 109.964 8.70893C109.797 8.44972 109.544 8.31968 109.202 8.31968C108.889 8.31968 108.635 8.44616 108.44 8.70002C108.281 8.90221 108.187 9.1436 108.156 9.42596H110.149Z" fill="white"/>
<path d="M49.3398 28.0619H47.2651L46.1286 24.5801H42.1783L41.0957 28.0619H39.0758L42.9895 16.2081H45.4069L49.3398 28.0619ZM45.786 23.1193L44.7582 20.024C44.6495 19.7078 44.4458 18.9631 44.1452 17.7909H44.1087C43.989 18.2951 43.7962 19.0397 43.5313 20.024L42.5218 23.1193H45.786Z" fill="white"/>
<path d="M59.4046 23.6829C59.4046 25.1366 59.0017 26.2856 58.1959 27.1292C57.4742 27.88 56.578 28.255 55.5082 28.255C54.3535 28.255 53.5239 27.8506 53.0187 27.0419H52.9822V31.5445H51.0345V22.3281C51.0345 21.4142 51.0098 20.4763 50.9623 19.5143H52.6752L52.7839 20.8691H52.8205C53.47 19.8483 54.4558 19.3388 55.7786 19.3388C56.8128 19.3388 57.6761 19.737 58.3668 20.5342C59.0593 21.3323 59.4046 22.3815 59.4046 23.6829ZM57.4203 23.7524C57.4203 22.9204 57.2285 22.2346 56.8429 21.6948C56.4218 21.1319 55.8563 20.8504 55.1473 20.8504C54.6668 20.8504 54.2301 21.0071 53.84 21.3162C53.449 21.628 53.1932 22.0351 53.0735 22.5392C53.0132 22.7744 52.9831 22.9668 52.9831 23.1182V24.5434C52.9831 25.1651 53.1786 25.6897 53.5696 26.1182C53.9606 26.5466 54.4686 26.7604 55.0934 26.7604C55.827 26.7604 56.398 26.4843 56.8064 25.9338C57.2157 25.3824 57.4203 24.6556 57.4203 23.7524Z" fill="white"/>
<path d="M69.4872 23.6829C69.4872 25.1366 69.0843 26.2856 68.2776 27.1292C67.5568 27.88 66.6606 28.255 65.5908 28.255C64.436 28.255 63.6065 27.8506 63.1022 27.0419H63.0657V31.5445H61.118V22.3281C61.118 21.4142 61.0933 20.4763 61.0458 19.5143H62.7587L62.8674 20.8691H62.904C63.5526 19.8483 64.5384 19.3388 65.8621 19.3388C66.8954 19.3388 67.7587 19.737 68.4512 20.5342C69.1409 21.3323 69.4872 22.3815 69.4872 23.6829ZM67.5029 23.7524C67.5029 22.9204 67.3101 22.2346 66.9246 21.6948C66.5035 21.1319 65.9398 20.8504 65.2299 20.8504C64.7485 20.8504 64.3127 21.0071 63.9217 21.3162C63.5307 21.628 63.2758 22.0351 63.1561 22.5392C63.0967 22.7744 63.0657 22.9668 63.0657 23.1182V24.5434C63.0657 25.1651 63.2612 25.6897 63.6504 26.1182C64.0414 26.5457 64.5493 26.7604 65.176 26.7604C65.9096 26.7604 66.4806 26.4843 66.889 25.9338C67.2983 25.3824 67.5029 24.6556 67.5029 23.7524Z" fill="white"/>
<path d="M80.7608 24.7377C80.7608 25.746 80.4018 26.5664 79.681 27.1997C78.8889 27.8918 77.7862 28.2374 76.3693 28.2374C75.0611 28.2374 74.0123 27.9915 73.2184 27.499L73.6697 25.9161C74.5248 26.4203 75.463 26.6732 76.4853 26.6732C77.2189 26.6732 77.7899 26.5111 78.2001 26.1887C78.6085 25.8662 78.8122 25.4333 78.8122 24.8936C78.8122 24.4126 78.6441 24.0073 78.307 23.6786C77.9717 23.3499 77.4117 23.0444 76.6297 22.762C74.501 21.988 73.4376 20.8541 73.4376 19.363C73.4376 18.3885 73.8104 17.5896 74.5568 16.9678C75.3004 16.3452 76.2926 16.0343 77.5332 16.0343C78.6395 16.0343 79.5586 16.2223 80.2922 16.5973L79.8052 18.1454C79.1201 17.782 78.3453 17.6002 77.4784 17.6002C76.7932 17.6002 76.2578 17.765 75.8741 18.0928C75.5498 18.3859 75.3872 18.7431 75.3872 19.1661C75.3872 19.6347 75.5727 20.0221 75.9454 20.3268C76.2697 20.6082 76.859 20.9129 77.7141 21.2416C78.7601 21.6522 79.5284 22.1323 80.0227 22.6828C80.5151 23.2315 80.7608 23.9182 80.7608 24.7377Z" fill="white"/>
<path d="M87.2015 20.9396H85.0546V25.0896C85.0546 26.1451 85.4328 26.6724 86.1911 26.6724C86.5391 26.6724 86.8278 26.643 87.0562 26.5842L87.1101 28.0263C86.7264 28.1662 86.2212 28.2365 85.5954 28.2365C84.8262 28.2365 84.225 28.0076 83.7911 27.5507C83.359 27.0928 83.1415 26.325 83.1415 25.2463V20.9379H81.8625V19.5127H83.1415V17.9477L85.0546 17.3847V19.5127H87.2015V20.9396Z" fill="white"/>
<path d="M96.8873 23.7179C96.8873 25.0317 96.5018 26.1104 95.7326 26.9539C94.9259 27.8223 93.8552 28.2552 92.5204 28.2552C91.2341 28.2552 90.21 27.8393 89.4463 27.0073C88.6825 26.1754 88.3007 25.1252 88.3007 23.8595C88.3007 22.535 88.6935 21.4501 89.4819 20.6065C90.2685 19.7621 91.3301 19.3399 92.6648 19.3399C93.9511 19.3399 94.9862 19.7559 95.7673 20.5887C96.5146 21.3966 96.8873 22.4397 96.8873 23.7179ZM94.8665 23.7793C94.8665 22.991 94.6938 22.315 94.3439 21.7511C93.9356 21.0688 93.3518 20.7286 92.5954 20.7286C91.8124 20.7286 91.2177 21.0697 90.8093 21.7511C90.4594 22.3158 90.2868 23.0026 90.2868 23.8149C90.2868 24.6032 90.4594 25.2793 90.8093 25.8422C91.2305 26.5246 91.8188 26.8648 92.578 26.8648C93.3216 26.8648 93.9054 26.5174 94.3266 25.8244C94.6856 25.2499 94.8665 24.5667 94.8665 23.7793Z" fill="white"/>
<path d="M103.219 21.1844C103.026 21.1497 102.821 21.1319 102.605 21.1319C101.92 21.1319 101.39 21.3839 101.017 21.889C100.693 22.3343 100.53 22.8973 100.53 23.5769V28.0617H98.5835L98.6018 22.2061C98.6018 21.2209 98.5771 20.324 98.5287 19.5152H100.225L100.296 21.1506H100.35C100.556 20.5885 100.88 20.136 101.324 19.7966C101.758 19.4911 102.227 19.3388 102.732 19.3388C102.912 19.3388 103.075 19.3513 103.219 19.3735V21.1844Z" fill="white"/>
<path d="M111.93 23.3836C111.93 23.7239 111.907 24.0107 111.859 24.2449H106.016C106.038 25.0894 106.321 25.7351 106.863 26.1805C107.356 26.5787 107.992 26.7782 108.775 26.7782C109.64 26.7782 110.429 26.6437 111.139 26.3738L111.444 27.6921C110.614 28.0448 109.635 28.2203 108.505 28.2203C107.146 28.2203 106.079 27.8301 105.302 27.0507C104.527 26.2714 104.139 25.2247 104.139 23.9118C104.139 22.6229 104.5 21.5496 105.223 20.6936C105.979 19.7797 107.001 19.3228 108.288 19.3228C109.551 19.3228 110.508 19.7797 111.157 20.6936C111.671 21.4195 111.93 22.3174 111.93 23.3836ZM110.073 22.891C110.085 22.3281 109.958 21.8417 109.694 21.4311C109.357 20.9029 108.839 20.6393 108.142 20.6393C107.506 20.6393 106.988 20.8967 106.592 21.4133C106.268 21.8239 106.075 22.3165 106.016 22.8901H110.073V22.891Z" fill="white"/>
</svg>
