<svg width="41" height="40" viewBox="0 0 41 40" fill="none" xmlns="http://www.w3.org/2000/svg">
<path d="M22.351 37.8242C21.409 37.812 20.5334 37.1337 20.22 36.1432L20.2031 36.09L24.7149 34.6621L24.7415 34.7461C25.1793 36.2493 24.1078 37.8215 22.4132 37.8241L22.351 37.8242Z" stroke="#E31E24" stroke-width="2"/>
<path d="M33.5807 28.6493L7.41866 36.929C6.79818 37.1253 6.16393 36.7961 5.96754 36.1756L5.84806 35.798C5.74743 35.4801 5.77181 35.1827 5.9083 34.9161L7.93783 31.142L8.1645 30.7205L8.02009 30.2642L5.0858 20.9924C3.46269 15.8636 5.28962 10.5389 9.61048 7.4643C9.73479 7.38805 9.85845 7.28055 9.96069 7.13198C10.1298 6.88629 10.1643 6.63819 10.1665 6.48369C10.1686 6.33614 10.1425 6.21992 10.1302 6.16951C10.1179 6.11931 10.1034 6.0743 10.1011 6.06704L9.99457 5.73049C9.69703 4.79031 9.86748 3.80165 10.4252 3.13269L10.4288 3.12834C12.061 1.15048 14.8342 1.98432 15.4713 3.99725L15.5775 4.33293L15.828 5.12465L16.6585 5.12348C22.0321 5.11592 26.6549 8.41654 28.2956 13.6008L31.2434 22.9146L31.3864 23.3662L31.8084 23.5814L35.6539 25.5432C35.655 25.5438 35.656 25.5442 35.657 25.5448C35.9238 25.6843 36.1156 25.9138 36.2167 26.2331L36.3362 26.6106L36.3423 26.63L36.3491 26.6491C36.5349 27.1703 36.2544 27.8031 35.6116 28.0065L33.5807 28.6493Z" stroke="#E31E24" stroke-width="2"/>
</svg>
