<svg width="310" height="310" viewBox="0 0 310 310" fill="none" xmlns="http://www.w3.org/2000/svg">
<rect x="0.5" y="0.5" width="309" height="309" rx="19.5" fill="#2F2F2F" stroke="#E31E24"/>
<rect width="250" height="246" transform="translate(30 32)" fill="#2F2F2F"/>
<path fill-rule="evenodd" clip-rule="evenodd" d="M153.33 35.4769C153.934 33.9712 156.066 33.9712 156.67 35.4769L161.384 47.2143L174.003 48.07C175.622 48.1798 176.281 50.2069 175.036 51.2472L165.329 59.357L168.415 71.6233C168.811 73.1968 167.087 74.4496 165.712 73.5869L155 66.8616L144.288 73.5869C142.914 74.4496 141.189 73.1968 141.585 71.6233L144.671 59.357L134.964 51.2472C133.719 50.2069 134.378 48.1798 135.997 48.07L148.616 47.2143L153.33 35.4769Z" fill="#E31E24"/>
<path d="M139.91 110.3V112.61H134.03V125H131.615V110.3H139.91ZM144.422 125.273C142.882 125.273 141.573 124.741 140.495 123.677C139.417 122.613 138.878 121.304 138.878 119.75C138.878 118.196 139.417 116.887 140.495 115.823C141.573 114.759 142.882 114.227 144.422 114.227C145.976 114.227 147.285 114.759 148.349 115.823C149.427 116.887 149.966 118.196 149.966 119.75C149.966 121.304 149.427 122.613 148.349 123.677C147.285 124.741 145.976 125.273 144.422 125.273ZM142.091 122.123C142.721 122.753 143.498 123.068 144.422 123.068C145.346 123.068 146.123 122.753 146.753 122.123C147.383 121.493 147.698 120.702 147.698 119.75C147.698 118.798 147.383 118.007 146.753 117.377C146.123 116.747 145.346 116.432 144.422 116.432C143.498 116.432 142.721 116.747 142.091 117.377C141.461 118.007 141.146 118.798 141.146 119.75C141.146 120.702 141.461 121.493 142.091 122.123ZM156.973 125.273C155.391 125.273 154.068 124.741 153.004 123.677C151.954 122.613 151.429 121.304 151.429 119.75C151.429 118.182 151.954 116.873 153.004 115.823C154.068 114.759 155.391 114.227 156.973 114.227C157.995 114.227 158.926 114.472 159.766 114.962C160.606 115.452 161.236 116.11 161.656 116.936L159.703 118.07C159.465 117.566 159.101 117.174 158.611 116.894C158.135 116.6 157.582 116.453 156.952 116.453C156.028 116.453 155.251 116.768 154.621 117.398C154.005 118.028 153.697 118.812 153.697 119.75C153.697 120.688 154.005 121.472 154.621 122.102C155.251 122.732 156.028 123.047 156.952 123.047C157.568 123.047 158.121 122.9 158.611 122.606C159.115 122.312 159.493 121.92 159.745 121.43L161.698 122.543C161.25 123.383 160.606 124.048 159.766 124.538C158.926 125.028 157.995 125.273 156.973 125.273ZM171.257 114.5V116.684H167.834V125H165.566V116.684H162.122V114.5H171.257ZM177.37 118.07C178.49 118.07 179.407 118.392 180.121 119.036C180.835 119.666 181.192 120.499 181.192 121.535C181.192 122.557 180.835 123.39 180.121 124.034C179.407 124.678 178.49 125 177.37 125H172.792V114.5H175.06V118.07H177.37ZM177.391 122.963C177.839 122.963 178.21 122.83 178.504 122.564C178.812 122.298 178.966 121.955 178.966 121.535C178.966 121.101 178.812 120.758 178.504 120.506C178.21 120.24 177.839 120.107 177.391 120.107H175.06V122.963H177.391Z" fill="white"/>
<path d="M126.169 142.392V177.301H121.941V146.824H121.737L113.214 152.483V148.187L121.941 142.392H126.169ZM147.117 177.778C145.117 177.778 143.316 177.38 141.714 176.585C140.112 175.789 138.828 174.699 137.862 173.312C136.896 171.926 136.367 170.346 136.277 168.574H140.367C140.527 170.153 141.242 171.46 142.515 172.494C143.799 173.517 145.333 174.028 147.117 174.028C148.549 174.028 149.822 173.693 150.936 173.022C152.061 172.352 152.941 171.431 153.578 170.261C154.225 169.079 154.549 167.744 154.549 166.255C154.549 164.733 154.214 163.375 153.544 162.181C152.885 160.977 151.975 160.028 150.816 159.335C149.657 158.642 148.333 158.289 146.845 158.278C145.777 158.267 144.68 158.431 143.555 158.772C142.43 159.102 141.504 159.528 140.777 160.051L136.822 159.574L138.936 142.392H157.072V146.142H142.481L141.254 156.437H141.458C142.174 155.869 143.072 155.397 144.152 155.022C145.231 154.647 146.356 154.46 147.527 154.46C149.663 154.46 151.566 154.971 153.237 155.994C154.919 157.005 156.237 158.392 157.191 160.153C158.157 161.914 158.64 163.926 158.64 166.187C158.64 168.414 158.14 170.403 157.14 172.153C156.152 173.892 154.788 175.267 153.049 176.278C151.311 177.278 149.333 177.778 147.117 177.778ZM183.207 170.755V168.914C183.207 167.642 183.468 166.477 183.991 165.42C184.525 164.352 185.298 163.5 186.309 162.863C187.332 162.216 188.571 161.892 190.025 161.892C191.502 161.892 192.741 162.216 193.741 162.863C194.741 163.5 195.497 164.352 196.008 165.42C196.519 166.477 196.775 167.642 196.775 168.914V170.755C196.775 172.028 196.514 173.199 195.991 174.267C195.48 175.324 194.718 176.176 193.707 176.824C192.707 177.46 191.48 177.778 190.025 177.778C188.548 177.778 187.304 177.46 186.292 176.824C185.281 176.176 184.514 175.324 183.991 174.267C183.468 173.199 183.207 172.028 183.207 170.755ZM186.684 168.914V170.755C186.684 171.812 186.934 172.761 187.434 173.602C187.934 174.431 188.798 174.846 190.025 174.846C191.218 174.846 192.059 174.431 192.548 173.602C193.048 172.761 193.298 171.812 193.298 170.755V168.914C193.298 167.858 193.059 166.914 192.582 166.085C192.105 165.244 191.252 164.824 190.025 164.824C188.832 164.824 187.974 165.244 187.451 166.085C186.94 166.914 186.684 167.858 186.684 168.914ZM165.821 150.778V148.937C165.821 147.664 166.082 146.5 166.605 145.443C167.139 144.375 167.911 143.522 168.923 142.886C169.946 142.238 171.184 141.914 172.639 141.914C174.116 141.914 175.355 142.238 176.355 142.886C177.355 143.522 178.11 144.375 178.622 145.443C179.133 146.5 179.389 147.664 179.389 148.937V150.778C179.389 152.051 179.127 153.221 178.605 154.289C178.093 155.346 177.332 156.199 176.321 156.846C175.321 157.483 174.093 157.801 172.639 157.801C171.161 157.801 169.917 157.483 168.906 156.846C167.894 156.199 167.127 155.346 166.605 154.289C166.082 153.221 165.821 152.051 165.821 150.778ZM169.298 148.937V150.778C169.298 151.835 169.548 152.784 170.048 153.625C170.548 154.454 171.411 154.869 172.639 154.869C173.832 154.869 174.673 154.454 175.161 153.625C175.661 152.784 175.911 151.835 175.911 150.778V148.937C175.911 147.88 175.673 146.937 175.196 146.108C174.718 145.267 173.866 144.846 172.639 144.846C171.446 144.846 170.588 145.267 170.065 146.108C169.554 146.937 169.298 147.88 169.298 148.937ZM167.116 177.301L191.116 142.392H195.002L171.002 177.301H167.116Z" fill="white"/>
<path d="M131.206 203H130.702L125.428 198.428V203H125.068V194H125.428V198.212L130.522 194H131.026L125.806 198.32L131.206 203ZM136.303 193.82C137.611 193.82 138.673 194.288 139.489 195.224C140.317 196.148 140.731 197.252 140.731 198.536V198.716H132.109C132.157 199.94 132.583 200.936 133.387 201.704C134.203 202.472 135.199 202.856 136.375 202.856C137.167 202.856 137.875 202.688 138.499 202.352C139.135 202.016 139.603 201.566 139.903 201.002L140.209 201.182C139.861 201.794 139.345 202.28 138.661 202.64C137.989 203 137.227 203.18 136.375 203.18C135.043 203.18 133.939 202.742 133.063 201.866C132.187 200.978 131.749 199.856 131.749 198.5C131.749 197.168 132.175 196.058 133.027 195.17C133.891 194.27 134.983 193.82 136.303 193.82ZM132.109 198.392H140.407C140.335 197.132 139.909 196.112 139.129 195.332C138.361 194.54 137.419 194.144 136.303 194.144C135.127 194.144 134.137 194.546 133.333 195.35C132.541 196.142 132.133 197.156 132.109 198.392ZM154.584 194H154.944V203H143.244V194H143.604V202.676H148.914V194H149.274V202.676H154.584V194ZM161.965 203.198C160.657 203.198 159.577 202.778 158.725 201.938C157.885 201.098 157.465 199.982 157.465 198.59C157.465 197.15 157.669 196.022 158.077 195.206C158.497 194.378 159.355 193.64 160.651 192.992C160.987 192.824 161.383 192.65 161.839 192.47C162.295 192.278 162.661 192.122 162.937 192.002C163.213 191.882 163.495 191.738 163.783 191.57C164.071 191.402 164.293 191.216 164.449 191.012C164.605 190.796 164.713 190.544 164.773 190.256L165.061 190.418C164.989 190.79 164.803 191.12 164.503 191.408C164.215 191.696 163.915 191.912 163.603 192.056C163.303 192.2 162.853 192.398 162.253 192.65C161.653 192.89 161.179 193.094 160.831 193.262C159.835 193.754 159.109 194.312 158.653 194.936C158.209 195.56 157.945 196.418 157.861 197.51C158.293 196.634 158.887 195.968 159.643 195.512C160.399 195.056 161.209 194.828 162.073 194.828C163.261 194.828 164.257 195.224 165.061 196.016C165.877 196.808 166.285 197.816 166.285 199.04C166.285 200.252 165.877 201.248 165.061 202.028C164.257 202.808 163.225 203.198 161.965 203.198ZM161.965 202.874C163.129 202.874 164.077 202.52 164.809 201.812C165.553 201.092 165.925 200.168 165.925 199.04C165.925 197.924 165.559 197 164.827 196.268C164.095 195.524 163.177 195.152 162.073 195.152C161.041 195.152 160.135 195.476 159.355 196.124C158.575 196.772 158.065 197.594 157.825 198.59C157.825 199.85 158.209 200.882 158.977 201.686C159.745 202.478 160.741 202.874 161.965 202.874ZM171.741 193.82C173.109 193.82 174.219 194.264 175.071 195.152C175.923 196.04 176.349 197.156 176.349 198.5C176.349 199.844 175.923 200.96 175.071 201.848C174.219 202.736 173.109 203.18 171.741 203.18C170.829 203.18 170.013 202.982 169.293 202.586C168.585 202.19 168.063 201.656 167.727 200.984L168.015 200.804C168.339 201.44 168.825 201.944 169.473 202.316C170.133 202.676 170.889 202.856 171.741 202.856C172.989 202.856 173.997 202.46 174.765 201.668C175.545 200.876 175.953 199.874 175.989 198.662H171.003V198.338H175.989C175.953 197.126 175.545 196.124 174.765 195.332C173.997 194.54 172.989 194.144 171.741 194.144C170.877 194.144 170.115 194.33 169.455 194.702C168.807 195.062 168.327 195.56 168.015 196.196L167.727 196.016C168.063 195.344 168.585 194.81 169.293 194.414C170.013 194.018 170.829 193.82 171.741 193.82ZM185.013 203H184.509L179.235 198.428V203H178.875V194H179.235V198.212L184.329 194H184.833L179.613 198.32L185.013 203Z" fill="white"/>
<path d="M52.196 247.182C52.196 248.409 51.9744 249.47 51.5312 250.364C51.0881 251.258 50.4801 251.947 49.7074 252.432C48.9347 252.917 48.0521 253.159 47.0597 253.159C46.0672 253.159 45.1847 252.917 44.4119 252.432C43.6392 251.947 43.0313 251.258 42.5881 250.364C42.1449 249.47 41.9233 248.409 41.9233 247.182C41.9233 245.955 42.1449 244.894 42.5881 244C43.0313 243.106 43.6392 242.417 44.4119 241.932C45.1847 241.447 46.0672 241.205 47.0597 241.205C48.0521 241.205 48.9347 241.447 49.7074 241.932C50.4801 242.417 51.0881 243.106 51.5312 244C51.9744 244.894 52.196 245.955 52.196 247.182ZM50.8324 247.182C50.8324 246.174 50.6638 245.324 50.3267 244.631C49.9934 243.938 49.5407 243.413 48.9688 243.057C48.4006 242.701 47.7642 242.523 47.0597 242.523C46.3551 242.523 45.7169 242.701 45.1449 243.057C44.5767 243.413 44.1241 243.938 43.7869 244.631C43.4536 245.324 43.2869 246.174 43.2869 247.182C43.2869 248.189 43.4536 249.04 43.7869 249.733C44.1241 250.426 44.5767 250.951 45.1449 251.307C45.7169 251.663 46.3551 251.841 47.0597 251.841C47.7642 251.841 48.4006 251.663 48.9688 251.307C49.5407 250.951 49.9934 250.426 50.3267 249.733C50.6638 249.04 50.8324 248.189 50.8324 247.182ZM60.8608 241L61.5426 241.818C61.2775 242.076 60.9706 242.256 60.6222 242.358C60.2737 242.46 59.8797 242.523 59.4403 242.545C59.0009 242.568 58.5123 242.591 57.9744 242.614C57.3684 242.636 56.8665 242.784 56.4688 243.057C56.071 243.33 55.7642 243.723 55.5483 244.239C55.3324 244.754 55.1941 245.386 55.1335 246.136H55.2472C55.5426 245.591 55.9517 245.189 56.4744 244.932C56.9972 244.674 57.5578 244.545 58.1562 244.545C58.8381 244.545 59.4517 244.705 59.9972 245.023C60.5426 245.341 60.9744 245.812 61.2926 246.438C61.6108 247.062 61.7699 247.833 61.7699 248.75C61.7699 249.663 61.607 250.451 61.2812 251.114C60.9593 251.777 60.5066 252.288 59.9233 252.648C59.3438 253.004 58.6638 253.182 57.8835 253.182C57.1032 253.182 56.4195 252.998 55.8324 252.631C55.2453 252.259 54.7888 251.71 54.4631 250.983C54.1373 250.252 53.9744 249.348 53.9744 248.273V247.341C53.9744 245.398 54.304 243.924 54.9631 242.92C55.6259 241.917 56.6222 241.398 57.9517 241.364C58.4214 241.348 58.84 241.345 59.2074 241.352C59.5748 241.36 59.8949 241.343 60.1676 241.301C60.4403 241.259 60.6714 241.159 60.8608 241ZM57.8835 251.977C58.41 251.977 58.8627 251.845 59.2415 251.58C59.6241 251.314 59.9176 250.941 60.1222 250.46C60.3267 249.975 60.429 249.405 60.429 248.75C60.429 248.114 60.3248 247.572 60.1165 247.125C59.9119 246.678 59.6184 246.337 59.2358 246.102C58.8532 245.867 58.3949 245.75 57.8608 245.75C57.4706 245.75 57.1203 245.816 56.8097 245.949C56.4991 246.081 56.2339 246.277 56.0142 246.534C55.7945 246.792 55.6241 247.106 55.5028 247.477C55.3854 247.848 55.3229 248.273 55.3153 248.75C55.3153 249.727 55.5445 250.509 56.0028 251.097C56.4612 251.684 57.0881 251.977 57.8835 251.977ZM75.7301 251.75L75.571 255.5H74.1847V253H73.0483V251.75H75.7301ZM63.821 244.273H65.1619V251.75H68.4574V244.273H69.7983V251.75H73.0938V244.273H74.4347V253H63.821V244.273ZM80.2486 253.205C79.6955 253.205 79.1937 253.1 78.7429 252.892C78.2921 252.68 77.9342 252.375 77.669 251.977C77.4039 251.576 77.2713 251.091 77.2713 250.523C77.2713 250.023 77.3698 249.617 77.5668 249.307C77.7637 248.992 78.027 248.746 78.3565 248.568C78.6861 248.39 79.0497 248.258 79.4474 248.17C79.849 248.08 80.2524 248.008 80.6577 247.955C81.188 247.886 81.6179 247.835 81.9474 247.801C82.2808 247.763 82.5232 247.701 82.6747 247.614C82.83 247.527 82.9077 247.375 82.9077 247.159V247.114C82.9077 246.553 82.7543 246.117 82.4474 245.807C82.1444 245.496 81.6842 245.341 81.0668 245.341C80.4266 245.341 79.9247 245.481 79.5611 245.761C79.1974 246.042 78.9418 246.341 78.794 246.659L77.5213 246.205C77.7486 245.674 78.0516 245.261 78.4304 244.966C78.813 244.667 79.2296 244.458 79.6804 244.341C80.1349 244.22 80.5819 244.159 81.0213 244.159C81.3016 244.159 81.6236 244.193 81.9872 244.261C82.3546 244.326 82.7088 244.46 83.0497 244.665C83.3944 244.869 83.6804 245.178 83.9077 245.591C84.1349 246.004 84.2486 246.557 84.2486 247.25V253H82.9077V251.818H82.8395C82.7486 252.008 82.5971 252.21 82.3849 252.426C82.1728 252.642 81.8906 252.826 81.5384 252.977C81.1861 253.129 80.7562 253.205 80.2486 253.205ZM80.4531 252C80.9834 252 81.4304 251.896 81.794 251.688C82.1615 251.479 82.438 251.21 82.6236 250.881C82.813 250.551 82.9077 250.205 82.9077 249.841V248.614C82.8509 248.682 82.7259 248.744 82.5327 248.801C82.3433 248.854 82.1236 248.902 81.8736 248.943C81.6274 248.981 81.3868 249.015 81.152 249.045C80.9209 249.072 80.7334 249.095 80.5895 249.114C80.241 249.159 79.9152 249.233 79.6122 249.335C79.313 249.434 79.0705 249.583 78.8849 249.784C78.7031 249.981 78.6122 250.25 78.6122 250.591C78.6122 251.057 78.7846 251.409 79.1293 251.648C79.4777 251.883 79.919 252 80.4531 252ZM91.946 253V245.5H89.6278C89.1051 245.5 88.6941 245.621 88.3949 245.864C88.0956 246.106 87.946 246.439 87.946 246.864C87.946 247.28 88.0805 247.608 88.3494 247.847C88.6222 248.085 88.9953 248.205 89.4688 248.205H92.2869V249.455H89.4688C88.8778 249.455 88.3684 249.35 87.9403 249.142C87.5123 248.934 87.1828 248.636 86.9517 248.25C86.7206 247.86 86.6051 247.398 86.6051 246.864C86.6051 246.326 86.7263 245.864 86.9688 245.477C87.2112 245.091 87.5578 244.794 88.0085 244.585C88.4631 244.377 89.0028 244.273 89.6278 244.273H93.2188V253H91.946ZM86.1278 253L88.6051 248.659H90.0597L87.5824 253H86.1278ZM103.726 253.182C102.908 253.182 102.203 252.989 101.612 252.602C101.021 252.216 100.567 251.684 100.249 251.006C99.9304 250.328 99.7713 249.553 99.7713 248.682C99.7713 247.795 99.9342 247.013 100.26 246.335C100.589 245.653 101.048 245.121 101.635 244.739C102.226 244.352 102.915 244.159 103.703 244.159C104.317 244.159 104.87 244.273 105.362 244.5C105.855 244.727 106.258 245.045 106.572 245.455C106.887 245.864 107.082 246.341 107.158 246.886H105.817C105.714 246.489 105.487 246.136 105.135 245.83C104.786 245.519 104.317 245.364 103.726 245.364C103.203 245.364 102.745 245.5 102.351 245.773C101.961 246.042 101.656 246.422 101.436 246.915C101.22 247.403 101.112 247.977 101.112 248.636C101.112 249.311 101.218 249.898 101.43 250.398C101.646 250.898 101.949 251.286 102.339 251.562C102.733 251.839 103.196 251.977 103.726 251.977C104.074 251.977 104.391 251.917 104.675 251.795C104.959 251.674 105.199 251.5 105.396 251.273C105.593 251.045 105.733 250.773 105.817 250.455H107.158C107.082 250.97 106.894 251.434 106.595 251.847C106.3 252.256 105.908 252.581 105.419 252.824C104.934 253.062 104.37 253.182 103.726 253.182ZM109.982 256.273C109.754 256.273 109.552 256.254 109.374 256.216C109.196 256.182 109.072 256.148 109.004 256.114L109.345 254.932C109.671 255.015 109.959 255.045 110.209 255.023C110.459 255 110.68 254.888 110.874 254.688C111.071 254.491 111.25 254.17 111.413 253.727L111.663 253.045L108.436 244.273H109.891L112.3 251.227H112.391L114.8 244.273H116.254L112.55 254.273C112.383 254.723 112.177 255.097 111.93 255.392C111.684 255.691 111.398 255.913 111.072 256.057C110.75 256.201 110.387 256.273 109.982 256.273ZM122.797 251.182L125.842 244.273H127.115L123.342 253H122.251L118.547 244.273H119.797L122.797 251.182ZM119.365 244.273V253H118.024V244.273H119.365ZM126.229 253V244.273H127.57V253H126.229ZM134.797 251.182L137.842 244.273H139.115L135.342 253H134.251L130.547 244.273H131.797L134.797 251.182ZM131.365 244.273V253H130.024V244.273H131.365ZM138.229 253V244.273H139.57V253H138.229ZM144.592 253.205C144.039 253.205 143.537 253.1 143.087 252.892C142.636 252.68 142.278 252.375 142.013 251.977C141.748 251.576 141.615 251.091 141.615 250.523C141.615 250.023 141.714 249.617 141.911 249.307C142.107 248.992 142.371 248.746 142.7 248.568C143.03 248.39 143.393 248.258 143.791 248.17C144.193 248.08 144.596 248.008 145.001 247.955C145.532 247.886 145.962 247.835 146.291 247.801C146.625 247.763 146.867 247.701 147.018 247.614C147.174 247.527 147.251 247.375 147.251 247.159V247.114C147.251 246.553 147.098 246.117 146.791 245.807C146.488 245.496 146.028 245.341 145.411 245.341C144.77 245.341 144.268 245.481 143.905 245.761C143.541 246.042 143.286 246.341 143.138 246.659L141.865 246.205C142.092 245.674 142.395 245.261 142.774 244.966C143.157 244.667 143.573 244.458 144.024 244.341C144.479 244.22 144.926 244.159 145.365 244.159C145.645 244.159 145.967 244.193 146.331 244.261C146.698 244.326 147.053 244.46 147.393 244.665C147.738 244.869 148.024 245.178 148.251 245.591C148.479 246.004 148.592 246.557 148.592 247.25V253H147.251V251.818H147.183C147.092 252.008 146.941 252.21 146.729 252.426C146.517 252.642 146.234 252.826 145.882 252.977C145.53 253.129 145.1 253.205 144.592 253.205ZM144.797 252C145.327 252 145.774 251.896 146.138 251.688C146.505 251.479 146.782 251.21 146.967 250.881C147.157 250.551 147.251 250.205 147.251 249.841V248.614C147.195 248.682 147.07 248.744 146.876 248.801C146.687 248.854 146.467 248.902 146.217 248.943C145.971 248.981 145.731 249.015 145.496 249.045C145.265 249.072 145.077 249.095 144.933 249.114C144.585 249.159 144.259 249.233 143.956 249.335C143.657 249.434 143.414 249.583 143.229 249.784C143.047 249.981 142.956 250.25 142.956 250.591C142.956 251.057 143.128 251.409 143.473 251.648C143.821 251.883 144.263 252 144.797 252ZM155.54 253V244.273H159.108C160.047 244.273 160.794 244.485 161.347 244.909C161.9 245.333 162.176 245.894 162.176 246.591C162.176 247.121 162.019 247.532 161.705 247.824C161.39 248.112 160.987 248.307 160.494 248.409C160.816 248.455 161.129 248.568 161.432 248.75C161.739 248.932 161.992 249.182 162.193 249.5C162.394 249.814 162.494 250.201 162.494 250.659C162.494 251.106 162.381 251.506 162.153 251.858C161.926 252.21 161.6 252.489 161.176 252.693C160.752 252.898 160.244 253 159.653 253H155.54ZM156.812 251.773H159.653C160.116 251.773 160.477 251.663 160.739 251.443C161 251.223 161.131 250.924 161.131 250.545C161.131 250.095 161 249.741 160.739 249.483C160.477 249.222 160.116 249.091 159.653 249.091H156.812V251.773ZM156.812 247.932H159.108C159.468 247.932 159.777 247.883 160.034 247.784C160.292 247.682 160.489 247.538 160.625 247.352C160.765 247.163 160.835 246.939 160.835 246.682C160.835 246.314 160.682 246.027 160.375 245.818C160.068 245.606 159.646 245.5 159.108 245.5H156.812V247.932ZM167.092 253.205C166.539 253.205 166.037 253.1 165.587 252.892C165.136 252.68 164.778 252.375 164.513 251.977C164.248 251.576 164.115 251.091 164.115 250.523C164.115 250.023 164.214 249.617 164.411 249.307C164.607 248.992 164.871 248.746 165.2 248.568C165.53 248.39 165.893 248.258 166.291 248.17C166.693 248.08 167.096 248.008 167.501 247.955C168.032 247.886 168.462 247.835 168.791 247.801C169.125 247.763 169.367 247.701 169.518 247.614C169.674 247.527 169.751 247.375 169.751 247.159V247.114C169.751 246.553 169.598 246.117 169.291 245.807C168.988 245.496 168.528 245.341 167.911 245.341C167.27 245.341 166.768 245.481 166.405 245.761C166.041 246.042 165.786 246.341 165.638 246.659L164.365 246.205C164.592 245.674 164.895 245.261 165.274 244.966C165.657 244.667 166.073 244.458 166.524 244.341C166.979 244.22 167.426 244.159 167.865 244.159C168.145 244.159 168.467 244.193 168.831 244.261C169.198 244.326 169.553 244.46 169.893 244.665C170.238 244.869 170.524 245.178 170.751 245.591C170.979 246.004 171.092 246.557 171.092 247.25V253H169.751V251.818H169.683C169.592 252.008 169.441 252.21 169.229 252.426C169.017 252.642 168.734 252.826 168.382 252.977C168.03 253.129 167.6 253.205 167.092 253.205ZM167.297 252C167.827 252 168.274 251.896 168.638 251.688C169.005 251.479 169.282 251.21 169.467 250.881C169.657 250.551 169.751 250.205 169.751 249.841V248.614C169.695 248.682 169.57 248.744 169.376 248.801C169.187 248.854 168.967 248.902 168.717 248.943C168.471 248.981 168.231 249.015 167.996 249.045C167.765 249.072 167.577 249.095 167.433 249.114C167.085 249.159 166.759 249.233 166.456 249.335C166.157 249.434 165.914 249.583 165.729 249.784C165.547 249.981 165.456 250.25 165.456 250.591C165.456 251.057 165.628 251.409 165.973 251.648C166.321 251.883 166.763 252 167.297 252ZM173.54 244.273H174.881V251.75H178.176V244.273H179.517V251.75H182.812V244.273H184.153V253H173.54V244.273ZM187.943 251.023L192.148 244.273H193.693V253H192.352V246.25L188.17 253H186.602V244.273H187.943V251.023ZM197.149 244.273L199.24 247.841L201.331 244.273H202.876L200.058 248.636L202.876 253H201.331L199.24 249.614L197.149 253H195.604L198.376 248.636L195.604 244.273H197.149ZM208.744 250.773H210.176C210.206 251.167 210.384 251.466 210.71 251.67C211.04 251.875 211.468 251.977 211.994 251.977C212.532 251.977 212.992 251.867 213.375 251.648C213.758 251.424 213.949 251.064 213.949 250.568C213.949 250.277 213.877 250.023 213.733 249.807C213.589 249.587 213.386 249.417 213.125 249.295C212.864 249.174 212.555 249.114 212.199 249.114H210.699V247.909H212.199C212.733 247.909 213.127 247.788 213.381 247.545C213.638 247.303 213.767 247 213.767 246.636C213.767 246.246 213.629 245.934 213.352 245.699C213.076 245.46 212.684 245.341 212.176 245.341C211.665 245.341 211.239 245.456 210.898 245.688C210.557 245.915 210.377 246.208 210.358 246.568H208.949C208.964 246.098 209.108 245.684 209.381 245.324C209.653 244.96 210.025 244.676 210.494 244.472C210.964 244.263 211.502 244.159 212.108 244.159C212.722 244.159 213.254 244.267 213.705 244.483C214.159 244.695 214.509 244.985 214.756 245.352C215.006 245.716 215.131 246.129 215.131 246.591C215.131 247.083 214.992 247.481 214.716 247.784C214.439 248.087 214.093 248.303 213.676 248.432V248.523C214.006 248.545 214.292 248.652 214.534 248.841C214.78 249.027 214.972 249.271 215.108 249.574C215.244 249.873 215.312 250.205 215.312 250.568C215.312 251.098 215.17 251.561 214.886 251.955C214.602 252.345 214.212 252.648 213.716 252.864C213.22 253.076 212.653 253.182 212.017 253.182C211.4 253.182 210.847 253.081 210.358 252.881C209.869 252.676 209.481 252.394 209.193 252.034C208.909 251.67 208.759 251.25 208.744 250.773ZM219.764 253.205C219.211 253.205 218.709 253.1 218.259 252.892C217.808 252.68 217.45 252.375 217.185 251.977C216.92 251.576 216.787 251.091 216.787 250.523C216.787 250.023 216.885 249.617 217.082 249.307C217.279 248.992 217.543 248.746 217.872 248.568C218.202 248.39 218.565 248.258 218.963 248.17C219.365 248.08 219.768 248.008 220.173 247.955C220.704 247.886 221.134 247.835 221.463 247.801C221.796 247.763 222.039 247.701 222.19 247.614C222.346 247.527 222.423 247.375 222.423 247.159V247.114C222.423 246.553 222.27 246.117 221.963 245.807C221.66 245.496 221.2 245.341 220.582 245.341C219.942 245.341 219.44 245.481 219.077 245.761C218.713 246.042 218.457 246.341 218.31 246.659L217.037 246.205C217.264 245.674 217.567 245.261 217.946 244.966C218.329 244.667 218.745 244.458 219.196 244.341C219.651 244.22 220.098 244.159 220.537 244.159C220.817 244.159 221.139 244.193 221.503 244.261C221.87 244.326 222.224 244.46 222.565 244.665C222.91 244.869 223.196 245.178 223.423 245.591C223.651 246.004 223.764 246.557 223.764 247.25V253H222.423V251.818H222.355C222.264 252.008 222.113 252.21 221.901 252.426C221.688 252.642 221.406 252.826 221.054 252.977C220.702 253.129 220.272 253.205 219.764 253.205ZM219.969 252C220.499 252 220.946 251.896 221.31 251.688C221.677 251.479 221.954 251.21 222.139 250.881C222.329 250.551 222.423 250.205 222.423 249.841V248.614C222.366 248.682 222.241 248.744 222.048 248.801C221.859 248.854 221.639 248.902 221.389 248.943C221.143 248.981 220.902 249.015 220.668 249.045C220.437 249.072 220.249 249.095 220.105 249.114C219.757 249.159 219.431 249.233 219.128 249.335C218.829 249.434 218.586 249.583 218.401 249.784C218.219 249.981 218.128 250.25 218.128 250.591C218.128 251.057 218.3 251.409 218.645 251.648C218.993 251.883 219.435 252 219.969 252ZM226.212 253V244.273H227.553V248.068H228.439L231.575 244.273H233.303L229.78 248.477L233.348 253H231.621L228.757 249.318H227.553V253H226.212ZM237.374 253.205C236.821 253.205 236.319 253.1 235.868 252.892C235.417 252.68 235.059 252.375 234.794 251.977C234.529 251.576 234.396 251.091 234.396 250.523C234.396 250.023 234.495 249.617 234.692 249.307C234.889 248.992 235.152 248.746 235.482 248.568C235.811 248.39 236.175 248.258 236.572 248.17C236.974 248.08 237.377 248.008 237.783 247.955C238.313 247.886 238.743 247.835 239.072 247.801C239.406 247.763 239.648 247.701 239.8 247.614C239.955 247.527 240.033 247.375 240.033 247.159V247.114C240.033 246.553 239.879 246.117 239.572 245.807C239.269 245.496 238.809 245.341 238.192 245.341C237.552 245.341 237.05 245.481 236.686 245.761C236.322 246.042 236.067 246.341 235.919 246.659L234.646 246.205C234.874 245.674 235.177 245.261 235.555 244.966C235.938 244.667 236.355 244.458 236.805 244.341C237.26 244.22 237.707 244.159 238.146 244.159C238.427 244.159 238.749 244.193 239.112 244.261C239.48 244.326 239.834 244.46 240.175 244.665C240.519 244.869 240.805 245.178 241.033 245.591C241.26 246.004 241.374 246.557 241.374 247.25V253H240.033V251.818H239.964C239.874 252.008 239.722 252.21 239.51 252.426C239.298 252.642 239.016 252.826 238.663 252.977C238.311 253.129 237.881 253.205 237.374 253.205ZM237.578 252C238.108 252 238.555 251.896 238.919 251.688C239.286 251.479 239.563 251.21 239.749 250.881C239.938 250.551 240.033 250.205 240.033 249.841V248.614C239.976 248.682 239.851 248.744 239.658 248.801C239.468 248.854 239.249 248.902 238.999 248.943C238.752 248.981 238.512 249.015 238.277 249.045C238.046 249.072 237.858 249.095 237.714 249.114C237.366 249.159 237.04 249.233 236.737 249.335C236.438 249.434 236.196 249.583 236.01 249.784C235.828 249.981 235.737 250.25 235.737 250.591C235.737 251.057 235.91 251.409 236.254 251.648C236.603 251.883 237.044 252 237.578 252ZM243.276 250.773H244.707C244.738 251.167 244.916 251.466 245.241 251.67C245.571 251.875 245.999 251.977 246.526 251.977C247.063 251.977 247.524 251.867 247.906 251.648C248.289 251.424 248.48 251.064 248.48 250.568C248.48 250.277 248.408 250.023 248.264 249.807C248.12 249.587 247.918 249.417 247.656 249.295C247.395 249.174 247.086 249.114 246.73 249.114H245.23V247.909H246.73C247.264 247.909 247.658 247.788 247.912 247.545C248.17 247.303 248.298 247 248.298 246.636C248.298 246.246 248.16 245.934 247.884 245.699C247.607 245.46 247.215 245.341 246.707 245.341C246.196 245.341 245.77 245.456 245.429 245.688C245.088 245.915 244.908 246.208 244.889 246.568H243.48C243.495 246.098 243.639 245.684 243.912 245.324C244.185 244.96 244.556 244.676 245.026 244.472C245.495 244.263 246.033 244.159 246.639 244.159C247.253 244.159 247.785 244.267 248.236 244.483C248.69 244.695 249.041 244.985 249.287 245.352C249.537 245.716 249.662 246.129 249.662 246.591C249.662 247.083 249.524 247.481 249.247 247.784C248.971 248.087 248.624 248.303 248.207 248.432V248.523C248.537 248.545 248.823 248.652 249.065 248.841C249.312 249.027 249.503 249.271 249.639 249.574C249.776 249.873 249.844 250.205 249.844 250.568C249.844 251.098 249.702 251.561 249.418 251.955C249.134 252.345 248.743 252.648 248.247 252.864C247.751 253.076 247.185 253.182 246.548 253.182C245.931 253.182 245.378 253.081 244.889 252.881C244.401 252.676 244.012 252.394 243.724 252.034C243.44 251.67 243.291 251.25 243.276 250.773ZM255.273 253.182C254.485 253.182 253.794 252.994 253.199 252.619C252.608 252.244 252.146 251.72 251.812 251.045C251.483 250.371 251.318 249.583 251.318 248.682C251.318 247.773 251.483 246.979 251.812 246.301C252.146 245.623 252.608 245.097 253.199 244.722C253.794 244.347 254.485 244.159 255.273 244.159C256.061 244.159 256.75 244.347 257.341 244.722C257.936 245.097 258.398 245.623 258.727 246.301C259.061 246.979 259.227 247.773 259.227 248.682C259.227 249.583 259.061 250.371 258.727 251.045C258.398 251.72 257.936 252.244 257.341 252.619C256.75 252.994 256.061 253.182 255.273 253.182ZM255.273 251.977C255.871 251.977 256.364 251.824 256.75 251.517C257.136 251.21 257.422 250.807 257.608 250.307C257.794 249.807 257.886 249.265 257.886 248.682C257.886 248.098 257.794 247.555 257.608 247.051C257.422 246.547 257.136 246.14 256.75 245.83C256.364 245.519 255.871 245.364 255.273 245.364C254.674 245.364 254.182 245.519 253.795 245.83C253.409 246.14 253.123 246.547 252.938 247.051C252.752 247.555 252.659 248.098 252.659 248.682C252.659 249.265 252.752 249.807 252.938 250.307C253.123 250.807 253.409 251.21 253.795 251.517C254.182 251.824 254.674 251.977 255.273 251.977ZM261.274 253V244.273H264.842C265.782 244.273 266.528 244.485 267.081 244.909C267.634 245.333 267.911 245.894 267.911 246.591C267.911 247.121 267.753 247.532 267.439 247.824C267.125 248.112 266.721 248.307 266.229 248.409C266.551 248.455 266.863 248.568 267.166 248.75C267.473 248.932 267.727 249.182 267.928 249.5C268.128 249.814 268.229 250.201 268.229 250.659C268.229 251.106 268.115 251.506 267.888 251.858C267.661 252.21 267.335 252.489 266.911 252.693C266.486 252.898 265.979 253 265.388 253H261.274ZM262.547 251.773H265.388C265.85 251.773 266.212 251.663 266.473 251.443C266.734 251.223 266.865 250.924 266.865 250.545C266.865 250.095 266.734 249.741 266.473 249.483C266.212 249.222 265.85 249.091 265.388 249.091H262.547V251.773ZM262.547 247.932H264.842C265.202 247.932 265.511 247.883 265.768 247.784C266.026 247.682 266.223 247.538 266.359 247.352C266.5 247.163 266.57 246.939 266.57 246.682C266.57 246.314 266.416 246.027 266.109 245.818C265.803 245.606 265.38 245.5 264.842 245.5H262.547V247.932ZM74.5398 275V266.273H81.4034V275H80.0625V267.523H75.8807V275H74.5398ZM83.8523 278.273V266.273H85.1477V267.659H85.3068C85.4053 267.508 85.5417 267.314 85.7159 267.08C85.8939 266.841 86.1477 266.629 86.4773 266.443C86.8106 266.254 87.2614 266.159 87.8295 266.159C88.5644 266.159 89.2121 266.343 89.7727 266.71C90.3333 267.078 90.7708 267.598 91.0852 268.273C91.3996 268.947 91.5568 269.742 91.5568 270.659C91.5568 271.583 91.3996 272.384 91.0852 273.062C90.7708 273.737 90.3352 274.259 89.7784 274.631C89.2216 274.998 88.5795 275.182 87.8523 275.182C87.2917 275.182 86.8428 275.089 86.5057 274.903C86.1686 274.714 85.9091 274.5 85.7273 274.261C85.5455 274.019 85.4053 273.818 85.3068 273.659H85.1932V278.273H83.8523ZM85.1705 270.636C85.1705 271.295 85.267 271.877 85.4602 272.381C85.6534 272.881 85.9356 273.273 86.3068 273.557C86.678 273.837 87.1326 273.977 87.6705 273.977C88.2311 273.977 88.6989 273.83 89.0739 273.534C89.4527 273.235 89.7367 272.833 89.9261 272.33C90.1193 271.822 90.2159 271.258 90.2159 270.636C90.2159 270.023 90.1212 269.47 89.9318 268.977C89.7462 268.481 89.464 268.089 89.0852 267.801C88.7102 267.509 88.2386 267.364 87.6705 267.364C87.125 267.364 86.6667 267.502 86.2955 267.778C85.9242 268.051 85.6439 268.434 85.4545 268.926C85.2652 269.415 85.1705 269.985 85.1705 270.636ZM97.2614 275.182C96.4205 275.182 95.6951 274.996 95.0852 274.625C94.4792 274.25 94.0114 273.727 93.6818 273.057C93.3561 272.383 93.1932 271.598 93.1932 270.705C93.1932 269.811 93.3561 269.023 93.6818 268.341C94.0114 267.655 94.4697 267.121 95.0568 266.739C95.6477 266.352 96.3371 266.159 97.125 266.159C97.5795 266.159 98.0284 266.235 98.4716 266.386C98.9148 266.538 99.3182 266.784 99.6818 267.125C100.045 267.462 100.335 267.909 100.551 268.466C100.767 269.023 100.875 269.708 100.875 270.523V271.091H94.1477V269.932H99.5114C99.5114 269.439 99.4129 269 99.2159 268.614C99.0227 268.227 98.7462 267.922 98.3864 267.699C98.0303 267.475 97.6098 267.364 97.125 267.364C96.5909 267.364 96.1288 267.496 95.7386 267.761C95.3523 268.023 95.0549 268.364 94.8466 268.784C94.6383 269.205 94.5341 269.655 94.5341 270.136V270.909C94.5341 271.568 94.6477 272.127 94.875 272.585C95.1061 273.04 95.4261 273.386 95.8352 273.625C96.2443 273.86 96.7197 273.977 97.2614 273.977C97.6136 273.977 97.9318 273.928 98.2159 273.83C98.5038 273.727 98.7519 273.576 98.9602 273.375C99.1686 273.17 99.3295 272.917 99.4432 272.614L100.739 272.977C100.602 273.417 100.373 273.803 100.051 274.136C99.7292 274.466 99.3314 274.723 98.858 274.909C98.3845 275.091 97.8523 275.182 97.2614 275.182ZM102.915 275V266.273H106.483C107.422 266.273 108.169 266.485 108.722 266.909C109.275 267.333 109.551 267.894 109.551 268.591C109.551 269.121 109.394 269.532 109.08 269.824C108.765 270.112 108.362 270.307 107.869 270.409C108.191 270.455 108.504 270.568 108.807 270.75C109.114 270.932 109.367 271.182 109.568 271.5C109.769 271.814 109.869 272.201 109.869 272.659C109.869 273.106 109.756 273.506 109.528 273.858C109.301 274.21 108.975 274.489 108.551 274.693C108.127 274.898 107.619 275 107.028 275H102.915ZM104.188 273.773H107.028C107.491 273.773 107.852 273.663 108.114 273.443C108.375 273.223 108.506 272.924 108.506 272.545C108.506 272.095 108.375 271.741 108.114 271.483C107.852 271.222 107.491 271.091 107.028 271.091H104.188V273.773ZM104.188 269.932H106.483C106.843 269.932 107.152 269.883 107.409 269.784C107.667 269.682 107.864 269.538 108 269.352C108.14 269.163 108.21 268.939 108.21 268.682C108.21 268.314 108.057 268.027 107.75 267.818C107.443 267.606 107.021 267.5 106.483 267.5H104.188V269.932ZM113.058 269.432H115.558C116.581 269.432 117.363 269.691 117.905 270.21C118.446 270.729 118.717 271.386 118.717 272.182C118.717 272.705 118.596 273.18 118.354 273.608C118.111 274.032 117.755 274.371 117.286 274.625C116.816 274.875 116.24 275 115.558 275H111.899V266.273H113.24V273.75H115.558C116.089 273.75 116.524 273.61 116.865 273.33C117.206 273.049 117.376 272.689 117.376 272.25C117.376 271.788 117.206 271.411 116.865 271.119C116.524 270.828 116.089 270.682 115.558 270.682H113.058V269.432ZM120.104 275V266.273H121.445V275H120.104ZM123.899 266.273H125.24V273.75H128.536V266.273H129.876V273.75H133.172V266.273H134.513V275H123.899V266.273ZM139.53 275.205C138.977 275.205 138.475 275.1 138.024 274.892C137.573 274.68 137.215 274.375 136.95 273.977C136.685 273.576 136.553 273.091 136.553 272.523C136.553 272.023 136.651 271.617 136.848 271.307C137.045 270.992 137.308 270.746 137.638 270.568C137.967 270.39 138.331 270.258 138.729 270.17C139.13 270.08 139.534 270.008 139.939 269.955C140.469 269.886 140.899 269.835 141.229 269.801C141.562 269.763 141.804 269.701 141.956 269.614C142.111 269.527 142.189 269.375 142.189 269.159V269.114C142.189 268.553 142.036 268.117 141.729 267.807C141.426 267.496 140.965 267.341 140.348 267.341C139.708 267.341 139.206 267.481 138.842 267.761C138.479 268.042 138.223 268.341 138.075 268.659L136.803 268.205C137.03 267.674 137.333 267.261 137.712 266.966C138.094 266.667 138.511 266.458 138.962 266.341C139.416 266.22 139.863 266.159 140.303 266.159C140.583 266.159 140.905 266.193 141.268 266.261C141.636 266.326 141.99 266.46 142.331 266.665C142.676 266.869 142.962 267.178 143.189 267.591C143.416 268.004 143.53 268.557 143.53 269.25V275H142.189V273.818H142.121C142.03 274.008 141.878 274.21 141.666 274.426C141.454 274.642 141.172 274.826 140.82 274.977C140.467 275.129 140.037 275.205 139.53 275.205ZM139.734 274C140.265 274 140.712 273.896 141.075 273.688C141.443 273.479 141.719 273.21 141.905 272.881C142.094 272.551 142.189 272.205 142.189 271.841V270.614C142.132 270.682 142.007 270.744 141.814 270.801C141.625 270.854 141.405 270.902 141.155 270.943C140.909 270.981 140.668 271.015 140.433 271.045C140.202 271.072 140.015 271.095 139.871 271.114C139.522 271.159 139.196 271.233 138.893 271.335C138.594 271.434 138.352 271.583 138.166 271.784C137.984 271.981 137.893 272.25 137.893 272.591C137.893 273.057 138.066 273.409 138.411 273.648C138.759 273.883 139.2 274 139.734 274ZM149.636 275.182C148.795 275.182 148.07 274.996 147.46 274.625C146.854 274.25 146.386 273.727 146.057 273.057C145.731 272.383 145.568 271.598 145.568 270.705C145.568 269.811 145.731 269.023 146.057 268.341C146.386 267.655 146.845 267.121 147.432 266.739C148.023 266.352 148.712 266.159 149.5 266.159C149.955 266.159 150.403 266.235 150.847 266.386C151.29 266.538 151.693 266.784 152.057 267.125C152.42 267.462 152.71 267.909 152.926 268.466C153.142 269.023 153.25 269.708 153.25 270.523V271.091H146.523V269.932H151.886C151.886 269.439 151.788 269 151.591 268.614C151.398 268.227 151.121 267.922 150.761 267.699C150.405 267.475 149.985 267.364 149.5 267.364C148.966 267.364 148.504 267.496 148.114 267.761C147.727 268.023 147.43 268.364 147.222 268.784C147.013 269.205 146.909 269.655 146.909 270.136V270.909C146.909 271.568 147.023 272.127 147.25 272.585C147.481 273.04 147.801 273.386 148.21 273.625C148.619 273.86 149.095 273.977 149.636 273.977C149.989 273.977 150.307 273.928 150.591 273.83C150.879 273.727 151.127 273.576 151.335 273.375C151.544 273.17 151.705 272.917 151.818 272.614L153.114 272.977C152.977 273.417 152.748 273.803 152.426 274.136C152.104 274.466 151.706 274.723 151.233 274.909C150.759 275.091 150.227 275.182 149.636 275.182ZM154.477 267.523V266.273H161.568V267.523H158.705V275H157.364V267.523H154.477ZM171.638 275.159C170.971 275.159 170.371 275.027 169.837 274.761C169.303 274.496 168.875 274.133 168.553 273.67C168.231 273.208 168.054 272.682 168.024 272.091H169.388C169.441 272.617 169.679 273.053 170.104 273.398C170.532 273.739 171.043 273.909 171.638 273.909C172.115 273.909 172.539 273.797 172.911 273.574C173.286 273.35 173.579 273.044 173.791 272.653C174.007 272.259 174.115 271.814 174.115 271.318C174.115 270.811 174.003 270.358 173.78 269.96C173.56 269.559 173.257 269.242 172.871 269.011C172.484 268.78 172.043 268.663 171.547 268.659C171.191 268.655 170.825 268.71 170.45 268.824C170.075 268.934 169.767 269.076 169.524 269.25L168.206 269.091L168.911 263.364H174.956V264.614H170.092L169.683 268.045H169.751C169.99 267.856 170.289 267.699 170.649 267.574C171.009 267.449 171.384 267.386 171.774 267.386C172.486 267.386 173.121 267.557 173.678 267.898C174.238 268.235 174.678 268.697 174.996 269.284C175.318 269.871 175.479 270.542 175.479 271.295C175.479 272.038 175.312 272.701 174.979 273.284C174.649 273.864 174.195 274.322 173.615 274.659C173.036 274.992 172.376 275.159 171.638 275.159ZM181.531 275.159C180.675 275.159 179.946 274.926 179.344 274.46C178.741 273.991 178.281 273.311 177.963 272.42C177.645 271.527 177.486 270.447 177.486 269.182C177.486 267.924 177.645 266.85 177.963 265.96C178.285 265.066 178.747 264.384 179.349 263.915C179.955 263.441 180.683 263.205 181.531 263.205C182.38 263.205 183.105 263.441 183.707 263.915C184.313 264.384 184.776 265.066 185.094 265.96C185.416 266.85 185.577 267.924 185.577 269.182C185.577 270.447 185.418 271.527 185.099 272.42C184.781 273.311 184.321 273.991 183.719 274.46C183.116 274.926 182.387 275.159 181.531 275.159ZM181.531 273.909C182.38 273.909 183.039 273.5 183.509 272.682C183.978 271.864 184.213 270.697 184.213 269.182C184.213 268.174 184.105 267.316 183.889 266.608C183.677 265.9 183.37 265.36 182.969 264.989C182.571 264.617 182.092 264.432 181.531 264.432C180.69 264.432 180.033 264.847 179.56 265.676C179.086 266.502 178.849 267.67 178.849 269.182C178.849 270.189 178.955 271.045 179.168 271.75C179.38 272.455 179.685 272.991 180.082 273.358C180.484 273.725 180.967 273.909 181.531 273.909ZM196.031 275.159C195.175 275.159 194.446 274.926 193.844 274.46C193.241 273.991 192.781 273.311 192.463 272.42C192.145 271.527 191.986 270.447 191.986 269.182C191.986 267.924 192.145 266.85 192.463 265.96C192.785 265.066 193.247 264.384 193.849 263.915C194.455 263.441 195.183 263.205 196.031 263.205C196.88 263.205 197.605 263.441 198.207 263.915C198.813 264.384 199.276 265.066 199.594 265.96C199.916 266.85 200.077 267.924 200.077 269.182C200.077 270.447 199.918 271.527 199.599 272.42C199.281 273.311 198.821 273.991 198.219 274.46C197.616 274.926 196.887 275.159 196.031 275.159ZM196.031 273.909C196.88 273.909 197.539 273.5 198.009 272.682C198.478 271.864 198.713 270.697 198.713 269.182C198.713 268.174 198.605 267.316 198.389 266.608C198.177 265.9 197.87 265.36 197.469 264.989C197.071 264.617 196.592 264.432 196.031 264.432C195.19 264.432 194.533 264.847 194.06 265.676C193.586 266.502 193.349 267.67 193.349 269.182C193.349 270.189 193.455 271.045 193.668 271.75C193.88 272.455 194.185 272.991 194.582 273.358C194.984 273.725 195.467 273.909 196.031 273.909ZM206.031 275.159C205.175 275.159 204.446 274.926 203.844 274.46C203.241 273.991 202.781 273.311 202.463 272.42C202.145 271.527 201.986 270.447 201.986 269.182C201.986 267.924 202.145 266.85 202.463 265.96C202.785 265.066 203.247 264.384 203.849 263.915C204.455 263.441 205.183 263.205 206.031 263.205C206.88 263.205 207.605 263.441 208.207 263.915C208.813 264.384 209.276 265.066 209.594 265.96C209.916 266.85 210.077 267.924 210.077 269.182C210.077 270.447 209.918 271.527 209.599 272.42C209.281 273.311 208.821 273.991 208.219 274.46C207.616 274.926 206.887 275.159 206.031 275.159ZM206.031 273.909C206.88 273.909 207.539 273.5 208.009 272.682C208.478 271.864 208.713 270.697 208.713 269.182C208.713 268.174 208.605 267.316 208.389 266.608C208.177 265.9 207.87 265.36 207.469 264.989C207.071 264.617 206.592 264.432 206.031 264.432C205.19 264.432 204.533 264.847 204.06 265.676C203.586 266.502 203.349 267.67 203.349 269.182C203.349 270.189 203.455 271.045 203.668 271.75C203.88 272.455 204.185 272.991 204.582 273.358C204.984 273.725 205.467 273.909 206.031 273.909ZM216.031 275.159C215.175 275.159 214.446 274.926 213.844 274.46C213.241 273.991 212.781 273.311 212.463 272.42C212.145 271.527 211.986 270.447 211.986 269.182C211.986 267.924 212.145 266.85 212.463 265.96C212.785 265.066 213.247 264.384 213.849 263.915C214.455 263.441 215.183 263.205 216.031 263.205C216.88 263.205 217.605 263.441 218.207 263.915C218.813 264.384 219.276 265.066 219.594 265.96C219.916 266.85 220.077 267.924 220.077 269.182C220.077 270.447 219.918 271.527 219.599 272.42C219.281 273.311 218.821 273.991 218.219 274.46C217.616 274.926 216.887 275.159 216.031 275.159ZM216.031 273.909C216.88 273.909 217.539 273.5 218.009 272.682C218.478 271.864 218.713 270.697 218.713 269.182C218.713 268.174 218.605 267.316 218.389 266.608C218.177 265.9 217.87 265.36 217.469 264.989C217.071 264.617 216.592 264.432 216.031 264.432C215.19 264.432 214.533 264.847 214.06 265.676C213.586 266.502 213.349 267.67 213.349 269.182C213.349 270.189 213.455 271.045 213.668 271.75C213.88 272.455 214.185 272.991 214.582 273.358C214.984 273.725 215.467 273.909 216.031 273.909ZM232.031 270.273H226.122V269.023H232.031C232.577 269.023 233.027 268.928 233.384 268.739C233.74 268.545 234.005 268.284 234.179 267.955C234.353 267.621 234.44 267.242 234.44 266.818C234.44 266.394 234.353 266.017 234.179 265.688C234.005 265.354 233.74 265.093 233.384 264.903C233.027 264.71 232.577 264.614 232.031 264.614H229.372V275H227.963V263.364H232.031C232.895 263.364 233.607 263.521 234.168 263.835C234.728 264.15 235.145 264.568 235.418 265.091C235.69 265.614 235.827 266.189 235.827 266.818C235.827 267.447 235.69 268.023 235.418 268.545C235.145 269.068 234.728 269.487 234.168 269.801C233.607 270.116 232.895 270.273 232.031 270.273ZM231.94 271.364V272.614H226.122V271.364H231.94Z" fill="white"/>
</svg>
