<svg width="40" height="40" viewBox="0 0 40 40" fill="none" xmlns="http://www.w3.org/2000/svg">
<path d="M28.9698 9.58398C29.4294 9.58398 29.8234 10.0006 29.8234 10.4867C29.8234 10.9728 29.4294 11.3895 28.9698 11.3895C28.5102 11.3895 28.1162 10.9728 28.1162 10.4867C28.1162 10.0006 28.5102 9.58398 28.9698 9.58398Z" fill="#FBBB1F"/>
<path d="M15.7061 1.73633C16.1658 1.73633 16.5597 2.15299 16.5597 2.63909C16.5597 3.12519 16.1658 3.54185 15.7061 3.54185C15.2465 3.54185 14.8525 3.12519 14.8525 2.63909C14.8525 2.15299 15.1808 1.73633 15.7061 1.73633Z" fill="#FBBB1F"/>
<path d="M5.72468 5.20703C6.18431 5.20703 6.57826 5.62369 6.57826 6.10979C6.57826 6.59589 6.18431 7.01255 5.72468 7.01255C5.26506 7.01255 4.87109 6.59589 4.87109 6.10979C4.87109 5.62369 5.26506 5.20703 5.72468 5.20703Z" fill="#FBBB1F"/>
<path d="M3.23054 13.9579C3.70197 13.9579 4.08413 13.5537 4.08413 13.0551C4.08413 12.5565 3.70197 12.1523 3.23054 12.1523C2.75912 12.1523 2.37695 12.5565 2.37695 13.0551C2.37695 13.5537 2.75912 13.9579 3.23054 13.9579Z" fill="#FBBB1F"/>
<path d="M9.86139 37.3594C10.321 37.3594 10.715 37.776 10.715 38.2621C10.715 38.7482 10.321 39.1649 9.86139 39.1649C9.40177 39.1649 9.00781 38.7482 9.00781 38.2621C9.00781 37.776 9.33611 37.3594 9.86139 37.3594Z" fill="#FBBB1F"/>
<path d="M2.378 26.9434C2.83763 26.9434 3.23159 27.36 3.23159 27.8461C3.23159 28.3322 2.83763 28.7489 2.378 28.7489C1.91838 28.7489 1.52441 28.3322 1.52441 27.8461C1.52441 27.36 1.91838 26.9434 2.378 26.9434Z" fill="#FBBB1F"/>
<path d="M34.7471 0.902344C35.2068 0.902344 35.6007 1.319 35.6007 1.8051C35.6007 2.2912 35.2068 2.70786 34.7471 2.70786C34.2875 2.70786 33.8936 2.2912 33.8936 1.8051C33.8936 1.319 34.2875 0.902344 34.7471 0.902344Z" fill="#FBBB1F"/>
<path d="M30.6104 34.7227C31.07 34.7227 31.464 35.1393 31.464 35.6254C31.464 36.1115 31.07 36.5282 30.6104 36.5282C30.1508 36.5282 29.7568 36.1115 29.7568 35.6254C29.7568 35.1393 30.1508 34.7227 30.6104 34.7227Z" fill="#FBBB1F"/>
<path d="M38.9494 13.9581H28.2468C28.1811 13.9581 28.5751 13.9581 20.8928 13.9581L23.9132 8.88879C24.1758 8.47213 24.0445 7.91659 23.6505 7.70826L19.3826 4.99998C18.9886 4.72221 18.4633 4.8611 18.2664 5.27776L13.0135 14.097C13.0135 12.6387 12.8165 11.4582 12.4882 10.486C11.8316 8.33325 10.7811 7.01383 10.7154 6.94438C10.5184 6.66661 10.1244 6.59717 9.86181 6.66662C9.5335 6.8055 9.33653 7.08327 9.27087 7.43048L9.00823 10.0693L7.10407 10.1388C6.7101 10.1388 6.3818 10.486 6.31614 10.8332C6.25048 11.2499 6.44746 11.6665 6.84143 11.8054C8.5486 12.4998 9.73049 16.3192 10.1245 18.333C8.2203 18.8886 4.41199 19.5136 3.09878 18.1941C2.83614 17.9164 2.37651 17.8469 2.04821 18.1247C1.7199 18.333 1.58859 18.8191 1.78557 19.1663L2.57349 20.9719L0.406693 22.3607C0.144051 22.569 -0.0529347 22.9163 0.0127258 23.194C0.0783863 23.5413 0.275374 23.819 0.603677 23.8885C0.669337 23.8885 1.45727 24.1662 2.77048 24.1662C4.54331 24.1662 6.25048 23.7496 7.82634 22.9163L1.7199 33.2633C1.45726 33.6799 1.58858 34.2355 1.98254 34.4438L6.25048 37.1521C6.64444 37.4298 7.16973 37.2909 7.36671 36.8743L11.7003 29.7217V39.0965C11.7003 39.5826 12.0943 39.9992 12.5539 39.9992C13.6701 39.9992 37.9645 39.9992 39.1464 39.9992C39.606 39.9992 40 39.5826 40 39.0965V14.7914C39.7374 14.3053 39.3434 13.9581 38.9494 13.9581ZM38.0958 18.2636H28.969V15.6942H38.1615V18.2636H38.0958ZM9.79615 11.736C10.1901 11.736 10.5184 11.3887 10.5841 10.9721L10.6497 10.2776C11.175 11.6665 11.569 13.5415 11.175 15.8331C10.7811 14.4442 10.1901 12.9165 9.33653 11.8054L9.79615 11.736ZM3.36142 22.4302L3.95236 22.0829C4.28066 21.8746 4.41198 21.3885 4.28066 20.9719L4.08369 20.5552C5.3969 20.833 7.03841 20.6941 8.35162 20.4858C7.10407 21.458 5.13425 22.2913 3.36142 22.4302ZM6.25048 35.2771L3.42708 33.4716L19.1856 6.87495L22.009 8.68046C21.2867 9.93043 6.84142 34.2355 6.25048 35.2771ZM19.7766 15.6942H22.206V18.2636H19.7766C19.3169 18.2636 18.923 18.6802 18.923 19.1663C18.923 19.6524 19.3169 20.0691 19.7766 20.0691H22.2717V34.8604H13.0792V26.944L19.7766 15.6942ZM13.1448 36.5271H22.3373V38.2631H13.1448V36.5271ZM23.9788 38.2631V15.6942H27.3275V38.2631H23.9788ZM28.969 38.2631V19.9997H38.1615V34.791H33.1056C32.646 34.791 32.2521 35.2077 32.2521 35.6938C32.2521 36.1799 32.646 36.5965 33.1056 36.5965H38.0958V38.3326H28.969V38.2631Z" fill="#FBBB1F"/>
<path d="M34.7471 11.3195C36.1259 11.3195 37.2422 10.139 37.2422 8.68071C37.2422 7.22241 36.1259 6.11133 34.7471 6.11133C33.3682 6.11133 32.252 7.29186 32.252 8.75016C32.252 10.2085 33.3682 11.3195 34.7471 11.3195ZM34.7471 7.8474C35.2067 7.8474 35.6006 8.26406 35.6006 8.75016C35.6006 9.23626 35.2067 9.58347 34.7471 9.58347C34.2874 9.58347 33.8935 9.16681 33.8935 8.68071C33.8935 8.19461 34.2874 7.8474 34.7471 7.8474Z" fill="#FBBB1F"/>
<path d="M27.7213 6.11098C29.2972 6.11098 30.6761 4.72213 30.6761 3.0555C30.6761 1.38886 29.3628 0 27.7213 0C26.1455 0 24.7666 1.38886 24.7666 3.0555C24.7666 4.72213 26.0798 6.11098 27.7213 6.11098ZM27.7213 1.80552C28.3779 1.80552 28.9689 2.36106 28.9689 3.12493C28.9689 3.8888 28.4436 4.44435 27.7213 4.44435C26.9991 4.44435 26.4738 3.81937 26.4738 3.0555C26.4738 2.29162 26.9991 1.80552 27.7213 1.80552Z" fill="#FBBB1F"/>
</svg>
