<svg width="310" height="310" viewBox="0 0 310 310" fill="none" xmlns="http://www.w3.org/2000/svg">
<rect width="310" height="310" rx="20" fill="#FBBB1F"/>
<path fill-rule="evenodd" clip-rule="evenodd" d="M153.329 35.4769C153.934 33.9712 156.065 33.9712 156.67 35.4769L161.383 47.2143L174.003 48.07C175.622 48.1798 176.28 50.2069 175.035 51.2472L165.329 59.357L168.415 71.6233C168.81 73.1968 167.086 74.4496 165.712 73.5869L155 66.8616L144.287 73.5869C142.913 74.4496 141.189 73.1968 141.585 71.6233L144.67 59.357L134.964 51.2472C133.719 50.2069 134.378 48.1798 135.996 48.07L148.616 47.2143L153.329 35.4769Z" fill="white"/>
<path d="M78.7225 110.3V125H76.3075V112.61H70.3225V125H67.9075V110.3H78.7225ZM86.4772 125.273C84.9372 125.273 83.6282 124.741 82.5502 123.677C81.4722 122.613 80.9332 121.304 80.9332 119.75C80.9332 118.196 81.4722 116.887 82.5502 115.823C83.6282 114.759 84.9372 114.227 86.4772 114.227C88.0312 114.227 89.3402 114.759 90.4042 115.823C91.4822 116.887 92.0212 118.196 92.0212 119.75C92.0212 121.304 91.4822 122.613 90.4042 123.677C89.3402 124.741 88.0312 125.273 86.4772 125.273ZM84.1462 122.123C84.7762 122.753 85.5532 123.068 86.4772 123.068C87.4012 123.068 88.1782 122.753 88.8082 122.123C89.4382 121.493 89.7532 120.702 89.7532 119.75C89.7532 118.798 89.4382 118.007 88.8082 117.377C88.1782 116.747 87.4012 116.432 86.4772 116.432C85.5532 116.432 84.7762 116.747 84.1462 117.377C83.5162 118.007 83.2012 118.798 83.2012 119.75C83.2012 120.702 83.5162 121.493 84.1462 122.123ZM99.028 125.273C97.446 125.273 96.123 124.741 95.059 123.677C94.009 122.613 93.484 121.304 93.484 119.75C93.484 118.182 94.009 116.873 95.059 115.823C96.123 114.759 97.446 114.227 99.028 114.227C100.05 114.227 100.981 114.472 101.821 114.962C102.661 115.452 103.291 116.11 103.711 116.936L101.758 118.07C101.52 117.566 101.156 117.174 100.666 116.894C100.19 116.6 99.637 116.453 99.007 116.453C98.083 116.453 97.306 116.768 96.676 117.398C96.06 118.028 95.752 118.812 95.752 119.75C95.752 120.688 96.06 121.472 96.676 122.102C97.306 122.732 98.083 123.047 99.007 123.047C99.623 123.047 100.176 122.9 100.666 122.606C101.17 122.312 101.548 121.92 101.8 121.43L103.753 122.543C103.305 123.383 102.661 124.048 101.821 124.538C100.981 125.028 100.05 125.273 99.028 125.273ZM113.312 114.5V116.684H109.889V125H107.621V116.684H104.177V114.5H113.312ZM119.392 125.273C117.852 125.273 116.543 124.741 115.465 123.677C114.387 122.613 113.848 121.304 113.848 119.75C113.848 118.196 114.387 116.887 115.465 115.823C116.543 114.759 117.852 114.227 119.392 114.227C120.946 114.227 122.255 114.759 123.319 115.823C124.397 116.887 124.936 118.196 124.936 119.75C124.936 121.304 124.397 122.613 123.319 123.677C122.255 124.741 120.946 125.273 119.392 125.273ZM117.061 122.123C117.691 122.753 118.468 123.068 119.392 123.068C120.316 123.068 121.093 122.753 121.723 122.123C122.353 121.493 122.668 120.702 122.668 119.75C122.668 118.798 122.353 118.007 121.723 117.377C121.093 116.747 120.316 116.432 119.392 116.432C118.468 116.432 117.691 116.747 117.061 117.377C116.431 118.007 116.116 118.798 116.116 119.75C116.116 120.702 116.431 121.493 117.061 122.123ZM134.704 114.5V125H132.478V121.472H131.218L128.551 125H125.884L128.719 121.262C127.991 121.024 127.403 120.604 126.955 120.002C126.521 119.4 126.304 118.728 126.304 117.986C126.304 117.02 126.647 116.201 127.333 115.529C128.033 114.843 128.929 114.5 130.021 114.5H134.704ZM130.147 119.519H132.478V116.558H130.147C129.685 116.558 129.3 116.691 128.992 116.957C128.684 117.223 128.53 117.587 128.53 118.049C128.53 118.497 128.684 118.854 128.992 119.12C129.3 119.386 129.685 119.519 130.147 119.519ZM144.421 114.5H146.689V125H144.421V120.821H139.612V125H137.344V114.5H139.612V118.679H144.421V114.5ZM156.397 114.5H158.665V125H156.397V120.821H151.588V125H149.32V114.5H151.588V118.679H156.397V114.5ZM165.875 118.07C166.995 118.07 167.912 118.392 168.626 119.036C169.34 119.666 169.697 120.499 169.697 121.535C169.697 122.557 169.34 123.39 168.626 124.034C167.912 124.678 166.995 125 165.875 125H161.297V114.5H163.565V118.07H165.875ZM170.957 114.5H173.225V125H170.957V114.5ZM165.896 122.963C166.344 122.963 166.715 122.83 167.009 122.564C167.317 122.298 167.471 121.955 167.471 121.535C167.471 121.101 167.317 120.758 167.009 120.506C166.715 120.24 166.344 120.107 165.896 120.107H163.565V122.963H165.896ZM177.579 113.03V111.056H183.459V113.03H177.579ZM183.459 114.5H185.202V125H182.976V118.322L177.6 125H175.857V114.5H178.083V121.157L183.459 114.5ZM200.119 114.5V116.684H195.352V125H193.084V114.5H200.119ZM206.202 125.273C204.662 125.273 203.353 124.741 202.275 123.677C201.197 122.613 200.658 121.304 200.658 119.75C200.658 118.196 201.197 116.887 202.275 115.823C203.353 114.759 204.662 114.227 206.202 114.227C207.756 114.227 209.065 114.759 210.129 115.823C211.207 116.887 211.746 118.196 211.746 119.75C211.746 121.304 211.207 122.613 210.129 123.677C209.065 124.741 207.756 125.273 206.202 125.273ZM203.871 122.123C204.501 122.753 205.278 123.068 206.202 123.068C207.126 123.068 207.903 122.753 208.533 122.123C209.163 121.493 209.478 120.702 209.478 119.75C209.478 118.798 209.163 118.007 208.533 117.377C207.903 116.747 207.126 116.432 206.202 116.432C205.278 116.432 204.501 116.747 203.871 117.377C203.241 118.007 202.926 118.798 202.926 119.75C202.926 120.702 203.241 121.493 203.871 122.123ZM218.753 125.273C217.171 125.273 215.848 124.741 214.784 123.677C213.734 122.613 213.209 121.304 213.209 119.75C213.209 118.182 213.734 116.873 214.784 115.823C215.848 114.759 217.171 114.227 218.753 114.227C219.775 114.227 220.706 114.472 221.546 114.962C222.386 115.452 223.016 116.11 223.436 116.936L221.483 118.07C221.245 117.566 220.881 117.174 220.391 116.894C219.915 116.6 219.362 116.453 218.732 116.453C217.808 116.453 217.031 116.768 216.401 117.398C215.785 118.028 215.477 118.812 215.477 119.75C215.477 120.688 215.785 121.472 216.401 122.102C217.031 122.732 217.808 123.047 218.732 123.047C219.348 123.047 219.901 122.9 220.391 122.606C220.895 122.312 221.273 121.92 221.525 121.43L223.478 122.543C223.03 123.383 222.386 124.048 221.546 124.538C220.706 125.028 219.775 125.273 218.753 125.273ZM233.036 114.5V116.684H229.613V125H227.345V116.684H223.901V114.5H233.036ZM239.149 118.07C240.269 118.07 241.186 118.392 241.9 119.036C242.614 119.666 242.971 120.499 242.971 121.535C242.971 122.557 242.614 123.39 241.9 124.034C241.186 124.678 240.269 125 239.149 125H234.571V114.5H236.839V118.07H239.149ZM239.17 122.963C239.618 122.963 239.989 122.83 240.283 122.564C240.591 122.298 240.745 121.955 240.745 121.535C240.745 121.101 240.591 120.758 240.283 120.506C239.989 120.24 239.618 120.107 239.17 120.107H236.839V122.963H239.17Z" fill="white"/>
<path d="M122.988 143.4H127.788V177H122.268V149.304L115.5 151.224L114.156 146.52L122.988 143.4ZM156.208 172.872C153.904 176.04 150.672 177.624 146.512 177.624C142.352 177.624 139.104 176.04 136.768 172.872C134.464 169.704 133.312 165.48 133.312 160.2C133.312 154.92 134.464 150.696 136.768 147.528C139.104 144.36 142.352 142.776 146.512 142.776C150.672 142.776 153.904 144.36 156.208 147.528C158.544 150.696 159.712 154.92 159.712 160.2C159.712 165.48 158.544 169.704 156.208 172.872ZM146.512 172.248C149.008 172.248 150.912 171.208 152.224 169.128C153.536 167.048 154.192 164.072 154.192 160.2C154.192 156.328 153.536 153.352 152.224 151.272C150.912 149.192 149.008 148.152 146.512 148.152C144.048 148.152 142.144 149.192 140.8 151.272C139.488 153.352 138.832 156.328 138.832 160.2C138.832 164.072 139.488 167.048 140.8 169.128C142.144 171.208 144.048 172.248 146.512 172.248ZM176.528 155.928C175.056 157.4 173.2 158.136 170.96 158.136C168.72 158.136 166.848 157.4 165.344 155.928C163.84 154.424 163.088 152.6 163.088 150.456C163.088 148.312 163.84 146.504 165.344 145.032C166.848 143.528 168.72 142.776 170.96 142.776C173.2 142.776 175.056 143.512 176.528 144.984C178.032 146.456 178.784 148.28 178.784 150.456C178.784 152.6 178.032 154.424 176.528 155.928ZM170.912 153.912C171.936 153.912 172.768 153.576 173.408 152.904C174.048 152.232 174.368 151.416 174.368 150.456C174.368 149.464 174.048 148.632 173.408 147.96C172.768 147.288 171.936 146.952 170.912 146.952C169.92 146.952 169.104 147.288 168.464 147.96C167.824 148.632 167.504 149.464 167.504 150.456C167.504 151.416 167.824 152.232 168.464 152.904C169.104 153.576 169.92 153.912 170.912 153.912ZM165.92 172.056L188.048 147.432L190.64 148.92L168.512 173.592L165.92 172.056ZM186.32 177.576C184.08 177.576 182.208 176.84 180.704 175.368C179.2 173.864 178.448 172.04 178.448 169.896C178.448 167.752 179.2 165.944 180.704 164.472C182.208 162.968 184.08 162.216 186.32 162.216C188.528 162.216 190.384 162.968 191.888 164.472C193.392 165.944 194.144 167.752 194.144 169.896C194.144 172.04 193.392 173.864 191.888 175.368C190.384 176.84 188.528 177.576 186.32 177.576ZM186.272 173.352C187.296 173.352 188.128 173.016 188.768 172.344C189.408 171.672 189.728 170.856 189.728 169.896C189.728 168.904 189.408 168.072 188.768 167.4C188.128 166.728 187.296 166.392 186.272 166.392C185.28 166.392 184.464 166.728 183.824 167.4C183.184 168.072 182.864 168.904 182.864 169.896C182.864 170.856 183.184 171.672 183.824 172.344C184.464 173.016 185.28 173.352 186.272 173.352Z" fill="white"/>
<path d="M132.674 204H131.09L126.59 199.662V204H125.402V195H126.59V198.978L130.874 195H132.494L127.85 199.32L132.674 204ZM137.558 194.784C138.89 194.784 139.964 195.258 140.78 196.206C141.608 197.142 142.022 198.252 142.022 199.536C142.022 199.668 142.01 199.854 141.986 200.094H134.084C134.204 201.006 134.588 201.732 135.236 202.272C135.896 202.8 136.706 203.064 137.666 203.064C138.35 203.064 138.938 202.926 139.43 202.65C139.934 202.362 140.312 201.99 140.564 201.534L141.608 202.146C141.212 202.782 140.672 203.286 139.988 203.658C139.304 204.03 138.524 204.216 137.648 204.216C136.232 204.216 135.08 203.772 134.192 202.884C133.304 201.996 132.86 200.868 132.86 199.5C132.86 198.156 133.298 197.034 134.174 196.134C135.05 195.234 136.178 194.784 137.558 194.784ZM137.558 195.936C136.622 195.936 135.836 196.218 135.2 196.782C134.576 197.334 134.204 198.054 134.084 198.942H140.798C140.678 197.994 140.312 197.256 139.7 196.728C139.088 196.2 138.374 195.936 137.558 195.936ZM154.783 195H155.971V204H143.911V195H145.099V202.848H149.347V195H150.535V202.848H154.783V195ZM162.48 204.216C161.184 204.216 160.104 203.79 159.24 202.938C158.376 202.074 157.944 200.958 157.944 199.59C157.944 198.054 158.172 196.878 158.628 196.062C159.084 195.234 160.008 194.484 161.4 193.812C161.664 193.68 162.012 193.524 162.444 193.344C162.888 193.164 163.218 193.02 163.434 192.912C163.662 192.804 163.908 192.666 164.172 192.498C164.436 192.318 164.634 192.12 164.766 191.904C164.898 191.688 164.982 191.43 165.018 191.13L165.954 191.67C165.906 191.958 165.81 192.228 165.666 192.48C165.522 192.732 165.372 192.936 165.216 193.092C165.072 193.248 164.838 193.422 164.514 193.614C164.202 193.794 163.956 193.926 163.776 194.01C163.608 194.082 163.308 194.208 162.876 194.388C162.456 194.568 162.174 194.688 162.03 194.748C161.19 195.108 160.572 195.486 160.176 195.882C159.78 196.266 159.498 196.77 159.33 197.394C159.738 196.854 160.254 196.458 160.878 196.206C161.514 195.942 162.132 195.81 162.732 195.81C163.932 195.81 164.922 196.206 165.702 196.998C166.494 197.778 166.89 198.78 166.89 200.004C166.89 201.216 166.47 202.224 165.63 203.028C164.802 203.82 163.752 204.216 162.48 204.216ZM162.48 203.028C163.416 203.028 164.184 202.746 164.784 202.182C165.396 201.606 165.702 200.88 165.702 200.004C165.702 199.116 165.414 198.39 164.838 197.826C164.274 197.25 163.518 196.962 162.57 196.962C161.718 196.962 160.944 197.232 160.248 197.772C159.552 198.3 159.204 199.008 159.204 199.896C159.204 200.808 159.516 201.558 160.14 202.146C160.776 202.734 161.556 203.028 162.48 203.028ZM171.725 194.784C173.081 194.784 174.173 195.234 175.001 196.134C175.829 197.022 176.243 198.144 176.243 199.5C176.243 200.856 175.823 201.984 174.983 202.884C174.155 203.772 173.057 204.216 171.689 204.216C170.717 204.216 169.871 204.006 169.151 203.586C168.443 203.154 167.933 202.572 167.621 201.84L168.647 201.246C168.851 201.798 169.217 202.242 169.745 202.578C170.273 202.902 170.921 203.064 171.689 203.064C172.589 203.064 173.339 202.788 173.939 202.236C174.539 201.672 174.899 200.952 175.019 200.076H170.537V198.924H175.019C174.911 198.048 174.557 197.334 173.957 196.782C173.369 196.218 172.625 195.936 171.725 195.936C171.041 195.936 170.435 196.098 169.907 196.422C169.379 196.746 168.989 197.184 168.737 197.736L167.693 197.142C168.053 196.41 168.587 195.834 169.295 195.414C170.015 194.994 170.825 194.784 171.725 194.784ZM185.496 204H183.912L179.412 199.662V204H178.224V195H179.412V198.978L183.696 195H185.316L180.672 199.32L185.496 204Z" fill="white"/>
<path d="M54.9722 250.528C53.8522 251.648 52.4815 252.208 50.8602 252.208C49.2389 252.208 47.8629 251.648 46.7322 250.528C45.6122 249.397 45.0522 248.021 45.0522 246.4C45.0522 244.779 45.6122 243.408 46.7322 242.288C47.8629 241.157 49.2389 240.592 50.8602 240.592C52.4815 240.592 53.8522 241.157 54.9722 242.288C56.1029 243.408 56.6682 244.779 56.6682 246.4C56.6682 248.021 56.1029 249.397 54.9722 250.528ZM48.0282 249.28C48.7962 250.037 49.7402 250.416 50.8602 250.416C51.9802 250.416 52.9189 250.037 53.6762 249.28C54.4442 248.512 54.8282 247.552 54.8282 246.4C54.8282 245.248 54.4442 244.293 53.6762 243.536C52.9189 242.768 51.9802 242.384 50.8602 242.384C49.7402 242.384 48.7962 242.768 48.0282 243.536C47.2709 244.293 46.8922 245.248 46.8922 246.4C46.8922 247.552 47.2709 248.512 48.0282 249.28ZM61.9466 252.208C60.7199 252.208 59.7172 251.813 58.9386 251.024C58.1706 250.224 57.7866 249.205 57.7866 247.968C57.7866 246.613 57.9892 245.568 58.3946 244.832C58.7999 244.085 59.6212 243.408 60.8586 242.8C61.0612 242.704 61.3599 242.565 61.7546 242.384C62.1599 242.203 62.4372 242.075 62.5866 242C62.7359 241.915 62.9226 241.797 63.1466 241.648C63.3706 241.488 63.5359 241.323 63.6426 241.152C63.7492 240.971 63.8346 240.757 63.8986 240.512L65.3066 241.328C65.2639 241.563 65.1946 241.781 65.0986 241.984C65.0026 242.176 64.8639 242.357 64.6826 242.528C64.5012 242.699 64.3412 242.837 64.2026 242.944C64.0746 243.051 63.8559 243.179 63.5466 243.328C63.2372 243.477 63.0079 243.584 62.8586 243.648C62.7199 243.712 62.4532 243.824 62.0586 243.984C61.3546 244.261 60.8372 244.549 60.5066 244.848C60.1866 245.136 59.9626 245.499 59.8346 245.936C60.4746 245.211 61.3439 244.848 62.4426 244.848C63.3812 244.848 64.1972 245.184 64.8906 245.856C65.5946 246.528 65.9466 247.397 65.9466 248.464C65.9466 249.552 65.5732 250.448 64.8266 251.152C64.0906 251.856 63.1306 252.208 61.9466 252.208ZM61.9306 250.592C62.6026 250.592 63.1519 250.395 63.5786 250C64.0052 249.595 64.2186 249.083 64.2186 248.464C64.2186 247.835 64.0052 247.317 63.5786 246.912C63.1626 246.507 62.6186 246.304 61.9466 246.304C61.3492 246.304 60.8106 246.496 60.3306 246.88C59.8506 247.253 59.6106 247.755 59.6106 248.384C59.6106 249.024 59.8346 249.552 60.2826 249.968C60.7306 250.384 61.2799 250.592 61.9306 250.592ZM78.3527 250.368H79.4247V254.144H77.7287V252H67.3127V244H69.0407V250.368H71.9687V244H73.6967V250.368H76.6247V244H78.3527V250.368ZM86.8518 244H88.5798V252H86.8518V250.848C86.2011 251.755 85.2678 252.208 84.0518 252.208C82.9531 252.208 82.0145 251.803 81.2358 250.992C80.4571 250.171 80.0678 249.173 80.0678 248C80.0678 246.816 80.4571 245.819 81.2358 245.008C82.0145 244.197 82.9531 243.792 84.0518 243.792C85.2678 243.792 86.2011 244.24 86.8518 245.136V244ZM82.5158 249.84C82.9958 250.32 83.5985 250.56 84.3238 250.56C85.0491 250.56 85.6518 250.32 86.1318 249.84C86.6118 249.349 86.8518 248.736 86.8518 248C86.8518 247.264 86.6118 246.656 86.1318 246.176C85.6518 245.685 85.0491 245.44 84.3238 245.44C83.5985 245.44 82.9958 245.685 82.5158 246.176C82.0358 246.656 81.7958 247.264 81.7958 248C81.7958 248.736 82.0358 249.349 82.5158 249.84ZM96.7859 244V252H95.0899V249.312H94.1299L92.0979 252H90.0659L92.2259 249.152C91.6713 248.971 91.2233 248.651 90.8819 248.192C90.5513 247.733 90.3859 247.221 90.3859 246.656C90.3859 245.92 90.6473 245.296 91.1699 244.784C91.7033 244.261 92.3859 244 93.2179 244H96.7859ZM93.3139 247.824H95.0899V245.568H93.3139C92.9619 245.568 92.6686 245.669 92.4339 245.872C92.1993 246.075 92.0819 246.352 92.0819 246.704C92.0819 247.045 92.1993 247.317 92.4339 247.52C92.6686 247.723 92.9619 247.824 93.3139 247.824ZM106.573 252.208C105.368 252.208 104.36 251.803 103.549 250.992C102.749 250.181 102.349 249.184 102.349 248C102.349 246.805 102.749 245.808 103.549 245.008C104.36 244.197 105.368 243.792 106.573 243.792C107.352 243.792 108.061 243.979 108.701 244.352C109.341 244.725 109.821 245.227 110.141 245.856L108.653 246.72C108.472 246.336 108.194 246.037 107.821 245.824C107.458 245.6 107.037 245.488 106.557 245.488C105.853 245.488 105.261 245.728 104.781 246.208C104.312 246.688 104.077 247.285 104.077 248C104.077 248.715 104.312 249.312 104.781 249.792C105.261 250.272 105.853 250.512 106.557 250.512C107.026 250.512 107.448 250.4 107.821 250.176C108.205 249.952 108.493 249.653 108.685 249.28L110.173 250.128C109.832 250.768 109.341 251.275 108.701 251.648C108.061 252.021 107.352 252.208 106.573 252.208ZM116.548 244H118.388L115.316 252.256C114.943 253.269 114.42 254.027 113.748 254.528C113.076 255.029 112.298 255.253 111.412 255.2V253.584C111.956 253.616 112.394 253.504 112.724 253.248C113.066 253.003 113.338 252.603 113.54 252.048L113.588 251.936L110.228 244H112.068L114.5 249.824L116.548 244ZM127.629 244V252H125.949V246.736L123.645 250.4H123.437L121.149 246.752V252H119.469V244H121.229L123.549 247.696L125.869 244H127.629ZM137.785 244V252H136.105V246.736L133.801 250.4H133.593L131.305 246.752V252H129.625V244H131.385L133.705 247.696L136.025 244H137.785ZM146.117 244H147.845V252H146.117V250.848C145.467 251.755 144.533 252.208 143.317 252.208C142.219 252.208 141.28 251.803 140.501 250.992C139.723 250.171 139.333 249.173 139.333 248C139.333 246.816 139.723 245.819 140.501 245.008C141.28 244.197 142.219 243.792 143.317 243.792C144.533 243.792 145.467 244.24 146.117 245.136V244ZM141.781 249.84C142.261 250.32 142.864 250.56 143.589 250.56C144.315 250.56 144.917 250.32 145.397 249.84C145.877 249.349 146.117 248.736 146.117 248C146.117 247.264 145.877 246.656 145.397 246.176C144.917 245.685 144.315 245.44 143.589 245.44C142.864 245.44 142.261 245.685 141.781 246.176C141.301 246.656 141.061 247.264 141.061 248C141.061 248.736 141.301 249.349 141.781 249.84ZM159.396 247.888C160.185 248.251 160.58 248.864 160.58 249.728C160.58 250.4 160.35 250.949 159.892 251.376C159.444 251.792 158.798 252 157.956 252H153.86V244H157.636C158.457 244 159.092 244.208 159.54 244.624C159.998 245.029 160.228 245.557 160.228 246.208C160.228 246.965 159.95 247.525 159.396 247.888ZM157.508 245.472H155.508V247.248H157.508C158.212 247.248 158.564 246.949 158.564 246.352C158.564 245.765 158.212 245.472 157.508 245.472ZM157.796 250.496C158.521 250.496 158.884 250.181 158.884 249.552C158.884 249.275 158.788 249.061 158.596 248.912C158.404 248.752 158.137 248.672 157.796 248.672H155.508V250.496H157.796ZM168.321 244H170.049V252H168.321V250.848C167.67 251.755 166.737 252.208 165.521 252.208C164.422 252.208 163.483 251.803 162.705 250.992C161.926 250.171 161.537 249.173 161.537 248C161.537 246.816 161.926 245.819 162.705 245.008C163.483 244.197 164.422 243.792 165.521 243.792C166.737 243.792 167.67 244.24 168.321 245.136V244ZM163.985 249.84C164.465 250.32 165.067 250.56 165.793 250.56C166.518 250.56 167.121 250.32 167.601 249.84C168.081 249.349 168.321 248.736 168.321 248C168.321 247.264 168.081 246.656 167.601 246.176C167.121 245.685 166.518 245.44 165.793 245.44C165.067 245.44 164.465 245.685 163.985 246.176C163.505 246.656 163.265 247.264 163.265 248C163.265 248.736 163.505 249.349 163.985 249.84ZM181.535 244H183.263V252H172.063V244H173.791V250.368H176.799V244H178.527V250.368H181.535V244ZM191.058 244H192.386V252H190.69V246.912L186.594 252H185.266V244H186.962V249.072L191.058 244ZM201.543 252H199.543L197.559 249.264L195.559 252H193.543L196.551 247.888L193.703 244H195.703L197.543 246.528L199.383 244H201.399L198.551 247.904L201.543 252ZM211.199 247.904C212.053 248.288 212.479 248.923 212.479 249.808C212.479 250.491 212.202 251.061 211.647 251.52C211.093 251.979 210.319 252.208 209.327 252.208C207.717 252.208 206.629 251.568 206.063 250.288L207.471 249.456C207.759 250.256 208.383 250.656 209.343 250.656C209.791 250.656 210.143 250.565 210.399 250.384C210.655 250.192 210.783 249.941 210.783 249.632C210.783 249.355 210.682 249.136 210.479 248.976C210.277 248.805 209.994 248.72 209.631 248.72H208.495V247.2H209.343C209.695 247.2 209.967 247.12 210.159 246.96C210.362 246.789 210.463 246.56 210.463 246.272C210.463 245.995 210.351 245.771 210.127 245.6C209.903 245.419 209.605 245.328 209.231 245.328C208.431 245.328 207.877 245.68 207.567 246.384L206.159 245.584C206.757 244.389 207.77 243.792 209.199 243.792C210.095 243.792 210.805 244.021 211.327 244.48C211.861 244.928 212.127 245.477 212.127 246.128C212.127 246.928 211.818 247.52 211.199 247.904ZM220.227 244H221.955V252H220.227V250.848C219.576 251.755 218.643 252.208 217.427 252.208C216.328 252.208 215.389 251.803 214.611 250.992C213.832 250.171 213.443 249.173 213.443 248C213.443 246.816 213.832 245.819 214.611 245.008C215.389 244.197 216.328 243.792 217.427 243.792C218.643 243.792 219.576 244.24 220.227 245.136V244ZM215.891 249.84C216.371 250.32 216.973 250.56 217.699 250.56C218.424 250.56 219.027 250.32 219.507 249.84C219.987 249.349 220.227 248.736 220.227 248C220.227 247.264 219.987 246.656 219.507 246.176C219.027 245.685 218.424 245.44 217.699 245.44C216.973 245.44 216.371 245.685 215.891 246.176C215.411 246.656 215.171 247.264 215.171 248C215.171 248.736 215.411 249.349 215.891 249.84ZM231.041 252H228.977L225.697 248.304V252H223.969V244H225.697V247.536L228.801 244H230.913L227.393 247.92L231.041 252ZM237.899 244H239.627V252H237.899V250.848C237.248 251.755 236.315 252.208 235.099 252.208C234 252.208 233.061 251.803 232.283 250.992C231.504 250.171 231.115 249.173 231.115 248C231.115 246.816 231.504 245.819 232.283 245.008C233.061 244.197 234 243.792 235.099 243.792C236.315 243.792 237.248 244.24 237.899 245.136V244ZM233.563 249.84C234.043 250.32 234.645 250.56 235.371 250.56C236.096 250.56 236.699 250.32 237.179 249.84C237.659 249.349 237.899 248.736 237.899 248C237.899 247.264 237.659 246.656 237.179 246.176C236.699 245.685 236.096 245.44 235.371 245.44C234.645 245.44 234.043 245.685 233.563 246.176C233.083 246.656 232.843 247.264 232.843 248C232.843 248.736 233.083 249.349 233.563 249.84ZM246.137 247.904C246.99 248.288 247.417 248.923 247.417 249.808C247.417 250.491 247.139 251.061 246.585 251.52C246.03 251.979 245.257 252.208 244.265 252.208C242.654 252.208 241.566 251.568 241.001 250.288L242.409 249.456C242.697 250.256 243.321 250.656 244.281 250.656C244.729 250.656 245.081 250.565 245.337 250.384C245.593 250.192 245.721 249.941 245.721 249.632C245.721 249.355 245.619 249.136 245.417 248.976C245.214 248.805 244.931 248.72 244.569 248.72H243.433V247.2H244.281C244.633 247.2 244.905 247.12 245.097 246.96C245.299 246.789 245.401 246.56 245.401 246.272C245.401 245.995 245.289 245.771 245.065 245.6C244.841 245.419 244.542 245.328 244.169 245.328C243.369 245.328 242.814 245.68 242.505 246.384L241.097 245.584C241.694 244.389 242.707 243.792 244.137 243.792C245.033 243.792 245.742 244.021 246.265 244.48C246.798 244.928 247.065 245.477 247.065 246.128C247.065 246.928 246.755 247.52 246.137 247.904ZM252.604 252.208C251.431 252.208 250.434 251.803 249.612 250.992C248.791 250.181 248.38 249.184 248.38 248C248.38 246.816 248.791 245.819 249.612 245.008C250.434 244.197 251.431 243.792 252.604 243.792C253.788 243.792 254.786 244.197 255.596 245.008C256.418 245.819 256.828 246.816 256.828 248C256.828 249.184 256.418 250.181 255.596 250.992C254.786 251.803 253.788 252.208 252.604 252.208ZM250.828 249.808C251.308 250.288 251.9 250.528 252.604 250.528C253.308 250.528 253.9 250.288 254.38 249.808C254.86 249.328 255.1 248.725 255.1 248C255.1 247.275 254.86 246.672 254.38 246.192C253.9 245.712 253.308 245.472 252.604 245.472C251.9 245.472 251.308 245.712 250.828 246.192C250.348 246.672 250.108 247.275 250.108 248C250.108 248.725 250.348 249.328 250.828 249.808ZM263.927 247.888C264.716 248.251 265.111 248.864 265.111 249.728C265.111 250.4 264.881 250.949 264.423 251.376C263.975 251.792 263.329 252 262.487 252H258.391V244H262.167C262.988 244 263.623 244.208 264.071 244.624C264.529 245.029 264.759 245.557 264.759 246.208C264.759 246.965 264.481 247.525 263.927 247.888ZM262.039 245.472H260.039V247.248H262.039C262.743 247.248 263.095 246.949 263.095 246.352C263.095 245.765 262.743 245.472 262.039 245.472ZM262.327 250.496C263.052 250.496 263.415 250.181 263.415 249.552C263.415 249.275 263.319 249.061 263.127 248.912C262.935 248.752 262.668 248.672 262.327 248.672H260.039V250.496H262.327ZM85.5655 266V274H83.8375V267.632H80.1735V274H78.4455V266H85.5655ZM92.0985 265.792C93.1972 265.792 94.1358 266.203 94.9145 267.024C95.6932 267.835 96.0825 268.827 96.0825 270C96.0825 271.184 95.6932 272.181 94.9145 272.992C94.1358 273.803 93.1972 274.208 92.0985 274.208C90.8825 274.208 89.9492 273.76 89.2985 272.864V277.2H87.5705V266H89.2985V267.152C89.9492 266.245 90.8825 265.792 92.0985 265.792ZM90.0185 271.84C90.4985 272.32 91.1012 272.56 91.8265 272.56C92.5518 272.56 93.1545 272.32 93.6345 271.84C94.1145 271.349 94.3545 270.736 94.3545 270C94.3545 269.264 94.1145 268.656 93.6345 268.176C93.1545 267.685 92.5518 267.44 91.8265 267.44C91.1012 267.44 90.4985 267.685 90.0185 268.176C89.5385 268.656 89.2985 269.264 89.2985 270C89.2985 270.736 89.5385 271.349 90.0185 271.84ZM99.0086 270.736C99.1366 271.344 99.43 271.813 99.8886 272.144C100.347 272.464 100.907 272.624 101.569 272.624C102.486 272.624 103.174 272.293 103.633 271.632L105.057 272.464C104.267 273.627 103.099 274.208 101.553 274.208C100.251 274.208 99.2006 273.813 98.4006 273.024C97.6006 272.224 97.2006 271.216 97.2006 270C97.2006 268.805 97.5953 267.808 98.3846 267.008C99.174 266.197 100.187 265.792 101.425 265.792C102.598 265.792 103.558 266.203 104.305 267.024C105.062 267.845 105.441 268.843 105.441 270.016C105.441 270.197 105.419 270.437 105.377 270.736H99.0086ZM98.9926 269.328H103.697C103.579 268.677 103.307 268.187 102.881 267.856C102.465 267.525 101.974 267.36 101.409 267.36C100.769 267.36 100.235 267.536 99.8086 267.888C99.382 268.24 99.11 268.72 98.9926 269.328ZM112.497 269.888C113.286 270.251 113.681 270.864 113.681 271.728C113.681 272.4 113.452 272.949 112.993 273.376C112.545 273.792 111.9 274 111.057 274H106.961V266H110.737C111.558 266 112.193 266.208 112.641 266.624C113.1 267.029 113.329 267.557 113.329 268.208C113.329 268.965 113.052 269.525 112.497 269.888ZM110.609 267.472H108.609V269.248H110.609C111.313 269.248 111.665 268.949 111.665 268.352C111.665 267.765 111.313 267.472 110.609 267.472ZM110.897 272.496C111.622 272.496 111.985 272.181 111.985 271.552C111.985 271.275 111.889 271.061 111.697 270.912C111.505 270.752 111.238 270.672 110.897 270.672H108.609V272.496H110.897ZM118.574 268.72C119.427 268.72 120.126 268.965 120.67 269.456C121.214 269.936 121.486 270.571 121.486 271.36C121.486 272.139 121.214 272.773 120.67 273.264C120.126 273.755 119.427 274 118.574 274H115.086V266H116.814V268.72H118.574ZM122.446 266H124.174V274H122.446V266ZM118.59 272.448C118.931 272.448 119.214 272.347 119.438 272.144C119.673 271.941 119.79 271.68 119.79 271.36C119.79 271.029 119.673 270.768 119.438 270.576C119.214 270.373 118.931 270.272 118.59 270.272H116.814V272.448H118.59ZM135.652 266H137.38V274H126.18V266H127.908V272.368H130.916V266H132.644V272.368H135.652V266ZM145.719 266H147.447V274H145.719V272.848C145.068 273.755 144.135 274.208 142.919 274.208C141.82 274.208 140.882 273.803 140.103 272.992C139.324 272.171 138.935 271.173 138.935 270C138.935 268.816 139.324 267.819 140.103 267.008C140.882 266.197 141.82 265.792 142.919 265.792C144.135 265.792 145.068 266.24 145.719 267.136V266ZM141.383 271.84C141.863 272.32 142.466 272.56 143.191 272.56C143.916 272.56 144.519 272.32 144.999 271.84C145.479 271.349 145.719 270.736 145.719 270C145.719 269.264 145.479 268.656 144.999 268.176C144.519 267.685 143.916 267.44 143.191 267.44C142.466 267.44 141.863 267.685 141.383 268.176C140.903 268.656 140.663 269.264 140.663 270C140.663 270.736 140.903 271.349 141.383 271.84ZM150.821 270.736C150.949 271.344 151.242 271.813 151.701 272.144C152.16 272.464 152.72 272.624 153.381 272.624C154.298 272.624 154.986 272.293 155.445 271.632L156.869 272.464C156.08 273.627 154.912 274.208 153.365 274.208C152.064 274.208 151.013 273.813 150.213 273.024C149.413 272.224 149.013 271.216 149.013 270C149.013 268.805 149.408 267.808 150.197 267.008C150.986 266.197 152 265.792 153.237 265.792C154.41 265.792 155.37 266.203 156.117 267.024C156.874 267.845 157.253 268.843 157.253 270.016C157.253 270.197 157.232 270.437 157.189 270.736H150.821ZM150.805 269.328H155.509C155.392 268.677 155.12 268.187 154.693 267.856C154.277 267.525 153.786 267.36 153.221 267.36C152.581 267.36 152.048 267.536 151.621 267.888C151.194 268.24 150.922 268.72 150.805 269.328ZM164.573 266V267.664H161.965V274H160.237V267.664H157.613V266H164.573ZM171.886 262.8H173.486V274H171.646V264.768L169.39 265.408L168.942 263.84L171.886 262.8ZM182.96 272.624C182.192 273.68 181.114 274.208 179.728 274.208C178.341 274.208 177.258 273.68 176.48 272.624C175.712 271.568 175.328 270.16 175.328 268.4C175.328 266.64 175.712 265.232 176.48 264.176C177.258 263.12 178.341 262.592 179.728 262.592C181.114 262.592 182.192 263.12 182.96 264.176C183.738 265.232 184.128 266.64 184.128 268.4C184.128 270.16 183.738 271.568 182.96 272.624ZM179.728 272.416C180.56 272.416 181.194 272.069 181.632 271.376C182.069 270.683 182.288 269.691 182.288 268.4C182.288 267.109 182.069 266.117 181.632 265.424C181.194 264.731 180.56 264.384 179.728 264.384C178.906 264.384 178.272 264.731 177.824 265.424C177.386 266.117 177.168 267.109 177.168 268.4C177.168 269.691 177.386 270.683 177.824 271.376C178.272 272.069 178.906 272.416 179.728 272.416ZM197.038 272.624C196.27 273.68 195.192 274.208 193.806 274.208C192.419 274.208 191.336 273.68 190.558 272.624C189.79 271.568 189.406 270.16 189.406 268.4C189.406 266.64 189.79 265.232 190.558 264.176C191.336 263.12 192.419 262.592 193.806 262.592C195.192 262.592 196.27 263.12 197.038 264.176C197.816 265.232 198.206 266.64 198.206 268.4C198.206 270.16 197.816 271.568 197.038 272.624ZM193.806 272.416C194.638 272.416 195.272 272.069 195.71 271.376C196.147 270.683 196.366 269.691 196.366 268.4C196.366 267.109 196.147 266.117 195.71 265.424C195.272 264.731 194.638 264.384 193.806 264.384C192.984 264.384 192.35 264.731 191.902 265.424C191.464 266.117 191.246 267.109 191.246 268.4C191.246 269.691 191.464 270.683 191.902 271.376C192.35 272.069 192.984 272.416 193.806 272.416ZM207.116 272.624C206.348 273.68 205.27 274.208 203.884 274.208C202.497 274.208 201.414 273.68 200.636 272.624C199.868 271.568 199.484 270.16 199.484 268.4C199.484 266.64 199.868 265.232 200.636 264.176C201.414 263.12 202.497 262.592 203.884 262.592C205.27 262.592 206.348 263.12 207.116 264.176C207.894 265.232 208.284 266.64 208.284 268.4C208.284 270.16 207.894 271.568 207.116 272.624ZM203.884 272.416C204.716 272.416 205.35 272.069 205.788 271.376C206.225 270.683 206.444 269.691 206.444 268.4C206.444 267.109 206.225 266.117 205.788 265.424C205.35 264.731 204.716 264.384 203.884 264.384C203.062 264.384 202.428 264.731 201.98 265.424C201.542 266.117 201.324 267.109 201.324 268.4C201.324 269.691 201.542 270.683 201.98 271.376C202.428 272.069 203.062 272.416 203.884 272.416ZM217.194 272.624C216.426 273.68 215.349 274.208 213.962 274.208C212.575 274.208 211.493 273.68 210.714 272.624C209.946 271.568 209.562 270.16 209.562 268.4C209.562 266.64 209.946 265.232 210.714 264.176C211.493 263.12 212.575 262.592 213.962 262.592C215.349 262.592 216.426 263.12 217.194 264.176C217.973 265.232 218.362 266.64 218.362 268.4C218.362 270.16 217.973 271.568 217.194 272.624ZM213.962 272.416C214.794 272.416 215.429 272.069 215.866 271.376C216.303 270.683 216.522 269.691 216.522 268.4C216.522 267.109 216.303 266.117 215.866 265.424C215.429 264.731 214.794 264.384 213.962 264.384C213.141 264.384 212.506 264.731 212.058 265.424C211.621 266.117 211.402 267.109 211.402 268.4C211.402 269.691 211.621 270.683 212.058 271.376C212.506 272.069 213.141 272.416 213.962 272.416ZM228.648 269.92H226.36V270.992H230.12V272.24H226.36V274H224.52V272.24H223.24V270.992H224.52V269.92H223.24V268.272H224.52V262.8H228.648C229.661 262.8 230.52 263.152 231.224 263.856C231.928 264.549 232.28 265.397 232.28 266.4C232.28 267.392 231.928 268.229 231.224 268.912C230.52 269.584 229.661 269.92 228.648 269.92ZM226.36 264.528V268.272H228.648C229.149 268.272 229.571 268.091 229.912 267.728C230.264 267.365 230.44 266.923 230.44 266.4C230.44 265.877 230.264 265.435 229.912 265.072C229.571 264.709 229.149 264.528 228.648 264.528H226.36Z" fill="white"/>
</svg>
