<svg width="310" height="310" viewBox="0 0 310 310" fill="none" xmlns="http://www.w3.org/2000/svg">
<rect x="0.5" y="0.5" width="309" height="309" rx="19.5" fill="white" stroke="#FBBB1F"/>
<path fill-rule="evenodd" clip-rule="evenodd" d="M153.329 35.4769C153.934 33.9712 156.065 33.9712 156.67 35.4769L161.383 47.2143L174.003 48.07C175.622 48.1798 176.28 50.2069 175.035 51.2472L165.329 59.357L168.415 71.6233C168.81 73.1968 167.086 74.4496 165.712 73.5869L155 66.8616L144.287 73.5869C142.913 74.4496 141.189 73.1968 141.585 71.6233L144.67 59.357L134.964 51.2472C133.719 50.2069 134.378 48.1798 135.996 48.07L148.616 47.2143L153.329 35.4769Z" fill="#FBBB1F"/>
<path d="M124.16 110.3H126.575V125H124.16V118.637H117.86V125H115.445V110.3H117.86V116.327H124.16V110.3ZM134.322 125.273C132.782 125.273 131.473 124.741 130.395 123.677C129.317 122.613 128.778 121.304 128.778 119.75C128.778 118.196 129.317 116.887 130.395 115.823C131.473 114.759 132.782 114.227 134.322 114.227C135.876 114.227 137.185 114.759 138.249 115.823C139.327 116.887 139.866 118.196 139.866 119.75C139.866 121.304 139.327 122.613 138.249 123.677C137.185 124.741 135.876 125.273 134.322 125.273ZM131.991 122.123C132.621 122.753 133.398 123.068 134.322 123.068C135.246 123.068 136.023 122.753 136.653 122.123C137.283 121.493 137.598 120.702 137.598 119.75C137.598 118.798 137.283 118.007 136.653 117.377C136.023 116.747 135.246 116.432 134.322 116.432C133.398 116.432 132.621 116.747 131.991 117.377C131.361 118.007 131.046 118.798 131.046 119.75C131.046 120.702 131.361 121.493 131.991 122.123ZM149.183 119.603C150.219 120.079 150.737 120.884 150.737 122.018C150.737 122.9 150.436 123.621 149.834 124.181C149.246 124.727 148.399 125 147.293 125H141.917V114.5H146.873C147.951 114.5 148.784 114.773 149.372 115.319C149.974 115.851 150.275 116.544 150.275 117.398C150.275 118.392 149.911 119.127 149.183 119.603ZM146.705 116.432H144.08V118.763H146.705C147.629 118.763 148.091 118.371 148.091 117.587C148.091 116.817 147.629 116.432 146.705 116.432ZM147.083 123.026C148.035 123.026 148.511 122.613 148.511 121.787C148.511 121.423 148.385 121.143 148.133 120.947C147.881 120.737 147.531 120.632 147.083 120.632H144.08V123.026H147.083ZM160.183 114.5H161.926V125H159.7V118.322L154.324 125H152.581V114.5H154.807V121.157L160.183 114.5ZM170.942 114.5H173.21V125H170.942V121.451C170.102 121.759 169.22 121.913 168.296 121.913C166.994 121.913 165.965 121.591 165.209 120.947C164.453 120.303 164.075 119.358 164.075 118.112V114.5H166.343V117.902C166.343 119.162 167.092 119.792 168.59 119.792C169.472 119.792 170.256 119.631 170.942 119.309V114.5ZM180.813 125.273C179.273 125.273 177.964 124.741 176.886 123.677C175.808 122.613 175.269 121.304 175.269 119.75C175.269 118.196 175.808 116.887 176.886 115.823C177.964 114.759 179.273 114.227 180.813 114.227C182.367 114.227 183.676 114.759 184.74 115.823C185.818 116.887 186.357 118.196 186.357 119.75C186.357 121.304 185.818 122.613 184.74 123.677C183.676 124.741 182.367 125.273 180.813 125.273ZM178.482 122.123C179.112 122.753 179.889 123.068 180.813 123.068C181.737 123.068 182.514 122.753 183.144 122.123C183.774 121.493 184.089 120.702 184.089 119.75C184.089 118.798 183.774 118.007 183.144 117.377C182.514 116.747 181.737 116.432 180.813 116.432C179.889 116.432 179.112 116.747 178.482 117.377C177.852 118.007 177.537 118.798 177.537 119.75C177.537 120.702 177.852 121.493 178.482 122.123ZM197.69 125H194.981L190.676 120.149V125H188.408V114.5H190.676V119.141L194.75 114.5H197.522L192.902 119.645L197.69 125Z" fill="#262626"/>
<path d="M137.701 155.373C140.901 155.373 143.605 156.333 145.813 158.253C148.021 160.141 149.125 162.765 149.125 166.125C149.125 169.485 147.989 172.125 145.717 174.045C143.445 175.965 140.661 176.925 137.365 176.925C134.709 176.925 132.357 176.317 130.309 175.101C128.261 173.853 126.805 172.061 125.941 169.725L130.693 166.989C131.589 170.029 133.813 171.549 137.365 171.549C139.253 171.549 140.757 171.069 141.877 170.109C143.029 169.117 143.605 167.789 143.605 166.125C143.605 164.461 143.045 163.149 141.925 162.189C140.805 161.229 139.317 160.749 137.461 160.749H127.669L128.965 142.701H147.685V147.885H134.053L133.477 155.373H137.701ZM165.56 155.229C164.088 156.701 162.232 157.437 159.992 157.437C157.752 157.437 155.88 156.701 154.376 155.229C152.872 153.725 152.12 151.901 152.12 149.757C152.12 147.613 152.872 145.805 154.376 144.333C155.88 142.829 157.752 142.077 159.992 142.077C162.232 142.077 164.088 142.813 165.56 144.285C167.064 145.757 167.816 147.581 167.816 149.757C167.816 151.901 167.064 153.725 165.56 155.229ZM159.944 153.213C160.968 153.213 161.8 152.877 162.44 152.205C163.08 151.533 163.4 150.717 163.4 149.757C163.4 148.765 163.08 147.933 162.44 147.261C161.8 146.589 160.968 146.253 159.944 146.253C158.952 146.253 158.136 146.589 157.496 147.261C156.856 147.933 156.536 148.765 156.536 149.757C156.536 150.717 156.856 151.533 157.496 152.205C158.136 152.877 158.952 153.213 159.944 153.213ZM154.952 171.357L177.08 146.733L179.672 148.221L157.544 172.893L154.952 171.357ZM175.352 176.877C173.112 176.877 171.24 176.141 169.736 174.669C168.232 173.165 167.48 171.341 167.48 169.197C167.48 167.053 168.232 165.245 169.736 163.773C171.24 162.269 173.112 161.517 175.352 161.517C177.56 161.517 179.416 162.269 180.92 163.773C182.424 165.245 183.176 167.053 183.176 169.197C183.176 171.341 182.424 173.165 180.92 174.669C179.416 176.141 177.56 176.877 175.352 176.877ZM175.304 172.653C176.328 172.653 177.16 172.317 177.8 171.645C178.44 170.973 178.76 170.157 178.76 169.197C178.76 168.205 178.44 167.373 177.8 166.701C177.16 166.029 176.328 165.693 175.304 165.693C174.312 165.693 173.496 166.029 172.856 166.701C172.216 167.373 171.896 168.205 171.896 169.197C171.896 170.157 172.216 170.973 172.856 171.645C173.496 172.317 174.312 172.653 175.304 172.653Z" fill="#262626"/>
<path d="M131.206 203H130.702L125.428 198.428V203H125.068V194H125.428V198.212L130.522 194H131.026L125.806 198.32L131.206 203ZM136.303 193.82C137.611 193.82 138.673 194.288 139.489 195.224C140.317 196.148 140.731 197.252 140.731 198.536V198.716H132.109C132.157 199.94 132.583 200.936 133.387 201.704C134.203 202.472 135.199 202.856 136.375 202.856C137.167 202.856 137.875 202.688 138.499 202.352C139.135 202.016 139.603 201.566 139.903 201.002L140.209 201.182C139.861 201.794 139.345 202.28 138.661 202.64C137.989 203 137.227 203.18 136.375 203.18C135.043 203.18 133.939 202.742 133.063 201.866C132.187 200.978 131.749 199.856 131.749 198.5C131.749 197.168 132.175 196.058 133.027 195.17C133.891 194.27 134.983 193.82 136.303 193.82ZM132.109 198.392H140.407C140.335 197.132 139.909 196.112 139.129 195.332C138.361 194.54 137.419 194.144 136.303 194.144C135.127 194.144 134.137 194.546 133.333 195.35C132.541 196.142 132.133 197.156 132.109 198.392ZM154.584 194H154.944V203H143.244V194H143.604V202.676H148.914V194H149.274V202.676H154.584V194ZM161.965 203.198C160.657 203.198 159.577 202.778 158.725 201.938C157.885 201.098 157.465 199.982 157.465 198.59C157.465 197.15 157.669 196.022 158.077 195.206C158.497 194.378 159.355 193.64 160.651 192.992C160.987 192.824 161.383 192.65 161.839 192.47C162.295 192.278 162.661 192.122 162.937 192.002C163.213 191.882 163.495 191.738 163.783 191.57C164.071 191.402 164.293 191.216 164.449 191.012C164.605 190.796 164.713 190.544 164.773 190.256L165.061 190.418C164.989 190.79 164.803 191.12 164.503 191.408C164.215 191.696 163.915 191.912 163.603 192.056C163.303 192.2 162.853 192.398 162.253 192.65C161.653 192.89 161.179 193.094 160.831 193.262C159.835 193.754 159.109 194.312 158.653 194.936C158.209 195.56 157.945 196.418 157.861 197.51C158.293 196.634 158.887 195.968 159.643 195.512C160.399 195.056 161.209 194.828 162.073 194.828C163.261 194.828 164.257 195.224 165.061 196.016C165.877 196.808 166.285 197.816 166.285 199.04C166.285 200.252 165.877 201.248 165.061 202.028C164.257 202.808 163.225 203.198 161.965 203.198ZM161.965 202.874C163.129 202.874 164.077 202.52 164.809 201.812C165.553 201.092 165.925 200.168 165.925 199.04C165.925 197.924 165.559 197 164.827 196.268C164.095 195.524 163.177 195.152 162.073 195.152C161.041 195.152 160.135 195.476 159.355 196.124C158.575 196.772 158.065 197.594 157.825 198.59C157.825 199.85 158.209 200.882 158.977 201.686C159.745 202.478 160.741 202.874 161.965 202.874ZM171.741 193.82C173.109 193.82 174.219 194.264 175.071 195.152C175.923 196.04 176.349 197.156 176.349 198.5C176.349 199.844 175.923 200.96 175.071 201.848C174.219 202.736 173.109 203.18 171.741 203.18C170.829 203.18 170.013 202.982 169.293 202.586C168.585 202.19 168.063 201.656 167.727 200.984L168.015 200.804C168.339 201.44 168.825 201.944 169.473 202.316C170.133 202.676 170.889 202.856 171.741 202.856C172.989 202.856 173.997 202.46 174.765 201.668C175.545 200.876 175.953 199.874 175.989 198.662H171.003V198.338H175.989C175.953 197.126 175.545 196.124 174.765 195.332C173.997 194.54 172.989 194.144 171.741 194.144C170.877 194.144 170.115 194.33 169.455 194.702C168.807 195.062 168.327 195.56 168.015 196.196L167.727 196.016C168.063 195.344 168.585 194.81 169.293 194.414C170.013 194.018 170.829 193.82 171.741 193.82ZM185.013 203H184.509L179.235 198.428V203H178.875V194H179.235V198.212L184.329 194H184.833L179.613 198.32L185.013 203Z" fill="#262626"/>
<path d="M54.9722 250.528C53.8522 251.648 52.4815 252.208 50.8602 252.208C49.2389 252.208 47.8629 251.648 46.7322 250.528C45.6122 249.397 45.0522 248.021 45.0522 246.4C45.0522 244.779 45.6122 243.408 46.7322 242.288C47.8629 241.157 49.2389 240.592 50.8602 240.592C52.4815 240.592 53.8522 241.157 54.9722 242.288C56.1029 243.408 56.6682 244.779 56.6682 246.4C56.6682 248.021 56.1029 249.397 54.9722 250.528ZM48.0282 249.28C48.7962 250.037 49.7402 250.416 50.8602 250.416C51.9802 250.416 52.9189 250.037 53.6762 249.28C54.4442 248.512 54.8282 247.552 54.8282 246.4C54.8282 245.248 54.4442 244.293 53.6762 243.536C52.9189 242.768 51.9802 242.384 50.8602 242.384C49.7402 242.384 48.7962 242.768 48.0282 243.536C47.2709 244.293 46.8922 245.248 46.8922 246.4C46.8922 247.552 47.2709 248.512 48.0282 249.28ZM61.9466 252.208C60.7199 252.208 59.7172 251.813 58.9386 251.024C58.1706 250.224 57.7866 249.205 57.7866 247.968C57.7866 246.613 57.9892 245.568 58.3946 244.832C58.7999 244.085 59.6212 243.408 60.8586 242.8C61.0612 242.704 61.3599 242.565 61.7546 242.384C62.1599 242.203 62.4372 242.075 62.5866 242C62.7359 241.915 62.9226 241.797 63.1466 241.648C63.3706 241.488 63.5359 241.323 63.6426 241.152C63.7492 240.971 63.8346 240.757 63.8986 240.512L65.3066 241.328C65.2639 241.563 65.1946 241.781 65.0986 241.984C65.0026 242.176 64.8639 242.357 64.6826 242.528C64.5012 242.699 64.3412 242.837 64.2026 242.944C64.0746 243.051 63.8559 243.179 63.5466 243.328C63.2372 243.477 63.0079 243.584 62.8586 243.648C62.7199 243.712 62.4532 243.824 62.0586 243.984C61.3546 244.261 60.8372 244.549 60.5066 244.848C60.1866 245.136 59.9626 245.499 59.8346 245.936C60.4746 245.211 61.3439 244.848 62.4426 244.848C63.3812 244.848 64.1972 245.184 64.8906 245.856C65.5946 246.528 65.9466 247.397 65.9466 248.464C65.9466 249.552 65.5732 250.448 64.8266 251.152C64.0906 251.856 63.1306 252.208 61.9466 252.208ZM61.9306 250.592C62.6026 250.592 63.1519 250.395 63.5786 250C64.0052 249.595 64.2186 249.083 64.2186 248.464C64.2186 247.835 64.0052 247.317 63.5786 246.912C63.1626 246.507 62.6186 246.304 61.9466 246.304C61.3492 246.304 60.8106 246.496 60.3306 246.88C59.8506 247.253 59.6106 247.755 59.6106 248.384C59.6106 249.024 59.8346 249.552 60.2826 249.968C60.7306 250.384 61.2799 250.592 61.9306 250.592ZM78.3527 250.368H79.4247V254.144H77.7287V252H67.3127V244H69.0407V250.368H71.9687V244H73.6967V250.368H76.6247V244H78.3527V250.368ZM86.8518 244H88.5798V252H86.8518V250.848C86.2011 251.755 85.2678 252.208 84.0518 252.208C82.9531 252.208 82.0145 251.803 81.2358 250.992C80.4571 250.171 80.0678 249.173 80.0678 248C80.0678 246.816 80.4571 245.819 81.2358 245.008C82.0145 244.197 82.9531 243.792 84.0518 243.792C85.2678 243.792 86.2011 244.24 86.8518 245.136V244ZM82.5158 249.84C82.9958 250.32 83.5985 250.56 84.3238 250.56C85.0491 250.56 85.6518 250.32 86.1318 249.84C86.6118 249.349 86.8518 248.736 86.8518 248C86.8518 247.264 86.6118 246.656 86.1318 246.176C85.6518 245.685 85.0491 245.44 84.3238 245.44C83.5985 245.44 82.9958 245.685 82.5158 246.176C82.0358 246.656 81.7958 247.264 81.7958 248C81.7958 248.736 82.0358 249.349 82.5158 249.84ZM96.7859 244V252H95.0899V249.312H94.1299L92.0979 252H90.0659L92.2259 249.152C91.6713 248.971 91.2233 248.651 90.8819 248.192C90.5513 247.733 90.3859 247.221 90.3859 246.656C90.3859 245.92 90.6473 245.296 91.1699 244.784C91.7033 244.261 92.3859 244 93.2179 244H96.7859ZM93.3139 247.824H95.0899V245.568H93.3139C92.9619 245.568 92.6686 245.669 92.4339 245.872C92.1993 246.075 92.0819 246.352 92.0819 246.704C92.0819 247.045 92.1993 247.317 92.4339 247.52C92.6686 247.723 92.9619 247.824 93.3139 247.824ZM106.573 252.208C105.368 252.208 104.36 251.803 103.549 250.992C102.749 250.181 102.349 249.184 102.349 248C102.349 246.805 102.749 245.808 103.549 245.008C104.36 244.197 105.368 243.792 106.573 243.792C107.352 243.792 108.061 243.979 108.701 244.352C109.341 244.725 109.821 245.227 110.141 245.856L108.653 246.72C108.472 246.336 108.194 246.037 107.821 245.824C107.458 245.6 107.037 245.488 106.557 245.488C105.853 245.488 105.261 245.728 104.781 246.208C104.312 246.688 104.077 247.285 104.077 248C104.077 248.715 104.312 249.312 104.781 249.792C105.261 250.272 105.853 250.512 106.557 250.512C107.026 250.512 107.448 250.4 107.821 250.176C108.205 249.952 108.493 249.653 108.685 249.28L110.173 250.128C109.832 250.768 109.341 251.275 108.701 251.648C108.061 252.021 107.352 252.208 106.573 252.208ZM116.548 244H118.388L115.316 252.256C114.943 253.269 114.42 254.027 113.748 254.528C113.076 255.029 112.298 255.253 111.412 255.2V253.584C111.956 253.616 112.394 253.504 112.724 253.248C113.066 253.003 113.338 252.603 113.54 252.048L113.588 251.936L110.228 244H112.068L114.5 249.824L116.548 244ZM127.629 244V252H125.949V246.736L123.645 250.4H123.437L121.149 246.752V252H119.469V244H121.229L123.549 247.696L125.869 244H127.629ZM137.785 244V252H136.105V246.736L133.801 250.4H133.593L131.305 246.752V252H129.625V244H131.385L133.705 247.696L136.025 244H137.785ZM146.117 244H147.845V252H146.117V250.848C145.467 251.755 144.533 252.208 143.317 252.208C142.219 252.208 141.28 251.803 140.501 250.992C139.723 250.171 139.333 249.173 139.333 248C139.333 246.816 139.723 245.819 140.501 245.008C141.28 244.197 142.219 243.792 143.317 243.792C144.533 243.792 145.467 244.24 146.117 245.136V244ZM141.781 249.84C142.261 250.32 142.864 250.56 143.589 250.56C144.315 250.56 144.917 250.32 145.397 249.84C145.877 249.349 146.117 248.736 146.117 248C146.117 247.264 145.877 246.656 145.397 246.176C144.917 245.685 144.315 245.44 143.589 245.44C142.864 245.44 142.261 245.685 141.781 246.176C141.301 246.656 141.061 247.264 141.061 248C141.061 248.736 141.301 249.349 141.781 249.84ZM159.396 247.888C160.185 248.251 160.58 248.864 160.58 249.728C160.58 250.4 160.35 250.949 159.892 251.376C159.444 251.792 158.798 252 157.956 252H153.86V244H157.636C158.457 244 159.092 244.208 159.54 244.624C159.998 245.029 160.228 245.557 160.228 246.208C160.228 246.965 159.95 247.525 159.396 247.888ZM157.508 245.472H155.508V247.248H157.508C158.212 247.248 158.564 246.949 158.564 246.352C158.564 245.765 158.212 245.472 157.508 245.472ZM157.796 250.496C158.521 250.496 158.884 250.181 158.884 249.552C158.884 249.275 158.788 249.061 158.596 248.912C158.404 248.752 158.137 248.672 157.796 248.672H155.508V250.496H157.796ZM168.321 244H170.049V252H168.321V250.848C167.67 251.755 166.737 252.208 165.521 252.208C164.422 252.208 163.483 251.803 162.705 250.992C161.926 250.171 161.537 249.173 161.537 248C161.537 246.816 161.926 245.819 162.705 245.008C163.483 244.197 164.422 243.792 165.521 243.792C166.737 243.792 167.67 244.24 168.321 245.136V244ZM163.985 249.84C164.465 250.32 165.067 250.56 165.793 250.56C166.518 250.56 167.121 250.32 167.601 249.84C168.081 249.349 168.321 248.736 168.321 248C168.321 247.264 168.081 246.656 167.601 246.176C167.121 245.685 166.518 245.44 165.793 245.44C165.067 245.44 164.465 245.685 163.985 246.176C163.505 246.656 163.265 247.264 163.265 248C163.265 248.736 163.505 249.349 163.985 249.84ZM181.535 244H183.263V252H172.063V244H173.791V250.368H176.799V244H178.527V250.368H181.535V244ZM191.058 244H192.386V252H190.69V246.912L186.594 252H185.266V244H186.962V249.072L191.058 244ZM201.543 252H199.543L197.559 249.264L195.559 252H193.543L196.551 247.888L193.703 244H195.703L197.543 246.528L199.383 244H201.399L198.551 247.904L201.543 252ZM211.199 247.904C212.053 248.288 212.479 248.923 212.479 249.808C212.479 250.491 212.202 251.061 211.647 251.52C211.093 251.979 210.319 252.208 209.327 252.208C207.717 252.208 206.629 251.568 206.063 250.288L207.471 249.456C207.759 250.256 208.383 250.656 209.343 250.656C209.791 250.656 210.143 250.565 210.399 250.384C210.655 250.192 210.783 249.941 210.783 249.632C210.783 249.355 210.682 249.136 210.479 248.976C210.277 248.805 209.994 248.72 209.631 248.72H208.495V247.2H209.343C209.695 247.2 209.967 247.12 210.159 246.96C210.362 246.789 210.463 246.56 210.463 246.272C210.463 245.995 210.351 245.771 210.127 245.6C209.903 245.419 209.605 245.328 209.231 245.328C208.431 245.328 207.877 245.68 207.567 246.384L206.159 245.584C206.757 244.389 207.77 243.792 209.199 243.792C210.095 243.792 210.805 244.021 211.327 244.48C211.861 244.928 212.127 245.477 212.127 246.128C212.127 246.928 211.818 247.52 211.199 247.904ZM220.227 244H221.955V252H220.227V250.848C219.576 251.755 218.643 252.208 217.427 252.208C216.328 252.208 215.389 251.803 214.611 250.992C213.832 250.171 213.443 249.173 213.443 248C213.443 246.816 213.832 245.819 214.611 245.008C215.389 244.197 216.328 243.792 217.427 243.792C218.643 243.792 219.576 244.24 220.227 245.136V244ZM215.891 249.84C216.371 250.32 216.973 250.56 217.699 250.56C218.424 250.56 219.027 250.32 219.507 249.84C219.987 249.349 220.227 248.736 220.227 248C220.227 247.264 219.987 246.656 219.507 246.176C219.027 245.685 218.424 245.44 217.699 245.44C216.973 245.44 216.371 245.685 215.891 246.176C215.411 246.656 215.171 247.264 215.171 248C215.171 248.736 215.411 249.349 215.891 249.84ZM231.041 252H228.977L225.697 248.304V252H223.969V244H225.697V247.536L228.801 244H230.913L227.393 247.92L231.041 252ZM237.899 244H239.627V252H237.899V250.848C237.248 251.755 236.315 252.208 235.099 252.208C234 252.208 233.061 251.803 232.283 250.992C231.504 250.171 231.115 249.173 231.115 248C231.115 246.816 231.504 245.819 232.283 245.008C233.061 244.197 234 243.792 235.099 243.792C236.315 243.792 237.248 244.24 237.899 245.136V244ZM233.563 249.84C234.043 250.32 234.645 250.56 235.371 250.56C236.096 250.56 236.699 250.32 237.179 249.84C237.659 249.349 237.899 248.736 237.899 248C237.899 247.264 237.659 246.656 237.179 246.176C236.699 245.685 236.096 245.44 235.371 245.44C234.645 245.44 234.043 245.685 233.563 246.176C233.083 246.656 232.843 247.264 232.843 248C232.843 248.736 233.083 249.349 233.563 249.84ZM246.137 247.904C246.99 248.288 247.417 248.923 247.417 249.808C247.417 250.491 247.139 251.061 246.585 251.52C246.03 251.979 245.257 252.208 244.265 252.208C242.654 252.208 241.566 251.568 241.001 250.288L242.409 249.456C242.697 250.256 243.321 250.656 244.281 250.656C244.729 250.656 245.081 250.565 245.337 250.384C245.593 250.192 245.721 249.941 245.721 249.632C245.721 249.355 245.619 249.136 245.417 248.976C245.214 248.805 244.931 248.72 244.569 248.72H243.433V247.2H244.281C244.633 247.2 244.905 247.12 245.097 246.96C245.299 246.789 245.401 246.56 245.401 246.272C245.401 245.995 245.289 245.771 245.065 245.6C244.841 245.419 244.542 245.328 244.169 245.328C243.369 245.328 242.814 245.68 242.505 246.384L241.097 245.584C241.694 244.389 242.707 243.792 244.137 243.792C245.033 243.792 245.742 244.021 246.265 244.48C246.798 244.928 247.065 245.477 247.065 246.128C247.065 246.928 246.755 247.52 246.137 247.904ZM252.604 252.208C251.431 252.208 250.434 251.803 249.612 250.992C248.791 250.181 248.38 249.184 248.38 248C248.38 246.816 248.791 245.819 249.612 245.008C250.434 244.197 251.431 243.792 252.604 243.792C253.788 243.792 254.786 244.197 255.596 245.008C256.418 245.819 256.828 246.816 256.828 248C256.828 249.184 256.418 250.181 255.596 250.992C254.786 251.803 253.788 252.208 252.604 252.208ZM250.828 249.808C251.308 250.288 251.9 250.528 252.604 250.528C253.308 250.528 253.9 250.288 254.38 249.808C254.86 249.328 255.1 248.725 255.1 248C255.1 247.275 254.86 246.672 254.38 246.192C253.9 245.712 253.308 245.472 252.604 245.472C251.9 245.472 251.308 245.712 250.828 246.192C250.348 246.672 250.108 247.275 250.108 248C250.108 248.725 250.348 249.328 250.828 249.808ZM263.927 247.888C264.716 248.251 265.111 248.864 265.111 249.728C265.111 250.4 264.881 250.949 264.423 251.376C263.975 251.792 263.329 252 262.487 252H258.391V244H262.167C262.988 244 263.623 244.208 264.071 244.624C264.529 245.029 264.759 245.557 264.759 246.208C264.759 246.965 264.481 247.525 263.927 247.888ZM262.039 245.472H260.039V247.248H262.039C262.743 247.248 263.095 246.949 263.095 246.352C263.095 245.765 262.743 245.472 262.039 245.472ZM262.327 250.496C263.052 250.496 263.415 250.181 263.415 249.552C263.415 249.275 263.319 249.061 263.127 248.912C262.935 248.752 262.668 248.672 262.327 248.672H260.039V250.496H262.327ZM85.0655 266V274H83.3375V267.632H79.6735V274H77.9455V266H85.0655ZM91.5985 265.792C92.6972 265.792 93.6358 266.203 94.4145 267.024C95.1932 267.835 95.5825 268.827 95.5825 270C95.5825 271.184 95.1932 272.181 94.4145 272.992C93.6358 273.803 92.6972 274.208 91.5985 274.208C90.3825 274.208 89.4492 273.76 88.7985 272.864V277.2H87.0705V266H88.7985V267.152C89.4492 266.245 90.3825 265.792 91.5985 265.792ZM89.5185 271.84C89.9985 272.32 90.6012 272.56 91.3265 272.56C92.0518 272.56 92.6545 272.32 93.1345 271.84C93.6145 271.349 93.8545 270.736 93.8545 270C93.8545 269.264 93.6145 268.656 93.1345 268.176C92.6545 267.685 92.0518 267.44 91.3265 267.44C90.6012 267.44 89.9985 267.685 89.5185 268.176C89.0385 268.656 88.7985 269.264 88.7985 270C88.7985 270.736 89.0385 271.349 89.5185 271.84ZM98.5086 270.736C98.6366 271.344 98.93 271.813 99.3886 272.144C99.8473 272.464 100.407 272.624 101.069 272.624C101.986 272.624 102.674 272.293 103.133 271.632L104.557 272.464C103.767 273.627 102.599 274.208 101.053 274.208C99.7513 274.208 98.7006 273.813 97.9006 273.024C97.1006 272.224 96.7006 271.216 96.7006 270C96.7006 268.805 97.0953 267.808 97.8846 267.008C98.674 266.197 99.6873 265.792 100.925 265.792C102.098 265.792 103.058 266.203 103.805 267.024C104.562 267.845 104.941 268.843 104.941 270.016C104.941 270.197 104.919 270.437 104.877 270.736H98.5086ZM98.4926 269.328H103.197C103.079 268.677 102.807 268.187 102.381 267.856C101.965 267.525 101.474 267.36 100.909 267.36C100.269 267.36 99.7353 267.536 99.3086 267.888C98.882 268.24 98.61 268.72 98.4926 269.328ZM111.997 269.888C112.786 270.251 113.181 270.864 113.181 271.728C113.181 272.4 112.952 272.949 112.493 273.376C112.045 273.792 111.4 274 110.557 274H106.461V266H110.237C111.058 266 111.693 266.208 112.141 266.624C112.6 267.029 112.829 267.557 112.829 268.208C112.829 268.965 112.552 269.525 111.997 269.888ZM110.109 267.472H108.109V269.248H110.109C110.813 269.248 111.165 268.949 111.165 268.352C111.165 267.765 110.813 267.472 110.109 267.472ZM110.397 272.496C111.122 272.496 111.485 272.181 111.485 271.552C111.485 271.275 111.389 271.061 111.197 270.912C111.005 270.752 110.738 270.672 110.397 270.672H108.109V272.496H110.397ZM118.074 268.72C118.927 268.72 119.626 268.965 120.17 269.456C120.714 269.936 120.986 270.571 120.986 271.36C120.986 272.139 120.714 272.773 120.17 273.264C119.626 273.755 118.927 274 118.074 274H114.586V266H116.314V268.72H118.074ZM121.946 266H123.674V274H121.946V266ZM118.09 272.448C118.431 272.448 118.714 272.347 118.938 272.144C119.173 271.941 119.29 271.68 119.29 271.36C119.29 271.029 119.173 270.768 118.938 270.576C118.714 270.373 118.431 270.272 118.09 270.272H116.314V272.448H118.09ZM135.152 266H136.88V274H125.68V266H127.408V272.368H130.416V266H132.144V272.368H135.152V266ZM145.219 266H146.947V274H145.219V272.848C144.568 273.755 143.635 274.208 142.419 274.208C141.32 274.208 140.382 273.803 139.603 272.992C138.824 272.171 138.435 271.173 138.435 270C138.435 268.816 138.824 267.819 139.603 267.008C140.382 266.197 141.32 265.792 142.419 265.792C143.635 265.792 144.568 266.24 145.219 267.136V266ZM140.883 271.84C141.363 272.32 141.966 272.56 142.691 272.56C143.416 272.56 144.019 272.32 144.499 271.84C144.979 271.349 145.219 270.736 145.219 270C145.219 269.264 144.979 268.656 144.499 268.176C144.019 267.685 143.416 267.44 142.691 267.44C141.966 267.44 141.363 267.685 140.883 268.176C140.403 268.656 140.163 269.264 140.163 270C140.163 270.736 140.403 271.349 140.883 271.84ZM150.321 270.736C150.449 271.344 150.742 271.813 151.201 272.144C151.66 272.464 152.22 272.624 152.881 272.624C153.798 272.624 154.486 272.293 154.945 271.632L156.369 272.464C155.58 273.627 154.412 274.208 152.865 274.208C151.564 274.208 150.513 273.813 149.713 273.024C148.913 272.224 148.513 271.216 148.513 270C148.513 268.805 148.908 267.808 149.697 267.008C150.486 266.197 151.5 265.792 152.737 265.792C153.91 265.792 154.87 266.203 155.617 267.024C156.374 267.845 156.753 268.843 156.753 270.016C156.753 270.197 156.732 270.437 156.689 270.736H150.321ZM150.305 269.328H155.009C154.892 268.677 154.62 268.187 154.193 267.856C153.777 267.525 153.286 267.36 152.721 267.36C152.081 267.36 151.548 267.536 151.121 267.888C150.694 268.24 150.422 268.72 150.305 269.328ZM164.073 266V267.664H161.465V274H159.737V267.664H157.113V266H164.073ZM168.73 274V272.56L172.634 268.576C173.584 267.627 174.058 266.805 174.058 266.112C174.058 265.568 173.893 265.147 173.562 264.848C173.242 264.539 172.832 264.384 172.33 264.384C171.392 264.384 170.698 264.848 170.25 265.776L168.698 264.864C169.05 264.117 169.546 263.552 170.186 263.168C170.826 262.784 171.536 262.592 172.314 262.592C173.296 262.592 174.138 262.901 174.842 263.52C175.546 264.139 175.898 264.981 175.898 266.048C175.898 267.189 175.264 268.405 173.994 269.696L171.466 272.224H176.106V274H168.73ZM180.947 267.024C182.014 267.024 182.915 267.344 183.651 267.984C184.387 268.613 184.755 269.488 184.755 270.608C184.755 271.728 184.376 272.608 183.619 273.248C182.862 273.888 181.934 274.208 180.835 274.208C179.95 274.208 179.166 274.005 178.483 273.6C177.8 273.184 177.315 272.587 177.027 271.808L178.611 270.896C178.91 271.909 179.651 272.416 180.835 272.416C181.464 272.416 181.966 272.256 182.339 271.936C182.723 271.605 182.915 271.163 182.915 270.608C182.915 270.053 182.728 269.616 182.355 269.296C181.982 268.976 181.486 268.816 180.867 268.816H177.603L178.035 262.8H184.275V264.528H179.731L179.539 267.024H180.947ZM197.538 272.624C196.77 273.68 195.692 274.208 194.306 274.208C192.919 274.208 191.836 273.68 191.058 272.624C190.29 271.568 189.906 270.16 189.906 268.4C189.906 266.64 190.29 265.232 191.058 264.176C191.836 263.12 192.919 262.592 194.306 262.592C195.692 262.592 196.77 263.12 197.538 264.176C198.316 265.232 198.706 266.64 198.706 268.4C198.706 270.16 198.316 271.568 197.538 272.624ZM194.306 272.416C195.138 272.416 195.772 272.069 196.21 271.376C196.647 270.683 196.866 269.691 196.866 268.4C196.866 267.109 196.647 266.117 196.21 265.424C195.772 264.731 195.138 264.384 194.306 264.384C193.484 264.384 192.85 264.731 192.402 265.424C191.964 266.117 191.746 267.109 191.746 268.4C191.746 269.691 191.964 270.683 192.402 271.376C192.85 272.069 193.484 272.416 194.306 272.416ZM207.616 272.624C206.848 273.68 205.77 274.208 204.384 274.208C202.997 274.208 201.914 273.68 201.136 272.624C200.368 271.568 199.984 270.16 199.984 268.4C199.984 266.64 200.368 265.232 201.136 264.176C201.914 263.12 202.997 262.592 204.384 262.592C205.77 262.592 206.848 263.12 207.616 264.176C208.394 265.232 208.784 266.64 208.784 268.4C208.784 270.16 208.394 271.568 207.616 272.624ZM204.384 272.416C205.216 272.416 205.85 272.069 206.288 271.376C206.725 270.683 206.944 269.691 206.944 268.4C206.944 267.109 206.725 266.117 206.288 265.424C205.85 264.731 205.216 264.384 204.384 264.384C203.562 264.384 202.928 264.731 202.48 265.424C202.042 266.117 201.824 267.109 201.824 268.4C201.824 269.691 202.042 270.683 202.48 271.376C202.928 272.069 203.562 272.416 204.384 272.416ZM217.694 272.624C216.926 273.68 215.849 274.208 214.462 274.208C213.075 274.208 211.993 273.68 211.214 272.624C210.446 271.568 210.062 270.16 210.062 268.4C210.062 266.64 210.446 265.232 211.214 264.176C211.993 263.12 213.075 262.592 214.462 262.592C215.849 262.592 216.926 263.12 217.694 264.176C218.473 265.232 218.862 266.64 218.862 268.4C218.862 270.16 218.473 271.568 217.694 272.624ZM214.462 272.416C215.294 272.416 215.929 272.069 216.366 271.376C216.803 270.683 217.022 269.691 217.022 268.4C217.022 267.109 216.803 266.117 216.366 265.424C215.929 264.731 215.294 264.384 214.462 264.384C213.641 264.384 213.006 264.731 212.558 265.424C212.121 266.117 211.902 267.109 211.902 268.4C211.902 269.691 212.121 270.683 212.558 271.376C213.006 272.069 213.641 272.416 214.462 272.416ZM229.148 269.92H226.86V270.992H230.62V272.24H226.86V274H225.02V272.24H223.74V270.992H225.02V269.92H223.74V268.272H225.02V262.8H229.148C230.161 262.8 231.02 263.152 231.724 263.856C232.428 264.549 232.78 265.397 232.78 266.4C232.78 267.392 232.428 268.229 231.724 268.912C231.02 269.584 230.161 269.92 229.148 269.92ZM226.86 264.528V268.272H229.148C229.649 268.272 230.071 268.091 230.412 267.728C230.764 267.365 230.94 266.923 230.94 266.4C230.94 265.877 230.764 265.435 230.412 265.072C230.071 264.709 229.649 264.528 229.148 264.528H226.86Z" fill="#262626"/>
</svg>
