<svg width="40" height="40" viewBox="0 0 40 40" fill="none" xmlns="http://www.w3.org/2000/svg">
<path d="M33.2664 6.84672H27.273V0.86826C27.273 0.256827 26.7343 -0.150794 26.1282 0.0530175C5.58913 7.18641 6.5319 6.84672 6.46456 6.91465C6.1952 7.05053 5.99316 7.39022 5.99316 7.66197V39.1168C5.99316 39.5924 6.3972 40 6.86859 40H33.2664C33.7378 40 34.1418 39.5924 34.1418 39.1168V7.7299C34.1418 7.25434 33.7378 6.84672 33.2664 6.84672ZM25.5895 2.09113V6.84672H11.9192L25.5895 2.09113ZM32.391 38.3016H7.74402V8.54515C8.41744 8.54515 31.7849 8.54515 32.4583 8.54515V38.3016H32.391Z" fill="#E31E24"/>
<path d="M11.9203 11.1273C11.9203 12.0105 11.1795 12.6899 10.2368 12.6899C9.76537 12.6899 9.36133 13.0975 9.36133 13.5731V33.3427C9.36133 33.8183 9.76537 34.2259 10.2368 34.2259C11.1122 34.2259 11.9203 34.9732 11.9203 35.7885C11.9203 36.264 12.3243 36.6717 12.7957 36.6717H27.5435C28.0149 36.6717 28.4189 36.264 28.4189 35.7885C28.4189 34.9053 29.0923 34.2259 29.9678 34.2259C30.4391 34.2259 30.8432 33.8183 30.8432 33.3427V13.5731C30.8432 13.0975 30.4391 12.6899 29.9678 12.6899C29.0923 12.6899 28.4189 12.0105 28.4189 11.1273C28.4189 10.6518 28.0149 10.2441 27.5435 10.2441H12.7284C12.257 10.2441 11.9203 10.6518 11.9203 11.1273ZM29.025 29.4024H11.1122V28.5192H29.0923V29.4024H29.025ZM26.6681 34.9053H13.4691C13.1324 33.8183 12.257 32.8672 11.1122 32.5954V31.1008H29.0923V32.5954C27.8802 32.8672 26.9374 33.7504 26.6681 34.9053ZM26.6681 11.9426C26.9374 13.0975 27.8802 13.9807 28.9576 14.2524V20.8423H27.2068C26.7354 20.8423 26.3314 21.2499 26.3314 21.7255C26.3314 22.2011 26.7354 22.6087 27.2068 22.6087H28.9576V26.8208H11.0449V19.2118H12.7284C13.1998 19.2118 13.6038 18.8042 13.6038 18.3286C13.6038 17.8531 13.1998 17.4455 12.7284 17.4455H11.0449V14.2524C12.1897 13.9807 13.1324 13.0296 13.4018 11.9426H26.6681Z" fill="#E31E24"/>
<path d="M10.2353 9.43164H8.55176V11.1301H10.2353V9.43164Z" fill="#E31E24"/>
<path d="M10.2353 35.7207H8.55176V37.4191H10.2353V35.7207Z" fill="#E31E24"/>
<path d="M31.5829 9.43164H29.8994V11.1301H31.5829V9.43164Z" fill="#E31E24"/>
<path d="M31.5829 35.7207H29.8994V37.4191H31.5829V35.7207Z" fill="#E31E24"/>
<path d="M36.6332 10.6504C37.1046 10.6504 37.5087 11.058 37.5087 11.5336C37.5087 12.0091 37.1046 12.4168 36.6332 12.4168C36.1619 12.4168 35.7578 12.0091 35.7578 11.5336C35.7578 11.058 36.1619 10.6504 36.6332 10.6504Z" fill="#E31E24"/>
<path d="M12.7944 21.7266C13.2658 21.7266 13.6698 22.1342 13.6698 22.6097C13.6698 23.0853 13.2658 23.4929 12.7944 23.4929C12.323 23.4929 11.9189 23.0853 11.9189 22.6097C11.9189 22.1342 12.323 21.7266 12.7944 21.7266Z" fill="#E31E24"/>
<path d="M26.3989 16.6289C26.8703 16.6289 27.2743 17.0365 27.2743 17.5121C27.2743 17.9876 26.8703 18.3953 26.3989 18.3953C25.9275 18.3953 25.5234 17.9876 25.5234 17.5121C25.5234 17.0365 25.9275 16.6289 26.3989 16.6289Z" fill="#E31E24"/>
<path d="M29.8315 0.458984C30.3029 0.458984 30.707 0.866609 30.707 1.34217C30.707 1.81773 30.3029 2.22535 29.8315 2.22535C29.3601 2.22535 28.9561 1.81773 28.9561 1.34217C28.9561 0.866609 29.3601 0.458984 29.8315 0.458984Z" fill="#E31E24"/>
<path d="M36.6332 2.1582C37.1046 2.1582 37.5087 2.56583 37.5087 3.04139C37.5087 3.51695 37.1046 3.92457 36.6332 3.92457C36.1619 3.92457 35.7578 3.51695 35.7578 3.04139C35.7578 2.56583 36.1619 2.1582 36.6332 2.1582Z" fill="#E31E24"/>
<path d="M11.1118 0.458984C11.5831 0.458984 11.9872 0.866609 11.9872 1.34217C11.9872 1.81773 11.5831 2.22535 11.1118 2.22535C10.6404 2.22535 10.2363 1.81773 10.2363 1.34217C10.2363 0.866609 10.573 0.458984 11.1118 0.458984Z" fill="#E31E24"/>
<path d="M2.56004 9.83594C3.03143 9.83594 3.43547 10.2436 3.43547 10.7191C3.43547 11.1947 3.03143 11.6023 2.56004 11.6023C2.08865 11.6023 1.68457 11.1947 1.68457 10.7191C1.68457 10.2436 2.08865 9.83594 2.56004 9.83594Z" fill="#E31E24"/>
<path d="M3.36762 20.0254C3.83901 20.0254 4.24309 20.433 4.24309 20.9086C4.24309 21.3841 3.83901 21.7918 3.36762 21.7918C2.89623 21.7918 2.49219 21.3841 2.49219 20.9086C2.49219 20.433 2.89623 20.0254 3.36762 20.0254Z" fill="#E31E24"/>
<path d="M35.7573 31.916C36.2287 31.916 36.6327 32.3236 36.6327 32.7992C36.6327 33.2748 36.2287 33.6824 35.7573 33.6824C35.2859 33.6824 34.8818 33.2748 34.8818 32.7992C34.8818 32.3236 35.2859 31.916 35.7573 31.916Z" fill="#E31E24"/>
<path d="M2.56004 34.4297C3.03143 34.4297 3.43547 34.8373 3.43547 35.3129C3.43547 35.7884 3.03143 36.1961 2.56004 36.1961C2.08865 36.1961 1.68457 35.7884 1.68457 35.3129C1.68457 34.8373 2.08865 34.4297 2.56004 34.4297Z" fill="#E31E24"/>
<path d="M2.08761 28.5195C0.942803 28.5195 0 29.4707 0 30.6256C0 31.7805 0.942803 32.7316 2.08761 32.7316C3.23241 32.7316 4.17517 31.7805 4.17517 30.6256C4.24251 29.4707 3.23241 28.5195 2.08761 28.5195ZM2.08761 31.1011C1.88558 31.1011 1.68353 30.8973 1.68353 30.6935C1.68353 30.4897 1.88558 30.2859 2.08761 30.2859C2.28963 30.2859 2.49164 30.4897 2.49164 30.6935C2.55898 30.8973 2.35697 31.1011 2.08761 31.1011Z" fill="#E31E24"/>
<path d="M37.4408 19.209C36.0266 19.209 34.8818 20.3639 34.8818 21.7906C34.8818 23.2173 36.0266 24.3722 37.4408 24.3722C38.855 24.3722 39.9998 23.2173 39.9998 21.7906C39.9998 20.3639 38.855 19.209 37.4408 19.209ZM37.4408 22.6058C36.9694 22.6058 36.5654 22.1982 36.5654 21.7227C36.5654 21.2471 36.9694 20.8395 37.4408 20.8395C37.9122 20.8395 38.3162 21.2471 38.3162 21.7227C38.3162 22.1982 37.9122 22.6058 37.4408 22.6058Z" fill="#E31E24"/>
</svg>
