<svg width="40" height="40" viewBox="0 0 40 40" fill="none" xmlns="http://www.w3.org/2000/svg">
<path d="M19.0646 0C9.13659 0 1.0791 7.52224 1.0791 16.7387C1.0791 27.446 11.6546 31.1055 18.3451 39.6442C18.7049 40.1186 19.4243 40.1186 19.784 39.6442C26.4746 31.1055 37.05 27.446 37.05 16.7387C37.05 7.52224 28.9925 0 19.0646 0ZM19.0646 37.7467C12.302 29.6823 2.87765 26.2262 2.87765 16.7387C2.87765 8.47099 10.1438 1.6942 19.0646 1.6942C27.9134 1.6942 35.2515 8.47099 35.2515 16.7387C35.2515 26.1584 25.8271 29.6823 19.0646 37.7467Z" fill="#E31E24"/>
<path d="M19.0644 5.01562C12.158 5.01562 6.47461 10.3015 6.47461 16.7395C6.47461 23.1774 12.158 28.4633 19.0644 28.4633C25.9708 28.4633 31.6543 23.1774 31.6543 16.7395C31.6543 10.3015 25.9708 5.01562 19.0644 5.01562ZM19.0644 26.7691C13.453 26.7691 8.77673 22.703 8.34508 17.5527H11.7983C12.3019 17.5527 12.7335 17.146 12.7335 16.6717C12.7335 16.1973 12.3019 15.7907 11.7983 15.7907H8.34508C8.77673 10.6403 13.453 6.57428 19.0644 6.57428C24.6759 6.57428 29.3521 10.6403 29.7837 15.7907H26.3305C25.8269 15.7907 25.3953 16.1973 25.3953 16.6717C25.3953 17.146 25.8269 17.5527 26.3305 17.5527H29.7837C29.3521 22.703 24.6759 26.7691 19.0644 26.7691Z" fill="#E31E24"/>
<path d="M24.5326 10.709H13.5974C12.878 10.709 12.4463 11.4544 12.8061 11.9966L18.1297 20.332V22.5684H17.1945C16.6909 22.5684 16.2593 22.975 16.2593 23.4493C16.2593 23.9237 16.6909 24.3304 17.1945 24.3304H20.8635C21.3671 24.3304 21.7988 23.9237 21.7988 23.4493C21.7988 22.975 21.3671 22.5684 20.8635 22.5684H19.8563V20.332L25.1801 11.9966C25.6837 11.3867 25.252 10.709 24.5326 10.709ZM19.065 18.3667L15.1801 12.3354H22.8779L19.065 18.3667Z" fill="#E31E24"/>
<path d="M2.73378 31.0371C1.223 31.0371 0 32.1892 0 33.6123C0 35.0354 1.223 36.1875 2.73378 36.1875C4.24456 36.1875 5.46756 35.0354 5.46756 33.6123C5.46756 32.1892 4.24456 31.0371 2.73378 31.0371ZM2.73378 34.4255C2.23019 34.4255 1.79855 34.0189 1.79855 33.5445C1.79855 33.0702 2.23019 32.6636 2.73378 32.6636C3.23737 32.6636 3.66902 33.0702 3.66902 33.5445C3.66902 34.0189 3.23737 34.4255 2.73378 34.4255Z" fill="#E31E24"/>
<path d="M35.0352 30.1562C33.3086 30.1562 31.7979 31.5116 31.7979 33.1381C31.7979 34.7645 33.2367 36.1198 35.0352 36.1198C36.7618 36.1198 38.2726 34.7645 38.2726 33.1381C38.2007 31.5116 36.7618 30.1562 35.0352 30.1562ZM35.0352 34.4256C34.3158 34.4256 33.6684 33.8835 33.6684 33.1381C33.6684 32.3926 34.2439 31.8504 35.0352 31.8504C35.8266 31.8504 36.4021 32.3926 36.4021 33.1381C36.4021 33.8835 35.7547 34.4256 35.0352 34.4256Z" fill="#E31E24"/>
<path d="M33.6687 1.35547C34.1723 1.35547 34.6039 1.76207 34.6039 2.23644C34.6039 2.71082 34.1723 3.11742 33.6687 3.11742C33.1651 3.11742 32.7334 2.71082 32.7334 2.23644C32.6615 1.76207 33.0931 1.35547 33.6687 1.35547Z" fill="#E31E24"/>
<path d="M39.0651 7.25C39.5687 7.25 40.0004 7.6566 40.0004 8.13097C40.0004 8.60535 39.5687 9.01195 39.0651 9.01195C38.5615 9.01195 38.1299 8.60535 38.1299 8.13097C38.1299 7.6566 38.5615 7.25 39.0651 7.25Z" fill="#E31E24"/>
<path d="M2.7341 3.04883C3.23769 3.04883 3.66933 3.45543 3.66933 3.9298C3.66933 4.40418 3.23769 4.81078 2.7341 4.81078C2.2305 4.81078 1.79886 4.40418 1.79886 3.9298C1.72692 3.45543 2.15856 3.04883 2.7341 3.04883Z" fill="#E31E24"/>
<path d="M1.79856 25.8867C2.30215 25.8867 2.7338 26.2933 2.7338 26.7677C2.7338 27.2421 2.30215 27.6487 1.79856 27.6487C1.29497 27.6487 0.863281 27.2421 0.863281 26.7677C0.863281 26.2933 1.29497 25.8867 1.79856 25.8867Z" fill="#E31E24"/>
<path d="M9.13644 35.2402C9.64003 35.2402 10.0717 35.6468 10.0717 36.1212C10.0717 36.5956 9.64003 37.0022 9.13644 37.0022C8.63285 37.0022 8.2012 36.5956 8.2012 36.1212C8.12926 35.6468 8.5609 35.2402 9.13644 35.2402Z" fill="#E31E24"/>
<path d="M28.2018 35.2402C28.7054 35.2402 29.1371 35.6468 29.1371 36.1212C29.1371 36.5956 28.7054 37.0022 28.2018 37.0022C27.6982 37.0022 27.2666 36.5956 27.2666 36.1212C27.2666 35.6468 27.6263 35.2402 28.2018 35.2402Z" fill="#E31E24"/>
<path d="M37.2663 24.1934C37.7699 24.1934 38.2015 24.6 38.2015 25.0743C38.2015 25.5487 37.7699 25.9553 37.2663 25.9553C36.7627 25.9553 36.3311 25.5487 36.3311 25.0743C36.3311 24.6 36.7627 24.1934 37.2663 24.1934Z" fill="#E31E24"/>
</svg>
