<svg width="310" height="310" viewBox="0 0 310 310" fill="none" xmlns="http://www.w3.org/2000/svg">
<rect x="0.5" y="0.5" width="309" height="309" rx="19.5" fill="white" stroke="#FBBB1F"/>
<rect width="250" height="246" transform="translate(30 32)" fill="white"/>
<path fill-rule="evenodd" clip-rule="evenodd" d="M153.329 35.4769C153.934 33.9712 156.065 33.9712 156.67 35.4769L161.383 47.2143L174.003 48.07C175.622 48.1798 176.28 50.2069 175.035 51.2472L165.329 59.357L168.415 71.6233C168.81 73.1968 167.086 74.4496 165.712 73.5869L155 66.8616L144.287 73.5869C142.913 74.4496 141.189 73.1968 141.585 71.6233L144.67 59.357L134.964 51.2472C133.719 50.2069 134.378 48.1798 135.996 48.07L148.616 47.2143L153.329 35.4769Z" fill="#FBBB1F"/>
<path d="M139.91 110.3V112.61H134.03V125H131.615V110.3H139.91ZM144.422 125.273C142.882 125.273 141.573 124.741 140.495 123.677C139.417 122.613 138.878 121.304 138.878 119.75C138.878 118.196 139.417 116.887 140.495 115.823C141.573 114.759 142.882 114.227 144.422 114.227C145.976 114.227 147.285 114.759 148.349 115.823C149.427 116.887 149.966 118.196 149.966 119.75C149.966 121.304 149.427 122.613 148.349 123.677C147.285 124.741 145.976 125.273 144.422 125.273ZM142.091 122.123C142.721 122.753 143.498 123.068 144.422 123.068C145.346 123.068 146.123 122.753 146.753 122.123C147.383 121.493 147.698 120.702 147.698 119.75C147.698 118.798 147.383 118.007 146.753 117.377C146.123 116.747 145.346 116.432 144.422 116.432C143.498 116.432 142.721 116.747 142.091 117.377C141.461 118.007 141.146 118.798 141.146 119.75C141.146 120.702 141.461 121.493 142.091 122.123ZM156.973 125.273C155.391 125.273 154.068 124.741 153.004 123.677C151.954 122.613 151.429 121.304 151.429 119.75C151.429 118.182 151.954 116.873 153.004 115.823C154.068 114.759 155.391 114.227 156.973 114.227C157.995 114.227 158.926 114.472 159.766 114.962C160.606 115.452 161.236 116.11 161.656 116.936L159.703 118.07C159.465 117.566 159.101 117.174 158.611 116.894C158.135 116.6 157.582 116.453 156.952 116.453C156.028 116.453 155.251 116.768 154.621 117.398C154.005 118.028 153.697 118.812 153.697 119.75C153.697 120.688 154.005 121.472 154.621 122.102C155.251 122.732 156.028 123.047 156.952 123.047C157.568 123.047 158.121 122.9 158.611 122.606C159.115 122.312 159.493 121.92 159.745 121.43L161.698 122.543C161.25 123.383 160.606 124.048 159.766 124.538C158.926 125.028 157.995 125.273 156.973 125.273ZM171.257 114.5V116.684H167.834V125H165.566V116.684H162.122V114.5H171.257ZM177.37 118.07C178.49 118.07 179.407 118.392 180.121 119.036C180.835 119.666 181.192 120.499 181.192 121.535C181.192 122.557 180.835 123.39 180.121 124.034C179.407 124.678 178.49 125 177.37 125H172.792V114.5H175.06V118.07H177.37ZM177.391 122.963C177.839 122.963 178.21 122.83 178.504 122.564C178.812 122.298 178.966 121.955 178.966 121.535C178.966 121.101 178.812 120.758 178.504 120.506C178.21 120.24 177.839 120.107 177.391 120.107H175.06V122.963H177.391Z" fill="#262626"/>
<path d="M126.065 142.701H147.425V147.501L135.617 176.301H129.809L141.425 147.981H126.065V142.701ZM164.716 155.229C163.244 156.701 161.388 157.437 159.148 157.437C156.908 157.437 155.036 156.701 153.532 155.229C152.028 153.725 151.276 151.901 151.276 149.757C151.276 147.613 152.028 145.805 153.532 144.333C155.036 142.829 156.908 142.077 159.148 142.077C161.388 142.077 163.244 142.813 164.716 144.285C166.22 145.757 166.972 147.581 166.972 149.757C166.972 151.901 166.22 153.725 164.716 155.229ZM159.1 153.213C160.124 153.213 160.956 152.877 161.596 152.205C162.236 151.533 162.556 150.717 162.556 149.757C162.556 148.765 162.236 147.933 161.596 147.261C160.956 146.589 160.124 146.253 159.1 146.253C158.108 146.253 157.292 146.589 156.652 147.261C156.012 147.933 155.692 148.765 155.692 149.757C155.692 150.717 156.012 151.533 156.652 152.205C157.292 152.877 158.108 153.213 159.1 153.213ZM154.108 171.357L176.236 146.733L178.828 148.221L156.7 172.893L154.108 171.357ZM174.508 176.877C172.268 176.877 170.396 176.141 168.892 174.669C167.388 173.165 166.636 171.341 166.636 169.197C166.636 167.053 167.388 165.245 168.892 163.773C170.396 162.269 172.268 161.517 174.508 161.517C176.716 161.517 178.572 162.269 180.076 163.773C181.58 165.245 182.332 167.053 182.332 169.197C182.332 171.341 181.58 173.165 180.076 174.669C178.572 176.141 176.716 176.877 174.508 176.877ZM174.46 172.653C175.484 172.653 176.316 172.317 176.956 171.645C177.596 170.973 177.916 170.157 177.916 169.197C177.916 168.205 177.596 167.373 176.956 166.701C176.316 166.029 175.484 165.693 174.46 165.693C173.468 165.693 172.652 166.029 172.012 166.701C171.372 167.373 171.052 168.205 171.052 169.197C171.052 170.157 171.372 170.973 172.012 171.645C172.652 172.317 173.468 172.653 174.46 172.653Z" fill="#262626"/>
<path d="M131.206 203H130.702L125.428 198.428V203H125.068V194H125.428V198.212L130.522 194H131.026L125.806 198.32L131.206 203ZM136.303 193.82C137.611 193.82 138.673 194.288 139.489 195.224C140.317 196.148 140.731 197.252 140.731 198.536V198.716H132.109C132.157 199.94 132.583 200.936 133.387 201.704C134.203 202.472 135.199 202.856 136.375 202.856C137.167 202.856 137.875 202.688 138.499 202.352C139.135 202.016 139.603 201.566 139.903 201.002L140.209 201.182C139.861 201.794 139.345 202.28 138.661 202.64C137.989 203 137.227 203.18 136.375 203.18C135.043 203.18 133.939 202.742 133.063 201.866C132.187 200.978 131.749 199.856 131.749 198.5C131.749 197.168 132.175 196.058 133.027 195.17C133.891 194.27 134.983 193.82 136.303 193.82ZM132.109 198.392H140.407C140.335 197.132 139.909 196.112 139.129 195.332C138.361 194.54 137.419 194.144 136.303 194.144C135.127 194.144 134.137 194.546 133.333 195.35C132.541 196.142 132.133 197.156 132.109 198.392ZM154.584 194H154.944V203H143.244V194H143.604V202.676H148.914V194H149.274V202.676H154.584V194ZM161.965 203.198C160.657 203.198 159.577 202.778 158.725 201.938C157.885 201.098 157.465 199.982 157.465 198.59C157.465 197.15 157.669 196.022 158.077 195.206C158.497 194.378 159.355 193.64 160.651 192.992C160.987 192.824 161.383 192.65 161.839 192.47C162.295 192.278 162.661 192.122 162.937 192.002C163.213 191.882 163.495 191.738 163.783 191.57C164.071 191.402 164.293 191.216 164.449 191.012C164.605 190.796 164.713 190.544 164.773 190.256L165.061 190.418C164.989 190.79 164.803 191.12 164.503 191.408C164.215 191.696 163.915 191.912 163.603 192.056C163.303 192.2 162.853 192.398 162.253 192.65C161.653 192.89 161.179 193.094 160.831 193.262C159.835 193.754 159.109 194.312 158.653 194.936C158.209 195.56 157.945 196.418 157.861 197.51C158.293 196.634 158.887 195.968 159.643 195.512C160.399 195.056 161.209 194.828 162.073 194.828C163.261 194.828 164.257 195.224 165.061 196.016C165.877 196.808 166.285 197.816 166.285 199.04C166.285 200.252 165.877 201.248 165.061 202.028C164.257 202.808 163.225 203.198 161.965 203.198ZM161.965 202.874C163.129 202.874 164.077 202.52 164.809 201.812C165.553 201.092 165.925 200.168 165.925 199.04C165.925 197.924 165.559 197 164.827 196.268C164.095 195.524 163.177 195.152 162.073 195.152C161.041 195.152 160.135 195.476 159.355 196.124C158.575 196.772 158.065 197.594 157.825 198.59C157.825 199.85 158.209 200.882 158.977 201.686C159.745 202.478 160.741 202.874 161.965 202.874ZM171.741 193.82C173.109 193.82 174.219 194.264 175.071 195.152C175.923 196.04 176.349 197.156 176.349 198.5C176.349 199.844 175.923 200.96 175.071 201.848C174.219 202.736 173.109 203.18 171.741 203.18C170.829 203.18 170.013 202.982 169.293 202.586C168.585 202.19 168.063 201.656 167.727 200.984L168.015 200.804C168.339 201.44 168.825 201.944 169.473 202.316C170.133 202.676 170.889 202.856 171.741 202.856C172.989 202.856 173.997 202.46 174.765 201.668C175.545 200.876 175.953 199.874 175.989 198.662H171.003V198.338H175.989C175.953 197.126 175.545 196.124 174.765 195.332C173.997 194.54 172.989 194.144 171.741 194.144C170.877 194.144 170.115 194.33 169.455 194.702C168.807 195.062 168.327 195.56 168.015 196.196L167.727 196.016C168.063 195.344 168.585 194.81 169.293 194.414C170.013 194.018 170.829 193.82 171.741 193.82ZM185.013 203H184.509L179.235 198.428V203H178.875V194H179.235V198.212L184.329 194H184.833L179.613 198.32L185.013 203Z" fill="#262626"/>
<path d="M54.9722 250.528C53.8522 251.648 52.4815 252.208 50.8602 252.208C49.2389 252.208 47.8629 251.648 46.7322 250.528C45.6122 249.397 45.0522 248.021 45.0522 246.4C45.0522 244.779 45.6122 243.408 46.7322 242.288C47.8629 241.157 49.2389 240.592 50.8602 240.592C52.4815 240.592 53.8522 241.157 54.9722 242.288C56.1029 243.408 56.6682 244.779 56.6682 246.4C56.6682 248.021 56.1029 249.397 54.9722 250.528ZM48.0282 249.28C48.7962 250.037 49.7402 250.416 50.8602 250.416C51.9802 250.416 52.9189 250.037 53.6762 249.28C54.4442 248.512 54.8282 247.552 54.8282 246.4C54.8282 245.248 54.4442 244.293 53.6762 243.536C52.9189 242.768 51.9802 242.384 50.8602 242.384C49.7402 242.384 48.7962 242.768 48.0282 243.536C47.2709 244.293 46.8922 245.248 46.8922 246.4C46.8922 247.552 47.2709 248.512 48.0282 249.28ZM61.9466 252.208C60.7199 252.208 59.7172 251.813 58.9386 251.024C58.1706 250.224 57.7866 249.205 57.7866 247.968C57.7866 246.613 57.9892 245.568 58.3946 244.832C58.7999 244.085 59.6212 243.408 60.8586 242.8C61.0612 242.704 61.3599 242.565 61.7546 242.384C62.1599 242.203 62.4372 242.075 62.5866 242C62.7359 241.915 62.9226 241.797 63.1466 241.648C63.3706 241.488 63.5359 241.323 63.6426 241.152C63.7492 240.971 63.8346 240.757 63.8986 240.512L65.3066 241.328C65.2639 241.563 65.1946 241.781 65.0986 241.984C65.0026 242.176 64.8639 242.357 64.6826 242.528C64.5012 242.699 64.3412 242.837 64.2026 242.944C64.0746 243.051 63.8559 243.179 63.5466 243.328C63.2372 243.477 63.0079 243.584 62.8586 243.648C62.7199 243.712 62.4532 243.824 62.0586 243.984C61.3546 244.261 60.8372 244.549 60.5066 244.848C60.1866 245.136 59.9626 245.499 59.8346 245.936C60.4746 245.211 61.3439 244.848 62.4426 244.848C63.3812 244.848 64.1972 245.184 64.8906 245.856C65.5946 246.528 65.9466 247.397 65.9466 248.464C65.9466 249.552 65.5732 250.448 64.8266 251.152C64.0906 251.856 63.1306 252.208 61.9466 252.208ZM61.9306 250.592C62.6026 250.592 63.1519 250.395 63.5786 250C64.0052 249.595 64.2186 249.083 64.2186 248.464C64.2186 247.835 64.0052 247.317 63.5786 246.912C63.1626 246.507 62.6186 246.304 61.9466 246.304C61.3492 246.304 60.8106 246.496 60.3306 246.88C59.8506 247.253 59.6106 247.755 59.6106 248.384C59.6106 249.024 59.8346 249.552 60.2826 249.968C60.7306 250.384 61.2799 250.592 61.9306 250.592ZM78.3527 250.368H79.4247V254.144H77.7287V252H67.3127V244H69.0407V250.368H71.9687V244H73.6967V250.368H76.6247V244H78.3527V250.368ZM86.8518 244H88.5798V252H86.8518V250.848C86.2011 251.755 85.2678 252.208 84.0518 252.208C82.9531 252.208 82.0145 251.803 81.2358 250.992C80.4571 250.171 80.0678 249.173 80.0678 248C80.0678 246.816 80.4571 245.819 81.2358 245.008C82.0145 244.197 82.9531 243.792 84.0518 243.792C85.2678 243.792 86.2011 244.24 86.8518 245.136V244ZM82.5158 249.84C82.9958 250.32 83.5985 250.56 84.3238 250.56C85.0491 250.56 85.6518 250.32 86.1318 249.84C86.6118 249.349 86.8518 248.736 86.8518 248C86.8518 247.264 86.6118 246.656 86.1318 246.176C85.6518 245.685 85.0491 245.44 84.3238 245.44C83.5985 245.44 82.9958 245.685 82.5158 246.176C82.0358 246.656 81.7958 247.264 81.7958 248C81.7958 248.736 82.0358 249.349 82.5158 249.84ZM96.7859 244V252H95.0899V249.312H94.1299L92.0979 252H90.0659L92.2259 249.152C91.6713 248.971 91.2233 248.651 90.8819 248.192C90.5513 247.733 90.3859 247.221 90.3859 246.656C90.3859 245.92 90.6473 245.296 91.1699 244.784C91.7033 244.261 92.3859 244 93.2179 244H96.7859ZM93.3139 247.824H95.0899V245.568H93.3139C92.9619 245.568 92.6686 245.669 92.4339 245.872C92.1993 246.075 92.0819 246.352 92.0819 246.704C92.0819 247.045 92.1993 247.317 92.4339 247.52C92.6686 247.723 92.9619 247.824 93.3139 247.824ZM106.573 252.208C105.368 252.208 104.36 251.803 103.549 250.992C102.749 250.181 102.349 249.184 102.349 248C102.349 246.805 102.749 245.808 103.549 245.008C104.36 244.197 105.368 243.792 106.573 243.792C107.352 243.792 108.061 243.979 108.701 244.352C109.341 244.725 109.821 245.227 110.141 245.856L108.653 246.72C108.472 246.336 108.194 246.037 107.821 245.824C107.458 245.6 107.037 245.488 106.557 245.488C105.853 245.488 105.261 245.728 104.781 246.208C104.312 246.688 104.077 247.285 104.077 248C104.077 248.715 104.312 249.312 104.781 249.792C105.261 250.272 105.853 250.512 106.557 250.512C107.026 250.512 107.448 250.4 107.821 250.176C108.205 249.952 108.493 249.653 108.685 249.28L110.173 250.128C109.832 250.768 109.341 251.275 108.701 251.648C108.061 252.021 107.352 252.208 106.573 252.208ZM116.548 244H118.388L115.316 252.256C114.943 253.269 114.42 254.027 113.748 254.528C113.076 255.029 112.298 255.253 111.412 255.2V253.584C111.956 253.616 112.394 253.504 112.724 253.248C113.066 253.003 113.338 252.603 113.54 252.048L113.588 251.936L110.228 244H112.068L114.5 249.824L116.548 244ZM127.629 244V252H125.949V246.736L123.645 250.4H123.437L121.149 246.752V252H119.469V244H121.229L123.549 247.696L125.869 244H127.629ZM137.785 244V252H136.105V246.736L133.801 250.4H133.593L131.305 246.752V252H129.625V244H131.385L133.705 247.696L136.025 244H137.785ZM146.117 244H147.845V252H146.117V250.848C145.467 251.755 144.533 252.208 143.317 252.208C142.219 252.208 141.28 251.803 140.501 250.992C139.723 250.171 139.333 249.173 139.333 248C139.333 246.816 139.723 245.819 140.501 245.008C141.28 244.197 142.219 243.792 143.317 243.792C144.533 243.792 145.467 244.24 146.117 245.136V244ZM141.781 249.84C142.261 250.32 142.864 250.56 143.589 250.56C144.315 250.56 144.917 250.32 145.397 249.84C145.877 249.349 146.117 248.736 146.117 248C146.117 247.264 145.877 246.656 145.397 246.176C144.917 245.685 144.315 245.44 143.589 245.44C142.864 245.44 142.261 245.685 141.781 246.176C141.301 246.656 141.061 247.264 141.061 248C141.061 248.736 141.301 249.349 141.781 249.84ZM159.396 247.888C160.185 248.251 160.58 248.864 160.58 249.728C160.58 250.4 160.35 250.949 159.892 251.376C159.444 251.792 158.798 252 157.956 252H153.86V244H157.636C158.457 244 159.092 244.208 159.54 244.624C159.998 245.029 160.228 245.557 160.228 246.208C160.228 246.965 159.95 247.525 159.396 247.888ZM157.508 245.472H155.508V247.248H157.508C158.212 247.248 158.564 246.949 158.564 246.352C158.564 245.765 158.212 245.472 157.508 245.472ZM157.796 250.496C158.521 250.496 158.884 250.181 158.884 249.552C158.884 249.275 158.788 249.061 158.596 248.912C158.404 248.752 158.137 248.672 157.796 248.672H155.508V250.496H157.796ZM168.321 244H170.049V252H168.321V250.848C167.67 251.755 166.737 252.208 165.521 252.208C164.422 252.208 163.483 251.803 162.705 250.992C161.926 250.171 161.537 249.173 161.537 248C161.537 246.816 161.926 245.819 162.705 245.008C163.483 244.197 164.422 243.792 165.521 243.792C166.737 243.792 167.67 244.24 168.321 245.136V244ZM163.985 249.84C164.465 250.32 165.067 250.56 165.793 250.56C166.518 250.56 167.121 250.32 167.601 249.84C168.081 249.349 168.321 248.736 168.321 248C168.321 247.264 168.081 246.656 167.601 246.176C167.121 245.685 166.518 245.44 165.793 245.44C165.067 245.44 164.465 245.685 163.985 246.176C163.505 246.656 163.265 247.264 163.265 248C163.265 248.736 163.505 249.349 163.985 249.84ZM181.535 244H183.263V252H172.063V244H173.791V250.368H176.799V244H178.527V250.368H181.535V244ZM191.058 244H192.386V252H190.69V246.912L186.594 252H185.266V244H186.962V249.072L191.058 244ZM201.543 252H199.543L197.559 249.264L195.559 252H193.543L196.551 247.888L193.703 244H195.703L197.543 246.528L199.383 244H201.399L198.551 247.904L201.543 252ZM211.199 247.904C212.053 248.288 212.479 248.923 212.479 249.808C212.479 250.491 212.202 251.061 211.647 251.52C211.093 251.979 210.319 252.208 209.327 252.208C207.717 252.208 206.629 251.568 206.063 250.288L207.471 249.456C207.759 250.256 208.383 250.656 209.343 250.656C209.791 250.656 210.143 250.565 210.399 250.384C210.655 250.192 210.783 249.941 210.783 249.632C210.783 249.355 210.682 249.136 210.479 248.976C210.277 248.805 209.994 248.72 209.631 248.72H208.495V247.2H209.343C209.695 247.2 209.967 247.12 210.159 246.96C210.362 246.789 210.463 246.56 210.463 246.272C210.463 245.995 210.351 245.771 210.127 245.6C209.903 245.419 209.605 245.328 209.231 245.328C208.431 245.328 207.877 245.68 207.567 246.384L206.159 245.584C206.757 244.389 207.77 243.792 209.199 243.792C210.095 243.792 210.805 244.021 211.327 244.48C211.861 244.928 212.127 245.477 212.127 246.128C212.127 246.928 211.818 247.52 211.199 247.904ZM220.227 244H221.955V252H220.227V250.848C219.576 251.755 218.643 252.208 217.427 252.208C216.328 252.208 215.389 251.803 214.611 250.992C213.832 250.171 213.443 249.173 213.443 248C213.443 246.816 213.832 245.819 214.611 245.008C215.389 244.197 216.328 243.792 217.427 243.792C218.643 243.792 219.576 244.24 220.227 245.136V244ZM215.891 249.84C216.371 250.32 216.973 250.56 217.699 250.56C218.424 250.56 219.027 250.32 219.507 249.84C219.987 249.349 220.227 248.736 220.227 248C220.227 247.264 219.987 246.656 219.507 246.176C219.027 245.685 218.424 245.44 217.699 245.44C216.973 245.44 216.371 245.685 215.891 246.176C215.411 246.656 215.171 247.264 215.171 248C215.171 248.736 215.411 249.349 215.891 249.84ZM231.041 252H228.977L225.697 248.304V252H223.969V244H225.697V247.536L228.801 244H230.913L227.393 247.92L231.041 252ZM237.899 244H239.627V252H237.899V250.848C237.248 251.755 236.315 252.208 235.099 252.208C234 252.208 233.061 251.803 232.283 250.992C231.504 250.171 231.115 249.173 231.115 248C231.115 246.816 231.504 245.819 232.283 245.008C233.061 244.197 234 243.792 235.099 243.792C236.315 243.792 237.248 244.24 237.899 245.136V244ZM233.563 249.84C234.043 250.32 234.645 250.56 235.371 250.56C236.096 250.56 236.699 250.32 237.179 249.84C237.659 249.349 237.899 248.736 237.899 248C237.899 247.264 237.659 246.656 237.179 246.176C236.699 245.685 236.096 245.44 235.371 245.44C234.645 245.44 234.043 245.685 233.563 246.176C233.083 246.656 232.843 247.264 232.843 248C232.843 248.736 233.083 249.349 233.563 249.84ZM246.137 247.904C246.99 248.288 247.417 248.923 247.417 249.808C247.417 250.491 247.139 251.061 246.585 251.52C246.03 251.979 245.257 252.208 244.265 252.208C242.654 252.208 241.566 251.568 241.001 250.288L242.409 249.456C242.697 250.256 243.321 250.656 244.281 250.656C244.729 250.656 245.081 250.565 245.337 250.384C245.593 250.192 245.721 249.941 245.721 249.632C245.721 249.355 245.619 249.136 245.417 248.976C245.214 248.805 244.931 248.72 244.569 248.72H243.433V247.2H244.281C244.633 247.2 244.905 247.12 245.097 246.96C245.299 246.789 245.401 246.56 245.401 246.272C245.401 245.995 245.289 245.771 245.065 245.6C244.841 245.419 244.542 245.328 244.169 245.328C243.369 245.328 242.814 245.68 242.505 246.384L241.097 245.584C241.694 244.389 242.707 243.792 244.137 243.792C245.033 243.792 245.742 244.021 246.265 244.48C246.798 244.928 247.065 245.477 247.065 246.128C247.065 246.928 246.755 247.52 246.137 247.904ZM252.604 252.208C251.431 252.208 250.434 251.803 249.612 250.992C248.791 250.181 248.38 249.184 248.38 248C248.38 246.816 248.791 245.819 249.612 245.008C250.434 244.197 251.431 243.792 252.604 243.792C253.788 243.792 254.786 244.197 255.596 245.008C256.418 245.819 256.828 246.816 256.828 248C256.828 249.184 256.418 250.181 255.596 250.992C254.786 251.803 253.788 252.208 252.604 252.208ZM250.828 249.808C251.308 250.288 251.9 250.528 252.604 250.528C253.308 250.528 253.9 250.288 254.38 249.808C254.86 249.328 255.1 248.725 255.1 248C255.1 247.275 254.86 246.672 254.38 246.192C253.9 245.712 253.308 245.472 252.604 245.472C251.9 245.472 251.308 245.712 250.828 246.192C250.348 246.672 250.108 247.275 250.108 248C250.108 248.725 250.348 249.328 250.828 249.808ZM263.927 247.888C264.716 248.251 265.111 248.864 265.111 249.728C265.111 250.4 264.881 250.949 264.423 251.376C263.975 251.792 263.329 252 262.487 252H258.391V244H262.167C262.988 244 263.623 244.208 264.071 244.624C264.529 245.029 264.759 245.557 264.759 246.208C264.759 246.965 264.481 247.525 263.927 247.888ZM262.039 245.472H260.039V247.248H262.039C262.743 247.248 263.095 246.949 263.095 246.352C263.095 245.765 262.743 245.472 262.039 245.472ZM262.327 250.496C263.052 250.496 263.415 250.181 263.415 249.552C263.415 249.275 263.319 249.061 263.127 248.912C262.935 248.752 262.668 248.672 262.327 248.672H260.039V250.496H262.327ZM84.2452 266V274H82.5172V267.632H78.8532V274H77.1252V266H84.2452ZM90.7782 265.792C91.8769 265.792 92.8155 266.203 93.5942 267.024C94.3729 267.835 94.7622 268.827 94.7622 270C94.7622 271.184 94.3729 272.181 93.5942 272.992C92.8155 273.803 91.8769 274.208 90.7782 274.208C89.5622 274.208 88.6289 273.76 87.9782 272.864V277.2H86.2502V266H87.9782V267.152C88.6289 266.245 89.5622 265.792 90.7782 265.792ZM88.6982 271.84C89.1782 272.32 89.7809 272.56 90.5062 272.56C91.2315 272.56 91.8342 272.32 92.3142 271.84C92.7942 271.349 93.0342 270.736 93.0342 270C93.0342 269.264 92.7942 268.656 92.3142 268.176C91.8342 267.685 91.2315 267.44 90.5062 267.44C89.7809 267.44 89.1782 267.685 88.6982 268.176C88.2182 268.656 87.9782 269.264 87.9782 270C87.9782 270.736 88.2182 271.349 88.6982 271.84ZM97.6883 270.736C97.8163 271.344 98.1096 271.813 98.5683 272.144C99.027 272.464 99.587 272.624 100.248 272.624C101.166 272.624 101.854 272.293 102.312 271.632L103.736 272.464C102.947 273.627 101.779 274.208 100.232 274.208C98.931 274.208 97.8803 273.813 97.0803 273.024C96.2803 272.224 95.8803 271.216 95.8803 270C95.8803 268.805 96.275 267.808 97.0643 267.008C97.8536 266.197 98.867 265.792 100.104 265.792C101.278 265.792 102.238 266.203 102.984 267.024C103.742 267.845 104.12 268.843 104.12 270.016C104.12 270.197 104.099 270.437 104.056 270.736H97.6883ZM97.6723 269.328H102.376C102.259 268.677 101.987 268.187 101.56 267.856C101.144 267.525 100.654 267.36 100.088 267.36C99.4483 267.36 98.915 267.536 98.4883 267.888C98.0616 268.24 97.7896 268.72 97.6723 269.328ZM111.177 269.888C111.966 270.251 112.361 270.864 112.361 271.728C112.361 272.4 112.131 272.949 111.673 273.376C111.225 273.792 110.579 274 109.737 274H105.641V266H109.417C110.238 266 110.873 266.208 111.321 266.624C111.779 267.029 112.009 267.557 112.009 268.208C112.009 268.965 111.731 269.525 111.177 269.888ZM109.289 267.472H107.289V269.248H109.289C109.993 269.248 110.345 268.949 110.345 268.352C110.345 267.765 109.993 267.472 109.289 267.472ZM109.577 272.496C110.302 272.496 110.665 272.181 110.665 271.552C110.665 271.275 110.569 271.061 110.377 270.912C110.185 270.752 109.918 270.672 109.577 270.672H107.289V272.496H109.577ZM117.254 268.72C118.107 268.72 118.806 268.965 119.35 269.456C119.894 269.936 120.166 270.571 120.166 271.36C120.166 272.139 119.894 272.773 119.35 273.264C118.806 273.755 118.107 274 117.254 274H113.766V266H115.494V268.72H117.254ZM121.126 266H122.854V274H121.126V266ZM117.27 272.448C117.611 272.448 117.894 272.347 118.118 272.144C118.352 271.941 118.47 271.68 118.47 271.36C118.47 271.029 118.352 270.768 118.118 270.576C117.894 270.373 117.611 270.272 117.27 270.272H115.494V272.448H117.27ZM134.332 266H136.06V274H124.86V266H126.588V272.368H129.596V266H131.324V272.368H134.332V266ZM144.399 266H146.127V274H144.399V272.848C143.748 273.755 142.815 274.208 141.599 274.208C140.5 274.208 139.561 273.803 138.783 272.992C138.004 272.171 137.615 271.173 137.615 270C137.615 268.816 138.004 267.819 138.783 267.008C139.561 266.197 140.5 265.792 141.599 265.792C142.815 265.792 143.748 266.24 144.399 267.136V266ZM140.063 271.84C140.543 272.32 141.145 272.56 141.871 272.56C142.596 272.56 143.199 272.32 143.679 271.84C144.159 271.349 144.399 270.736 144.399 270C144.399 269.264 144.159 268.656 143.679 268.176C143.199 267.685 142.596 267.44 141.871 267.44C141.145 267.44 140.543 267.685 140.063 268.176C139.583 268.656 139.343 269.264 139.343 270C139.343 270.736 139.583 271.349 140.063 271.84ZM149.501 270.736C149.629 271.344 149.922 271.813 150.381 272.144C150.839 272.464 151.399 272.624 152.061 272.624C152.978 272.624 153.666 272.293 154.125 271.632L155.549 272.464C154.759 273.627 153.591 274.208 152.045 274.208C150.743 274.208 149.693 273.813 148.893 273.024C148.093 272.224 147.693 271.216 147.693 270C147.693 268.805 148.087 267.808 148.877 267.008C149.666 266.197 150.679 265.792 151.917 265.792C153.09 265.792 154.05 266.203 154.797 267.024C155.554 267.845 155.933 268.843 155.933 270.016C155.933 270.197 155.911 270.437 155.869 270.736H149.501ZM149.485 269.328H154.189C154.071 268.677 153.799 268.187 153.373 267.856C152.957 267.525 152.466 267.36 151.901 267.36C151.261 267.36 150.727 267.536 150.301 267.888C149.874 268.24 149.602 268.72 149.485 269.328ZM163.253 266V267.664H160.645V274H158.917V267.664H156.293V266H163.253ZM171.814 267.024C172.881 267.024 173.782 267.344 174.518 267.984C175.254 268.613 175.622 269.488 175.622 270.608C175.622 271.728 175.243 272.608 174.486 273.248C173.729 273.888 172.801 274.208 171.702 274.208C170.817 274.208 170.033 274.005 169.35 273.6C168.667 273.184 168.182 272.587 167.894 271.808L169.478 270.896C169.777 271.909 170.518 272.416 171.702 272.416C172.331 272.416 172.833 272.256 173.206 271.936C173.59 271.605 173.782 271.163 173.782 270.608C173.782 270.053 173.595 269.616 173.222 269.296C172.849 268.976 172.353 268.816 171.734 268.816H168.47L168.902 262.8H175.142V264.528H170.598L170.406 267.024H171.814ZM184.28 272.624C183.512 273.68 182.434 274.208 181.048 274.208C179.661 274.208 178.578 273.68 177.8 272.624C177.032 271.568 176.648 270.16 176.648 268.4C176.648 266.64 177.032 265.232 177.8 264.176C178.578 263.12 179.661 262.592 181.048 262.592C182.434 262.592 183.512 263.12 184.28 264.176C185.058 265.232 185.448 266.64 185.448 268.4C185.448 270.16 185.058 271.568 184.28 272.624ZM181.048 272.416C181.88 272.416 182.514 272.069 182.952 271.376C183.389 270.683 183.608 269.691 183.608 268.4C183.608 267.109 183.389 266.117 182.952 265.424C182.514 264.731 181.88 264.384 181.048 264.384C180.226 264.384 179.592 264.731 179.144 265.424C178.706 266.117 178.488 267.109 178.488 268.4C178.488 269.691 178.706 270.683 179.144 271.376C179.592 272.069 180.226 272.416 181.048 272.416ZM198.358 272.624C197.59 273.68 196.513 274.208 195.126 274.208C193.739 274.208 192.657 273.68 191.878 272.624C191.11 271.568 190.726 270.16 190.726 268.4C190.726 266.64 191.11 265.232 191.878 264.176C192.657 263.12 193.739 262.592 195.126 262.592C196.513 262.592 197.59 263.12 198.358 264.176C199.137 265.232 199.526 266.64 199.526 268.4C199.526 270.16 199.137 271.568 198.358 272.624ZM195.126 272.416C195.958 272.416 196.593 272.069 197.03 271.376C197.467 270.683 197.686 269.691 197.686 268.4C197.686 267.109 197.467 266.117 197.03 265.424C196.593 264.731 195.958 264.384 195.126 264.384C194.305 264.384 193.67 264.731 193.222 265.424C192.785 266.117 192.566 267.109 192.566 268.4C192.566 269.691 192.785 270.683 193.222 271.376C193.67 272.069 194.305 272.416 195.126 272.416ZM208.436 272.624C207.668 273.68 206.591 274.208 205.204 274.208C203.817 274.208 202.735 273.68 201.956 272.624C201.188 271.568 200.804 270.16 200.804 268.4C200.804 266.64 201.188 265.232 201.956 264.176C202.735 263.12 203.817 262.592 205.204 262.592C206.591 262.592 207.668 263.12 208.436 264.176C209.215 265.232 209.604 266.64 209.604 268.4C209.604 270.16 209.215 271.568 208.436 272.624ZM205.204 272.416C206.036 272.416 206.671 272.069 207.108 271.376C207.545 270.683 207.764 269.691 207.764 268.4C207.764 267.109 207.545 266.117 207.108 265.424C206.671 264.731 206.036 264.384 205.204 264.384C204.383 264.384 203.748 264.731 203.3 265.424C202.863 266.117 202.644 267.109 202.644 268.4C202.644 269.691 202.863 270.683 203.3 271.376C203.748 272.069 204.383 272.416 205.204 272.416ZM218.514 272.624C217.746 273.68 216.669 274.208 215.282 274.208C213.896 274.208 212.813 273.68 212.034 272.624C211.266 271.568 210.882 270.16 210.882 268.4C210.882 266.64 211.266 265.232 212.034 264.176C212.813 263.12 213.896 262.592 215.282 262.592C216.669 262.592 217.746 263.12 218.514 264.176C219.293 265.232 219.682 266.64 219.682 268.4C219.682 270.16 219.293 271.568 218.514 272.624ZM215.282 272.416C216.114 272.416 216.749 272.069 217.186 271.376C217.624 270.683 217.842 269.691 217.842 268.4C217.842 267.109 217.624 266.117 217.186 265.424C216.749 264.731 216.114 264.384 215.282 264.384C214.461 264.384 213.826 264.731 213.378 265.424C212.941 266.117 212.722 267.109 212.722 268.4C212.722 269.691 212.941 270.683 213.378 271.376C213.826 272.069 214.461 272.416 215.282 272.416ZM229.968 269.92H227.68V270.992H231.44V272.24H227.68V274H225.84V272.24H224.56V270.992H225.84V269.92H224.56V268.272H225.84V262.8H229.968C230.982 262.8 231.84 263.152 232.544 263.856C233.248 264.549 233.6 265.397 233.6 266.4C233.6 267.392 233.248 268.229 232.544 268.912C231.84 269.584 230.982 269.92 229.968 269.92ZM227.68 264.528V268.272H229.968C230.47 268.272 230.891 268.091 231.232 267.728C231.584 267.365 231.76 266.923 231.76 266.4C231.76 265.877 231.584 265.435 231.232 265.072C230.891 264.709 230.47 264.528 229.968 264.528H227.68Z" fill="#262626"/>
</svg>
