<svg width="310" height="310" viewBox="0 0 310 310" fill="none" xmlns="http://www.w3.org/2000/svg">
<rect x="0.5" y="0.5" width="309" height="309" rx="19.5" fill="#2F2F2F" stroke="#E31E24"/>
<rect width="250" height="246" transform="translate(30 32)" fill="#2F2F2F"/>
<path fill-rule="evenodd" clip-rule="evenodd" d="M153.33 35.4769C153.934 33.9712 156.066 33.9712 156.67 35.4769L161.384 47.2143L174.003 48.07C175.622 48.1798 176.281 50.2069 175.036 51.2472L165.329 59.357L168.415 71.6233C168.811 73.1968 167.087 74.4496 165.712 73.5869L155 66.8616L144.288 73.5869C142.914 74.4496 141.189 73.1968 141.585 71.6233L144.671 59.357L134.964 51.2472C133.719 50.2069 134.378 48.1798 135.997 48.07L148.616 47.2143L153.33 35.4769Z" fill="#E31E24"/>
<path d="M124.16 110.3H126.575V125H124.16V118.637H117.86V125H115.445V110.3H117.86V116.327H124.16V110.3ZM134.322 125.273C132.782 125.273 131.473 124.741 130.395 123.677C129.317 122.613 128.778 121.304 128.778 119.75C128.778 118.196 129.317 116.887 130.395 115.823C131.473 114.759 132.782 114.227 134.322 114.227C135.876 114.227 137.185 114.759 138.249 115.823C139.327 116.887 139.866 118.196 139.866 119.75C139.866 121.304 139.327 122.613 138.249 123.677C137.185 124.741 135.876 125.273 134.322 125.273ZM131.991 122.123C132.621 122.753 133.398 123.068 134.322 123.068C135.246 123.068 136.023 122.753 136.653 122.123C137.283 121.493 137.598 120.702 137.598 119.75C137.598 118.798 137.283 118.007 136.653 117.377C136.023 116.747 135.246 116.432 134.322 116.432C133.398 116.432 132.621 116.747 131.991 117.377C131.361 118.007 131.046 118.798 131.046 119.75C131.046 120.702 131.361 121.493 131.991 122.123ZM149.183 119.603C150.219 120.079 150.737 120.884 150.737 122.018C150.737 122.9 150.436 123.621 149.834 124.181C149.246 124.727 148.399 125 147.293 125H141.917V114.5H146.873C147.951 114.5 148.784 114.773 149.372 115.319C149.974 115.851 150.275 116.544 150.275 117.398C150.275 118.392 149.911 119.127 149.183 119.603ZM146.705 116.432H144.08V118.763H146.705C147.629 118.763 148.091 118.371 148.091 117.587C148.091 116.817 147.629 116.432 146.705 116.432ZM147.083 123.026C148.035 123.026 148.511 122.613 148.511 121.787C148.511 121.423 148.385 121.143 148.133 120.947C147.881 120.737 147.531 120.632 147.083 120.632H144.08V123.026H147.083ZM160.183 114.5H161.926V125H159.7V118.322L154.324 125H152.581V114.5H154.807V121.157L160.183 114.5ZM170.942 114.5H173.21V125H170.942V121.451C170.102 121.759 169.22 121.913 168.296 121.913C166.994 121.913 165.965 121.591 165.209 120.947C164.453 120.303 164.075 119.358 164.075 118.112V114.5H166.343V117.902C166.343 119.162 167.092 119.792 168.59 119.792C169.472 119.792 170.256 119.631 170.942 119.309V114.5ZM180.813 125.273C179.273 125.273 177.964 124.741 176.886 123.677C175.808 122.613 175.269 121.304 175.269 119.75C175.269 118.196 175.808 116.887 176.886 115.823C177.964 114.759 179.273 114.227 180.813 114.227C182.367 114.227 183.676 114.759 184.74 115.823C185.818 116.887 186.357 118.196 186.357 119.75C186.357 121.304 185.818 122.613 184.74 123.677C183.676 124.741 182.367 125.273 180.813 125.273ZM178.482 122.123C179.112 122.753 179.889 123.068 180.813 123.068C181.737 123.068 182.514 122.753 183.144 122.123C183.774 121.493 184.089 120.702 184.089 119.75C184.089 118.798 183.774 118.007 183.144 117.377C182.514 116.747 181.737 116.432 180.813 116.432C179.889 116.432 179.112 116.747 178.482 117.377C177.852 118.007 177.537 118.798 177.537 119.75C177.537 120.702 177.852 121.493 178.482 122.123ZM197.69 125H194.981L190.676 120.149V125H188.408V114.5H190.676V119.141L194.75 114.5H197.522L192.902 119.645L197.69 125Z" fill="white"/>
<path d="M125.27 142.392V177.301H121.043V146.824H120.838L112.316 152.483V148.187L121.043 142.392H125.27ZM146.696 177.778C144.128 177.778 141.941 177.079 140.134 175.681C138.327 174.272 136.946 172.233 135.992 169.562C135.037 166.88 134.56 163.642 134.56 159.846C134.56 156.074 135.037 152.852 135.992 150.181C136.958 147.5 138.344 145.454 140.151 144.045C141.969 142.625 144.151 141.914 146.696 141.914C149.242 141.914 151.418 142.625 153.225 144.045C155.043 145.454 156.429 147.5 157.384 150.181C158.35 152.852 158.833 156.074 158.833 159.846C158.833 163.642 158.355 166.88 157.401 169.562C156.446 172.233 155.066 174.272 153.259 175.681C151.452 177.079 149.264 177.778 146.696 177.778ZM146.696 174.028C149.242 174.028 151.219 172.801 152.628 170.346C154.037 167.892 154.742 164.392 154.742 159.846C154.742 156.824 154.418 154.25 153.77 152.125C153.134 150 152.213 148.38 151.009 147.267C149.816 146.153 148.378 145.596 146.696 145.596C144.174 145.596 142.202 146.841 140.782 149.329C139.361 151.806 138.651 155.312 138.651 159.846C138.651 162.869 138.969 165.437 139.605 167.551C140.242 169.664 141.157 171.272 142.35 172.375C143.554 173.477 145.003 174.028 146.696 174.028ZM183.105 170.755V168.914C183.105 167.642 183.367 166.477 183.889 165.42C184.424 164.352 185.196 163.5 186.208 162.863C187.23 162.216 188.469 161.892 189.924 161.892C191.401 161.892 192.639 162.216 193.639 162.863C194.639 163.5 195.395 164.352 195.907 165.42C196.418 166.477 196.674 167.642 196.674 168.914V170.755C196.674 172.028 196.412 173.199 195.889 174.267C195.378 175.324 194.617 176.176 193.605 176.824C192.605 177.46 191.378 177.778 189.924 177.778C188.446 177.778 187.202 177.46 186.191 176.824C185.179 176.176 184.412 175.324 183.889 174.267C183.367 173.199 183.105 172.028 183.105 170.755ZM186.583 168.914V170.755C186.583 171.812 186.833 172.761 187.333 173.602C187.833 174.431 188.696 174.846 189.924 174.846C191.117 174.846 191.958 174.431 192.446 173.602C192.946 172.761 193.196 171.812 193.196 170.755V168.914C193.196 167.858 192.958 166.914 192.48 166.085C192.003 165.244 191.151 164.824 189.924 164.824C188.73 164.824 187.872 165.244 187.35 166.085C186.838 166.914 186.583 167.858 186.583 168.914ZM165.719 150.778V148.937C165.719 147.664 165.98 146.5 166.503 145.443C167.037 144.375 167.81 143.522 168.821 142.886C169.844 142.238 171.083 141.914 172.537 141.914C174.014 141.914 175.253 142.238 176.253 142.886C177.253 143.522 178.009 144.375 178.52 145.443C179.032 146.5 179.287 147.664 179.287 148.937V150.778C179.287 152.051 179.026 153.221 178.503 154.289C177.992 155.346 177.23 156.199 176.219 156.846C175.219 157.483 173.992 157.801 172.537 157.801C171.06 157.801 169.816 157.483 168.804 156.846C167.793 156.199 167.026 155.346 166.503 154.289C165.98 153.221 165.719 152.051 165.719 150.778ZM169.196 148.937V150.778C169.196 151.835 169.446 152.784 169.946 153.625C170.446 154.454 171.31 154.869 172.537 154.869C173.73 154.869 174.571 154.454 175.06 153.625C175.56 152.784 175.81 151.835 175.81 150.778V148.937C175.81 147.88 175.571 146.937 175.094 146.108C174.617 145.267 173.764 144.846 172.537 144.846C171.344 144.846 170.486 145.267 169.963 146.108C169.452 146.937 169.196 147.88 169.196 148.937ZM167.014 177.301L191.014 142.392H194.901L170.901 177.301H167.014Z" fill="white"/>
<path d="M131.206 203H130.702L125.428 198.428V203H125.068V194H125.428V198.212L130.522 194H131.026L125.806 198.32L131.206 203ZM136.303 193.82C137.611 193.82 138.673 194.288 139.489 195.224C140.317 196.148 140.731 197.252 140.731 198.536V198.716H132.109C132.157 199.94 132.583 200.936 133.387 201.704C134.203 202.472 135.199 202.856 136.375 202.856C137.167 202.856 137.875 202.688 138.499 202.352C139.135 202.016 139.603 201.566 139.903 201.002L140.209 201.182C139.861 201.794 139.345 202.28 138.661 202.64C137.989 203 137.227 203.18 136.375 203.18C135.043 203.18 133.939 202.742 133.063 201.866C132.187 200.978 131.749 199.856 131.749 198.5C131.749 197.168 132.175 196.058 133.027 195.17C133.891 194.27 134.983 193.82 136.303 193.82ZM132.109 198.392H140.407C140.335 197.132 139.909 196.112 139.129 195.332C138.361 194.54 137.419 194.144 136.303 194.144C135.127 194.144 134.137 194.546 133.333 195.35C132.541 196.142 132.133 197.156 132.109 198.392ZM154.584 194H154.944V203H143.244V194H143.604V202.676H148.914V194H149.274V202.676H154.584V194ZM161.965 203.198C160.657 203.198 159.577 202.778 158.725 201.938C157.885 201.098 157.465 199.982 157.465 198.59C157.465 197.15 157.669 196.022 158.077 195.206C158.497 194.378 159.355 193.64 160.651 192.992C160.987 192.824 161.383 192.65 161.839 192.47C162.295 192.278 162.661 192.122 162.937 192.002C163.213 191.882 163.495 191.738 163.783 191.57C164.071 191.402 164.293 191.216 164.449 191.012C164.605 190.796 164.713 190.544 164.773 190.256L165.061 190.418C164.989 190.79 164.803 191.12 164.503 191.408C164.215 191.696 163.915 191.912 163.603 192.056C163.303 192.2 162.853 192.398 162.253 192.65C161.653 192.89 161.179 193.094 160.831 193.262C159.835 193.754 159.109 194.312 158.653 194.936C158.209 195.56 157.945 196.418 157.861 197.51C158.293 196.634 158.887 195.968 159.643 195.512C160.399 195.056 161.209 194.828 162.073 194.828C163.261 194.828 164.257 195.224 165.061 196.016C165.877 196.808 166.285 197.816 166.285 199.04C166.285 200.252 165.877 201.248 165.061 202.028C164.257 202.808 163.225 203.198 161.965 203.198ZM161.965 202.874C163.129 202.874 164.077 202.52 164.809 201.812C165.553 201.092 165.925 200.168 165.925 199.04C165.925 197.924 165.559 197 164.827 196.268C164.095 195.524 163.177 195.152 162.073 195.152C161.041 195.152 160.135 195.476 159.355 196.124C158.575 196.772 158.065 197.594 157.825 198.59C157.825 199.85 158.209 200.882 158.977 201.686C159.745 202.478 160.741 202.874 161.965 202.874ZM171.741 193.82C173.109 193.82 174.219 194.264 175.071 195.152C175.923 196.04 176.349 197.156 176.349 198.5C176.349 199.844 175.923 200.96 175.071 201.848C174.219 202.736 173.109 203.18 171.741 203.18C170.829 203.18 170.013 202.982 169.293 202.586C168.585 202.19 168.063 201.656 167.727 200.984L168.015 200.804C168.339 201.44 168.825 201.944 169.473 202.316C170.133 202.676 170.889 202.856 171.741 202.856C172.989 202.856 173.997 202.46 174.765 201.668C175.545 200.876 175.953 199.874 175.989 198.662H171.003V198.338H175.989C175.953 197.126 175.545 196.124 174.765 195.332C173.997 194.54 172.989 194.144 171.741 194.144C170.877 194.144 170.115 194.33 169.455 194.702C168.807 195.062 168.327 195.56 168.015 196.196L167.727 196.016C168.063 195.344 168.585 194.81 169.293 194.414C170.013 194.018 170.829 193.82 171.741 193.82ZM185.013 203H184.509L179.235 198.428V203H178.875V194H179.235V198.212L184.329 194H184.833L179.613 198.32L185.013 203Z" fill="white"/>
<path d="M55.4403 253V241.364H62.4631V242.614H56.8494V246.545H62.0994V247.795H56.8494V251.75H62.554V253H55.4403ZM68.3665 253.182C67.5483 253.182 66.8438 252.989 66.2528 252.602C65.6619 252.216 65.2074 251.684 64.8892 251.006C64.571 250.328 64.4119 249.553 64.4119 248.682C64.4119 247.795 64.5748 247.013 64.9006 246.335C65.2301 245.653 65.6884 245.121 66.2756 244.739C66.8665 244.352 67.5559 244.159 68.3438 244.159C68.9574 244.159 69.5104 244.273 70.0028 244.5C70.4953 244.727 70.8987 245.045 71.2131 245.455C71.5275 245.864 71.7225 246.341 71.7983 246.886H70.4574C70.3551 246.489 70.1278 246.136 69.7756 245.83C69.4271 245.519 68.9574 245.364 68.3665 245.364C67.8438 245.364 67.3854 245.5 66.9915 245.773C66.6013 246.042 66.2964 246.422 66.0767 246.915C65.8608 247.403 65.7528 247.977 65.7528 248.636C65.7528 249.311 65.8589 249.898 66.071 250.398C66.2869 250.898 66.59 251.286 66.9801 251.562C67.3741 251.839 67.8362 251.977 68.3665 251.977C68.715 251.977 69.0312 251.917 69.3153 251.795C69.5994 251.674 69.84 251.5 70.0369 251.273C70.2339 251.045 70.3741 250.773 70.4574 250.455H71.7983C71.7225 250.97 71.535 251.434 71.2358 251.847C70.9403 252.256 70.5483 252.581 70.0597 252.824C69.5748 253.062 69.0104 253.182 68.3665 253.182ZM72.9858 253V251.75H73.304C73.5653 251.75 73.7831 251.699 73.9574 251.597C74.1316 251.491 74.2718 251.307 74.3778 251.045C74.4877 250.78 74.571 250.413 74.6278 249.943C74.6884 249.47 74.732 248.867 74.7585 248.136L74.9176 244.273H80.7358V253H79.3949V245.523H76.1903L76.054 248.636C76.0237 249.352 75.9593 249.983 75.8608 250.528C75.7661 251.07 75.6203 251.525 75.4233 251.892C75.2301 252.259 74.9725 252.536 74.6506 252.722C74.3286 252.907 73.9252 253 73.4403 253H72.9858ZM84.5369 251.023L88.7415 244.273H90.2869V253H88.946V246.25L84.7642 253H83.196V244.273H84.5369V251.023ZM100.788 253.182C100 253.182 99.3092 252.994 98.7145 252.619C98.1236 252.244 97.6615 251.72 97.3281 251.045C96.9986 250.371 96.8338 249.583 96.8338 248.682C96.8338 247.773 96.9986 246.979 97.3281 246.301C97.6615 245.623 98.1236 245.097 98.7145 244.722C99.3092 244.347 100 244.159 100.788 244.159C101.576 244.159 102.266 244.347 102.857 244.722C103.451 245.097 103.913 245.623 104.243 246.301C104.576 246.979 104.743 247.773 104.743 248.682C104.743 249.583 104.576 250.371 104.243 251.045C103.913 251.72 103.451 252.244 102.857 252.619C102.266 252.994 101.576 253.182 100.788 253.182ZM100.788 251.977C101.387 251.977 101.879 251.824 102.266 251.517C102.652 251.21 102.938 250.807 103.124 250.307C103.309 249.807 103.402 249.265 103.402 248.682C103.402 248.098 103.309 247.555 103.124 247.051C102.938 246.547 102.652 246.14 102.266 245.83C101.879 245.519 101.387 245.364 100.788 245.364C100.19 245.364 99.6974 245.519 99.3111 245.83C98.9247 246.14 98.6387 246.547 98.4531 247.051C98.2675 247.555 98.1747 248.098 98.1747 248.682C98.1747 249.265 98.2675 249.807 98.4531 250.307C98.6387 250.807 98.9247 251.21 99.3111 251.517C99.6974 251.824 100.19 251.977 100.788 251.977ZM113.267 241L113.949 241.818C113.684 242.076 113.377 242.256 113.028 242.358C112.68 242.46 112.286 242.523 111.847 242.545C111.407 242.568 110.919 242.591 110.381 242.614C109.775 242.636 109.273 242.784 108.875 243.057C108.477 243.33 108.17 243.723 107.955 244.239C107.739 244.754 107.6 245.386 107.54 246.136H107.653C107.949 245.591 108.358 245.189 108.881 244.932C109.403 244.674 109.964 244.545 110.562 244.545C111.244 244.545 111.858 244.705 112.403 245.023C112.949 245.341 113.381 245.812 113.699 246.438C114.017 247.062 114.176 247.833 114.176 248.75C114.176 249.663 114.013 250.451 113.688 251.114C113.366 251.777 112.913 252.288 112.33 252.648C111.75 253.004 111.07 253.182 110.29 253.182C109.509 253.182 108.826 252.998 108.239 252.631C107.652 252.259 107.195 251.71 106.869 250.983C106.544 250.252 106.381 249.348 106.381 248.273V247.341C106.381 245.398 106.71 243.924 107.369 242.92C108.032 241.917 109.028 241.398 110.358 241.364C110.828 241.348 111.246 241.345 111.614 241.352C111.981 241.36 112.301 241.343 112.574 241.301C112.847 241.259 113.078 241.159 113.267 241ZM110.29 251.977C110.816 251.977 111.269 251.845 111.648 251.58C112.03 251.314 112.324 250.941 112.528 250.46C112.733 249.975 112.835 249.405 112.835 248.75C112.835 248.114 112.731 247.572 112.523 247.125C112.318 246.678 112.025 246.337 111.642 246.102C111.259 245.867 110.801 245.75 110.267 245.75C109.877 245.75 109.527 245.816 109.216 245.949C108.905 246.081 108.64 246.277 108.42 246.534C108.201 246.792 108.03 247.106 107.909 247.477C107.792 247.848 107.729 248.273 107.722 248.75C107.722 249.727 107.951 250.509 108.409 251.097C108.867 251.684 109.494 251.977 110.29 251.977ZM128.136 251.75L127.977 255.5H126.591V253H125.455V251.75H128.136ZM116.227 244.273H117.568V251.75H120.864V244.273H122.205V251.75H125.5V244.273H126.841V253H116.227V244.273ZM132.655 253.205C132.102 253.205 131.6 253.1 131.149 252.892C130.698 252.68 130.34 252.375 130.075 251.977C129.81 251.576 129.678 251.091 129.678 250.523C129.678 250.023 129.776 249.617 129.973 249.307C130.17 248.992 130.433 248.746 130.763 248.568C131.092 248.39 131.456 248.258 131.854 248.17C132.255 248.08 132.659 248.008 133.064 247.955C133.594 247.886 134.024 247.835 134.354 247.801C134.687 247.763 134.929 247.701 135.081 247.614C135.236 247.527 135.314 247.375 135.314 247.159V247.114C135.314 246.553 135.161 246.117 134.854 245.807C134.551 245.496 134.09 245.341 133.473 245.341C132.833 245.341 132.331 245.481 131.967 245.761C131.604 246.042 131.348 246.341 131.2 246.659L129.928 246.205C130.155 245.674 130.458 245.261 130.837 244.966C131.219 244.667 131.636 244.458 132.087 244.341C132.541 244.22 132.988 244.159 133.428 244.159C133.708 244.159 134.03 244.193 134.393 244.261C134.761 244.326 135.115 244.46 135.456 244.665C135.801 244.869 136.087 245.178 136.314 245.591C136.541 246.004 136.655 246.557 136.655 247.25V253H135.314V251.818H135.246C135.155 252.008 135.003 252.21 134.791 252.426C134.579 252.642 134.297 252.826 133.945 252.977C133.592 253.129 133.162 253.205 132.655 253.205ZM132.859 252C133.39 252 133.837 251.896 134.2 251.688C134.568 251.479 134.844 251.21 135.03 250.881C135.219 250.551 135.314 250.205 135.314 249.841V248.614C135.257 248.682 135.132 248.744 134.939 248.801C134.75 248.854 134.53 248.902 134.28 248.943C134.034 248.981 133.793 249.015 133.558 249.045C133.327 249.072 133.14 249.095 132.996 249.114C132.647 249.159 132.321 249.233 132.018 249.335C131.719 249.434 131.477 249.583 131.291 249.784C131.109 249.981 131.018 250.25 131.018 250.591C131.018 251.057 131.191 251.409 131.536 251.648C131.884 251.883 132.325 252 132.859 252ZM144.352 253V245.5H142.034C141.511 245.5 141.1 245.621 140.801 245.864C140.502 246.106 140.352 246.439 140.352 246.864C140.352 247.28 140.487 247.608 140.756 247.847C141.028 248.085 141.402 248.205 141.875 248.205H144.693V249.455H141.875C141.284 249.455 140.775 249.35 140.347 249.142C139.919 248.934 139.589 248.636 139.358 248.25C139.127 247.86 139.011 247.398 139.011 246.864C139.011 246.326 139.133 245.864 139.375 245.477C139.617 245.091 139.964 244.794 140.415 244.585C140.869 244.377 141.409 244.273 142.034 244.273H145.625V253H144.352ZM138.534 253L141.011 248.659H142.466L139.989 253H138.534ZM156.132 253.182C155.314 253.182 154.609 252.989 154.018 252.602C153.428 252.216 152.973 251.684 152.655 251.006C152.337 250.328 152.178 249.553 152.178 248.682C152.178 247.795 152.34 247.013 152.666 246.335C152.996 245.653 153.454 245.121 154.041 244.739C154.632 244.352 155.321 244.159 156.109 244.159C156.723 244.159 157.276 244.273 157.768 244.5C158.261 244.727 158.664 245.045 158.979 245.455C159.293 245.864 159.488 246.341 159.564 246.886H158.223C158.121 246.489 157.893 246.136 157.541 245.83C157.193 245.519 156.723 245.364 156.132 245.364C155.609 245.364 155.151 245.5 154.757 245.773C154.367 246.042 154.062 246.422 153.842 246.915C153.626 247.403 153.518 247.977 153.518 248.636C153.518 249.311 153.625 249.898 153.837 250.398C154.053 250.898 154.356 251.286 154.746 251.562C155.14 251.839 155.602 251.977 156.132 251.977C156.481 251.977 156.797 251.917 157.081 251.795C157.365 251.674 157.606 251.5 157.803 251.273C158 251.045 158.14 250.773 158.223 250.455H159.564C159.488 250.97 159.301 251.434 159.001 251.847C158.706 252.256 158.314 252.581 157.825 252.824C157.34 253.062 156.776 253.182 156.132 253.182ZM162.388 256.273C162.161 256.273 161.958 256.254 161.78 256.216C161.602 256.182 161.479 256.148 161.411 256.114L161.751 254.932C162.077 255.015 162.365 255.045 162.615 255.023C162.865 255 163.087 254.888 163.28 254.688C163.477 254.491 163.657 254.17 163.82 253.727L164.07 253.045L160.842 244.273H162.297L164.706 251.227H164.797L167.206 244.273H168.661L164.956 254.273C164.789 254.723 164.583 255.097 164.337 255.392C164.09 255.691 163.804 255.913 163.479 256.057C163.157 256.201 162.793 256.273 162.388 256.273ZM175.203 251.182L178.249 244.273H179.521L175.749 253H174.658L170.953 244.273H172.203L175.203 251.182ZM171.771 244.273V253H170.43V244.273H171.771ZM178.635 253V244.273H179.976V253H178.635ZM187.203 251.182L190.249 244.273H191.521L187.749 253H186.658L182.953 244.273H184.203L187.203 251.182ZM183.771 244.273V253H182.43V244.273H183.771ZM190.635 253V244.273H191.976V253H190.635ZM196.999 253.205C196.446 253.205 195.944 253.1 195.493 252.892C195.042 252.68 194.684 252.375 194.419 251.977C194.154 251.576 194.021 251.091 194.021 250.523C194.021 250.023 194.12 249.617 194.317 249.307C194.514 248.992 194.777 248.746 195.107 248.568C195.436 248.39 195.8 248.258 196.197 248.17C196.599 248.08 197.002 248.008 197.408 247.955C197.938 247.886 198.368 247.835 198.697 247.801C199.031 247.763 199.273 247.701 199.425 247.614C199.58 247.527 199.658 247.375 199.658 247.159V247.114C199.658 246.553 199.504 246.117 199.197 245.807C198.894 245.496 198.434 245.341 197.817 245.341C197.177 245.341 196.675 245.481 196.311 245.761C195.947 246.042 195.692 246.341 195.544 246.659L194.271 246.205C194.499 245.674 194.802 245.261 195.18 244.966C195.563 244.667 195.98 244.458 196.43 244.341C196.885 244.22 197.332 244.159 197.771 244.159C198.052 244.159 198.374 244.193 198.737 244.261C199.105 244.326 199.459 244.46 199.8 244.665C200.144 244.869 200.43 245.178 200.658 245.591C200.885 246.004 200.999 246.557 200.999 247.25V253H199.658V251.818H199.589C199.499 252.008 199.347 252.21 199.135 252.426C198.923 252.642 198.641 252.826 198.288 252.977C197.936 253.129 197.506 253.205 196.999 253.205ZM197.203 252C197.733 252 198.18 251.896 198.544 251.688C198.911 251.479 199.188 251.21 199.374 250.881C199.563 250.551 199.658 250.205 199.658 249.841V248.614C199.601 248.682 199.476 248.744 199.283 248.801C199.093 248.854 198.874 248.902 198.624 248.943C198.377 248.981 198.137 249.015 197.902 249.045C197.671 249.072 197.483 249.095 197.339 249.114C196.991 249.159 196.665 249.233 196.362 249.335C196.063 249.434 195.821 249.583 195.635 249.784C195.453 249.981 195.362 250.25 195.362 250.591C195.362 251.057 195.535 251.409 195.879 251.648C196.228 251.883 196.669 252 197.203 252ZM207.946 253V244.273H211.514C212.454 244.273 213.2 244.485 213.753 244.909C214.306 245.333 214.582 245.894 214.582 246.591C214.582 247.121 214.425 247.532 214.111 247.824C213.796 248.112 213.393 248.307 212.901 248.409C213.223 248.455 213.535 248.568 213.838 248.75C214.145 248.932 214.399 249.182 214.599 249.5C214.8 249.814 214.901 250.201 214.901 250.659C214.901 251.106 214.787 251.506 214.56 251.858C214.332 252.21 214.007 252.489 213.582 252.693C213.158 252.898 212.651 253 212.06 253H207.946ZM209.219 251.773H212.06C212.522 251.773 212.884 251.663 213.145 251.443C213.406 251.223 213.537 250.924 213.537 250.545C213.537 250.095 213.406 249.741 213.145 249.483C212.884 249.222 212.522 249.091 212.06 249.091H209.219V251.773ZM209.219 247.932H211.514C211.874 247.932 212.183 247.883 212.44 247.784C212.698 247.682 212.895 247.538 213.031 247.352C213.171 247.163 213.241 246.939 213.241 246.682C213.241 246.314 213.088 246.027 212.781 245.818C212.474 245.606 212.052 245.5 211.514 245.5H209.219V247.932ZM219.499 253.205C218.946 253.205 218.444 253.1 217.993 252.892C217.542 252.68 217.184 252.375 216.919 251.977C216.654 251.576 216.521 251.091 216.521 250.523C216.521 250.023 216.62 249.617 216.817 249.307C217.014 248.992 217.277 248.746 217.607 248.568C217.936 248.39 218.3 248.258 218.697 248.17C219.099 248.08 219.502 248.008 219.908 247.955C220.438 247.886 220.868 247.835 221.197 247.801C221.531 247.763 221.773 247.701 221.925 247.614C222.08 247.527 222.158 247.375 222.158 247.159V247.114C222.158 246.553 222.004 246.117 221.697 245.807C221.394 245.496 220.934 245.341 220.317 245.341C219.677 245.341 219.175 245.481 218.811 245.761C218.447 246.042 218.192 246.341 218.044 246.659L216.771 246.205C216.999 245.674 217.302 245.261 217.68 244.966C218.063 244.667 218.48 244.458 218.93 244.341C219.385 244.22 219.832 244.159 220.271 244.159C220.552 244.159 220.874 244.193 221.237 244.261C221.605 244.326 221.959 244.46 222.3 244.665C222.644 244.869 222.93 245.178 223.158 245.591C223.385 246.004 223.499 246.557 223.499 247.25V253H222.158V251.818H222.089C221.999 252.008 221.847 252.21 221.635 252.426C221.423 252.642 221.141 252.826 220.788 252.977C220.436 253.129 220.006 253.205 219.499 253.205ZM219.703 252C220.233 252 220.68 251.896 221.044 251.688C221.411 251.479 221.688 251.21 221.874 250.881C222.063 250.551 222.158 250.205 222.158 249.841V248.614C222.101 248.682 221.976 248.744 221.783 248.801C221.593 248.854 221.374 248.902 221.124 248.943C220.877 248.981 220.637 249.015 220.402 249.045C220.171 249.072 219.983 249.095 219.839 249.114C219.491 249.159 219.165 249.233 218.862 249.335C218.563 249.434 218.321 249.583 218.135 249.784C217.953 249.981 217.862 250.25 217.862 250.591C217.862 251.057 218.035 251.409 218.379 251.648C218.728 251.883 219.169 252 219.703 252ZM225.946 244.273H227.287V251.75H230.582V244.273H231.923V251.75H235.219V244.273H236.56V253H225.946V244.273ZM240.349 251.023L244.554 244.273H246.099V253H244.759V246.25L240.577 253H239.009V244.273H240.349V251.023ZM249.555 244.273L251.646 247.841L253.737 244.273H255.283L252.464 248.636L255.283 253H253.737L251.646 249.614L249.555 253H248.01L250.783 248.636L248.01 244.273H249.555ZM75.9865 272.773H77.4183C77.4486 273.167 77.6267 273.466 77.9524 273.67C78.282 273.875 78.71 273.977 79.2365 273.977C79.7744 273.977 80.2346 273.867 80.6172 273.648C80.9998 273.424 81.1911 273.064 81.1911 272.568C81.1911 272.277 81.1191 272.023 80.9751 271.807C80.8312 271.587 80.6286 271.417 80.3672 271.295C80.1058 271.174 79.7971 271.114 79.4411 271.114H77.9411V269.909H79.4411C79.9751 269.909 80.3691 269.788 80.6229 269.545C80.8804 269.303 81.0092 269 81.0092 268.636C81.0092 268.246 80.871 267.934 80.5945 267.699C80.3179 267.46 79.9259 267.341 79.4183 267.341C78.907 267.341 78.4808 267.456 78.1399 267.688C77.799 267.915 77.6191 268.208 77.6001 268.568H76.1911C76.2062 268.098 76.3501 267.684 76.6229 267.324C76.8956 266.96 77.2668 266.676 77.7365 266.472C78.2062 266.263 78.7441 266.159 79.3501 266.159C79.9638 266.159 80.496 266.267 80.9467 266.483C81.4013 266.695 81.7517 266.985 81.9979 267.352C82.2479 267.716 82.3729 268.129 82.3729 268.591C82.3729 269.083 82.2346 269.481 81.9581 269.784C81.6816 270.087 81.335 270.303 80.9183 270.432V270.523C81.2479 270.545 81.5339 270.652 81.7763 270.841C82.0225 271.027 82.2138 271.271 82.3501 271.574C82.4865 271.873 82.5547 272.205 82.5547 272.568C82.5547 273.098 82.4126 273.561 82.1286 273.955C81.8445 274.345 81.4543 274.648 80.9581 274.864C80.4619 275.076 79.8956 275.182 79.2592 275.182C78.6418 275.182 78.0888 275.081 77.6001 274.881C77.1115 274.676 76.7232 274.394 76.4354 274.034C76.1513 273.67 76.0017 273.25 75.9865 272.773ZM87.0064 275.205C86.4534 275.205 85.9515 275.1 85.5007 274.892C85.05 274.68 84.692 274.375 84.4268 273.977C84.1617 273.576 84.0291 273.091 84.0291 272.523C84.0291 272.023 84.1276 271.617 84.3246 271.307C84.5215 270.992 84.7848 270.746 85.1143 270.568C85.4439 270.39 85.8075 270.258 86.2053 270.17C86.6068 270.08 87.0102 270.008 87.4155 269.955C87.9458 269.886 88.3757 269.835 88.7053 269.801C89.0386 269.763 89.281 269.701 89.4325 269.614C89.5878 269.527 89.6655 269.375 89.6655 269.159V269.114C89.6655 268.553 89.5121 268.117 89.2053 267.807C88.9022 267.496 88.442 267.341 87.8246 267.341C87.1844 267.341 86.6825 267.481 86.3189 267.761C85.9553 268.042 85.6996 268.341 85.5518 268.659L84.2791 268.205C84.5064 267.674 84.8094 267.261 85.1882 266.966C85.5708 266.667 85.9875 266.458 86.4382 266.341C86.8928 266.22 87.3397 266.159 87.7791 266.159C88.0594 266.159 88.3814 266.193 88.745 266.261C89.1125 266.326 89.4666 266.46 89.8075 266.665C90.1522 266.869 90.4382 267.178 90.6655 267.591C90.8928 268.004 91.0064 268.557 91.0064 269.25V275H89.6655V273.818H89.5973C89.5064 274.008 89.3549 274.21 89.1428 274.426C88.9306 274.642 88.6484 274.826 88.2962 274.977C87.9439 275.129 87.514 275.205 87.0064 275.205ZM87.2109 274C87.7412 274 88.1882 273.896 88.5518 273.688C88.9193 273.479 89.1958 273.21 89.3814 272.881C89.5708 272.551 89.6655 272.205 89.6655 271.841V270.614C89.6087 270.682 89.4837 270.744 89.2905 270.801C89.1011 270.854 88.8814 270.902 88.6314 270.943C88.3852 270.981 88.1446 271.015 87.9098 271.045C87.6787 271.072 87.4912 271.095 87.3473 271.114C86.9988 271.159 86.6731 271.233 86.37 271.335C86.0708 271.434 85.8284 271.583 85.6428 271.784C85.4609 271.981 85.37 272.25 85.37 272.591C85.37 273.057 85.5424 273.409 85.8871 273.648C86.2356 273.883 86.6768 274 87.2109 274ZM93.4538 275V266.273H94.7947V270.068H95.6811L98.8175 266.273H100.545L97.022 270.477L100.59 275H98.8629L95.9993 271.318H94.7947V275H93.4538ZM104.616 275.205C104.063 275.205 103.561 275.1 103.11 274.892C102.659 274.68 102.301 274.375 102.036 273.977C101.771 273.576 101.638 273.091 101.638 272.523C101.638 272.023 101.737 271.617 101.934 271.307C102.131 270.992 102.394 270.746 102.724 270.568C103.053 270.39 103.417 270.258 103.815 270.17C104.216 270.08 104.62 270.008 105.025 269.955C105.555 269.886 105.985 269.835 106.315 269.801C106.648 269.763 106.89 269.701 107.042 269.614C107.197 269.527 107.275 269.375 107.275 269.159V269.114C107.275 268.553 107.121 268.117 106.815 267.807C106.512 267.496 106.051 267.341 105.434 267.341C104.794 267.341 104.292 267.481 103.928 267.761C103.565 268.042 103.309 268.341 103.161 268.659L101.888 268.205C102.116 267.674 102.419 267.261 102.798 266.966C103.18 266.667 103.597 266.458 104.048 266.341C104.502 266.22 104.949 266.159 105.388 266.159C105.669 266.159 105.991 266.193 106.354 266.261C106.722 266.326 107.076 266.46 107.417 266.665C107.762 266.869 108.048 267.178 108.275 267.591C108.502 268.004 108.616 268.557 108.616 269.25V275H107.275V273.818H107.207C107.116 274.008 106.964 274.21 106.752 274.426C106.54 274.642 106.258 274.826 105.906 274.977C105.553 275.129 105.123 275.205 104.616 275.205ZM104.82 274C105.351 274 105.798 273.896 106.161 273.688C106.529 273.479 106.805 273.21 106.991 272.881C107.18 272.551 107.275 272.205 107.275 271.841V270.614C107.218 270.682 107.093 270.744 106.9 270.801C106.71 270.854 106.491 270.902 106.241 270.943C105.995 270.981 105.754 271.015 105.519 271.045C105.288 271.072 105.101 271.095 104.957 271.114C104.608 271.159 104.282 271.233 103.979 271.335C103.68 271.434 103.438 271.583 103.252 271.784C103.07 271.981 102.979 272.25 102.979 272.591C102.979 273.057 103.152 273.409 103.496 273.648C103.845 273.883 104.286 274 104.82 274ZM110.518 272.773H111.95C111.98 273.167 112.158 273.466 112.484 273.67C112.813 273.875 113.241 273.977 113.768 273.977C114.306 273.977 114.766 273.867 115.148 273.648C115.531 273.424 115.722 273.064 115.722 272.568C115.722 272.277 115.65 272.023 115.506 271.807C115.362 271.587 115.16 271.417 114.898 271.295C114.637 271.174 114.328 271.114 113.972 271.114H112.472V269.909H113.972C114.506 269.909 114.9 269.788 115.154 269.545C115.412 269.303 115.54 269 115.54 268.636C115.54 268.246 115.402 267.934 115.126 267.699C114.849 267.46 114.457 267.341 113.95 267.341C113.438 267.341 113.012 267.456 112.671 267.688C112.33 267.915 112.15 268.208 112.131 268.568H110.722C110.737 268.098 110.881 267.684 111.154 267.324C111.427 266.96 111.798 266.676 112.268 266.472C112.737 266.263 113.275 266.159 113.881 266.159C114.495 266.159 115.027 266.267 115.478 266.483C115.933 266.695 116.283 266.985 116.529 267.352C116.779 267.716 116.904 268.129 116.904 268.591C116.904 269.083 116.766 269.481 116.489 269.784C116.213 270.087 115.866 270.303 115.45 270.432V270.523C115.779 270.545 116.065 270.652 116.308 270.841C116.554 271.027 116.745 271.271 116.881 271.574C117.018 271.873 117.086 272.205 117.086 272.568C117.086 273.098 116.944 273.561 116.66 273.955C116.376 274.345 115.986 274.648 115.489 274.864C114.993 275.076 114.427 275.182 113.79 275.182C113.173 275.182 112.62 275.081 112.131 274.881C111.643 274.676 111.254 274.394 110.967 274.034C110.683 273.67 110.533 273.25 110.518 272.773ZM122.515 275.182C121.727 275.182 121.036 274.994 120.441 274.619C119.85 274.244 119.388 273.72 119.055 273.045C118.725 272.371 118.56 271.583 118.56 270.682C118.56 269.773 118.725 268.979 119.055 268.301C119.388 267.623 119.85 267.097 120.441 266.722C121.036 266.347 121.727 266.159 122.515 266.159C123.303 266.159 123.992 266.347 124.583 266.722C125.178 267.097 125.64 267.623 125.969 268.301C126.303 268.979 126.469 269.773 126.469 270.682C126.469 271.583 126.303 272.371 125.969 273.045C125.64 273.72 125.178 274.244 124.583 274.619C123.992 274.994 123.303 275.182 122.515 275.182ZM122.515 273.977C123.113 273.977 123.606 273.824 123.992 273.517C124.379 273.21 124.665 272.807 124.85 272.307C125.036 271.807 125.129 271.265 125.129 270.682C125.129 270.098 125.036 269.555 124.85 269.051C124.665 268.547 124.379 268.14 123.992 267.83C123.606 267.519 123.113 267.364 122.515 267.364C121.916 267.364 121.424 267.519 121.038 267.83C120.651 268.14 120.365 268.547 120.18 269.051C119.994 269.555 119.901 270.098 119.901 270.682C119.901 271.265 119.994 271.807 120.18 272.307C120.365 272.807 120.651 273.21 121.038 273.517C121.424 273.824 121.916 273.977 122.515 273.977ZM128.516 275V266.273H132.085C133.024 266.273 133.77 266.485 134.323 266.909C134.876 267.333 135.153 267.894 135.153 268.591C135.153 269.121 134.996 269.532 134.681 269.824C134.367 270.112 133.963 270.307 133.471 270.409C133.793 270.455 134.105 270.568 134.408 270.75C134.715 270.932 134.969 271.182 135.17 271.5C135.371 271.814 135.471 272.201 135.471 272.659C135.471 273.106 135.357 273.506 135.13 273.858C134.903 274.21 134.577 274.489 134.153 274.693C133.728 274.898 133.221 275 132.63 275H128.516ZM129.789 273.773H132.63C133.092 273.773 133.454 273.663 133.715 273.443C133.977 273.223 134.107 272.924 134.107 272.545C134.107 272.095 133.977 271.741 133.715 271.483C133.454 271.222 133.092 271.091 132.63 271.091H129.789V273.773ZM129.789 269.932H132.085C132.444 269.932 132.753 269.883 133.011 269.784C133.268 269.682 133.465 269.538 133.602 269.352C133.742 269.163 133.812 268.939 133.812 268.682C133.812 268.314 133.658 268.027 133.352 267.818C133.045 267.606 132.622 267.5 132.085 267.5H129.789V269.932ZM141.069 277.5V273.75H141.796C141.974 273.564 142.128 273.364 142.256 273.148C142.385 272.932 142.497 272.676 142.592 272.381C142.69 272.081 142.773 271.718 142.842 271.29C142.91 270.858 142.97 270.337 143.023 269.727L143.319 266.273H148.864V273.75H150.205V277.5H148.864V275H142.41V277.5H141.069ZM143.319 273.75H147.523V267.523H144.569L144.342 269.727C144.247 270.64 144.129 271.437 143.989 272.119C143.849 272.801 143.626 273.345 143.319 273.75ZM155.531 275.182C154.743 275.182 154.051 274.994 153.457 274.619C152.866 274.244 152.404 273.72 152.07 273.045C151.741 272.371 151.576 271.583 151.576 270.682C151.576 269.773 151.741 268.979 152.07 268.301C152.404 267.623 152.866 267.097 153.457 266.722C154.051 266.347 154.743 266.159 155.531 266.159C156.318 266.159 157.008 266.347 157.599 266.722C158.193 267.097 158.656 267.623 158.985 268.301C159.318 268.979 159.485 269.773 159.485 270.682C159.485 271.583 159.318 272.371 158.985 273.045C158.656 273.72 158.193 274.244 157.599 274.619C157.008 274.994 156.318 275.182 155.531 275.182ZM155.531 273.977C156.129 273.977 156.621 273.824 157.008 273.517C157.394 273.21 157.68 272.807 157.866 272.307C158.051 271.807 158.144 271.265 158.144 270.682C158.144 270.098 158.051 269.555 157.866 269.051C157.68 268.547 157.394 268.14 157.008 267.83C156.621 267.519 156.129 267.364 155.531 267.364C154.932 267.364 154.44 267.519 154.053 267.83C153.667 268.14 153.381 268.547 153.195 269.051C153.01 269.555 152.917 270.098 152.917 270.682C152.917 271.265 153.01 271.807 153.195 272.307C153.381 272.807 153.667 273.21 154.053 273.517C154.44 273.824 154.932 273.977 155.531 273.977ZM169.646 275.159C168.979 275.159 168.379 275.027 167.844 274.761C167.31 274.496 166.882 274.133 166.56 273.67C166.238 273.208 166.062 272.682 166.032 272.091H167.396C167.449 272.617 167.687 273.053 168.112 273.398C168.54 273.739 169.051 273.909 169.646 273.909C170.123 273.909 170.547 273.797 170.918 273.574C171.293 273.35 171.587 273.044 171.799 272.653C172.015 272.259 172.123 271.814 172.123 271.318C172.123 270.811 172.011 270.358 171.788 269.96C171.568 269.559 171.265 269.242 170.879 269.011C170.492 268.78 170.051 268.663 169.555 268.659C169.199 268.655 168.833 268.71 168.458 268.824C168.083 268.934 167.774 269.076 167.532 269.25L166.214 269.091L166.918 263.364H172.964V264.614H168.1L167.691 268.045H167.759C167.998 267.856 168.297 267.699 168.657 267.574C169.017 267.449 169.392 267.386 169.782 267.386C170.494 267.386 171.129 267.557 171.685 267.898C172.246 268.235 172.685 268.697 173.004 269.284C173.326 269.871 173.487 270.542 173.487 271.295C173.487 272.038 173.32 272.701 172.987 273.284C172.657 273.864 172.202 274.322 171.623 274.659C171.043 274.992 170.384 275.159 169.646 275.159ZM179.539 275.159C178.683 275.159 177.954 274.926 177.352 274.46C176.749 273.991 176.289 273.311 175.971 272.42C175.653 271.527 175.494 270.447 175.494 269.182C175.494 267.924 175.653 266.85 175.971 265.96C176.293 265.066 176.755 264.384 177.357 263.915C177.963 263.441 178.691 263.205 179.539 263.205C180.388 263.205 181.113 263.441 181.715 263.915C182.321 264.384 182.783 265.066 183.102 265.96C183.424 266.85 183.585 267.924 183.585 269.182C183.585 270.447 183.425 271.527 183.107 272.42C182.789 273.311 182.329 273.991 181.727 274.46C181.124 274.926 180.395 275.159 179.539 275.159ZM179.539 273.909C180.388 273.909 181.047 273.5 181.516 272.682C181.986 271.864 182.221 270.697 182.221 269.182C182.221 268.174 182.113 267.316 181.897 266.608C181.685 265.9 181.378 265.36 180.977 264.989C180.579 264.617 180.1 264.432 179.539 264.432C178.698 264.432 178.041 264.847 177.567 265.676C177.094 266.502 176.857 267.67 176.857 269.182C176.857 270.189 176.963 271.045 177.175 271.75C177.388 272.455 177.692 272.991 178.09 273.358C178.492 273.725 178.975 273.909 179.539 273.909ZM194.039 275.159C193.183 275.159 192.454 274.926 191.852 274.46C191.249 273.991 190.789 273.311 190.471 272.42C190.153 271.527 189.994 270.447 189.994 269.182C189.994 267.924 190.153 266.85 190.471 265.96C190.793 265.066 191.255 264.384 191.857 263.915C192.463 263.441 193.191 263.205 194.039 263.205C194.888 263.205 195.613 263.441 196.215 263.915C196.821 264.384 197.283 265.066 197.602 265.96C197.924 266.85 198.085 267.924 198.085 269.182C198.085 270.447 197.925 271.527 197.607 272.42C197.289 273.311 196.829 273.991 196.227 274.46C195.624 274.926 194.895 275.159 194.039 275.159ZM194.039 273.909C194.888 273.909 195.547 273.5 196.016 272.682C196.486 271.864 196.721 270.697 196.721 269.182C196.721 268.174 196.613 267.316 196.397 266.608C196.185 265.9 195.878 265.36 195.477 264.989C195.079 264.617 194.6 264.432 194.039 264.432C193.198 264.432 192.541 264.847 192.067 265.676C191.594 266.502 191.357 267.67 191.357 269.182C191.357 270.189 191.463 271.045 191.675 271.75C191.888 272.455 192.192 272.991 192.59 273.358C192.992 273.725 193.475 273.909 194.039 273.909ZM204.039 275.159C203.183 275.159 202.454 274.926 201.852 274.46C201.249 273.991 200.789 273.311 200.471 272.42C200.153 271.527 199.994 270.447 199.994 269.182C199.994 267.924 200.153 266.85 200.471 265.96C200.793 265.066 201.255 264.384 201.857 263.915C202.463 263.441 203.191 263.205 204.039 263.205C204.888 263.205 205.613 263.441 206.215 263.915C206.821 264.384 207.283 265.066 207.602 265.96C207.924 266.85 208.085 267.924 208.085 269.182C208.085 270.447 207.925 271.527 207.607 272.42C207.289 273.311 206.829 273.991 206.227 274.46C205.624 274.926 204.895 275.159 204.039 275.159ZM204.039 273.909C204.888 273.909 205.547 273.5 206.016 272.682C206.486 271.864 206.721 270.697 206.721 269.182C206.721 268.174 206.613 267.316 206.397 266.608C206.185 265.9 205.878 265.36 205.477 264.989C205.079 264.617 204.6 264.432 204.039 264.432C203.198 264.432 202.541 264.847 202.067 265.676C201.594 266.502 201.357 267.67 201.357 269.182C201.357 270.189 201.463 271.045 201.675 271.75C201.888 272.455 202.192 272.991 202.59 273.358C202.992 273.725 203.475 273.909 204.039 273.909ZM214.039 275.159C213.183 275.159 212.454 274.926 211.852 274.46C211.249 273.991 210.789 273.311 210.471 272.42C210.153 271.527 209.994 270.447 209.994 269.182C209.994 267.924 210.153 266.85 210.471 265.96C210.793 265.066 211.255 264.384 211.857 263.915C212.463 263.441 213.191 263.205 214.039 263.205C214.888 263.205 215.613 263.441 216.215 263.915C216.821 264.384 217.283 265.066 217.602 265.96C217.924 266.85 218.085 267.924 218.085 269.182C218.085 270.447 217.925 271.527 217.607 272.42C217.289 273.311 216.829 273.991 216.227 274.46C215.624 274.926 214.895 275.159 214.039 275.159ZM214.039 273.909C214.888 273.909 215.547 273.5 216.016 272.682C216.486 271.864 216.721 270.697 216.721 269.182C216.721 268.174 216.613 267.316 216.397 266.608C216.185 265.9 215.878 265.36 215.477 264.989C215.079 264.617 214.6 264.432 214.039 264.432C213.198 264.432 212.541 264.847 212.067 265.676C211.594 266.502 211.357 267.67 211.357 269.182C211.357 270.189 211.463 271.045 211.675 271.75C211.888 272.455 212.192 272.991 212.59 273.358C212.992 273.725 213.475 273.909 214.039 273.909ZM230.039 270.273H224.13V269.023H230.039C230.585 269.023 231.035 268.928 231.391 268.739C231.747 268.545 232.013 268.284 232.187 267.955C232.361 267.621 232.448 267.242 232.448 266.818C232.448 266.394 232.361 266.017 232.187 265.688C232.013 265.354 231.747 265.093 231.391 264.903C231.035 264.71 230.585 264.614 230.039 264.614H227.38V275H225.971V263.364H230.039C230.903 263.364 231.615 263.521 232.175 263.835C232.736 264.15 233.153 264.568 233.425 265.091C233.698 265.614 233.835 266.189 233.835 266.818C233.835 267.447 233.698 268.023 233.425 268.545C233.153 269.068 232.736 269.487 232.175 269.801C231.615 270.116 230.903 270.273 230.039 270.273ZM229.948 271.364V272.614H224.13V271.364H229.948Z" fill="white"/>
</svg>
