<svg width="40" height="40" viewBox="0 0 40 40" fill="none" xmlns="http://www.w3.org/2000/svg">
<path d="M19.6685 29.9851H15.6527L14.4019 25.6359C14.2702 25.2544 14.0069 24.9492 13.6119 24.9492C13.2828 24.9492 12.9536 25.1781 12.8219 25.6359L11.5711 29.9851H7.5553C7.22614 29.9851 6.89696 30.214 6.7653 30.6718C6.63363 31.0533 6.7653 31.5111 7.09446 31.74L10.3861 34.4106L9.13528 38.7598C8.93778 39.3702 9.33279 39.9806 9.92528 39.9806C10.1228 39.9806 10.2544 39.9043 10.3861 39.828L13.6777 37.1574L16.9694 39.828C17.2327 40.0569 17.6277 40.0569 17.9569 39.828C18.2202 39.5991 18.3519 39.1413 18.286 38.7598L17.0352 34.4106L20.3268 31.74C20.5902 31.5111 20.7218 31.0533 20.656 30.6718C20.4585 30.2903 19.9977 29.9851 19.6685 29.9851ZM15.3894 33.2661C15.1261 33.495 14.9944 33.9528 15.0602 34.3343L15.6527 36.547L14.0727 35.1736C13.8094 34.9447 13.4144 34.9447 13.0852 35.1736L11.4394 36.547L12.0319 34.3343C12.1636 33.9528 12.0319 33.495 11.7028 33.2661L10.0569 31.8926H12.0978C12.4269 31.8926 12.7561 31.6637 12.8878 31.2059L13.4802 28.9932L14.0727 31.2059C14.2044 31.5874 14.4677 31.8926 14.8627 31.8926H16.9036L15.3894 33.2661Z" fill="#FBBB1F"/>
<path d="M39.9459 12.5909C39.8142 12.2094 39.5509 11.9042 39.1559 11.9042H31.3876L29.0177 3.43477C28.886 3.05326 28.6227 2.74805 28.2277 2.74805C27.8327 2.74805 27.5693 2.97696 27.4377 3.43477L25.0677 11.9042H17.2994C16.9703 11.9042 16.6411 12.1331 16.5094 12.5909C16.3778 12.9724 16.5094 13.4302 16.8386 13.6591L23.1585 18.9239L20.7886 27.3934C20.6569 27.7749 20.7886 28.2327 21.1177 28.4616C21.3811 28.6905 21.7761 28.6905 22.1052 28.4616L28.4252 23.1968L34.7451 28.4616C34.8768 28.6142 35.0743 28.6142 35.2059 28.6142C35.7326 28.6142 36.1934 28.0038 35.9959 27.3934L33.4943 18.9239L39.8142 13.6591C39.9459 13.4302 40.0776 12.9724 39.9459 12.5909ZM31.9143 17.7794C31.651 18.0083 31.5193 18.4661 31.5851 18.8476L33.3626 25.1806L28.6885 21.2893C28.4252 21.0604 28.0302 21.0604 27.701 21.2893L22.961 25.2569L24.7385 18.9239C24.8702 18.5424 24.7385 18.0846 24.4094 17.8557L19.6694 13.888H25.5285C25.8577 13.888 26.1868 13.6591 26.3185 13.2013L28.096 6.86832L29.8735 13.2013C30.0051 13.5828 30.2685 13.888 30.6635 13.888H36.5226L31.9143 17.7794Z" fill="#FBBB1F"/>
<path d="M2.81542 18.7691C2.68375 19.1506 2.81542 19.6084 3.14458 19.8373C3.40791 20.0662 3.80291 20.0662 4.13207 19.8373L8.27954 16.4038L12.427 19.8373C12.6903 20.0662 13.0853 20.0662 13.4145 19.8373C13.6778 19.6084 13.8095 19.1506 13.7437 18.7691L12.0978 13.1991L16.2453 9.76554C16.5086 9.53664 16.6403 9.07884 16.5745 8.69733C16.4428 8.31582 16.1795 8.01062 15.7845 8.01062H10.6495L9.06953 2.44063C8.93786 2.05912 8.67454 1.75391 8.27954 1.75391C7.88455 1.75391 7.62121 1.98282 7.48954 2.44063L5.90956 8.01062H0.840435C0.511272 8.01062 0.18212 8.23952 0.0504547 8.69733C-0.0812108 9.07884 0.0504546 9.53664 0.379618 9.76554L4.52707 13.1991L2.81542 18.7691ZM3.34209 9.91816H6.50205C6.83122 9.91816 7.16039 9.68925 7.29205 9.23144L8.27954 5.79788L9.26704 9.23144C9.3987 9.61294 9.66202 9.91816 10.057 9.91816H13.217L10.7153 12.0546C10.452 12.2835 10.3203 12.7413 10.3862 13.1228L11.3737 16.5564L8.8062 14.4199C8.54287 14.191 8.14787 14.191 7.81871 14.4199L5.31707 16.5564L6.30456 13.1228C6.43623 12.7413 6.30456 12.2835 5.9754 12.0546L3.34209 9.91816Z" fill="#FBBB1F"/>
<path d="M7.55603 24.7217C7.55603 23.1194 6.43688 21.8223 5.05439 21.8223C3.6719 21.8223 2.55273 23.1194 2.55273 24.7217C2.55273 26.324 3.6719 27.6212 5.05439 27.6212C6.43688 27.6212 7.55603 26.324 7.55603 24.7217ZM5.05439 25.7136C4.59356 25.7136 4.19855 25.2558 4.19855 24.7217C4.19855 24.1876 4.59356 23.7298 5.05439 23.7298C5.51522 23.7298 5.91021 24.1876 5.91021 24.7217C5.91021 25.2558 5.51522 25.7136 5.05439 25.7136Z" fill="#FBBB1F"/>
<path d="M19.6691 6.63902C20.7883 6.63902 21.71 5.57079 21.71 4.27367C21.71 2.97655 20.7883 1.83203 19.6691 1.83203C18.55 1.83203 17.6283 2.90025 17.6283 4.19738C17.5625 5.4945 18.4841 6.63902 19.6691 6.63902ZM19.6691 3.73956C19.8666 3.73956 20.0641 3.96847 20.0641 4.19738C20.0641 4.42628 19.8666 4.65518 19.6691 4.65518C19.4716 4.65518 19.2741 4.42628 19.2741 4.19738C19.2083 3.96847 19.34 3.73956 19.6691 3.73956Z" fill="#FBBB1F"/>
<path d="M28.3584 31.4355C26.5151 31.4355 25.001 33.1142 25.001 35.2506C25.001 37.387 26.4493 39.0657 28.3584 39.0657C30.2018 39.0657 31.7159 37.387 31.7159 35.2506C31.7159 33.1142 30.2018 31.4355 28.3584 31.4355ZM28.3584 37.1581C27.4368 37.1581 26.7126 36.3188 26.7126 35.2506C26.7126 34.1824 27.4368 33.3431 28.3584 33.3431C29.2801 33.3431 30.0043 34.1824 30.0043 35.2506C30.0043 36.3188 29.2801 37.1581 28.3584 37.1581Z" fill="#FBBB1F"/>
<path d="M11.7021 0C12.1629 0 12.4921 0.381504 12.4921 0.915613C12.4921 1.44972 12.1629 1.83123 11.7021 1.83123C11.2413 1.83123 10.9121 1.44972 10.9121 0.915613C10.9121 0.381504 11.2413 0 11.7021 0Z" fill="#FBBB1F"/>
<path d="M18.3525 19.0742C18.8133 19.0742 19.1425 19.4557 19.1425 19.9898C19.1425 20.5239 18.8133 20.9054 18.3525 20.9054C17.8917 20.9054 17.5625 20.5239 17.5625 19.9898C17.5625 19.4557 17.9575 19.0742 18.3525 19.0742Z" fill="#FBBB1F"/>
<path d="M1.69625 4.65349C2.13255 4.65349 2.48623 4.24356 2.48623 3.73788C2.48623 3.2322 2.13255 2.82227 1.69625 2.82227C1.25995 2.82227 0.90625 3.2322 0.90625 3.73788C0.90625 4.24356 1.25995 4.65349 1.69625 4.65349Z" fill="#FBBB1F"/>
<path d="M25.0009 4.65349C25.4372 4.65349 25.7909 4.24356 25.7909 3.73788C25.7909 3.2322 25.4372 2.82227 25.0009 2.82227C24.5646 2.82227 24.2109 3.2322 24.2109 3.73788C24.2109 4.24356 24.5646 4.65349 25.0009 4.65349Z" fill="#FBBB1F"/>
<path d="M34.2177 3.81641C34.6786 3.81641 35.0077 4.19791 35.0077 4.73202C35.0077 5.26613 34.6786 5.64763 34.2177 5.64763C33.7569 5.64763 33.4277 5.26613 33.4277 4.73202C33.4277 4.19791 33.7569 3.81641 34.2177 3.81641Z" fill="#FBBB1F"/>
<path d="M36.7191 20.9844C37.1799 20.9844 37.5091 21.3659 37.5091 21.9C37.5091 22.4341 37.1799 22.8156 36.7191 22.8156C36.2582 22.8156 35.9291 22.4341 35.9291 21.9C35.8632 21.3659 36.2582 20.9844 36.7191 20.9844Z" fill="#FBBB1F"/>
<path d="M35.8632 34.3359C36.3241 34.3359 36.6532 34.7174 36.6532 35.2516C36.6532 35.7857 36.3241 36.1672 35.8632 36.1672C35.4024 36.1672 35.0732 35.7857 35.0732 35.2516C35.0732 34.7174 35.4682 34.3359 35.8632 34.3359Z" fill="#FBBB1F"/>
<path d="M27.5029 27.5449C27.9637 27.5449 28.2929 27.9264 28.2929 28.4605C28.2929 28.9946 27.9637 29.3762 27.5029 29.3762C27.042 29.3762 26.7129 28.9946 26.7129 28.4605C26.7129 27.9264 27.042 27.5449 27.5029 27.5449Z" fill="#FBBB1F"/>
<path d="M21.7089 36.2422C22.1698 36.2422 22.4989 36.6237 22.4989 37.1578C22.4989 37.6919 22.1698 38.0734 21.7089 38.0734C21.2481 38.0734 20.9189 37.6919 20.9189 37.1578C20.9189 36.6237 21.2481 36.2422 21.7089 36.2422Z" fill="#FBBB1F"/>
<path d="M4.13178 37.0832C4.56808 37.0832 4.92178 36.6732 4.92178 36.1676C4.92178 35.6619 4.56808 35.252 4.13178 35.252C3.69548 35.252 3.3418 35.6619 3.3418 36.1676C3.3418 36.6732 3.69548 37.0832 4.13178 37.0832Z" fill="#FBBB1F"/>
</svg>
