<svg width="310" height="310" viewBox="0 0 310 310" fill="none" xmlns="http://www.w3.org/2000/svg">
<rect width="310" height="310" rx="20" fill="#E31E24"/>
<path fill-rule="evenodd" clip-rule="evenodd" d="M153.33 35.4769C153.934 33.9712 156.066 33.9712 156.67 35.4769L161.384 47.2143L174.003 48.07C175.622 48.1798 176.281 50.2069 175.036 51.2472L165.329 59.357L168.415 71.6233C168.811 73.1968 167.087 74.4496 165.712 73.5869L155 66.8616L144.288 73.5869C142.914 74.4496 141.189 73.1968 141.585 71.6233L144.671 59.357L134.964 51.2472C133.719 50.2069 134.378 48.1798 135.997 48.07L148.616 47.2143L153.33 35.4769Z" fill="white"/>
<path d="M78.7225 110.3V125H76.3075V112.61H70.3225V125H67.9075V110.3H78.7225ZM86.4772 125.273C84.9372 125.273 83.6282 124.741 82.5502 123.677C81.4722 122.613 80.9332 121.304 80.9332 119.75C80.9332 118.196 81.4722 116.887 82.5502 115.823C83.6282 114.759 84.9372 114.227 86.4772 114.227C88.0312 114.227 89.3402 114.759 90.4042 115.823C91.4822 116.887 92.0212 118.196 92.0212 119.75C92.0212 121.304 91.4822 122.613 90.4042 123.677C89.3402 124.741 88.0312 125.273 86.4772 125.273ZM84.1462 122.123C84.7762 122.753 85.5532 123.068 86.4772 123.068C87.4012 123.068 88.1782 122.753 88.8082 122.123C89.4382 121.493 89.7532 120.702 89.7532 119.75C89.7532 118.798 89.4382 118.007 88.8082 117.377C88.1782 116.747 87.4012 116.432 86.4772 116.432C85.5532 116.432 84.7762 116.747 84.1462 117.377C83.5162 118.007 83.2012 118.798 83.2012 119.75C83.2012 120.702 83.5162 121.493 84.1462 122.123ZM99.028 125.273C97.446 125.273 96.123 124.741 95.059 123.677C94.009 122.613 93.484 121.304 93.484 119.75C93.484 118.182 94.009 116.873 95.059 115.823C96.123 114.759 97.446 114.227 99.028 114.227C100.05 114.227 100.981 114.472 101.821 114.962C102.661 115.452 103.291 116.11 103.711 116.936L101.758 118.07C101.52 117.566 101.156 117.174 100.666 116.894C100.19 116.6 99.637 116.453 99.007 116.453C98.083 116.453 97.306 116.768 96.676 117.398C96.06 118.028 95.752 118.812 95.752 119.75C95.752 120.688 96.06 121.472 96.676 122.102C97.306 122.732 98.083 123.047 99.007 123.047C99.623 123.047 100.176 122.9 100.666 122.606C101.17 122.312 101.548 121.92 101.8 121.43L103.753 122.543C103.305 123.383 102.661 124.048 101.821 124.538C100.981 125.028 100.05 125.273 99.028 125.273ZM113.312 114.5V116.684H109.889V125H107.621V116.684H104.177V114.5H113.312ZM119.392 125.273C117.852 125.273 116.543 124.741 115.465 123.677C114.387 122.613 113.848 121.304 113.848 119.75C113.848 118.196 114.387 116.887 115.465 115.823C116.543 114.759 117.852 114.227 119.392 114.227C120.946 114.227 122.255 114.759 123.319 115.823C124.397 116.887 124.936 118.196 124.936 119.75C124.936 121.304 124.397 122.613 123.319 123.677C122.255 124.741 120.946 125.273 119.392 125.273ZM117.061 122.123C117.691 122.753 118.468 123.068 119.392 123.068C120.316 123.068 121.093 122.753 121.723 122.123C122.353 121.493 122.668 120.702 122.668 119.75C122.668 118.798 122.353 118.007 121.723 117.377C121.093 116.747 120.316 116.432 119.392 116.432C118.468 116.432 117.691 116.747 117.061 117.377C116.431 118.007 116.116 118.798 116.116 119.75C116.116 120.702 116.431 121.493 117.061 122.123ZM134.704 114.5V125H132.478V121.472H131.218L128.551 125H125.884L128.719 121.262C127.991 121.024 127.403 120.604 126.955 120.002C126.521 119.4 126.304 118.728 126.304 117.986C126.304 117.02 126.647 116.201 127.333 115.529C128.033 114.843 128.929 114.5 130.021 114.5H134.704ZM130.147 119.519H132.478V116.558H130.147C129.685 116.558 129.3 116.691 128.992 116.957C128.684 117.223 128.53 117.587 128.53 118.049C128.53 118.497 128.684 118.854 128.992 119.12C129.3 119.386 129.685 119.519 130.147 119.519ZM144.421 114.5H146.689V125H144.421V120.821H139.612V125H137.344V114.5H139.612V118.679H144.421V114.5ZM156.397 114.5H158.665V125H156.397V120.821H151.588V125H149.32V114.5H151.588V118.679H156.397V114.5ZM165.875 118.07C166.995 118.07 167.912 118.392 168.626 119.036C169.34 119.666 169.697 120.499 169.697 121.535C169.697 122.557 169.34 123.39 168.626 124.034C167.912 124.678 166.995 125 165.875 125H161.297V114.5H163.565V118.07H165.875ZM170.957 114.5H173.225V125H170.957V114.5ZM165.896 122.963C166.344 122.963 166.715 122.83 167.009 122.564C167.317 122.298 167.471 121.955 167.471 121.535C167.471 121.101 167.317 120.758 167.009 120.506C166.715 120.24 166.344 120.107 165.896 120.107H163.565V122.963H165.896ZM177.579 113.03V111.056H183.459V113.03H177.579ZM183.459 114.5H185.202V125H182.976V118.322L177.6 125H175.857V114.5H178.083V121.157L183.459 114.5ZM200.119 114.5V116.684H195.352V125H193.084V114.5H200.119ZM206.202 125.273C204.662 125.273 203.353 124.741 202.275 123.677C201.197 122.613 200.658 121.304 200.658 119.75C200.658 118.196 201.197 116.887 202.275 115.823C203.353 114.759 204.662 114.227 206.202 114.227C207.756 114.227 209.065 114.759 210.129 115.823C211.207 116.887 211.746 118.196 211.746 119.75C211.746 121.304 211.207 122.613 210.129 123.677C209.065 124.741 207.756 125.273 206.202 125.273ZM203.871 122.123C204.501 122.753 205.278 123.068 206.202 123.068C207.126 123.068 207.903 122.753 208.533 122.123C209.163 121.493 209.478 120.702 209.478 119.75C209.478 118.798 209.163 118.007 208.533 117.377C207.903 116.747 207.126 116.432 206.202 116.432C205.278 116.432 204.501 116.747 203.871 117.377C203.241 118.007 202.926 118.798 202.926 119.75C202.926 120.702 203.241 121.493 203.871 122.123ZM218.753 125.273C217.171 125.273 215.848 124.741 214.784 123.677C213.734 122.613 213.209 121.304 213.209 119.75C213.209 118.182 213.734 116.873 214.784 115.823C215.848 114.759 217.171 114.227 218.753 114.227C219.775 114.227 220.706 114.472 221.546 114.962C222.386 115.452 223.016 116.11 223.436 116.936L221.483 118.07C221.245 117.566 220.881 117.174 220.391 116.894C219.915 116.6 219.362 116.453 218.732 116.453C217.808 116.453 217.031 116.768 216.401 117.398C215.785 118.028 215.477 118.812 215.477 119.75C215.477 120.688 215.785 121.472 216.401 122.102C217.031 122.732 217.808 123.047 218.732 123.047C219.348 123.047 219.901 122.9 220.391 122.606C220.895 122.312 221.273 121.92 221.525 121.43L223.478 122.543C223.03 123.383 222.386 124.048 221.546 124.538C220.706 125.028 219.775 125.273 218.753 125.273ZM233.036 114.5V116.684H229.613V125H227.345V116.684H223.901V114.5H233.036ZM239.149 118.07C240.269 118.07 241.186 118.392 241.9 119.036C242.614 119.666 242.971 120.499 242.971 121.535C242.971 122.557 242.614 123.39 241.9 124.034C241.186 124.678 240.269 125 239.149 125H234.571V114.5H236.839V118.07H239.149ZM239.17 122.963C239.618 122.963 239.989 122.83 240.283 122.564C240.591 122.298 240.745 121.955 240.745 121.535C240.745 121.101 240.591 120.758 240.283 120.506C239.989 120.24 239.618 120.107 239.17 120.107H236.839V122.963H239.17Z" fill="white"/>
<path d="M110.122 178V174.932L121.645 162.318C122.997 160.841 124.111 159.557 124.986 158.466C125.861 157.364 126.509 156.33 126.929 155.364C127.361 154.386 127.577 153.364 127.577 152.295C127.577 151.068 127.282 150.006 126.691 149.108C126.111 148.21 125.316 147.517 124.304 147.028C123.293 146.54 122.157 146.295 120.895 146.295C119.554 146.295 118.384 146.574 117.384 147.131C116.395 147.676 115.628 148.443 115.083 149.432C114.549 150.42 114.282 151.58 114.282 152.909H110.259C110.259 150.864 110.73 149.068 111.674 147.523C112.617 145.977 113.901 144.773 115.526 143.909C117.162 143.045 118.997 142.614 121.032 142.614C123.077 142.614 124.889 143.045 126.469 143.909C128.049 144.773 129.287 145.937 130.185 147.403C131.083 148.869 131.532 150.5 131.532 152.295C131.532 153.58 131.299 154.835 130.833 156.062C130.378 157.278 129.583 158.636 128.446 160.136C127.321 161.625 125.759 163.443 123.759 165.591L115.918 173.977V174.25H132.145V178H110.122ZM150.571 178.477C148.003 178.477 145.816 177.778 144.009 176.381C142.202 174.972 140.821 172.932 139.867 170.261C138.912 167.58 138.435 164.341 138.435 160.545C138.435 156.773 138.912 153.551 139.867 150.881C140.833 148.199 142.219 146.153 144.026 144.744C145.844 143.324 148.026 142.614 150.571 142.614C153.117 142.614 155.293 143.324 157.1 144.744C158.918 146.153 160.304 148.199 161.259 150.881C162.225 153.551 162.708 156.773 162.708 160.545C162.708 164.341 162.23 167.58 161.276 170.261C160.321 172.932 158.941 174.972 157.134 176.381C155.327 177.778 153.139 178.477 150.571 178.477ZM150.571 174.727C153.117 174.727 155.094 173.5 156.503 171.045C157.912 168.591 158.617 165.091 158.617 160.545C158.617 157.523 158.293 154.949 157.645 152.824C157.009 150.699 156.088 149.08 154.884 147.966C153.691 146.852 152.253 146.295 150.571 146.295C148.049 146.295 146.077 147.54 144.657 150.028C143.236 152.506 142.526 156.011 142.526 160.545C142.526 163.568 142.844 166.136 143.48 168.25C144.117 170.364 145.032 171.972 146.225 173.074C147.429 174.176 148.878 174.727 150.571 174.727ZM186.98 171.455V169.614C186.98 168.341 187.242 167.176 187.764 166.119C188.299 165.051 189.071 164.199 190.083 163.562C191.105 162.915 192.344 162.591 193.799 162.591C195.276 162.591 196.514 162.915 197.514 163.562C198.514 164.199 199.27 165.051 199.782 166.119C200.293 167.176 200.549 168.341 200.549 169.614V171.455C200.549 172.727 200.287 173.898 199.764 174.966C199.253 176.023 198.492 176.875 197.48 177.523C196.48 178.159 195.253 178.477 193.799 178.477C192.321 178.477 191.077 178.159 190.066 177.523C189.054 176.875 188.287 176.023 187.764 174.966C187.242 173.898 186.98 172.727 186.98 171.455ZM190.458 169.614V171.455C190.458 172.511 190.708 173.46 191.208 174.301C191.708 175.131 192.571 175.545 193.799 175.545C194.992 175.545 195.833 175.131 196.321 174.301C196.821 173.46 197.071 172.511 197.071 171.455V169.614C197.071 168.557 196.833 167.614 196.355 166.784C195.878 165.943 195.026 165.523 193.799 165.523C192.605 165.523 191.747 165.943 191.225 166.784C190.713 167.614 190.458 168.557 190.458 169.614ZM169.594 151.477V149.636C169.594 148.364 169.855 147.199 170.378 146.142C170.912 145.074 171.685 144.222 172.696 143.585C173.719 142.937 174.958 142.614 176.412 142.614C177.889 142.614 179.128 142.937 180.128 143.585C181.128 144.222 181.884 145.074 182.395 146.142C182.907 147.199 183.162 148.364 183.162 149.636V151.477C183.162 152.75 182.901 153.92 182.378 154.989C181.867 156.045 181.105 156.898 180.094 157.545C179.094 158.182 177.867 158.5 176.412 158.5C174.935 158.5 173.691 158.182 172.679 157.545C171.668 156.898 170.901 156.045 170.378 154.989C169.855 153.92 169.594 152.75 169.594 151.477ZM173.071 149.636V151.477C173.071 152.534 173.321 153.483 173.821 154.324C174.321 155.153 175.185 155.568 176.412 155.568C177.605 155.568 178.446 155.153 178.935 154.324C179.435 153.483 179.685 152.534 179.685 151.477V149.636C179.685 148.58 179.446 147.636 178.969 146.807C178.492 145.966 177.639 145.545 176.412 145.545C175.219 145.545 174.361 145.966 173.838 146.807C173.327 147.636 173.071 148.58 173.071 149.636ZM170.889 178L194.889 143.091H198.776L174.776 178H170.889Z" fill="white"/>
<path d="M132.674 204H131.09L126.59 199.662V204H125.402V195H126.59V198.978L130.874 195H132.494L127.85 199.32L132.674 204ZM137.558 194.784C138.89 194.784 139.964 195.258 140.78 196.206C141.608 197.142 142.022 198.252 142.022 199.536C142.022 199.668 142.01 199.854 141.986 200.094H134.084C134.204 201.006 134.588 201.732 135.236 202.272C135.896 202.8 136.706 203.064 137.666 203.064C138.35 203.064 138.938 202.926 139.43 202.65C139.934 202.362 140.312 201.99 140.564 201.534L141.608 202.146C141.212 202.782 140.672 203.286 139.988 203.658C139.304 204.03 138.524 204.216 137.648 204.216C136.232 204.216 135.08 203.772 134.192 202.884C133.304 201.996 132.86 200.868 132.86 199.5C132.86 198.156 133.298 197.034 134.174 196.134C135.05 195.234 136.178 194.784 137.558 194.784ZM137.558 195.936C136.622 195.936 135.836 196.218 135.2 196.782C134.576 197.334 134.204 198.054 134.084 198.942H140.798C140.678 197.994 140.312 197.256 139.7 196.728C139.088 196.2 138.374 195.936 137.558 195.936ZM154.783 195H155.971V204H143.911V195H145.099V202.848H149.347V195H150.535V202.848H154.783V195ZM162.48 204.216C161.184 204.216 160.104 203.79 159.24 202.938C158.376 202.074 157.944 200.958 157.944 199.59C157.944 198.054 158.172 196.878 158.628 196.062C159.084 195.234 160.008 194.484 161.4 193.812C161.664 193.68 162.012 193.524 162.444 193.344C162.888 193.164 163.218 193.02 163.434 192.912C163.662 192.804 163.908 192.666 164.172 192.498C164.436 192.318 164.634 192.12 164.766 191.904C164.898 191.688 164.982 191.43 165.018 191.13L165.954 191.67C165.906 191.958 165.81 192.228 165.666 192.48C165.522 192.732 165.372 192.936 165.216 193.092C165.072 193.248 164.838 193.422 164.514 193.614C164.202 193.794 163.956 193.926 163.776 194.01C163.608 194.082 163.308 194.208 162.876 194.388C162.456 194.568 162.174 194.688 162.03 194.748C161.19 195.108 160.572 195.486 160.176 195.882C159.78 196.266 159.498 196.77 159.33 197.394C159.738 196.854 160.254 196.458 160.878 196.206C161.514 195.942 162.132 195.81 162.732 195.81C163.932 195.81 164.922 196.206 165.702 196.998C166.494 197.778 166.89 198.78 166.89 200.004C166.89 201.216 166.47 202.224 165.63 203.028C164.802 203.82 163.752 204.216 162.48 204.216ZM162.48 203.028C163.416 203.028 164.184 202.746 164.784 202.182C165.396 201.606 165.702 200.88 165.702 200.004C165.702 199.116 165.414 198.39 164.838 197.826C164.274 197.25 163.518 196.962 162.57 196.962C161.718 196.962 160.944 197.232 160.248 197.772C159.552 198.3 159.204 199.008 159.204 199.896C159.204 200.808 159.516 201.558 160.14 202.146C160.776 202.734 161.556 203.028 162.48 203.028ZM171.725 194.784C173.081 194.784 174.173 195.234 175.001 196.134C175.829 197.022 176.243 198.144 176.243 199.5C176.243 200.856 175.823 201.984 174.983 202.884C174.155 203.772 173.057 204.216 171.689 204.216C170.717 204.216 169.871 204.006 169.151 203.586C168.443 203.154 167.933 202.572 167.621 201.84L168.647 201.246C168.851 201.798 169.217 202.242 169.745 202.578C170.273 202.902 170.921 203.064 171.689 203.064C172.589 203.064 173.339 202.788 173.939 202.236C174.539 201.672 174.899 200.952 175.019 200.076H170.537V198.924H175.019C174.911 198.048 174.557 197.334 173.957 196.782C173.369 196.218 172.625 195.936 171.725 195.936C171.041 195.936 170.435 196.098 169.907 196.422C169.379 196.746 168.989 197.184 168.737 197.736L167.693 197.142C168.053 196.41 168.587 195.834 169.295 195.414C170.015 194.994 170.825 194.784 171.725 194.784ZM185.496 204H183.912L179.412 199.662V204H178.224V195H179.412V198.978L183.696 195H185.316L180.672 199.32L185.496 204Z" fill="white"/>
<path d="M52.196 247.182C52.196 248.409 51.9744 249.47 51.5312 250.364C51.0881 251.258 50.4801 251.947 49.7074 252.432C48.9347 252.917 48.0521 253.159 47.0597 253.159C46.0672 253.159 45.1847 252.917 44.4119 252.432C43.6392 251.947 43.0313 251.258 42.5881 250.364C42.1449 249.47 41.9233 248.409 41.9233 247.182C41.9233 245.955 42.1449 244.894 42.5881 244C43.0313 243.106 43.6392 242.417 44.4119 241.932C45.1847 241.447 46.0672 241.205 47.0597 241.205C48.0521 241.205 48.9347 241.447 49.7074 241.932C50.4801 242.417 51.0881 243.106 51.5312 244C51.9744 244.894 52.196 245.955 52.196 247.182ZM50.8324 247.182C50.8324 246.174 50.6638 245.324 50.3267 244.631C49.9934 243.938 49.5407 243.413 48.9688 243.057C48.4006 242.701 47.7642 242.523 47.0597 242.523C46.3551 242.523 45.7169 242.701 45.1449 243.057C44.5767 243.413 44.1241 243.938 43.7869 244.631C43.4536 245.324 43.2869 246.174 43.2869 247.182C43.2869 248.189 43.4536 249.04 43.7869 249.733C44.1241 250.426 44.5767 250.951 45.1449 251.307C45.7169 251.663 46.3551 251.841 47.0597 251.841C47.7642 251.841 48.4006 251.663 48.9688 251.307C49.5407 250.951 49.9934 250.426 50.3267 249.733C50.6638 249.04 50.8324 248.189 50.8324 247.182ZM60.8608 241L61.5426 241.818C61.2775 242.076 60.9706 242.256 60.6222 242.358C60.2737 242.46 59.8797 242.523 59.4403 242.545C59.0009 242.568 58.5123 242.591 57.9744 242.614C57.3684 242.636 56.8665 242.784 56.4688 243.057C56.071 243.33 55.7642 243.723 55.5483 244.239C55.3324 244.754 55.1941 245.386 55.1335 246.136H55.2472C55.5426 245.591 55.9517 245.189 56.4744 244.932C56.9972 244.674 57.5578 244.545 58.1562 244.545C58.8381 244.545 59.4517 244.705 59.9972 245.023C60.5426 245.341 60.9744 245.812 61.2926 246.438C61.6108 247.062 61.7699 247.833 61.7699 248.75C61.7699 249.663 61.607 250.451 61.2812 251.114C60.9593 251.777 60.5066 252.288 59.9233 252.648C59.3438 253.004 58.6638 253.182 57.8835 253.182C57.1032 253.182 56.4195 252.998 55.8324 252.631C55.2453 252.259 54.7888 251.71 54.4631 250.983C54.1373 250.252 53.9744 249.348 53.9744 248.273V247.341C53.9744 245.398 54.304 243.924 54.9631 242.92C55.6259 241.917 56.6222 241.398 57.9517 241.364C58.4214 241.348 58.84 241.345 59.2074 241.352C59.5748 241.36 59.8949 241.343 60.1676 241.301C60.4403 241.259 60.6714 241.159 60.8608 241ZM57.8835 251.977C58.41 251.977 58.8627 251.845 59.2415 251.58C59.6241 251.314 59.9176 250.941 60.1222 250.46C60.3267 249.975 60.429 249.405 60.429 248.75C60.429 248.114 60.3248 247.572 60.1165 247.125C59.9119 246.678 59.6184 246.337 59.2358 246.102C58.8532 245.867 58.3949 245.75 57.8608 245.75C57.4706 245.75 57.1203 245.816 56.8097 245.949C56.4991 246.081 56.2339 246.277 56.0142 246.534C55.7945 246.792 55.6241 247.106 55.5028 247.477C55.3854 247.848 55.3229 248.273 55.3153 248.75C55.3153 249.727 55.5445 250.509 56.0028 251.097C56.4612 251.684 57.0881 251.977 57.8835 251.977ZM75.7301 251.75L75.571 255.5H74.1847V253H73.0483V251.75H75.7301ZM63.821 244.273H65.1619V251.75H68.4574V244.273H69.7983V251.75H73.0938V244.273H74.4347V253H63.821V244.273ZM80.2486 253.205C79.6955 253.205 79.1937 253.1 78.7429 252.892C78.2921 252.68 77.9342 252.375 77.669 251.977C77.4039 251.576 77.2713 251.091 77.2713 250.523C77.2713 250.023 77.3698 249.617 77.5668 249.307C77.7637 248.992 78.027 248.746 78.3565 248.568C78.6861 248.39 79.0497 248.258 79.4474 248.17C79.849 248.08 80.2524 248.008 80.6577 247.955C81.188 247.886 81.6179 247.835 81.9474 247.801C82.2808 247.763 82.5232 247.701 82.6747 247.614C82.83 247.527 82.9077 247.375 82.9077 247.159V247.114C82.9077 246.553 82.7543 246.117 82.4474 245.807C82.1444 245.496 81.6842 245.341 81.0668 245.341C80.4266 245.341 79.9247 245.481 79.5611 245.761C79.1974 246.042 78.9418 246.341 78.794 246.659L77.5213 246.205C77.7486 245.674 78.0516 245.261 78.4304 244.966C78.813 244.667 79.2296 244.458 79.6804 244.341C80.1349 244.22 80.5819 244.159 81.0213 244.159C81.3016 244.159 81.6236 244.193 81.9872 244.261C82.3546 244.326 82.7088 244.46 83.0497 244.665C83.3944 244.869 83.6804 245.178 83.9077 245.591C84.1349 246.004 84.2486 246.557 84.2486 247.25V253H82.9077V251.818H82.8395C82.7486 252.008 82.5971 252.21 82.3849 252.426C82.1728 252.642 81.8906 252.826 81.5384 252.977C81.1861 253.129 80.7562 253.205 80.2486 253.205ZM80.4531 252C80.9834 252 81.4304 251.896 81.794 251.688C82.1615 251.479 82.438 251.21 82.6236 250.881C82.813 250.551 82.9077 250.205 82.9077 249.841V248.614C82.8509 248.682 82.7259 248.744 82.5327 248.801C82.3433 248.854 82.1236 248.902 81.8736 248.943C81.6274 248.981 81.3868 249.015 81.152 249.045C80.9209 249.072 80.7334 249.095 80.5895 249.114C80.241 249.159 79.9152 249.233 79.6122 249.335C79.313 249.434 79.0705 249.583 78.8849 249.784C78.7031 249.981 78.6122 250.25 78.6122 250.591C78.6122 251.057 78.7846 251.409 79.1293 251.648C79.4777 251.883 79.919 252 80.4531 252ZM91.946 253V245.5H89.6278C89.1051 245.5 88.6941 245.621 88.3949 245.864C88.0956 246.106 87.946 246.439 87.946 246.864C87.946 247.28 88.0805 247.608 88.3494 247.847C88.6222 248.085 88.9953 248.205 89.4688 248.205H92.2869V249.455H89.4688C88.8778 249.455 88.3684 249.35 87.9403 249.142C87.5123 248.934 87.1828 248.636 86.9517 248.25C86.7206 247.86 86.6051 247.398 86.6051 246.864C86.6051 246.326 86.7263 245.864 86.9688 245.477C87.2112 245.091 87.5578 244.794 88.0085 244.585C88.4631 244.377 89.0028 244.273 89.6278 244.273H93.2188V253H91.946ZM86.1278 253L88.6051 248.659H90.0597L87.5824 253H86.1278ZM103.726 253.182C102.908 253.182 102.203 252.989 101.612 252.602C101.021 252.216 100.567 251.684 100.249 251.006C99.9304 250.328 99.7713 249.553 99.7713 248.682C99.7713 247.795 99.9342 247.013 100.26 246.335C100.589 245.653 101.048 245.121 101.635 244.739C102.226 244.352 102.915 244.159 103.703 244.159C104.317 244.159 104.87 244.273 105.362 244.5C105.855 244.727 106.258 245.045 106.572 245.455C106.887 245.864 107.082 246.341 107.158 246.886H105.817C105.714 246.489 105.487 246.136 105.135 245.83C104.786 245.519 104.317 245.364 103.726 245.364C103.203 245.364 102.745 245.5 102.351 245.773C101.961 246.042 101.656 246.422 101.436 246.915C101.22 247.403 101.112 247.977 101.112 248.636C101.112 249.311 101.218 249.898 101.43 250.398C101.646 250.898 101.949 251.286 102.339 251.562C102.733 251.839 103.196 251.977 103.726 251.977C104.074 251.977 104.391 251.917 104.675 251.795C104.959 251.674 105.199 251.5 105.396 251.273C105.593 251.045 105.733 250.773 105.817 250.455H107.158C107.082 250.97 106.894 251.434 106.595 251.847C106.3 252.256 105.908 252.581 105.419 252.824C104.934 253.062 104.37 253.182 103.726 253.182ZM109.982 256.273C109.754 256.273 109.552 256.254 109.374 256.216C109.196 256.182 109.072 256.148 109.004 256.114L109.345 254.932C109.671 255.015 109.959 255.045 110.209 255.023C110.459 255 110.68 254.888 110.874 254.688C111.071 254.491 111.25 254.17 111.413 253.727L111.663 253.045L108.436 244.273H109.891L112.3 251.227H112.391L114.8 244.273H116.254L112.55 254.273C112.383 254.723 112.177 255.097 111.93 255.392C111.684 255.691 111.398 255.913 111.072 256.057C110.75 256.201 110.387 256.273 109.982 256.273ZM122.797 251.182L125.842 244.273H127.115L123.342 253H122.251L118.547 244.273H119.797L122.797 251.182ZM119.365 244.273V253H118.024V244.273H119.365ZM126.229 253V244.273H127.57V253H126.229ZM134.797 251.182L137.842 244.273H139.115L135.342 253H134.251L130.547 244.273H131.797L134.797 251.182ZM131.365 244.273V253H130.024V244.273H131.365ZM138.229 253V244.273H139.57V253H138.229ZM144.592 253.205C144.039 253.205 143.537 253.1 143.087 252.892C142.636 252.68 142.278 252.375 142.013 251.977C141.748 251.576 141.615 251.091 141.615 250.523C141.615 250.023 141.714 249.617 141.911 249.307C142.107 248.992 142.371 248.746 142.7 248.568C143.03 248.39 143.393 248.258 143.791 248.17C144.193 248.08 144.596 248.008 145.001 247.955C145.532 247.886 145.962 247.835 146.291 247.801C146.625 247.763 146.867 247.701 147.018 247.614C147.174 247.527 147.251 247.375 147.251 247.159V247.114C147.251 246.553 147.098 246.117 146.791 245.807C146.488 245.496 146.028 245.341 145.411 245.341C144.77 245.341 144.268 245.481 143.905 245.761C143.541 246.042 143.286 246.341 143.138 246.659L141.865 246.205C142.092 245.674 142.395 245.261 142.774 244.966C143.157 244.667 143.573 244.458 144.024 244.341C144.479 244.22 144.926 244.159 145.365 244.159C145.645 244.159 145.967 244.193 146.331 244.261C146.698 244.326 147.053 244.46 147.393 244.665C147.738 244.869 148.024 245.178 148.251 245.591C148.479 246.004 148.592 246.557 148.592 247.25V253H147.251V251.818H147.183C147.092 252.008 146.941 252.21 146.729 252.426C146.517 252.642 146.234 252.826 145.882 252.977C145.53 253.129 145.1 253.205 144.592 253.205ZM144.797 252C145.327 252 145.774 251.896 146.138 251.688C146.505 251.479 146.782 251.21 146.967 250.881C147.157 250.551 147.251 250.205 147.251 249.841V248.614C147.195 248.682 147.07 248.744 146.876 248.801C146.687 248.854 146.467 248.902 146.217 248.943C145.971 248.981 145.731 249.015 145.496 249.045C145.265 249.072 145.077 249.095 144.933 249.114C144.585 249.159 144.259 249.233 143.956 249.335C143.657 249.434 143.414 249.583 143.229 249.784C143.047 249.981 142.956 250.25 142.956 250.591C142.956 251.057 143.128 251.409 143.473 251.648C143.821 251.883 144.263 252 144.797 252ZM155.54 253V244.273H159.108C160.047 244.273 160.794 244.485 161.347 244.909C161.9 245.333 162.176 245.894 162.176 246.591C162.176 247.121 162.019 247.532 161.705 247.824C161.39 248.112 160.987 248.307 160.494 248.409C160.816 248.455 161.129 248.568 161.432 248.75C161.739 248.932 161.992 249.182 162.193 249.5C162.394 249.814 162.494 250.201 162.494 250.659C162.494 251.106 162.381 251.506 162.153 251.858C161.926 252.21 161.6 252.489 161.176 252.693C160.752 252.898 160.244 253 159.653 253H155.54ZM156.812 251.773H159.653C160.116 251.773 160.477 251.663 160.739 251.443C161 251.223 161.131 250.924 161.131 250.545C161.131 250.095 161 249.741 160.739 249.483C160.477 249.222 160.116 249.091 159.653 249.091H156.812V251.773ZM156.812 247.932H159.108C159.468 247.932 159.777 247.883 160.034 247.784C160.292 247.682 160.489 247.538 160.625 247.352C160.765 247.163 160.835 246.939 160.835 246.682C160.835 246.314 160.682 246.027 160.375 245.818C160.068 245.606 159.646 245.5 159.108 245.5H156.812V247.932ZM167.092 253.205C166.539 253.205 166.037 253.1 165.587 252.892C165.136 252.68 164.778 252.375 164.513 251.977C164.248 251.576 164.115 251.091 164.115 250.523C164.115 250.023 164.214 249.617 164.411 249.307C164.607 248.992 164.871 248.746 165.2 248.568C165.53 248.39 165.893 248.258 166.291 248.17C166.693 248.08 167.096 248.008 167.501 247.955C168.032 247.886 168.462 247.835 168.791 247.801C169.125 247.763 169.367 247.701 169.518 247.614C169.674 247.527 169.751 247.375 169.751 247.159V247.114C169.751 246.553 169.598 246.117 169.291 245.807C168.988 245.496 168.528 245.341 167.911 245.341C167.27 245.341 166.768 245.481 166.405 245.761C166.041 246.042 165.786 246.341 165.638 246.659L164.365 246.205C164.592 245.674 164.895 245.261 165.274 244.966C165.657 244.667 166.073 244.458 166.524 244.341C166.979 244.22 167.426 244.159 167.865 244.159C168.145 244.159 168.467 244.193 168.831 244.261C169.198 244.326 169.553 244.46 169.893 244.665C170.238 244.869 170.524 245.178 170.751 245.591C170.979 246.004 171.092 246.557 171.092 247.25V253H169.751V251.818H169.683C169.592 252.008 169.441 252.21 169.229 252.426C169.017 252.642 168.734 252.826 168.382 252.977C168.03 253.129 167.6 253.205 167.092 253.205ZM167.297 252C167.827 252 168.274 251.896 168.638 251.688C169.005 251.479 169.282 251.21 169.467 250.881C169.657 250.551 169.751 250.205 169.751 249.841V248.614C169.695 248.682 169.57 248.744 169.376 248.801C169.187 248.854 168.967 248.902 168.717 248.943C168.471 248.981 168.231 249.015 167.996 249.045C167.765 249.072 167.577 249.095 167.433 249.114C167.085 249.159 166.759 249.233 166.456 249.335C166.157 249.434 165.914 249.583 165.729 249.784C165.547 249.981 165.456 250.25 165.456 250.591C165.456 251.057 165.628 251.409 165.973 251.648C166.321 251.883 166.763 252 167.297 252ZM173.54 244.273H174.881V251.75H178.176V244.273H179.517V251.75H182.812V244.273H184.153V253H173.54V244.273ZM187.943 251.023L192.148 244.273H193.693V253H192.352V246.25L188.17 253H186.602V244.273H187.943V251.023ZM197.149 244.273L199.24 247.841L201.331 244.273H202.876L200.058 248.636L202.876 253H201.331L199.24 249.614L197.149 253H195.604L198.376 248.636L195.604 244.273H197.149ZM208.744 250.773H210.176C210.206 251.167 210.384 251.466 210.71 251.67C211.04 251.875 211.468 251.977 211.994 251.977C212.532 251.977 212.992 251.867 213.375 251.648C213.758 251.424 213.949 251.064 213.949 250.568C213.949 250.277 213.877 250.023 213.733 249.807C213.589 249.587 213.386 249.417 213.125 249.295C212.864 249.174 212.555 249.114 212.199 249.114H210.699V247.909H212.199C212.733 247.909 213.127 247.788 213.381 247.545C213.638 247.303 213.767 247 213.767 246.636C213.767 246.246 213.629 245.934 213.352 245.699C213.076 245.46 212.684 245.341 212.176 245.341C211.665 245.341 211.239 245.456 210.898 245.688C210.557 245.915 210.377 246.208 210.358 246.568H208.949C208.964 246.098 209.108 245.684 209.381 245.324C209.653 244.96 210.025 244.676 210.494 244.472C210.964 244.263 211.502 244.159 212.108 244.159C212.722 244.159 213.254 244.267 213.705 244.483C214.159 244.695 214.509 244.985 214.756 245.352C215.006 245.716 215.131 246.129 215.131 246.591C215.131 247.083 214.992 247.481 214.716 247.784C214.439 248.087 214.093 248.303 213.676 248.432V248.523C214.006 248.545 214.292 248.652 214.534 248.841C214.78 249.027 214.972 249.271 215.108 249.574C215.244 249.873 215.312 250.205 215.312 250.568C215.312 251.098 215.17 251.561 214.886 251.955C214.602 252.345 214.212 252.648 213.716 252.864C213.22 253.076 212.653 253.182 212.017 253.182C211.4 253.182 210.847 253.081 210.358 252.881C209.869 252.676 209.481 252.394 209.193 252.034C208.909 251.67 208.759 251.25 208.744 250.773ZM219.764 253.205C219.211 253.205 218.709 253.1 218.259 252.892C217.808 252.68 217.45 252.375 217.185 251.977C216.92 251.576 216.787 251.091 216.787 250.523C216.787 250.023 216.885 249.617 217.082 249.307C217.279 248.992 217.543 248.746 217.872 248.568C218.202 248.39 218.565 248.258 218.963 248.17C219.365 248.08 219.768 248.008 220.173 247.955C220.704 247.886 221.134 247.835 221.463 247.801C221.796 247.763 222.039 247.701 222.19 247.614C222.346 247.527 222.423 247.375 222.423 247.159V247.114C222.423 246.553 222.27 246.117 221.963 245.807C221.66 245.496 221.2 245.341 220.582 245.341C219.942 245.341 219.44 245.481 219.077 245.761C218.713 246.042 218.457 246.341 218.31 246.659L217.037 246.205C217.264 245.674 217.567 245.261 217.946 244.966C218.329 244.667 218.745 244.458 219.196 244.341C219.651 244.22 220.098 244.159 220.537 244.159C220.817 244.159 221.139 244.193 221.503 244.261C221.87 244.326 222.224 244.46 222.565 244.665C222.91 244.869 223.196 245.178 223.423 245.591C223.651 246.004 223.764 246.557 223.764 247.25V253H222.423V251.818H222.355C222.264 252.008 222.113 252.21 221.901 252.426C221.688 252.642 221.406 252.826 221.054 252.977C220.702 253.129 220.272 253.205 219.764 253.205ZM219.969 252C220.499 252 220.946 251.896 221.31 251.688C221.677 251.479 221.954 251.21 222.139 250.881C222.329 250.551 222.423 250.205 222.423 249.841V248.614C222.366 248.682 222.241 248.744 222.048 248.801C221.859 248.854 221.639 248.902 221.389 248.943C221.143 248.981 220.902 249.015 220.668 249.045C220.437 249.072 220.249 249.095 220.105 249.114C219.757 249.159 219.431 249.233 219.128 249.335C218.829 249.434 218.586 249.583 218.401 249.784C218.219 249.981 218.128 250.25 218.128 250.591C218.128 251.057 218.3 251.409 218.645 251.648C218.993 251.883 219.435 252 219.969 252ZM226.212 253V244.273H227.553V248.068H228.439L231.575 244.273H233.303L229.78 248.477L233.348 253H231.621L228.757 249.318H227.553V253H226.212ZM237.374 253.205C236.821 253.205 236.319 253.1 235.868 252.892C235.417 252.68 235.059 252.375 234.794 251.977C234.529 251.576 234.396 251.091 234.396 250.523C234.396 250.023 234.495 249.617 234.692 249.307C234.889 248.992 235.152 248.746 235.482 248.568C235.811 248.39 236.175 248.258 236.572 248.17C236.974 248.08 237.377 248.008 237.783 247.955C238.313 247.886 238.743 247.835 239.072 247.801C239.406 247.763 239.648 247.701 239.8 247.614C239.955 247.527 240.033 247.375 240.033 247.159V247.114C240.033 246.553 239.879 246.117 239.572 245.807C239.269 245.496 238.809 245.341 238.192 245.341C237.552 245.341 237.05 245.481 236.686 245.761C236.322 246.042 236.067 246.341 235.919 246.659L234.646 246.205C234.874 245.674 235.177 245.261 235.555 244.966C235.938 244.667 236.355 244.458 236.805 244.341C237.26 244.22 237.707 244.159 238.146 244.159C238.427 244.159 238.749 244.193 239.112 244.261C239.48 244.326 239.834 244.46 240.175 244.665C240.519 244.869 240.805 245.178 241.033 245.591C241.26 246.004 241.374 246.557 241.374 247.25V253H240.033V251.818H239.964C239.874 252.008 239.722 252.21 239.51 252.426C239.298 252.642 239.016 252.826 238.663 252.977C238.311 253.129 237.881 253.205 237.374 253.205ZM237.578 252C238.108 252 238.555 251.896 238.919 251.688C239.286 251.479 239.563 251.21 239.749 250.881C239.938 250.551 240.033 250.205 240.033 249.841V248.614C239.976 248.682 239.851 248.744 239.658 248.801C239.468 248.854 239.249 248.902 238.999 248.943C238.752 248.981 238.512 249.015 238.277 249.045C238.046 249.072 237.858 249.095 237.714 249.114C237.366 249.159 237.04 249.233 236.737 249.335C236.438 249.434 236.196 249.583 236.01 249.784C235.828 249.981 235.737 250.25 235.737 250.591C235.737 251.057 235.91 251.409 236.254 251.648C236.603 251.883 237.044 252 237.578 252ZM243.276 250.773H244.707C244.738 251.167 244.916 251.466 245.241 251.67C245.571 251.875 245.999 251.977 246.526 251.977C247.063 251.977 247.524 251.867 247.906 251.648C248.289 251.424 248.48 251.064 248.48 250.568C248.48 250.277 248.408 250.023 248.264 249.807C248.12 249.587 247.918 249.417 247.656 249.295C247.395 249.174 247.086 249.114 246.73 249.114H245.23V247.909H246.73C247.264 247.909 247.658 247.788 247.912 247.545C248.17 247.303 248.298 247 248.298 246.636C248.298 246.246 248.16 245.934 247.884 245.699C247.607 245.46 247.215 245.341 246.707 245.341C246.196 245.341 245.77 245.456 245.429 245.688C245.088 245.915 244.908 246.208 244.889 246.568H243.48C243.495 246.098 243.639 245.684 243.912 245.324C244.185 244.96 244.556 244.676 245.026 244.472C245.495 244.263 246.033 244.159 246.639 244.159C247.253 244.159 247.785 244.267 248.236 244.483C248.69 244.695 249.041 244.985 249.287 245.352C249.537 245.716 249.662 246.129 249.662 246.591C249.662 247.083 249.524 247.481 249.247 247.784C248.971 248.087 248.624 248.303 248.207 248.432V248.523C248.537 248.545 248.823 248.652 249.065 248.841C249.312 249.027 249.503 249.271 249.639 249.574C249.776 249.873 249.844 250.205 249.844 250.568C249.844 251.098 249.702 251.561 249.418 251.955C249.134 252.345 248.743 252.648 248.247 252.864C247.751 253.076 247.185 253.182 246.548 253.182C245.931 253.182 245.378 253.081 244.889 252.881C244.401 252.676 244.012 252.394 243.724 252.034C243.44 251.67 243.291 251.25 243.276 250.773ZM255.273 253.182C254.485 253.182 253.794 252.994 253.199 252.619C252.608 252.244 252.146 251.72 251.812 251.045C251.483 250.371 251.318 249.583 251.318 248.682C251.318 247.773 251.483 246.979 251.812 246.301C252.146 245.623 252.608 245.097 253.199 244.722C253.794 244.347 254.485 244.159 255.273 244.159C256.061 244.159 256.75 244.347 257.341 244.722C257.936 245.097 258.398 245.623 258.727 246.301C259.061 246.979 259.227 247.773 259.227 248.682C259.227 249.583 259.061 250.371 258.727 251.045C258.398 251.72 257.936 252.244 257.341 252.619C256.75 252.994 256.061 253.182 255.273 253.182ZM255.273 251.977C255.871 251.977 256.364 251.824 256.75 251.517C257.136 251.21 257.422 250.807 257.608 250.307C257.794 249.807 257.886 249.265 257.886 248.682C257.886 248.098 257.794 247.555 257.608 247.051C257.422 246.547 257.136 246.14 256.75 245.83C256.364 245.519 255.871 245.364 255.273 245.364C254.674 245.364 254.182 245.519 253.795 245.83C253.409 246.14 253.123 246.547 252.938 247.051C252.752 247.555 252.659 248.098 252.659 248.682C252.659 249.265 252.752 249.807 252.938 250.307C253.123 250.807 253.409 251.21 253.795 251.517C254.182 251.824 254.674 251.977 255.273 251.977ZM261.274 253V244.273H264.842C265.782 244.273 266.528 244.485 267.081 244.909C267.634 245.333 267.911 245.894 267.911 246.591C267.911 247.121 267.753 247.532 267.439 247.824C267.125 248.112 266.721 248.307 266.229 248.409C266.551 248.455 266.863 248.568 267.166 248.75C267.473 248.932 267.727 249.182 267.928 249.5C268.128 249.814 268.229 250.201 268.229 250.659C268.229 251.106 268.115 251.506 267.888 251.858C267.661 252.21 267.335 252.489 266.911 252.693C266.486 252.898 265.979 253 265.388 253H261.274ZM262.547 251.773H265.388C265.85 251.773 266.212 251.663 266.473 251.443C266.734 251.223 266.865 250.924 266.865 250.545C266.865 250.095 266.734 249.741 266.473 249.483C266.212 249.222 265.85 249.091 265.388 249.091H262.547V251.773ZM262.547 247.932H264.842C265.202 247.932 265.511 247.883 265.768 247.784C266.026 247.682 266.223 247.538 266.359 247.352C266.5 247.163 266.57 246.939 266.57 246.682C266.57 246.314 266.416 246.027 266.109 245.818C265.803 245.606 265.38 245.5 264.842 245.5H262.547V247.932ZM74.9616 275V266.273H81.8253V275H80.4844V267.523H76.3026V275H74.9616ZM84.2741 278.273V266.273H85.5696V267.659H85.7287C85.8272 267.508 85.9635 267.314 86.1378 267.08C86.3158 266.841 86.5696 266.629 86.8991 266.443C87.2325 266.254 87.6832 266.159 88.2514 266.159C88.9863 266.159 89.634 266.343 90.1946 266.71C90.7552 267.078 91.1927 267.598 91.5071 268.273C91.8215 268.947 91.9787 269.742 91.9787 270.659C91.9787 271.583 91.8215 272.384 91.5071 273.062C91.1927 273.737 90.7571 274.259 90.2003 274.631C89.6435 274.998 89.0014 275.182 88.2741 275.182C87.7135 275.182 87.2647 275.089 86.9276 274.903C86.5904 274.714 86.331 274.5 86.1491 274.261C85.9673 274.019 85.8272 273.818 85.7287 273.659H85.6151V278.273H84.2741ZM85.5923 270.636C85.5923 271.295 85.6889 271.877 85.8821 272.381C86.0753 272.881 86.3575 273.273 86.7287 273.557C87.0999 273.837 87.5545 273.977 88.0923 273.977C88.6529 273.977 89.1207 273.83 89.4957 273.534C89.8745 273.235 90.1586 272.833 90.348 272.33C90.5412 271.822 90.6378 271.258 90.6378 270.636C90.6378 270.023 90.5431 269.47 90.3537 268.977C90.1681 268.481 89.8859 268.089 89.5071 267.801C89.1321 267.509 88.6605 267.364 88.0923 267.364C87.5469 267.364 87.0885 267.502 86.7173 267.778C86.3461 268.051 86.0658 268.434 85.8764 268.926C85.687 269.415 85.5923 269.985 85.5923 270.636ZM97.6832 275.182C96.8423 275.182 96.117 274.996 95.5071 274.625C94.901 274.25 94.4332 273.727 94.1037 273.057C93.7779 272.383 93.6151 271.598 93.6151 270.705C93.6151 269.811 93.7779 269.023 94.1037 268.341C94.4332 267.655 94.8916 267.121 95.4787 266.739C96.0696 266.352 96.759 266.159 97.5469 266.159C98.0014 266.159 98.4503 266.235 98.8935 266.386C99.3366 266.538 99.7401 266.784 100.104 267.125C100.467 267.462 100.757 267.909 100.973 268.466C101.189 269.023 101.297 269.708 101.297 270.523V271.091H94.5696V269.932H99.9332C99.9332 269.439 99.8348 269 99.6378 268.614C99.4446 268.227 99.1681 267.922 98.8082 267.699C98.4522 267.475 98.0317 267.364 97.5469 267.364C97.0128 267.364 96.5507 267.496 96.1605 267.761C95.7741 268.023 95.4768 268.364 95.2685 268.784C95.0601 269.205 94.956 269.655 94.956 270.136V270.909C94.956 271.568 95.0696 272.127 95.2969 272.585C95.5279 273.04 95.848 273.386 96.2571 273.625C96.6662 273.86 97.1416 273.977 97.6832 273.977C98.0355 273.977 98.3537 273.928 98.6378 273.83C98.9257 273.727 99.1738 273.576 99.3821 273.375C99.5904 273.17 99.7514 272.917 99.8651 272.614L101.161 272.977C101.024 273.417 100.795 273.803 100.473 274.136C100.151 274.466 99.7533 274.723 99.2798 274.909C98.8063 275.091 98.2741 275.182 97.6832 275.182ZM103.337 275V266.273H106.905C107.844 266.273 108.59 266.485 109.143 266.909C109.696 267.333 109.973 267.894 109.973 268.591C109.973 269.121 109.816 269.532 109.501 269.824C109.187 270.112 108.784 270.307 108.291 270.409C108.613 270.455 108.926 270.568 109.229 270.75C109.536 270.932 109.789 271.182 109.99 271.5C110.191 271.814 110.291 272.201 110.291 272.659C110.291 273.106 110.178 273.506 109.95 273.858C109.723 274.21 109.397 274.489 108.973 274.693C108.549 274.898 108.041 275 107.45 275H103.337ZM104.609 273.773H107.45C107.912 273.773 108.274 273.663 108.536 273.443C108.797 273.223 108.928 272.924 108.928 272.545C108.928 272.095 108.797 271.741 108.536 271.483C108.274 271.222 107.912 271.091 107.45 271.091H104.609V273.773ZM104.609 269.932H106.905C107.265 269.932 107.573 269.883 107.831 269.784C108.089 269.682 108.286 269.538 108.422 269.352C108.562 269.163 108.632 268.939 108.632 268.682C108.632 268.314 108.479 268.027 108.172 267.818C107.865 267.606 107.443 267.5 106.905 267.5H104.609V269.932ZM113.48 269.432H115.98C117.003 269.432 117.785 269.691 118.327 270.21C118.868 270.729 119.139 271.386 119.139 272.182C119.139 272.705 119.018 273.18 118.776 273.608C118.533 274.032 118.177 274.371 117.707 274.625C117.238 274.875 116.662 275 115.98 275H112.321V266.273H113.662V273.75H115.98C116.51 273.75 116.946 273.61 117.287 273.33C117.628 273.049 117.798 272.689 117.798 272.25C117.798 271.788 117.628 271.411 117.287 271.119C116.946 270.828 116.51 270.682 115.98 270.682H113.48V269.432ZM120.526 275V266.273H121.866V275H120.526ZM124.321 266.273H125.662V273.75H128.957V266.273H130.298V273.75H133.594V266.273H134.935V275H124.321V266.273ZM139.952 275.205C139.399 275.205 138.897 275.1 138.446 274.892C137.995 274.68 137.637 274.375 137.372 273.977C137.107 273.576 136.974 273.091 136.974 272.523C136.974 272.023 137.073 271.617 137.27 271.307C137.467 270.992 137.73 270.746 138.06 270.568C138.389 270.39 138.753 270.258 139.151 270.17C139.552 270.08 139.955 270.008 140.361 269.955C140.891 269.886 141.321 269.835 141.651 269.801C141.984 269.763 142.226 269.701 142.378 269.614C142.533 269.527 142.611 269.375 142.611 269.159V269.114C142.611 268.553 142.457 268.117 142.151 267.807C141.848 267.496 141.387 267.341 140.77 267.341C140.13 267.341 139.628 267.481 139.264 267.761C138.901 268.042 138.645 268.341 138.497 268.659L137.224 268.205C137.452 267.674 137.755 267.261 138.134 266.966C138.516 266.667 138.933 266.458 139.384 266.341C139.838 266.22 140.285 266.159 140.724 266.159C141.005 266.159 141.327 266.193 141.69 266.261C142.058 266.326 142.412 266.46 142.753 266.665C143.098 266.869 143.384 267.178 143.611 267.591C143.838 268.004 143.952 268.557 143.952 269.25V275H142.611V273.818H142.543C142.452 274.008 142.3 274.21 142.088 274.426C141.876 274.642 141.594 274.826 141.241 274.977C140.889 275.129 140.459 275.205 139.952 275.205ZM140.156 274C140.687 274 141.134 273.896 141.497 273.688C141.865 273.479 142.141 273.21 142.327 272.881C142.516 272.551 142.611 272.205 142.611 271.841V270.614C142.554 270.682 142.429 270.744 142.236 270.801C142.046 270.854 141.827 270.902 141.577 270.943C141.33 270.981 141.09 271.015 140.855 271.045C140.624 271.072 140.437 271.095 140.293 271.114C139.944 271.159 139.618 271.233 139.315 271.335C139.016 271.434 138.774 271.583 138.588 271.784C138.406 271.981 138.315 272.25 138.315 272.591C138.315 273.057 138.488 273.409 138.832 273.648C139.181 273.883 139.622 274 140.156 274ZM150.058 275.182C149.217 275.182 148.492 274.996 147.882 274.625C147.276 274.25 146.808 273.727 146.479 273.057C146.153 272.383 145.99 271.598 145.99 270.705C145.99 269.811 146.153 269.023 146.479 268.341C146.808 267.655 147.267 267.121 147.854 266.739C148.445 266.352 149.134 266.159 149.922 266.159C150.376 266.159 150.825 266.235 151.268 266.386C151.712 266.538 152.115 266.784 152.479 267.125C152.842 267.462 153.132 267.909 153.348 268.466C153.564 269.023 153.672 269.708 153.672 270.523V271.091H146.945V269.932H152.308C152.308 269.439 152.21 269 152.013 268.614C151.82 268.227 151.543 267.922 151.183 267.699C150.827 267.475 150.407 267.364 149.922 267.364C149.388 267.364 148.926 267.496 148.536 267.761C148.149 268.023 147.852 268.364 147.643 268.784C147.435 269.205 147.331 269.655 147.331 270.136V270.909C147.331 271.568 147.445 272.127 147.672 272.585C147.903 273.04 148.223 273.386 148.632 273.625C149.041 273.86 149.517 273.977 150.058 273.977C150.411 273.977 150.729 273.928 151.013 273.83C151.301 273.727 151.549 273.576 151.757 273.375C151.965 273.17 152.126 272.917 152.24 272.614L153.536 272.977C153.399 273.417 153.17 273.803 152.848 274.136C152.526 274.466 152.128 274.723 151.655 274.909C151.181 275.091 150.649 275.182 150.058 275.182ZM154.899 267.523V266.273H161.99V267.523H159.126V275H157.786V267.523H154.899ZM168.787 275L173.991 264.705V264.614H167.991V263.364H175.446V264.682L170.264 275H168.787ZM181.109 275.159C180.253 275.159 179.524 274.926 178.922 274.46C178.32 273.991 177.859 273.311 177.541 272.42C177.223 271.527 177.064 270.447 177.064 269.182C177.064 267.924 177.223 266.85 177.541 265.96C177.863 265.066 178.325 264.384 178.928 263.915C179.534 263.441 180.261 263.205 181.109 263.205C181.958 263.205 182.683 263.441 183.286 263.915C183.892 264.384 184.354 265.066 184.672 265.96C184.994 266.85 185.155 267.924 185.155 269.182C185.155 270.447 184.996 271.527 184.678 272.42C184.359 273.311 183.899 273.991 183.297 274.46C182.695 274.926 181.965 275.159 181.109 275.159ZM181.109 273.909C181.958 273.909 182.617 273.5 183.087 272.682C183.556 271.864 183.791 270.697 183.791 269.182C183.791 268.174 183.683 267.316 183.467 266.608C183.255 265.9 182.948 265.36 182.547 264.989C182.149 264.617 181.67 264.432 181.109 264.432C180.268 264.432 179.611 264.847 179.138 265.676C178.664 266.502 178.428 267.67 178.428 269.182C178.428 270.189 178.534 271.045 178.746 271.75C178.958 272.455 179.263 272.991 179.661 273.358C180.062 273.725 180.545 273.909 181.109 273.909ZM195.609 275.159C194.753 275.159 194.024 274.926 193.422 274.46C192.82 273.991 192.359 273.311 192.041 272.42C191.723 271.527 191.564 270.447 191.564 269.182C191.564 267.924 191.723 266.85 192.041 265.96C192.363 265.066 192.825 264.384 193.428 263.915C194.034 263.441 194.761 263.205 195.609 263.205C196.458 263.205 197.183 263.441 197.786 263.915C198.392 264.384 198.854 265.066 199.172 265.96C199.494 266.85 199.655 267.924 199.655 269.182C199.655 270.447 199.496 271.527 199.178 272.42C198.859 273.311 198.399 273.991 197.797 274.46C197.195 274.926 196.465 275.159 195.609 275.159ZM195.609 273.909C196.458 273.909 197.117 273.5 197.587 272.682C198.056 271.864 198.291 270.697 198.291 269.182C198.291 268.174 198.183 267.316 197.967 266.608C197.755 265.9 197.448 265.36 197.047 264.989C196.649 264.617 196.17 264.432 195.609 264.432C194.768 264.432 194.111 264.847 193.638 265.676C193.164 266.502 192.928 267.67 192.928 269.182C192.928 270.189 193.034 271.045 193.246 271.75C193.458 272.455 193.763 272.991 194.161 273.358C194.562 273.725 195.045 273.909 195.609 273.909ZM205.609 275.159C204.753 275.159 204.024 274.926 203.422 274.46C202.82 273.991 202.359 273.311 202.041 272.42C201.723 271.527 201.564 270.447 201.564 269.182C201.564 267.924 201.723 266.85 202.041 265.96C202.363 265.066 202.825 264.384 203.428 263.915C204.034 263.441 204.761 263.205 205.609 263.205C206.458 263.205 207.183 263.441 207.786 263.915C208.392 264.384 208.854 265.066 209.172 265.96C209.494 266.85 209.655 267.924 209.655 269.182C209.655 270.447 209.496 271.527 209.178 272.42C208.859 273.311 208.399 273.991 207.797 274.46C207.195 274.926 206.465 275.159 205.609 275.159ZM205.609 273.909C206.458 273.909 207.117 273.5 207.587 272.682C208.056 271.864 208.291 270.697 208.291 269.182C208.291 268.174 208.183 267.316 207.967 266.608C207.755 265.9 207.448 265.36 207.047 264.989C206.649 264.617 206.17 264.432 205.609 264.432C204.768 264.432 204.111 264.847 203.638 265.676C203.164 266.502 202.928 267.67 202.928 269.182C202.928 270.189 203.034 271.045 203.246 271.75C203.458 272.455 203.763 272.991 204.161 273.358C204.562 273.725 205.045 273.909 205.609 273.909ZM215.609 275.159C214.753 275.159 214.024 274.926 213.422 274.46C212.82 273.991 212.359 273.311 212.041 272.42C211.723 271.527 211.564 270.447 211.564 269.182C211.564 267.924 211.723 266.85 212.041 265.96C212.363 265.066 212.825 264.384 213.428 263.915C214.034 263.441 214.761 263.205 215.609 263.205C216.458 263.205 217.183 263.441 217.786 263.915C218.392 264.384 218.854 265.066 219.172 265.96C219.494 266.85 219.655 267.924 219.655 269.182C219.655 270.447 219.496 271.527 219.178 272.42C218.859 273.311 218.399 273.991 217.797 274.46C217.195 274.926 216.465 275.159 215.609 275.159ZM215.609 273.909C216.458 273.909 217.117 273.5 217.587 272.682C218.056 271.864 218.291 270.697 218.291 269.182C218.291 268.174 218.183 267.316 217.967 266.608C217.755 265.9 217.448 265.36 217.047 264.989C216.649 264.617 216.17 264.432 215.609 264.432C214.768 264.432 214.111 264.847 213.638 265.676C213.164 266.502 212.928 267.67 212.928 269.182C212.928 270.189 213.034 271.045 213.246 271.75C213.458 272.455 213.763 272.991 214.161 273.358C214.562 273.725 215.045 273.909 215.609 273.909ZM231.609 270.273H225.7V269.023H231.609C232.155 269.023 232.606 268.928 232.962 268.739C233.318 268.545 233.583 268.284 233.757 267.955C233.931 267.621 234.018 267.242 234.018 266.818C234.018 266.394 233.931 266.017 233.757 265.688C233.583 265.354 233.318 265.093 232.962 264.903C232.606 264.71 232.155 264.614 231.609 264.614H228.95V275H227.541V263.364H231.609C232.473 263.364 233.185 263.521 233.746 263.835C234.306 264.15 234.723 264.568 234.996 265.091C235.268 265.614 235.405 266.189 235.405 266.818C235.405 267.447 235.268 268.023 234.996 268.545C234.723 269.068 234.306 269.487 233.746 269.801C233.185 270.116 232.473 270.273 231.609 270.273ZM231.518 271.364V272.614H225.7V271.364H231.518Z" fill="white"/>
</svg>
