<svg width="40" height="40" viewBox="0 0 40 40" fill="none" xmlns="http://www.w3.org/2000/svg">
<path d="M20.4216 4.40625C11.6498 4.40625 4.42188 11.5821 4.42188 20.392C4.42188 29.2019 11.5796 36.3777 20.4216 36.3777C29.1933 36.3777 36.4213 29.2019 36.4213 20.392C36.4213 11.5821 29.1933 4.40625 20.4216 4.40625ZM21.3338 34.6015V32.8253C21.3338 32.328 20.9128 31.9017 20.4216 31.9017C19.9304 31.9017 19.5093 32.328 19.5093 32.8253V34.6015C12.4217 34.1752 6.66743 28.4203 6.24639 21.3156H8.00074C8.49196 21.3156 8.91302 20.8893 8.91302 20.392C8.91302 19.8946 8.49196 19.4684 8.00074 19.4684H6.24639C6.66743 12.3636 12.4217 6.60873 19.5093 6.18244V7.95863C19.5093 8.45596 19.9304 8.88224 20.4216 8.88224C20.9128 8.88224 21.3338 8.45596 21.3338 7.95863V6.18244C28.4214 6.60873 34.1757 12.3636 34.5968 19.4684H32.8424C32.3512 19.4684 31.9301 19.8946 31.9301 20.392C31.9301 20.8893 32.3512 21.3156 32.8424 21.3156H34.5968C34.1055 28.4203 28.4214 34.1042 21.3338 34.6015Z" fill="#FBBB1F"/>
<path d="M20.4205 0.851562C9.6137 0.851562 0.912109 9.59042 0.912109 20.3897C0.912109 31.1889 9.6137 39.9278 20.4205 39.9278C31.2273 39.9278 39.9289 31.1889 39.9289 20.3897C39.9289 9.59042 31.2273 0.851562 20.4205 0.851562ZM20.4205 38.1516C10.5961 38.1516 2.66646 30.1942 2.66646 20.3897C2.66646 10.5851 10.5961 2.62775 20.4205 2.62775C30.2449 2.62775 38.1746 10.5851 38.1746 20.3897C38.1746 30.1942 30.2449 38.1516 20.4205 38.1516Z" fill="#FBBB1F"/>
<path d="M20.4208 13.2858C19.9296 13.2858 19.5086 13.7121 19.5086 14.2095V16.6961L16.7718 11.1544C16.5613 10.7281 15.9999 10.515 15.5788 10.7282C15.1578 10.9413 14.9473 11.5096 15.1578 11.9359L19.6489 20.8169C19.8594 21.1721 20.2103 21.3853 20.6314 21.3142C21.0524 21.2432 21.3331 20.8879 21.3331 20.4616V14.2095C21.3331 13.7121 20.9121 13.2858 20.4208 13.2858Z" fill="#FBBB1F"/>
<path d="M2.66663 33.748C1.19297 33.748 0 34.9558 0 36.4478C0 37.9398 1.19297 39.1477 2.66663 39.1477C4.14029 39.1477 5.33324 37.9398 5.33324 36.4478C5.40341 34.9558 4.14029 33.748 2.66663 33.748ZM2.66663 37.3004C2.17541 37.3004 1.75435 36.8742 1.75435 36.3768C1.75435 35.8795 2.17541 35.4532 2.66663 35.4532C3.15785 35.4532 3.57889 35.8795 3.57889 36.3768C3.57889 36.8742 3.15785 37.3004 2.66663 37.3004Z" fill="#FBBB1F"/>
<path d="M35.0162 4.40496C36.2092 4.40496 37.1916 3.41031 37.1916 2.2025C37.1916 0.994693 36.2092 0 35.0162 0C33.8232 0 32.8408 0.994693 32.8408 2.2025C32.8408 3.41031 33.8232 4.40496 35.0162 4.40496ZM35.0162 1.77619C35.2267 1.77619 35.4373 1.98936 35.4373 2.2025C35.4373 2.41564 35.2969 2.62877 35.0162 2.62877C34.7355 2.62877 34.5952 2.41564 34.5952 2.2025C34.5952 1.98936 34.8057 1.77619 35.0162 1.77619Z" fill="#FBBB1F"/>
<path d="M8.00015 0.851562C8.49137 0.851562 8.91242 1.27784 8.91242 1.77517C8.91242 2.27251 8.49137 2.69878 8.00015 2.69878C7.50893 2.69878 7.08789 2.27251 7.08789 1.77517C7.08789 1.27784 7.50893 0.851562 8.00015 0.851562Z" fill="#FBBB1F"/>
<path d="M2.66618 5.25781C3.1574 5.25781 3.57844 5.68409 3.57844 6.18142C3.57844 6.67876 3.1574 7.10503 2.66618 7.10503C2.17496 7.10503 1.75391 6.67876 1.75391 6.18142C1.75391 5.68409 2.17496 5.25781 2.66618 5.25781Z" fill="#FBBB1F"/>
<path d="M8.91228 38.1523C9.4035 38.1523 9.82453 38.5786 9.82453 39.076C9.82453 39.5733 9.4035 39.9996 8.91228 39.9996C8.42106 39.9996 8 39.5733 8 39.076C8 38.5786 8.42106 38.1523 8.91228 38.1523Z" fill="#FBBB1F"/>
<path d="M39.0881 34.5996C39.5793 34.5996 40.0003 35.0259 40.0003 35.5232C40.0003 36.0206 39.5793 36.4468 39.0881 36.4468C38.5968 36.4468 38.1758 36.0206 38.1758 35.5232C38.1758 35.0259 38.5968 34.5996 39.0881 34.5996Z" fill="#FBBB1F"/>
<path d="M32.841 38.1523C33.3322 38.1523 33.7532 38.5786 33.7532 39.076C33.7532 39.5733 33.3322 39.9996 32.841 39.9996C32.3498 39.9996 31.9287 39.5733 31.9287 39.076C31.9287 38.5786 32.3498 38.1523 32.841 38.1523Z" fill="#FBBB1F"/>
<path d="M39.0881 6.17969C39.5793 6.17969 40.0003 6.60596 40.0003 7.1033C40.0003 7.60063 39.5793 8.02691 39.0881 8.02691C38.5968 8.02691 38.1758 7.60063 38.1758 7.1033C38.1758 6.60596 38.5968 6.17969 39.0881 6.17969Z" fill="#FBBB1F"/>
</svg>
