<svg width="24" height="24" viewBox="0 0 24 24" fill="none" xmlns="http://www.w3.org/2000/svg">
<g clip-path="url(#clip0_2049_9499)">
<g clip-path="url(#clip1_2049_9499)">
<path d="M0 12C0 15.1826 1.26428 18.2348 3.51472 20.4853C5.76515 22.7357 8.8174 24 12 24C15.1826 24 18.2348 22.7357 20.4853 20.4853C22.7357 18.2348 24 15.1826 24 12C24 8.8174 22.7357 5.76515 20.4853 3.51472C18.2348 1.26428 15.1826 0 12 0C8.8174 0 5.76515 1.26428 3.51472 3.51472C1.26428 5.76515 0 8.8174 0 12Z" fill="url(#paint0_linear_2049_9499)"/>
<path fill-rule="evenodd" clip-rule="evenodd" d="M15.834 13.5503C15.7724 13.4557 15.6911 13.3754 15.5955 13.3148C15.4999 13.2543 15.3924 13.215 15.2802 13.1996C15.168 13.1842 15.0537 13.193 14.9452 13.2255C14.8367 13.2579 14.7365 13.3133 14.6513 13.3877C14.3369 13.6236 14.0219 13.8589 13.7112 14.0996C13.6966 14.1156 13.679 14.1285 13.6593 14.1377C13.6397 14.1469 13.6184 14.1521 13.5967 14.153C13.575 14.154 13.5534 14.1506 13.533 14.1432C13.5126 14.1357 13.494 14.1243 13.478 14.1097C13.3123 13.9876 13.1329 13.8823 12.9757 13.7524C12.2586 13.1348 11.6482 12.4042 11.1688 11.5897C10.9158 11.1905 10.7219 10.7572 10.5928 10.303C10.5774 10.2649 10.5762 10.2226 10.5894 10.1837C10.6025 10.1448 10.6293 10.1119 10.6647 10.0909C10.9785 9.8624 11.286 9.62589 11.5964 9.38975C11.6961 9.3285 11.7809 9.24604 11.8448 9.14828C11.9087 9.05053 11.95 8.93991 11.9659 8.82438C11.9817 8.70884 11.9717 8.59126 11.9365 8.48007C11.9013 8.36888 11.8418 8.26685 11.7623 8.18131C11.5759 7.93404 11.3898 7.6907 11.2033 7.44287C11.0169 7.19503 10.8216 6.93421 10.6265 6.68298C10.5643 6.58897 10.4826 6.50931 10.3869 6.44935C10.2912 6.38939 10.1837 6.35051 10.0716 6.33533C9.95958 6.32015 9.84554 6.32902 9.73718 6.36134C9.62882 6.39366 9.52865 6.44868 9.44338 6.52271C9.12667 6.75813 8.82016 7.00192 8.49912 7.23196C8.21343 7.43412 8.01677 7.73796 7.94992 8.0805C7.84704 8.64329 7.86998 9.2217 8.01716 9.7745C8.28478 10.9176 8.74961 12.0056 9.39096 12.9902C10.2269 14.3292 11.3398 15.4755 12.6554 16.3528C13.239 16.7696 13.9011 17.0648 14.6021 17.2207C14.8343 17.2797 15.0773 17.2825 15.3108 17.2287C15.5444 17.1749 15.7615 17.0662 15.9442 16.9116C16.2181 16.6802 16.5186 16.4758 16.8053 16.2576C16.9026 16.1958 16.9855 16.1137 17.048 16.0171C17.1106 15.9205 17.1514 15.8115 17.1677 15.6977C17.184 15.5839 17.1754 15.4679 17.1425 15.3577C17.1096 15.2476 17.0531 15.1458 16.9769 15.0595C16.5972 14.5567 16.2155 14.0541 15.832 13.5516L15.834 13.5503Z" fill="white"/>
</g>
</g>
<defs>
<linearGradient id="paint0_linear_2049_9499" x1="12" y1="0" x2="12" y2="24" gradientUnits="userSpaceOnUse">
<stop stop-color="#F25E2B"/>
<stop offset="1" stop-color="#ED695D"/>
</linearGradient>
<clipPath id="clip0_2049_9499">
<rect width="24" height="24" fill="white"/>
</clipPath>
<clipPath id="clip1_2049_9499">
<rect width="24" height="24" fill="white"/>
</clipPath>
</defs>
</svg>
