<svg width="41" height="40" viewBox="0 0 41 40" fill="none" xmlns="http://www.w3.org/2000/svg">
<path d="M36.6199 30.294C36.4549 29.8448 36.1948 29.4342 35.8564 29.0887L32.0386 24.5643C31.7434 24.1629 31.3616 23.8289 30.9198 23.5855C30.478 23.3421 29.9869 23.1952 29.4808 23.1551C28.9764 23.103 28.4664 23.1665 27.9918 23.3405C27.6126 23.4642 27.2623 23.6596 26.961 23.9153H26.8465L23.1815 26.9192C22.9893 27.0807 22.8697 27.3088 22.8483 27.5548C22.8269 27.8008 22.9054 28.0452 23.0669 28.2358C23.1461 28.3297 23.2439 28.4074 23.3545 28.464C23.4651 28.5206 23.5863 28.5552 23.7109 28.5655C23.8354 28.5759 23.9609 28.5619 24.0798 28.5244C24.1987 28.4868 24.3087 28.4265 24.4032 28.347L24.8422 27.9947L25.014 27.8464C25.9112 27.0861 26.9229 26.3444 27.7437 25.6027L27.9537 25.4358C28.1238 25.2801 28.3253 25.1601 28.5454 25.0835C28.7659 25.0085 28.9995 24.977 29.2326 24.9908C29.4686 25.0076 29.6973 25.0774 29.9007 25.1948C30.0068 25.2473 30.1035 25.3162 30.187 25.3987L30.4543 25.714L34.5202 30.3867C34.6927 30.5534 34.8233 30.7564 34.902 30.9801C35.0145 31.3195 35.0081 31.6855 34.8837 32.021C34.7594 32.3565 34.5242 32.6425 34.2148 32.8344L33.2222 33.539C32.5922 34.0211 31.9623 34.5217 31.3133 35.0409C30.8454 35.4626 30.2836 35.7735 29.6716 35.9495C29.0445 36.0981 28.3899 36.0981 27.7628 35.9495C25.5519 35.5918 23.4403 34.7965 21.5589 33.6131C17.1996 31.1004 13.4494 27.7041 10.5638 23.6557C8.38168 20.727 6.74101 17.4517 5.71528 13.9764C5.19198 12.3657 5.03566 10.6637 5.25715 8.98844C5.38293 8.11923 5.85613 7.33314 6.57427 6.8004L8.48315 5.33553L9.72392 4.31568C9.89411 4.15994 10.0956 4.04 10.3157 3.96337C10.4635 3.91296 10.6175 3.88179 10.7738 3.87065H10.8883C11.1297 3.89027 11.364 3.95982 11.5755 4.07462C11.7957 4.19998 11.9847 4.37092 12.1291 4.57528L13.828 6.52226L16.195 9.22949C16.3675 9.39618 16.4981 9.59922 16.5768 9.82286C16.6327 10.0483 16.6327 10.2835 16.5768 10.5089C16.5566 10.7435 16.485 10.9711 16.3668 11.1765C16.2212 11.4063 16.0258 11.6024 15.7941 11.7513L15.3551 12.1036C14.5343 12.7897 13.7135 13.4572 12.9308 14.0691C12.6376 14.2656 12.4221 14.5535 12.32 14.885C12.2124 15.1916 12.2124 15.5241 12.32 15.8307C12.9065 17.342 13.7098 18.7653 14.7061 20.0584C16.2978 22.342 18.2274 24.3851 20.4327 26.1219C20.5156 26.2211 20.6204 26.3009 20.7394 26.3555C20.8583 26.41 20.9884 26.4379 21.1199 26.4371C21.2443 26.4396 21.368 26.4179 21.4837 26.3734C21.5994 26.3288 21.7048 26.2623 21.7937 26.1776C21.8825 26.093 21.9532 25.992 22.0013 25.8806C22.0495 25.7691 22.0744 25.6494 22.0743 25.5285C22.0756 25.385 22.0395 25.2434 21.9694 25.117C21.8993 24.9906 21.7975 24.8834 21.6735 24.8054C19.5826 23.1401 17.7559 21.1844 16.2523 19.0015C15.448 17.9005 14.8055 16.696 14.3434 15.4228C15.126 14.8108 15.9087 14.1619 16.6913 13.5685L17.054 13.142C17.4886 12.8559 17.8482 12.4749 18.1039 12.0294C18.3423 11.6128 18.4855 11.1511 18.5238 10.6758C18.561 10.1665 18.4895 9.65514 18.3138 9.17387C18.1448 8.72232 17.8779 8.3113 17.5312 7.96859L15.3169 5.33553L13.6371 3.48126C13.3497 3.05986 12.9638 2.71041 12.5109 2.46141C12.0738 2.2111 11.5847 2.05904 11.0792 2.01638C10.5686 1.96678 10.053 2.03017 9.5712 2.20181C9.11608 2.36535 8.70029 2.61778 8.34953 2.94352L7.07058 3.87065L5.31442 5.2799C4.22843 6.14783 3.53062 7.39054 3.36737 8.74738C3.10342 10.6844 3.28598 12.6541 3.90185 14.5142C4.99544 18.217 6.74607 21.7059 9.0749 24.8239C12.1108 29.0716 16.0488 32.6378 20.6236 35.282C22.7117 36.5865 25.0487 37.4694 27.4955 37.878C28.4222 38.0318 29.3719 37.9939 30.2825 37.7667C31.1797 37.5083 32.003 37.0513 32.6877 36.4316C33.2412 35.931 33.833 35.4674 34.4247 35.0038C35.0165 34.5403 35.0547 34.5032 35.3028 34.2807C35.7366 34.0015 36.0964 33.6266 36.3527 33.1867C36.6012 32.7515 36.757 32.2723 36.8108 31.7774C36.8515 31.2755 36.7866 30.7708 36.6199 30.294Z" fill="#FBBB1F"/>
</svg>
