<svg width="36" height="36" viewBox="0 0 36 36" fill="none" xmlns="http://www.w3.org/2000/svg">
<rect width="36" height="36" rx="18" fill="#FBBB1F"/>
<path d="M21.0559 15.6V13.2C21.0559 11.4327 19.6878 10 18 10C16.3123 10 14.9441 11.4327 14.9441 13.2V15.6M11.5764 16.6816L11.118 21.8016C10.9877 23.2573 10.9225 23.9852 11.1532 24.5474C11.3558 25.0413 11.711 25.4497 12.1616 25.707C12.6747 26 13.3728 26 14.7691 26H21.2309C22.6272 26 23.3253 26 23.8384 25.707C24.289 25.4497 24.6442 25.0413 24.8468 24.5474C25.0775 23.9852 25.0123 23.2573 24.882 21.8016L24.4236 16.6816C24.3135 15.4523 24.2585 14.8376 23.9945 14.3729C23.762 13.9637 23.4184 13.6361 23.0076 13.4319C22.5411 13.2 21.9516 13.2 20.7725 13.2L15.2275 13.2C14.0484 13.2 13.4589 13.2 12.9924 13.4319C12.5816 13.6361 12.238 13.9637 12.0055 14.3729C11.7415 14.8376 11.6865 15.4523 11.5764 16.6816Z" stroke="white" stroke-width="1.5" stroke-linecap="round" stroke-linejoin="round"/>
</svg>
