<svg width="46" height="24" viewBox="0 0 46 24" fill="none" xmlns="http://www.w3.org/2000/svg">
<circle cx="12" cy="12" r="11.5" fill="#FBBB1F" stroke="#FBBB1F"/>
<path d="M7.94993 5.09307L7.94997 5.09306C8.18417 5.02476 8.47591 5.03366 8.77607 5.11867C8.83882 5.13713 8.88981 5.15584 8.95126 5.19227C9.0137 5.22928 9.08837 5.28545 9.19675 5.38052C9.41389 5.571 9.75894 5.91091 10.4013 6.54813C10.4013 6.54814 10.4013 6.54816 10.4013 6.54817L11.7666 7.90833L11.8018 7.94342L11.8371 7.90839L13.2076 6.54817L13.2076 6.5481C13.8706 5.88768 14.2129 5.548 14.426 5.36278C14.5322 5.27045 14.6043 5.21843 14.6662 5.18447C14.7275 5.15086 14.7809 5.13386 14.8529 5.11366L14.8533 5.11356C15.5221 4.92034 16.1869 5.19788 16.4822 5.78845L16.4824 5.78888C16.5348 5.89128 16.5661 5.97134 16.5847 6.05957C16.6034 6.14838 16.6098 6.24776 16.6098 6.3897C16.6073 6.63091 16.5785 6.80152 16.4942 6.97183C16.409 7.144 16.2655 7.31956 16.0256 7.56709L16.0255 7.56722L15.6516 7.95586H15.2434C15.1266 7.95586 15.0221 7.95204 14.9475 7.9452C14.9297 7.94357 14.9139 7.94179 14.9004 7.93993C14.9007 7.93955 14.9011 7.93917 14.9014 7.93879C14.9295 7.90645 14.9706 7.86162 15.0215 7.80746C15.1234 7.69926 15.2636 7.55517 15.4168 7.40201C15.7178 7.10104 15.8991 6.90094 15.9962 6.73191C16.0455 6.64621 16.0739 6.56731 16.0853 6.48626C16.0967 6.40553 16.0908 6.32537 16.0749 6.23791L7.94993 5.09307ZM7.94993 5.09307C7.81739 5.13163 7.66066 5.21983 7.51595 5.33196C7.37156 5.44385 7.24335 5.57631 7.16552 5.7002C7.10554 5.8002 7.06968 5.87503 7.04582 5.96156C7.02169 6.04901 7.00914 6.15078 6.99896 6.30583C6.98637 6.57341 7.0045 6.75334 7.0835 6.92943C7.1634 7.10751 7.3075 7.28625 7.55782 7.54679L7.95211 7.95586H8.35529C8.47207 7.95586 8.57783 7.95204 8.65378 7.94519C8.67252 7.94351 8.68903 7.94167 8.70317 7.93973C8.7029 7.93942 8.70263 7.93911 8.70236 7.93879C8.67423 7.90645 8.6332 7.86162 8.58223 7.80746C8.48042 7.69929 8.34021 7.55525 8.18709 7.40212C7.98728 7.20487 7.8402 7.04885 7.73764 6.92487C7.63614 6.80218 7.57424 6.70623 7.55068 6.62965L7.55061 6.62944M7.94993 5.09307L7.55061 6.62944M7.55061 6.62944C7.37082 6.03557 7.90427 5.46345 8.50936 5.60478C8.60765 5.62578 8.71218 5.69057 8.90863 5.86342C9.10688 6.03785 9.40589 6.32922 9.89396 6.81473L9.89405 6.81482M7.55061 6.62944L9.89405 6.81482M9.89405 6.81482L11.0351 7.95586M9.89405 6.81482L11.0351 7.95586M11.0351 7.95586H11.8019H12.5687L13.7098 6.81986C13.7098 6.81986 13.7098 6.81986 13.7098 6.81986C14.337 6.19524 14.6759 5.86371 14.9074 5.70326C15.0246 5.62207 15.1188 5.58127 15.2127 5.57021C15.3057 5.55925 15.3928 5.57836 15.4917 5.60534M11.0351 7.95586L16.0749 6.23782C16.0498 6.0981 15.9685 5.9581 15.8636 5.8452C15.7587 5.73228 15.6257 5.64164 15.4917 5.60534M15.4917 5.60534C15.4917 5.60533 15.4917 5.60533 15.4917 5.60533L15.4786 5.65359L15.4917 5.60535C15.4917 5.60534 15.4917 5.60534 15.4917 5.60534Z" fill="white" stroke="white" stroke-width="0.1"/>
<path d="M5.09786 8.80058C5.08935 8.80113 5.08196 8.80168 5.07564 8.80221C5.07424 8.81222 5.07279 8.82491 5.07136 8.84032C5.06716 8.88529 5.06337 8.94932 5.06019 9.02795C5.05383 9.18497 5.05 9.39776 5.05 9.62741V10.4109H7.63352H10.217V9.59162V8.7723H7.66932C6.95355 8.7723 6.29924 8.77614 5.82205 8.78252C5.5834 8.78572 5.38929 8.78955 5.25399 8.79385C5.18627 8.796 5.13373 8.79826 5.09786 8.80058Z" fill="white" stroke="white" stroke-width="0.1"/>
<path d="M11.1434 8.79175C11.1323 8.79258 11.1227 8.79342 11.1146 8.79427C11.1136 8.81177 11.1126 8.83562 11.1116 8.86572C11.1092 8.93606 11.1069 9.03885 11.1048 9.17073C11.1005 9.4344 11.0966 9.81343 11.0934 10.2797C11.087 11.2121 11.0832 12.493 11.0832 13.8966V18.95H11.8002H12.5172L12.5071 13.8712L12.5071 13.8711L12.4919 8.79611L11.8201 8.78181C11.82 8.78181 11.8199 8.78181 11.8198 8.78181C11.6236 8.77927 11.4415 8.78055 11.3063 8.78436C11.2385 8.78626 11.183 8.78879 11.1434 8.79175Z" fill="white" stroke="white" stroke-width="0.1"/>
<path d="M13.384 9.59162V10.4109H15.9675H18.5504L18.5408 9.60274L18.5408 9.60244L18.5263 8.79758L15.9571 8.78253L15.957 8.78253L13.384 8.7725V9.59162Z" fill="white" stroke="white" stroke-width="0.1"/>
<path d="M6.35232 18.8141L6.35233 18.8141L6.35289 18.8147L6.50224 18.95H8.375H10.217V15.1136V11.2773H8.19602H6.17514L6.18523 14.9651L6.18523 14.9652L6.20048 18.6807L6.35232 18.8141Z" fill="white" stroke="white" stroke-width="0.1"/>
<path d="M17.2481 18.8147L17.2481 18.8147L17.2487 18.8141L17.4006 18.6807L17.4158 14.9652V14.9651L17.4259 11.2773H15.405H13.384V15.1136V18.95H15.226H17.0988L17.2481 18.8147Z" fill="white" stroke="white" stroke-width="0.1"/>
<rect x="22" width="24" height="24" rx="12" fill="#FBBB1F"/>
<g clip-path="url(#clip0_2102_4936)">
<path opacity="0.987" fill-rule="evenodd" clip-rule="evenodd" d="M33.6663 2.98242C33.8773 2.98242 34.0882 2.98242 34.2991 2.98242C34.5031 3.04901 34.7023 3.1369 34.8968 3.24609C35.3538 3.67969 35.8109 4.11328 36.2679 4.54688C36.3558 4.57617 36.4437 4.60547 36.5316 4.63477C37.2126 4.50899 37.8981 4.43281 38.5882 4.40625C39.1827 4.52054 39.5988 4.85453 39.8362 5.4082C39.9657 6.07934 40.1063 6.7473 40.2581 7.41211C40.3129 7.47746 40.3773 7.5302 40.4515 7.57031C41.0192 7.84826 41.57 8.15292 42.1038 8.48438C42.6484 9.03991 42.7714 9.6786 42.473 10.4004C42.1934 10.9124 41.9532 11.4397 41.7523 11.9824C41.7581 12.0293 41.764 12.0762 41.7698 12.123C42.049 12.693 42.3185 13.2672 42.5784 13.8457C42.723 14.4807 42.5648 15.0256 42.1038 15.4805C41.57 15.8119 41.0192 16.1166 40.4515 16.3945C40.3773 16.4346 40.3129 16.4874 40.2581 16.5527C40.1108 17.1315 39.9936 17.7174 39.9066 18.3105C39.6399 19.209 39.0364 19.625 38.096 19.5586C37.5715 19.492 37.05 19.4159 36.5316 19.3301C36.4455 19.3619 36.3576 19.3912 36.2679 19.418C35.8109 19.8516 35.3538 20.2852 34.8968 20.7188C34.7023 20.8279 34.5031 20.9158 34.2991 20.9824C34.0882 20.9824 33.8773 20.9824 33.6663 20.9824C33.4624 20.9158 33.2631 20.8279 33.0687 20.7188C32.6116 20.2852 32.1546 19.8516 31.6976 19.418C31.6142 19.3921 31.5322 19.3628 31.4515 19.3301C30.845 19.4293 30.2356 19.5114 29.6234 19.5762C28.9114 19.5457 28.4133 19.2058 28.1292 18.5566C27.9998 17.8855 27.8592 17.2175 27.7073 16.5527C27.6526 16.4874 27.5881 16.4346 27.514 16.3945C26.9462 16.1166 26.3954 15.8119 25.8616 15.4805C25.3171 14.9249 25.194 14.2862 25.4925 13.5645C25.772 13.0525 26.0122 12.5251 26.2132 11.9824C26.2073 11.9356 26.2015 11.8887 26.1956 11.8418C25.9165 11.2718 25.6469 10.6976 25.387 10.1191C25.2425 9.48415 25.4007 8.93923 25.8616 8.48438C26.3954 8.15292 26.9462 7.84826 27.514 7.57031C27.5881 7.5302 27.6526 7.47746 27.7073 7.41211C27.8546 6.83337 27.9718 6.24742 28.0589 5.6543C28.3256 4.75589 28.9291 4.33987 29.8694 4.40625C30.3917 4.47919 30.9132 4.55536 31.4339 4.63477C31.5218 4.60547 31.6097 4.57617 31.6976 4.54688C32.1546 4.11328 32.6116 3.67969 33.0687 3.24609C33.2631 3.1369 33.4624 3.04901 33.6663 2.98242ZM31.5921 7.3418C32.7209 7.2699 33.4416 7.7738 33.7542 8.85352C33.8686 9.96618 33.394 10.6986 32.3304 11.0508C31.3433 11.1988 30.6226 10.8297 30.1683 9.94336C29.8426 8.97505 30.0946 8.19574 30.9241 7.60547C31.1387 7.48534 31.3614 7.39745 31.5921 7.3418ZM37.3226 8.04492C37.8154 8.0973 37.9854 8.35514 37.8323 8.81836C35.4944 11.1562 33.1566 13.4941 30.8187 15.832C30.3939 15.9887 30.1361 15.8422 30.0452 15.3926C30.0641 15.3067 30.0934 15.2247 30.1331 15.1465C32.471 12.8086 34.8089 10.4707 37.1468 8.13281C37.2106 8.1062 37.2692 8.07691 37.3226 8.04492ZM35.846 12.8613C36.7473 12.8318 37.3977 13.2185 37.7972 14.0215C38.1228 14.9898 37.8709 15.7691 37.0413 16.3594C36.0669 16.8418 35.229 16.6719 34.5276 15.8496C33.9173 14.7696 34.1107 13.8614 35.1077 13.125C35.3469 13.0044 35.593 12.9165 35.846 12.8613Z" fill="white"/>
<path opacity="0.952" fill-rule="evenodd" clip-rule="evenodd" d="M31.7671 8.32617C32.4863 8.33637 32.8203 8.69967 32.7691 9.41602C32.5095 10.0628 32.0583 10.2445 31.4155 9.96094C31.0102 9.62632 30.9223 9.22202 31.1519 8.74805C31.3062 8.5286 31.5113 8.38798 31.7671 8.32617Z" fill="white"/>
<path opacity="0.953" fill-rule="evenodd" clip-rule="evenodd" d="M35.8458 13.8805C36.3932 13.8052 36.7506 14.0279 36.918 14.5484C36.9492 15.3493 36.5683 15.695 35.7755 15.5855C35.3138 15.395 35.1205 15.0493 35.1954 14.5484C35.3027 14.2127 35.5195 13.99 35.8458 13.8805Z" fill="white"/>
</g>
<defs>
<clipPath id="clip0_2102_4936">
<rect width="18" height="18" fill="white" transform="translate(25 3)"/>
</clipPath>
</defs>
</svg>
