<svg width="36" height="36" viewBox="0 0 36 36" fill="none" xmlns="http://www.w3.org/2000/svg">
<rect width="36" height="36" rx="18" fill="#E31E24"/>
<path d="M24.2936 11.848C23.8909 10.7656 22.9299 10.0667 21.8454 10.0667H21.6914V9.5H14.3086V10.0667H14.1546C13.0701 10.0667 12.1091 10.7656 11.7064 11.848L10.014 16.3H9V17.4334H9.75857C10.0011 17.4334 10.2113 17.6099 10.2705 17.8622L12.0154 25.2128C12.1915 25.9704 12.8228 26.5 13.55 26.5H22.45C23.1771 26.5 23.8437 25.9704 24.0198 25.2123L25.7295 17.8628C25.7888 17.6099 25.9989 17.4334 26.2414 17.4334H27V16.3H25.986L24.2936 11.848ZM15.3633 24.2333H14.3086V18.5667H15.3633V24.2333ZM18.5273 24.2333H17.4727V18.5667H18.5273V24.2333ZM21.6914 24.2333H20.6367V18.5667H21.6914V24.2333ZM12.6859 12.2686C12.9274 11.6195 13.5042 11.2 14.1546 11.2H14.3086V11.7667H21.6914V11.2H21.8454C22.4959 11.2 23.0726 11.6195 23.3141 12.2686L24.85 16.3H11.15L12.6859 12.2686Z" fill="white"/>
</svg>
