<svg width="32" height="32" viewBox="0 0 32 32" fill="none" xmlns="http://www.w3.org/2000/svg">
<path opacity="0.942" fill-rule="evenodd" clip-rule="evenodd" d="M5.84375 2.65625C10.3229 2.64583 14.8021 2.65625 19.2813 2.6875C20.8958 4.21875 22.5104 5.75 24.125 7.28125C24.2177 10.6742 24.2489 14.0701 24.2188 17.4688C24.8178 17.4913 25.3803 17.6476 25.9063 17.9375C26.9904 18.5848 27.73 19.5118 28.125 20.7188C28.3415 21.7036 28.2165 22.6411 27.75 23.5312C27.5243 23.9028 27.2743 24.2569 27 24.5938C25.4688 26.125 23.9375 27.6562 22.4063 29.1875C22.0203 29.4236 21.6766 29.3714 21.375 29.0312C21.2408 28.7296 21.2616 28.4379 21.4375 28.1562C23.1495 26.486 24.8162 24.7776 26.4375 23.0312C26.9787 22.1947 26.9787 21.3614 26.4375 20.5312C25.9389 19.7825 25.2618 19.2721 24.4063 19C23.7492 18.9194 23.145 19.0653 22.5938 19.4375C20.6078 21.2984 18.6598 23.2047 16.75 25.1562C16.1291 26.0642 16.2228 26.8871 17.0313 27.625C17.6354 28 18.2396 28 18.8438 27.625C20.5208 25.9479 22.1979 24.2708 23.875 22.5938C24.2759 22.0796 24.1509 21.7254 23.5 21.5312C23.3256 21.5684 23.1694 21.6413 23.0313 21.75C21.8646 22.9167 20.6979 24.0833 19.5313 25.25C18.9374 25.4428 18.5833 25.2345 18.4688 24.625C18.4813 24.4229 18.5542 24.2458 18.6875 24.0938C19.7623 23.0399 20.8143 21.967 21.8438 20.875C23.1943 19.7691 24.3506 19.9461 25.3125 21.4062C25.5664 22.0753 25.4831 22.7003 25.0625 23.2812C23.2813 25.1458 21.4583 26.9688 19.5938 28.75C17.9286 29.6411 16.5015 29.3598 15.3125 27.9062C14.574 26.5124 14.7198 25.2208 15.75 24.0312C17.4063 22.375 19.0625 20.7188 20.7188 19.0625C21.0787 18.7024 21.4745 18.3899 21.9063 18.125C22.1232 17.9955 22.3524 17.9018 22.5938 17.8438C22.5938 14.6979 22.5938 11.5521 22.5938 8.40625C21.2186 8.41669 19.8436 8.40625 18.4688 8.375C18.2761 8.32588 18.1407 8.21131 18.0625 8.03125C18.0313 6.71894 18.0208 5.40641 18.0313 4.09375C13.9479 4.08333 9.8645 4.09375 5.78125 4.125C5.54627 4.21633 5.36918 4.37258 5.25 4.59375C5.1461 11.6929 5.12526 18.7971 5.1875 25.9062C5.32292 26.2083 5.54167 26.4271 5.84375 26.5625C8.23956 26.5833 10.6354 26.6042 13.0313 26.625C13.5278 26.8446 13.6632 27.2092 13.4375 27.7188C13.3616 27.8156 13.2679 27.8884 13.1563 27.9375C10.6354 27.9792 8.11456 27.9792 5.59375 27.9375C4.56497 27.6378 3.95039 26.9608 3.75 25.9062C3.70833 18.8646 3.70833 11.8229 3.75 4.78125C3.95951 3.58221 4.65743 2.87388 5.84375 2.65625ZM19.4688 4.96875C20.2042 5.6103 20.9126 6.28738 21.5938 7C20.8858 7.03125 20.1774 7.04169 19.4688 7.03125C19.4688 6.34375 19.4688 5.65625 19.4688 4.96875Z" fill="#FBBB1F"/>
<path opacity="0.961" fill-rule="evenodd" clip-rule="evenodd" d="M8.96875 12.2813C12.2396 12.2708 15.5105 12.2813 18.7813 12.3125C19.1947 12.5527 19.3093 12.8964 19.125 13.3438C19.0286 13.4611 18.914 13.5549 18.7813 13.625C15.5104 13.6667 12.2396 13.6667 8.96875 13.625C8.512 13.3345 8.41825 12.9491 8.6875 12.4688C8.79075 12.4126 8.8845 12.3501 8.96875 12.2813Z" fill="#FBBB1F"/>
<path opacity="0.961" fill-rule="evenodd" clip-rule="evenodd" d="M9.03125 16.5938C12.2605 16.5833 15.4896 16.5938 18.7188 16.625C19.2106 16.8924 19.3251 17.2779 19.0625 17.7813C19.0061 17.8563 18.9332 17.9084 18.8438 17.9375C15.5312 17.9792 12.2187 17.9792 8.90625 17.9375C8.53194 17.6742 8.43819 17.3304 8.625 16.9063C8.73781 16.7609 8.87325 16.6568 9.03125 16.5938Z" fill="#FBBB1F"/>
<path opacity="0.921" fill-rule="evenodd" clip-rule="evenodd" d="M9.15624 20.8438C11.0314 20.8333 12.9064 20.8438 14.7812 20.875C15.3479 21.0396 15.5249 21.4042 15.3125 21.9688C15.2043 22.1011 15.0689 22.1948 14.9062 22.25C12.9687 22.2917 11.0312 22.2917 9.09374 22.25C8.5278 22.0231 8.39236 21.6378 8.68749 21.0938C8.82842 20.9688 8.98467 20.8855 9.15624 20.8438Z" fill="#FBBB1F"/>
</svg>
