<svg width="147" height="89" viewBox="0 0 147 89" fill="none" xmlns="http://www.w3.org/2000/svg">
<circle cx="53.6549" cy="36.7501" r="29.4" fill="#E31E24" fill-opacity="0.1"/>
<path fill-rule="evenodd" clip-rule="evenodd" d="M59.5149 27.6819L52.1732 27.8032C48.7124 27.8604 45.9532 30.7123 46.0104 34.1731L46.7019 76.0205C46.7591 79.4813 49.611 82.2405 53.0718 82.1833L94.9716 81.4909C98.4325 81.4337 101.192 78.5818 101.134 75.121L100.443 33.2736C100.386 29.8128 97.5338 27.0536 94.073 27.1108L86.7312 27.2321L59.5149 27.6819Z" fill="#E31E24"/>
<path d="M59.6273 34.4794L59.515 27.6819M86.8435 34.0297L86.7312 27.2321M59.515 27.6819L52.1732 27.8032C48.7124 27.8604 45.9532 30.7123 46.0104 34.1731L46.7019 76.0205C46.7591 79.4813 49.611 82.2405 53.0718 82.1833L94.9716 81.4909C98.4325 81.4337 101.192 78.5818 101.134 75.121L100.443 33.2736C100.386 29.8128 97.5338 27.0536 94.073 27.1108L86.7312 27.2321M59.515 27.6819L86.7312 27.2321M59.515 27.6819L59.4026 20.8844C59.2785 13.3732 65.2846 7.18848 72.7861 7.06452C80.3046 6.94027 86.495 12.9404 86.6189 20.4346L86.7312 27.2321" stroke="#E31E24" stroke-width="4.7004" stroke-linecap="round"/>
<path d="M80.2983 47.4836L65.9658 62.0311" stroke="white" stroke-width="2.5725" stroke-linecap="round" stroke-linejoin="round"/>
<path d="M65.9658 47.4836L80.2983 62.0311" stroke="white" stroke-width="2.5725" stroke-linecap="round" stroke-linejoin="round"/>
</svg>
