<svg width="147" height="89" viewBox="0 0 147 89" fill="none" xmlns="http://www.w3.org/2000/svg">
<circle cx="53.655" cy="36.7502" r="29.4" fill="#FBBB1F" fill-opacity="0.15"/>
<path d="M90.503 75.5485C85.6132 71.4716 80.7605 67.1874 75.8707 63.2487C74.5001 62.1432 72.4626 62.1432 71.092 63.2487C66.2393 67.1529 61.3866 71.4371 56.5338 75.5139C54.163 77.5178 50.3475 75.9285 50.3475 72.9227V19.4051C50.3475 15.6046 53.6815 12.4951 57.7563 12.4951H89.2435C93.3183 12.4951 96.6523 15.6046 96.6523 19.4051V72.9227C96.6893 75.9631 92.9108 77.5524 90.503 75.5485Z" fill="#FBBB1F"/>
<path d="M80.6662 37.194L66.3337 51.7414" stroke="white" stroke-width="2.5725" stroke-linecap="round" stroke-linejoin="round"/>
<path d="M66.3337 37.194L80.6662 51.7414" stroke="white" stroke-width="2.5725" stroke-linecap="round" stroke-linejoin="round"/>
</svg>
