<svg width="147" height="89" viewBox="0 0 147 89" fill="none" xmlns="http://www.w3.org/2000/svg">
<circle cx="53.655" cy="36.75" r="29.4" fill="#FBBB1F" fill-opacity="0.15"/>
<path fill-rule="evenodd" clip-rule="evenodd" d="M59.5151 27.6819L52.1733 27.8032C48.7125 27.8604 45.9533 30.7123 46.0105 34.1731L46.7021 76.0205C46.7592 79.4813 49.6111 82.2405 53.072 82.1833L94.9718 81.4909C98.4326 81.4337 101.192 78.5818 101.135 75.121L100.443 33.2736C100.386 29.8128 97.5339 27.0536 94.0731 27.1108L86.7313 27.2321L59.5151 27.6819Z" fill="#FBBB1F"/>
<path d="M59.6274 34.4794L59.5151 27.6819M86.8437 34.0297L86.7313 27.2321M59.5151 27.6819L52.1733 27.8032C48.7125 27.8604 45.9533 30.7123 46.0105 34.1731L46.7021 76.0205C46.7592 79.4813 49.6111 82.2405 53.072 82.1833L94.9718 81.4909C98.4326 81.4337 101.192 78.5818 101.135 75.121L100.443 33.2736C100.386 29.8128 97.5339 27.0536 94.0731 27.1108L86.7313 27.2321M59.5151 27.6819L86.7313 27.2321M59.5151 27.6819L59.4027 20.8844C59.2786 13.3732 65.2847 7.18848 72.7862 7.06452C80.3047 6.94027 86.4952 12.9404 86.619 20.4346L86.7313 27.2321" stroke="#FBBB1F" stroke-width="4.7004" stroke-linecap="round"/>
<path d="M80.2987 47.4836L65.9662 62.0311" stroke="white" stroke-width="2.5725" stroke-linecap="round" stroke-linejoin="round"/>
<path d="M65.9662 47.4836L80.2987 62.0311" stroke="white" stroke-width="2.5725" stroke-linecap="round" stroke-linejoin="round"/>
</svg>
