<svg width="147" height="89" viewBox="0 0 147 89" fill="none" xmlns="http://www.w3.org/2000/svg">
<circle cx="53.6549" cy="36.7501" r="29.4" fill="#E31E24" fill-opacity="0.1"/>
<path d="M90.5031 75.5485C85.6133 71.4716 80.7606 67.1874 75.8708 63.2487C74.5002 62.1432 72.4628 62.1432 71.0921 63.2487C66.2394 67.1529 61.3867 71.4371 56.534 75.5139C54.1632 77.5178 50.3477 75.9285 50.3477 72.9227V19.4051C50.3477 15.6046 53.6816 12.4951 57.7564 12.4951H89.2436C93.3184 12.4951 96.6524 15.6046 96.6524 19.4051V72.9227C96.6894 75.9631 92.9109 77.5524 90.5031 75.5485Z" fill="#E31E24"/>
<path d="M80.6665 37.194L66.334 51.7414" stroke="white" stroke-width="2.5725" stroke-linecap="round" stroke-linejoin="round"/>
<path d="M66.334 37.194L80.6665 51.7414" stroke="white" stroke-width="2.5725" stroke-linecap="round" stroke-linejoin="round"/>
</svg>
