<svg width="25" height="24" viewBox="0 0 25 24" fill="none" xmlns="http://www.w3.org/2000/svg">
<path d="M15.9925 9.3V6.6C15.9925 4.61178 14.4289 3 12.5 3C10.5711 3 9.0075 4.61178 9.0075 6.6V9.3M5.15876 10.5168L4.63488 16.2768C4.48593 17.9145 4.41145 18.7334 4.67509 19.3658C4.90668 19.9215 5.31253 20.3809 5.82759 20.6704C6.4139 21 7.21179 21 8.80759 21H16.1924C17.7882 21 18.5861 21 19.1724 20.6704C19.6875 20.3809 20.0933 19.9215 20.3249 19.3658C20.5885 18.7334 20.5141 17.9145 20.3651 16.2768L19.8412 10.5168C19.7155 9.13381 19.6526 8.44233 19.3508 7.91955C19.0851 7.45913 18.6925 7.0906 18.223 6.86086C17.6899 6.6 17.0161 6.6 15.6685 6.6L9.33147 6.6C7.98392 6.6 7.31015 6.6 6.77702 6.86086C6.3075 7.0906 5.91489 7.45913 5.64916 7.91955C5.34743 8.44233 5.28454 9.13381 5.15876 10.5168Z" stroke="white" stroke-width="1.5" stroke-linecap="round" stroke-linejoin="round"/>
</svg>
