<svg width="12" height="13" viewBox="0 0 12 13" fill="none" xmlns="http://www.w3.org/2000/svg">
<g clip-path="url(#clip0_176_8377)">
<path opacity="0.975" fill-rule="evenodd" clip-rule="evenodd" d="M7.53419 0.488281C7.67481 0.488281 7.81544 0.488281 7.95606 0.488281C8.58848 0.695857 8.86581 1.13336 8.7881 1.80078C8.58466 2.41641 8.15887 2.68594 7.51075 2.60937C6.89512 2.40593 6.62559 1.98015 6.70216 1.33203C6.82774 0.897873 7.1051 0.616623 7.53419 0.488281Z" fill="white"/>
<path opacity="0.99" fill-rule="evenodd" clip-rule="evenodd" d="M0.925703 2.62061C2.19135 2.6167 3.45698 2.62061 4.72258 2.63232C4.9198 2.73422 4.9862 2.89438 4.9218 3.11279C4.88664 3.21046 4.82024 3.27686 4.72258 3.31201C3.45695 3.32764 2.19133 3.32764 0.925703 3.31201C0.715359 3.19126 0.656765 3.01548 0.749922 2.78467C0.797141 2.71643 0.855735 2.66174 0.925703 2.62061Z" fill="white"/>
<path opacity="0.983" fill-rule="evenodd" clip-rule="evenodd" d="M10.4421 12.4883C10.2858 12.4883 10.1296 12.4883 9.97334 12.4883C9.36774 12.2856 9.09821 11.8637 9.16475 11.2227C9.17286 11.1824 9.18458 11.1433 9.19991 11.1055C8.23116 11.0743 7.2624 11.0743 6.29366 11.1055C6.43552 11.6608 6.26363 12.0866 5.77803 12.3828C5.6888 12.4163 5.60286 12.4515 5.52022 12.4883C5.36396 12.4883 5.20773 12.4883 5.05147 12.4883C4.33756 12.2245 4.09147 11.7245 4.31319 10.9883C4.47066 10.6809 4.71676 10.4817 5.05147 10.3906C5.71548 10.3789 6.37955 10.375 7.04366 10.3789C7.05146 9.80059 7.04366 9.22248 7.02022 8.64456C6.43747 8.25324 5.85153 7.86652 5.26241 7.4844C4.95912 7.26207 4.86148 6.9691 4.96944 6.60549C5.46488 5.58334 5.9727 4.56772 6.49287 3.55862C6.77848 3.29888 7.09489 3.2559 7.44209 3.42971C7.88675 3.85091 8.32423 4.28061 8.75459 4.71877C9.18486 4.72327 9.61454 4.73499 10.0437 4.75393C10.1056 4.73968 10.1682 4.72796 10.2312 4.71877C10.3874 4.56252 10.5436 4.40628 10.6999 4.25002C11.0967 4.12334 11.2803 4.26786 11.2507 4.68362C11.0413 4.93993 10.8147 5.18211 10.571 5.41018C10.5554 7.08205 10.5554 8.75394 10.571 10.4258C11.1935 10.7303 11.3967 11.2147 11.1804 11.8789C11.0174 12.1847 10.7713 12.3879 10.4421 12.4883ZM7.23116 5.24612C7.50057 5.51159 7.77399 5.77332 8.05147 6.03127C8.11901 6.06896 8.18933 6.1002 8.26241 6.12502C8.45771 6.13283 8.65304 6.14066 8.84834 6.14846C8.75375 6.36006 8.80062 6.53195 8.98897 6.66409C9.1175 6.71443 9.24249 6.70663 9.36397 6.64065C9.53267 6.47977 9.69284 6.31182 9.84444 6.13674C9.85616 7.55077 9.86007 8.96485 9.85616 10.3789C9.38741 10.3789 8.91866 10.3789 8.44991 10.3789C8.46113 9.58841 8.44941 8.79934 8.41475 8.01174C8.34751 7.86521 8.24984 7.74411 8.12178 7.64846C7.59589 7.30775 7.08027 6.95619 6.57491 6.59377C6.79712 6.14548 7.01586 5.69626 7.23116 5.24612ZM5.16866 11.1055C5.50034 11.0739 5.64488 11.2223 5.60225 11.5508C5.46479 11.7792 5.28118 11.8222 5.05147 11.6797C4.89692 11.4457 4.93599 11.2543 5.16866 11.1055ZM10.0905 11.1055C10.4222 11.0739 10.5668 11.2223 10.5241 11.5508C10.3867 11.7792 10.2031 11.8222 9.97334 11.6797C9.8188 11.4457 9.85787 11.2543 10.0905 11.1055Z" fill="white"/>
<path opacity="0.984" fill-rule="evenodd" clip-rule="evenodd" d="M0.925703 4.02686C1.72262 4.02294 2.5195 4.02686 3.31633 4.03858C3.51355 4.14048 3.57995 4.30063 3.51555 4.51905C3.48039 4.61671 3.41399 4.68311 3.31633 4.71827C2.51945 4.7339 1.72258 4.7339 0.925703 4.71827C0.715359 4.59752 0.656765 4.42173 0.749922 4.19092C0.797141 4.12267 0.855735 4.06799 0.925703 4.02686Z" fill="white"/>
<path opacity="0.967" fill-rule="evenodd" clip-rule="evenodd" d="M0.925703 5.43311C1.25392 5.42919 1.58205 5.43311 1.91008 5.44483C2.1073 5.54673 2.17371 5.70688 2.1093 5.9253C2.07414 6.02296 2.00774 6.08936 1.91008 6.12452C1.58195 6.14015 1.25383 6.14015 0.925703 6.12452C0.715359 6.00377 0.656765 5.82798 0.749922 5.59717C0.797141 5.52892 0.855735 5.47424 0.925703 5.43311Z" fill="white"/>
<path opacity="0.985" fill-rule="evenodd" clip-rule="evenodd" d="M4.46424 7.61328C4.55159 7.73598 4.65315 7.84925 4.76893 7.95312C5.05018 8.14062 5.33143 8.32812 5.61268 8.51562C5.34795 9.03334 5.08625 9.55288 4.82752 10.0742C4.72405 10.2165 4.58734 10.3142 4.41737 10.3672C3.58925 10.3828 2.76111 10.3828 1.93299 10.3672C1.49675 10.194 1.3366 9.87755 1.45252 9.41797C1.54165 9.19552 1.7018 9.05101 1.93299 8.98438C2.55017 8.97657 3.16738 8.96874 3.78455 8.96094C4.01443 8.51291 4.24098 8.0637 4.46424 7.61328Z" fill="white"/>
</g>
<defs>
<clipPath id="clip0_176_8377">
<rect width="12" height="12" fill="white" transform="translate(0 0.5)"/>
</clipPath>
</defs>
</svg>
