<svg width="37" height="36" viewBox="0 0 37 36" fill="none" xmlns="http://www.w3.org/2000/svg">
<path d="M25.5383 9.42188C25.6719 9.675 25.707 9.85078 25.707 10.3008C25.707 11.0109 25.5664 11.2922 24.8773 12.0023L24.3852 12.5156H23.7242C23.3656 12.5156 23.0703 12.4945 23.0703 12.4664C23.0703 12.4383 23.443 12.0445 23.893 11.5875L24.7156 10.7648L24.7438 10.357C24.7719 9.98438 24.7508 9.92109 24.582 9.71719C24.1812 9.23906 23.7102 9.15469 23.2039 9.48516C23.0352 9.59766 22.2617 10.3219 21.4883 11.1023L20.082 12.5156H18.9992H17.9094L16.3555 10.9758C15.0758 9.70312 14.7594 9.42188 14.5133 9.34453C14.1266 9.23203 13.7609 9.3375 13.4727 9.63281C13.2828 9.82969 13.2617 9.9 13.2617 10.3008V10.7578L14.0914 11.5805C14.5414 12.0375 14.9141 12.4383 14.9141 12.4664C14.9141 12.4945 14.6188 12.5156 14.2672 12.5156H13.6203L14.1055 13.0078L14.5906 13.5H15.7719H16.9531V14.7305V15.9609H13.318H9.67578L10.4141 16.6992L11.1523 17.4445L11.1734 17.1914L11.1945 16.9453H14.0773H16.9531V22.3242V27.7102L14.2812 27.6891L11.6094 27.668L15.2094 31.268L18.7812 34.8398L19.5547 34.875C22.3602 34.875 25.5875 33.8695 28.1891 32.182C32.3094 29.5242 35.15 25.0383 35.7336 20.2641L35.832 19.3711L30.6008 14.3227C26.6844 10.4133 25.4188 9.18281 25.5383 9.42188ZM20.0469 20.6016V27.7031H18.9922H17.9375V20.6016V13.5H18.9922H20.0469V20.6016ZM28.3789 14.7305V15.9258L24.7086 15.9469L21.0312 15.9609V14.7305V13.5L24.7086 13.5141L28.3789 13.5352V14.7305ZM26.7969 22.0641C26.7969 26.6766 26.7828 27.1969 26.6844 27.3445C26.4453 27.682 26.2836 27.7031 23.5625 27.7031H21.0312V22.3242V16.9453H23.9141H26.7969V22.0641Z" fill="#FBBB1F"/>
<path d="M16.9391 1.23054C13.1774 1.68757 9.62662 3.43132 6.9899 6.12429C4.30396 8.86648 2.74302 12.0657 2.21568 15.9259C2.07505 16.9876 2.11021 19.4837 2.28599 20.6016C2.8274 24.0048 4.42349 27.2321 6.77896 29.6649C9.26099 32.2384 12.2141 33.8555 15.6665 34.5587C16.6227 34.7485 17.9586 34.8962 18.4508 34.861L18.7813 34.8399L15.118 31.1837C13.1071 29.1727 11.3985 27.4712 11.3282 27.4009C11.2579 27.3305 11.1805 27.1759 11.1594 27.0563C11.1383 26.9368 11.1172 24.7149 11.1172 22.1204V17.3954L10.3438 16.629L9.57037 15.8696V14.6884V13.5001H12.0805H14.5907L13.529 12.4243C12.6571 11.5384 12.4532 11.2993 12.3618 11.011C12.0243 10.0196 12.4251 8.99304 13.3251 8.52898C13.6204 8.37429 13.7751 8.33913 14.211 8.34616C14.5485 8.34616 14.8368 8.38835 15.0196 8.4657C15.2094 8.55007 15.9055 9.18991 17.1501 10.4274L18.9922 12.2626L20.8415 10.4274C22.079 9.18991 22.7751 8.55007 22.9649 8.4657C23.3938 8.28288 24.2165 8.29695 24.6172 8.50085C24.8422 8.61335 26.5508 10.2727 30.3618 14.0837C34.6438 18.3587 35.804 19.4766 35.8391 19.3782C35.8672 19.3149 35.8672 18.5555 35.8461 17.6977C35.818 16.4462 35.7758 15.9329 35.6282 15.1102C34.9743 11.4329 33.2586 8.24069 30.5586 5.69538C27.9501 3.22741 24.6313 1.67351 21.0313 1.23054C19.9836 1.10398 18.0008 1.10398 16.9391 1.23054Z" fill="#FBBB1F"/>
<path d="M17.2203 10.5469L18.9922 12.3398L20.7711 10.5469L22.543 8.75391L20.7711 10.5117L18.9922 12.2695L17.2203 10.5117L15.4414 8.75391L17.2203 10.5469Z" fill="#EC9696"/>
<path d="M12.8047 11.693C12.8047 11.707 12.9102 11.8055 13.0367 11.925L13.2617 12.1289L13.0578 11.8969C12.8609 11.6859 12.8047 11.6367 12.8047 11.693Z" fill="#EC9696"/>
<path d="M12.2635 10.3003C12.2635 10.455 12.2776 10.5112 12.2917 10.4198C12.3057 10.3355 12.3057 10.2089 12.2917 10.1386C12.2706 10.0753 12.2565 10.1456 12.2635 10.3003Z" fill="#ECC1C1"/>
<path d="M9.59885 13.5914C9.58479 13.6406 9.57776 14.1891 9.58479 14.8008L9.60588 15.9258H13.2621H16.9184V14.7094L16.9254 13.5L16.9043 14.6953L16.8832 15.8906H13.2551H9.63401L9.6551 14.6953C9.66916 14.0344 9.66916 13.5 9.6551 13.5C9.64807 13.5 9.61995 13.5422 9.59885 13.5914Z" fill="#ECC1C1"/>
<path d="M21.0666 14.7305V15.9258H24.7229H28.3791L28.4002 14.7727C28.4072 14.1328 28.3932 13.5914 28.365 13.5633C28.3299 13.5281 28.3158 14.0414 28.3299 14.6953L28.351 15.8906H24.7299H21.1018L21.0807 14.7094L21.0596 13.5352L21.0666 14.7305Z" fill="#ECC1C1"/>
<path d="M16.918 22.2886C16.918 25.2488 16.925 26.4581 16.932 24.9816C16.9461 23.498 16.9461 21.0792 16.932 19.6027C16.925 18.1191 16.918 19.3284 16.918 22.2886Z" fill="#ECC1C1"/>
<path d="M21.0664 22.2886C21.0664 25.2488 21.0734 26.4581 21.0805 24.9816C21.0945 23.498 21.0945 21.0792 21.0805 19.6027C21.0734 18.1191 21.0664 19.3284 21.0664 22.2886Z" fill="#ECC1C1"/>
<path d="M13.6766 8.44453C13.2899 8.55703 12.7836 8.95078 12.5586 9.30937C12.3899 9.59062 12.3477 9.74531 12.3196 10.1742C12.2844 10.9195 12.418 11.2148 13.1071 11.932L13.6696 12.5156H14.2532C14.5766 12.5156 14.8438 12.4945 14.8438 12.4594C14.8438 12.4312 14.4922 12.0586 14.0704 11.6367C13.5219 11.0953 13.2688 10.7859 13.2125 10.6031C12.9805 9.83672 13.6696 9.09844 14.45 9.28125C14.6821 9.33047 14.9774 9.59062 16.3204 10.9266L17.9094 12.5156H18.9922H20.075L21.6641 10.9336C23.3938 9.21094 23.5063 9.13359 24.0477 9.28125C24.3852 9.37266 24.7368 9.74531 24.8 10.0969C24.8844 10.5609 24.7438 10.807 23.9141 11.6367C23.4922 12.0586 23.1407 12.4312 23.1407 12.4594C23.1407 12.4945 23.4008 12.5156 23.7243 12.5156H24.3149L24.8493 11.9602C25.5102 11.2781 25.6649 10.9687 25.6719 10.2937C25.6719 9.9 25.6368 9.72422 25.4891 9.43594C25.0672 8.59219 24.118 8.19844 23.1688 8.47266C22.768 8.58516 22.6977 8.64844 20.8766 10.4625L18.9922 12.3328L17.1149 10.4625C15.35 8.71172 15.2094 8.58516 14.8508 8.47969C14.4289 8.36016 14.0141 8.34609 13.6766 8.44453Z" fill="white"/>
<path d="M9.68984 13.5492C9.66172 13.5703 9.64062 14.1117 9.64062 14.7445V15.8906H13.2617H16.8828V14.6953V13.5H13.3109C11.3422 13.5 9.71094 13.5211 9.68984 13.5492Z" fill="white"/>
<path d="M17.9867 13.5422C17.9586 13.5703 17.9375 16.7555 17.9375 20.6156V27.6328H18.9922H20.0469L20.0328 20.5805L20.0117 13.5352L19.0203 13.5141C18.4789 13.507 18.0148 13.5211 17.9867 13.5422Z" fill="white"/>
<path d="M21.1016 14.6953V15.8906H24.7227H28.3438L28.3297 14.7094L28.3086 13.5352L24.7086 13.5141L21.1016 13.5V14.6953Z" fill="white"/>
<path d="M11.2016 22.0852L11.2227 27.225L11.4547 27.4289L11.6797 27.6328H14.2812H16.8828V22.2891V16.9453H14.0352H11.1875L11.2016 22.0852Z" fill="white"/>
<path d="M21.1016 22.2891V27.6328H23.7031H26.3047L26.5297 27.4289L26.7617 27.225L26.7828 22.0852L26.7969 16.9453H23.9492H21.1016V22.2891Z" fill="white"/>
</svg>
