<svg width="36" height="37" viewBox="0 0 36 37" fill="none" xmlns="http://www.w3.org/2000/svg">
<circle cx="18" cy="18.7119" r="17.25" fill="#E31E24" stroke="#E31E24" stroke-width="1.5"/>
<path d="M11.9249 8.35177L11.925 8.35175C12.2762 8.24929 12.7139 8.26265 13.1641 8.39016C13.2582 8.41786 13.3347 8.44592 13.4269 8.50056C13.5205 8.55608 13.6326 8.64034 13.7951 8.78294C14.1208 9.06866 14.6384 9.57855 15.602 10.5344L17.6499 12.5746L17.7027 12.6273L17.7556 12.5747L19.8113 10.5344L19.8114 10.5343C20.8059 9.54368 21.3193 9.03415 21.639 8.75632C21.7984 8.61783 21.9064 8.5398 21.9993 8.48887C22.0913 8.43844 22.1714 8.41295 22.2793 8.38265L22.2799 8.38249C23.2831 8.09267 24.2803 8.50898 24.7232 9.39483L24.7236 9.39548C24.8022 9.54908 24.8491 9.66918 24.877 9.80152C24.9051 9.93471 24.9147 10.0838 24.9147 10.2967C24.9109 10.6585 24.8677 10.9144 24.7413 11.1699C24.6136 11.4282 24.3982 11.6915 24.0384 12.0628L24.0383 12.063L23.4774 12.6459H22.865C22.6898 12.6459 22.5332 12.6402 22.4212 12.63C22.3945 12.6275 22.3709 12.6248 22.3506 12.6221C22.3511 12.6215 22.3516 12.6209 22.3521 12.6203C22.3943 12.5718 22.4558 12.5046 22.5323 12.4233C22.685 12.261 22.8954 12.0449 23.1252 11.8152C23.5766 11.3637 23.8486 11.0636 23.9943 10.81C24.0682 10.6815 24.1108 10.5631 24.128 10.4415C24.1451 10.3204 24.1363 10.2001 24.1124 10.0689M11.9249 8.35177L24.0386 10.0823M11.9249 8.35177C11.7261 8.40961 11.491 8.5419 11.2739 8.7101C11.0573 8.87793 10.865 9.07662 10.7483 9.26246C10.6583 9.41247 10.6045 9.5247 10.5687 9.65449C10.5325 9.78567 10.5137 9.93832 10.4984 10.1709C10.4796 10.5723 10.5068 10.8422 10.6253 11.1063C10.7451 11.3734 10.9612 11.6415 11.3367 12.0323L11.9282 12.6459H12.5329C12.7081 12.6459 12.8668 12.6402 12.9807 12.63C13.0088 12.6274 13.0335 12.6247 13.0548 12.6218C13.0544 12.6213 13.0539 12.6208 13.0535 12.6203C13.0113 12.5718 12.9498 12.5046 12.8733 12.4233C12.7206 12.2611 12.5103 12.045 12.2806 11.8153C11.9809 11.5195 11.7603 11.2854 11.6065 11.0995C11.4542 10.9154 11.3614 10.7715 11.326 10.6566L11.3259 10.6563M11.9249 8.35177L11.3259 10.6563M24.1124 10.0689L24.0386 10.0823M24.1124 10.0689C24.1124 10.0689 24.1124 10.069 24.1124 10.069L24.0386 10.0823M24.1124 10.0689C24.0746 9.85931 23.9527 9.6493 23.7954 9.47995C23.638 9.31056 23.4385 9.1746 23.2375 9.12015M24.0386 10.0823C23.9696 9.69879 23.5861 9.29225 23.2179 9.19254M23.2375 9.12015C23.2375 9.12016 23.2376 9.12017 23.2376 9.12018L23.2179 9.19254M23.2375 9.12015C23.0891 9.07968 22.9585 9.05103 22.819 9.06748C22.6782 9.08407 22.5369 9.14526 22.3611 9.26704C22.0138 9.50773 21.5054 10.005 20.5647 10.9419M23.2375 9.12015L23.2179 9.19254M23.2179 9.19254L20.5647 10.9419M20.5647 10.9419L20.6176 10.9951L20.5647 10.942C20.5647 10.942 20.5647 10.9419 20.5647 10.9419ZM11.3259 10.6563C11.0562 9.76551 11.8564 8.90732 12.7641 9.11934C12.9115 9.15084 13.0683 9.24803 13.3629 9.50729C13.6603 9.76894 14.1088 10.206 14.8409 10.9343L14.8411 10.9344M11.3259 10.6563L14.8411 10.9344M14.8411 10.9344L16.5526 12.6459L14.8411 10.9344ZM18.8531 12.6459H18.8841V12.7209L18.8311 12.6678L18.8531 12.6459Z" fill="white" stroke="white" stroke-width="0.15"/>
<path d="M7.6468 13.9128C7.63403 13.9136 7.62294 13.9144 7.61346 13.9152C7.61135 13.9302 7.60919 13.9493 7.60704 13.9724C7.60074 14.0399 7.59505 14.1359 7.59028 14.2538C7.58074 14.4894 7.575 14.8086 7.575 15.153V16.3283H11.4503H15.3256V15.0993V13.8704H11.504C10.4303 13.8704 9.44887 13.8761 8.73307 13.8857C8.37511 13.8905 8.08393 13.8962 7.88099 13.9027C7.7794 13.9059 7.7006 13.9093 7.6468 13.9128Z" fill="white" stroke="white" stroke-width="0.15"/>
<path d="M16.7151 13.8997C16.6985 13.9009 16.6841 13.9022 16.6719 13.9034C16.6704 13.9297 16.6689 13.9655 16.6673 14.0106C16.6638 14.1161 16.6604 14.2703 16.6572 14.4681C16.6507 14.8636 16.6449 15.4322 16.6401 16.1315C16.6306 17.5302 16.6248 19.4515 16.6248 21.5569V29.137H17.7004H18.7758L18.7606 21.5188L18.7606 21.5187L18.7378 13.9062L17.7301 13.8848C17.73 13.8848 17.7299 13.8848 17.7299 13.8848C17.4354 13.8809 17.1624 13.8829 16.9594 13.8886C16.8578 13.8914 16.7745 13.8952 16.7151 13.8997Z" fill="white" stroke="white" stroke-width="0.15"/>
<path d="M20.076 15.0993V16.3283H23.9513H27.8256L27.8112 15.116L27.8112 15.1156L27.7895 13.9083L23.9356 13.8857L23.9355 13.8857L20.076 13.8707V15.0993Z" fill="white" stroke="white" stroke-width="0.15"/>
<path d="M9.52849 28.9333L9.52849 28.9332L9.52934 28.934L9.75336 29.137H12.5625H15.3256V23.3825V17.6279H12.294H9.26271L9.27784 23.1597L9.27784 23.1598L9.30071 28.7331L9.52849 28.9333Z" fill="white" stroke="white" stroke-width="0.15"/>
<path d="M25.8722 28.934L25.8722 28.934L25.8731 28.9333L26.1008 28.7331L26.1237 23.1598L26.1237 23.1597L26.1388 17.6279H23.1075H20.076V23.3825V29.137H22.839H25.6482L25.8722 28.934Z" fill="white" stroke="white" stroke-width="0.15"/>
</svg>
