<svg width="40" height="40" viewBox="0 0 40 40" fill="none" xmlns="http://www.w3.org/2000/svg">
<g clip-path="url(#clip0_2009_2276)">
<path d="M27.9734 10.4632C28.1218 10.7443 28.1608 10.9395 28.1608 11.4392C28.1608 12.2279 28.0046 12.5402 27.2394 13.3289L26.6928 13.8989H25.9588C25.5606 13.8989 25.2327 13.8754 25.2327 13.8442C25.2327 13.813 25.6465 13.3757 26.1462 12.8682L27.0598 11.9546L27.0911 11.5017C27.1223 11.0879 27.0989 11.0176 26.9115 10.7911C26.4664 10.2602 25.9432 10.1665 25.381 10.5335C25.1936 10.6584 24.3347 11.4627 23.4758 12.3294L21.9141 13.8989H20.7116H19.5013L17.7757 12.1888C16.3546 10.7755 16.0032 10.4632 15.7299 10.3773C15.3005 10.2524 14.8944 10.3695 14.5743 10.6974C14.3635 10.9161 14.34 10.9942 14.34 11.4392V11.9468L15.2614 12.8604C15.7612 13.3679 16.175 13.813 16.175 13.8442C16.175 13.8754 15.847 13.8989 15.4566 13.8989H14.7383L15.277 14.4454L15.8158 14.992H17.1276H18.4394V16.3585V17.7249H14.4025H10.3578L11.1777 18.5448L11.9975 19.3725L12.021 19.0914L12.0444 18.8181H15.2458H18.4394V24.7915V30.7727L15.4722 30.7493L12.5051 30.7258L16.5029 34.7237L20.4696 38.6903L21.3285 38.7294C24.444 38.7294 28.0281 37.6128 30.9171 35.7388C35.4928 32.7872 38.6474 27.8055 39.2955 22.5036L39.4048 21.512L33.5954 15.9056C29.2462 11.5642 27.8407 10.1977 27.9734 10.4632ZM21.8751 22.8784V30.7649H20.7038H19.5326V22.8784V14.992H20.7038H21.8751V22.8784ZM31.128 16.3585V17.6859L27.052 17.7093L22.9683 17.7249V16.3585V14.992L27.052 15.0076L31.128 15.0311V16.3585ZM29.3711 24.5026C29.3711 29.6249 29.3555 30.2027 29.2462 30.3666C28.9807 30.7414 28.8011 30.7649 25.7793 30.7649H22.9683V24.7915V18.8181H26.1697H29.3711V24.5026Z" fill="#E8E8E8"/>
<path d="M18.4241 1.36692C14.2466 1.87446 10.3034 3.81093 7.37527 6.80153C4.39249 9.84678 2.65904 13.3996 2.07341 17.6863C1.91725 18.8654 1.95629 21.6374 2.1515 22.8789C2.75274 26.6581 4.52523 30.2421 7.14102 32.9438C9.89737 35.8017 13.1769 37.5976 17.0108 38.3784C18.0727 38.5893 19.5563 38.7532 20.1029 38.7142L20.4699 38.6908L16.4017 34.6304C14.1685 32.3972 12.2711 30.5076 12.193 30.4295C12.1149 30.3515 12.029 30.1797 12.0056 30.0469C11.9822 29.9142 11.9588 27.4468 11.9588 24.5655V19.3183L11.0998 18.4672L10.2409 17.6239V16.3121V14.9925H13.0285H15.8161L14.637 13.7978C13.6688 12.8139 13.4424 12.5485 13.3408 12.2283C12.966 11.1273 13.4111 9.98733 14.4106 9.47198C14.7385 9.30019 14.9103 9.26115 15.3944 9.26896C15.7692 9.26896 16.0894 9.31581 16.2924 9.4017C16.5032 9.4954 17.2762 10.206 18.6583 11.5802L20.7041 13.6182L22.7577 11.5802C24.132 10.206 24.905 9.4954 25.1158 9.4017C25.5921 9.19868 26.5057 9.2143 26.9508 9.44074C27.2006 9.56568 29.0981 11.4084 33.3302 15.6406C38.0855 20.388 39.3738 21.6296 39.4129 21.5202C39.4441 21.45 39.4441 20.6067 39.4207 19.654C39.3895 18.2642 39.3426 17.6942 39.1786 16.7806C38.4525 12.6968 36.5472 9.15183 33.5488 6.32521C30.6519 3.58449 26.9664 1.85885 22.9685 1.36692C21.8051 1.22637 19.6031 1.22637 18.4241 1.36692Z" fill="#E8E8E8"/>
<path d="M18.7361 11.7125L20.7038 13.7036L22.6793 11.7125L24.647 9.72136L22.6793 11.6734L20.7038 13.6255L18.7361 11.6734L16.7606 9.72136L18.7361 11.7125Z" fill="#E8E8E8"/>
<path d="M13.8325 12.9852C13.8325 13.0009 13.9496 13.1102 14.0902 13.2429L14.3401 13.4694L14.1136 13.2117C13.895 12.9774 13.8325 12.9228 13.8325 12.9852Z" fill="#E8E8E8"/>
<path d="M13.2316 11.4387C13.2316 11.6105 13.2473 11.6729 13.2629 11.5714C13.2785 11.4777 13.2785 11.3372 13.2629 11.2591C13.2395 11.1888 13.2238 11.2669 13.2316 11.4387Z" fill="#E8E8E8"/>
<path d="M10.2726 15.0934C10.257 15.1481 10.2492 15.7571 10.257 16.4365L10.2804 17.6858H14.3407H18.4011V16.3349L18.4089 14.9919L18.3854 16.3193L18.362 17.6467H14.3329H10.3116L10.3351 16.3193C10.3507 15.5853 10.3507 14.9919 10.3351 14.9919C10.3272 14.9919 10.296 15.0388 10.2726 15.0934Z" fill="#E8E8E8"/>
<path d="M23.0081 16.3584V17.6858H27.0684H31.1287L31.1521 16.4052C31.16 15.6947 31.1443 15.0934 31.1131 15.0622C31.0741 15.0231 31.0584 15.5932 31.0741 16.3193L31.0975 17.6467H27.0762H23.0471L23.0237 16.3349L23.0002 15.031L23.0081 16.3584Z" fill="#E8E8E8"/>
<path d="M18.4004 24.7518C18.4004 28.0391 18.4082 29.3822 18.416 27.7424C18.4316 26.0949 18.4316 23.4088 18.416 21.769C18.4082 20.1215 18.4004 21.4645 18.4004 24.7518Z" fill="#E8E8E8"/>
<path d="M23.0072 24.7518C23.0072 28.0391 23.015 29.3822 23.0228 27.7424C23.0384 26.0949 23.0384 23.4088 23.0228 21.769C23.015 20.1215 23.0072 21.4645 23.0072 24.7518Z" fill="#E8E8E8"/>
<path d="M14.801 9.37808C14.3716 9.50302 13.8094 9.94028 13.5595 10.3385C13.3721 10.6508 13.3252 10.8226 13.294 11.2989C13.255 12.1266 13.4033 12.4546 14.1685 13.251L14.7932 13.8991H15.4413C15.8005 13.8991 16.0972 13.8757 16.0972 13.8366C16.0972 13.8054 15.7068 13.3916 15.2383 12.9231C14.6292 12.3218 14.3481 11.9783 14.2857 11.7752C14.028 10.9241 14.7932 10.1043 15.6599 10.3073C15.9176 10.3619 16.2456 10.6508 17.737 12.1344L19.5016 13.8991H20.7041H21.9066L23.6713 12.1422C25.5921 10.2292 25.7171 10.1433 26.3183 10.3073C26.6931 10.4088 27.0835 10.8226 27.1538 11.213C27.2475 11.7284 27.0913 12.0017 26.17 12.9231C25.7015 13.3916 25.311 13.8054 25.311 13.8366C25.311 13.8757 25.6 13.8991 25.9591 13.8991H26.615L27.2085 13.2823C27.9425 12.5248 28.1142 12.1813 28.122 11.4317C28.122 10.9944 28.083 10.7992 27.919 10.4791C27.4505 9.54206 26.3964 9.10479 25.3423 9.40932C24.8972 9.53425 24.8191 9.60452 22.7968 11.6191L20.7041 13.6961L18.6193 11.6191C16.6594 9.6748 16.5032 9.53425 16.105 9.41712C15.6365 9.28438 15.1758 9.26877 14.801 9.37808Z" fill="#CACACA"/>
<path d="M10.3735 15.0469C10.3423 15.0703 10.3188 15.6716 10.3188 16.3743V17.6471H14.3401H18.3614V16.3197V14.9923H14.3948C12.2085 14.9923 10.3969 15.0157 10.3735 15.0469Z" fill="#CACACA"/>
<path d="M19.5874 15.0391C19.5561 15.0703 19.5327 18.6075 19.5327 22.8943V30.687H20.704H21.8752L21.8596 22.8553L21.8362 15.0313L20.7352 15.0079C20.134 15.0001 19.6186 15.0157 19.5874 15.0391Z" fill="#CACACA"/>
<path d="M23.0464 16.3197V17.6471H27.0677H31.089L31.0734 16.3353L31.0499 15.0313L27.0521 15.0079L23.0464 14.9923V16.3197Z" fill="#CACACA"/>
<path d="M12.0522 24.5262L12.0757 30.2341L12.3333 30.4606L12.5832 30.687H15.4723H18.3614V24.7527V18.8183H15.199H12.0366L12.0522 24.5262Z" fill="#CACACA"/>
<path d="M23.0464 24.7527V30.687H25.9355H28.8246L29.0744 30.4606L29.3321 30.2341L29.3555 24.5262L29.3711 18.8183H26.2088H23.0464V24.7527Z" fill="#CACACA"/>
</g>
<defs>
<clipPath id="clip0_2009_2276">
<rect width="39.8938" height="39.9787" fill="white"/>
</clipPath>
</defs>
</svg>
