<svg width="40" height="40" viewBox="0 0 40 40" fill="none" xmlns="http://www.w3.org/2000/svg">
<g clip-path="url(#clip0_169_17480)">
<path d="M27.973 10.4633C28.1214 10.7444 28.1604 10.9396 28.1604 11.4394C28.1604 12.228 28.0043 12.5403 27.239 13.329L26.6925 13.899H25.9585C25.5603 13.899 25.2323 13.8756 25.2323 13.8443C25.2323 13.8131 25.6461 13.3758 26.1459 12.8683L27.0595 11.9547L27.0907 11.5018C27.1219 11.088 27.0985 11.0177 26.9111 10.7913C26.466 10.2603 25.9429 10.1666 25.3807 10.5336C25.1933 10.6585 24.3343 11.4628 23.4754 12.3295L21.9138 13.899H20.7113H19.501L17.7753 12.189C16.3542 10.7757 16.0028 10.4633 15.7296 10.3774C15.3001 10.2525 14.8941 10.3696 14.5739 10.6976C14.3631 10.9162 14.3397 10.9943 14.3397 11.4394V11.9469L15.2611 12.8605C15.7608 13.368 16.1746 13.8131 16.1746 13.8443C16.1746 13.8756 15.8467 13.899 15.4563 13.899H14.7379L15.2767 14.4456L15.8154 14.9922H17.1272H18.439V16.3586V17.7251H14.4021H10.3574L11.1773 18.5449L11.9972 19.3726L12.0206 19.0915L12.044 18.8182H15.2454H18.439V24.7916V30.7728L15.4719 30.7494L12.5047 30.7259L16.5026 34.7238L20.4692 38.6905L21.3281 38.7295C24.4437 38.7295 28.0277 37.6129 30.9168 35.7389C35.4925 32.7873 38.647 27.8056 39.2951 22.5038L39.4044 21.5121L33.595 15.9057C29.2458 11.5643 27.8403 10.1978 27.973 10.4633ZM21.8747 22.8786V30.765H20.7035H19.5322V22.8786V14.9922H20.7035H21.8747V22.8786ZM31.1276 16.3586V17.686L27.0516 17.7095L22.9679 17.7251V16.3586V14.9922L27.0516 15.0078L31.1276 15.0312V16.3586ZM29.3707 24.5027C29.3707 29.625 29.3551 30.2028 29.2458 30.3668C28.9803 30.7416 28.8007 30.765 25.7789 30.765H22.9679V24.7916V18.8182H26.1693H29.3707V24.5027Z" fill="#494949"/>
<path d="M18.4236 1.36668C14.2461 1.87422 10.3029 3.81069 7.37478 6.80128C4.392 9.84653 2.65855 13.3993 2.07292 17.6861C1.91676 18.8652 1.9558 21.6371 2.15101 22.8786C2.75225 26.6579 4.52474 30.2419 7.14053 32.9436C9.89688 35.8014 13.1764 37.5974 17.0103 38.3782C18.0722 38.589 19.5558 38.753 20.1024 38.7139L20.4694 38.6905L16.4012 34.6302C14.168 32.397 12.2706 30.5074 12.1925 30.4293C12.1144 30.3512 12.0286 30.1794 12.0051 30.0467C11.9817 29.914 11.9583 27.4465 11.9583 24.5652V19.318L11.0994 18.4669L10.2404 17.6236V16.3118V14.9922H13.028H15.8156L14.6365 13.7976C13.6683 12.8137 13.4419 12.5482 13.3404 12.2281C12.9656 11.1271 13.4106 9.98708 14.4101 9.47173C14.738 9.29995 14.9098 9.26091 15.3939 9.26871C15.7687 9.26871 16.0889 9.31557 16.2919 9.40146C16.5027 9.49516 17.2758 10.2057 18.6578 11.58L20.7036 13.618L22.7572 11.58C24.1315 10.2057 24.9045 9.49516 25.1153 9.40146C25.5916 9.19844 26.5052 9.21406 26.9503 9.4405C27.2002 9.56543 29.0976 11.4082 33.3297 15.6403C38.085 20.3878 39.3733 21.6293 39.4124 21.52C39.4436 21.4497 39.4436 20.6064 39.4202 19.6538C39.389 18.2639 39.3421 17.6939 39.1781 16.7803C38.452 12.6966 36.5467 9.15159 33.5483 6.32497C30.6514 3.58424 26.9659 1.8586 22.968 1.36668C21.8046 1.22613 19.6026 1.22613 18.4236 1.36668Z" fill="#494949"/>
<path d="M18.7353 11.713L20.703 13.7041L22.6785 11.713L24.6462 9.72185L22.6785 11.6739L20.703 13.626L18.7353 11.6739L16.7598 9.72185L18.7353 11.713Z" fill="#494949"/>
<path d="M13.832 12.9856C13.832 13.0012 13.9492 13.1105 14.0897 13.2433L14.3396 13.4697L14.1131 13.2121C13.8945 12.9778 13.832 12.9231 13.832 12.9856Z" fill="#494949"/>
<path d="M13.2325 11.4385C13.2325 11.6103 13.2481 11.6727 13.2637 11.5712C13.2793 11.4775 13.2793 11.337 13.2637 11.2589C13.2403 11.1886 13.2247 11.2667 13.2325 11.4385Z" fill="#494949"/>
<path d="M10.2726 15.0932C10.257 15.1478 10.2492 15.7569 10.257 16.4362L10.2804 17.6855H14.3407H18.4011V16.3347L18.4089 14.9917L18.3854 16.3191L18.362 17.6465H14.3329H10.3116L10.3351 16.3191C10.3507 15.5851 10.3507 14.9917 10.3351 14.9917C10.3272 14.9917 10.296 15.0385 10.2726 15.0932Z" fill="#494949"/>
<path d="M23.0078 16.3581V17.6855H27.0681H31.1285L31.1519 16.405C31.1597 15.6944 31.1441 15.0932 31.1129 15.0619C31.0738 15.0229 31.0582 15.5929 31.0738 16.3191L31.0972 17.6465H27.076H23.0469L23.0234 16.3347L23 15.0307L23.0078 16.3581Z" fill="#494949"/>
<path d="M18.4004 24.7515C18.4004 28.0388 18.4082 29.3818 18.416 27.742C18.4316 26.0945 18.4316 23.4084 18.416 21.7687C18.4082 20.1211 18.4004 21.4641 18.4004 24.7515Z" fill="#494949"/>
<path d="M23.0078 24.7515C23.0078 28.0388 23.0156 29.3818 23.0234 27.742C23.039 26.0945 23.039 23.4084 23.0234 21.7687C23.0156 20.1211 23.0078 21.4641 23.0078 24.7515Z" fill="#494949"/>
<path d="M14.7998 9.37741C14.3703 9.50234 13.8081 9.93961 13.5583 10.3378C13.3709 10.6502 13.324 10.822 13.2928 11.2983C13.2538 12.1259 13.4021 12.4539 14.1673 13.2503L14.792 13.8984H15.4401C15.7993 13.8984 16.096 13.875 16.096 13.836C16.096 13.8047 15.7056 13.3909 15.2371 12.9224C14.628 12.3212 14.3469 11.9776 14.2845 11.7746C14.0268 10.9235 14.792 10.1036 15.6587 10.3066C15.9164 10.3613 16.2443 10.6502 17.7357 12.1338L19.5004 13.8984H20.7029H21.9054L23.6701 12.1416C25.5909 10.2285 25.7159 10.1426 26.3171 10.3066C26.6919 10.4081 27.0823 10.822 27.1526 11.2124C27.2463 11.7277 27.0901 12.001 26.1687 12.9224C25.7002 13.3909 25.3098 13.8047 25.3098 13.836C25.3098 13.875 25.5987 13.8984 25.9579 13.8984H26.6138L27.2072 13.2816C27.9412 12.5242 28.113 12.1806 28.1208 11.431C28.1208 10.9937 28.0818 10.7985 27.9178 10.4784C27.4493 9.54139 26.3952 9.10412 25.3411 9.40864C24.896 9.53358 24.8179 9.60385 22.7955 11.6184L20.7029 13.6954L18.6181 11.6184C16.6582 9.67413 16.502 9.53358 16.1038 9.41645C15.6353 9.28371 15.1746 9.26809 14.7998 9.37741Z" fill="#A9A9A9"/>
<path d="M10.373 15.0463C10.3418 15.0697 10.3184 15.671 10.3184 16.3737V17.6465H14.3397H18.3609V16.3191V14.9917H14.3943C12.208 14.9917 10.3964 15.0151 10.373 15.0463Z" fill="#A9A9A9"/>
<path d="M19.5879 15.0386C19.5566 15.0699 19.5332 18.607 19.5332 22.8938V30.6865H20.7045H21.8757L21.8601 22.8548L21.8367 15.0308L20.7357 15.0074C20.1344 14.9996 19.6191 15.0152 19.5879 15.0386Z" fill="#A9A9A9"/>
<path d="M23.0469 16.3191V17.6465H27.0682H31.0895L31.0738 16.3347L31.0504 15.0307L27.0526 15.0073L23.0469 14.9917V16.3191Z" fill="#A9A9A9"/>
<path d="M12.0527 24.5257L12.0762 30.2336L12.3338 30.4601L12.5837 30.6865H15.4728H18.3619V24.7522V18.8179H15.1995H12.0371L12.0527 24.5257Z" fill="#A9A9A9"/>
<path d="M23.0469 24.7522V30.6865H25.936H28.825L29.0749 30.4601L29.3326 30.2336L29.356 24.5257L29.3716 18.8179H26.2093H23.0469V24.7522Z" fill="#A9A9A9"/>
</g>
<defs>
<clipPath id="clip0_169_17480">
<rect width="39.8938" height="39.9787" fill="white"/>
</clipPath>
</defs>
</svg>
