<svg width="124" height="36" viewBox="0 0 124 36" fill="none" xmlns="http://www.w3.org/2000/svg">
<path d="M118.764 35.6293H4.56786C2.05668 35.6293 0 33.624 0 31.1756V4.45368C0 2.00528 2.05668 1.62125e-05 4.56786 1.62125e-05H118.764C121.275 1.62125e-05 123.332 2.00528 123.332 4.45368V31.1756C123.332 33.624 121.275 35.6293 118.764 35.6293Z" fill="#83B2C0"/>
<path d="M118.764 0.713715C120.879 0.713715 122.6 2.39163 122.6 4.45368V31.1756C122.6 33.2377 120.879 34.9156 118.764 34.9156H4.56786C2.45294 34.9156 0.731999 33.2377 0.731999 31.1756V4.45368C0.731999 2.39163 2.45294 0.713715 4.56786 0.713715H118.764ZM118.764 1.62125e-05H4.56786C2.05668 1.62125e-05 0 2.00528 0 4.45368V31.1756C0 33.624 2.05668 35.6293 4.56786 35.6293H118.764C121.275 35.6293 123.332 33.624 123.332 31.1756V4.45368C123.332 2.00528 121.275 1.62125e-05 118.764 1.62125e-05Z" fill="#83B2C0"/>
<path d="M8.84798 6.71463C8.57962 6.98853 8.42432 7.41497 8.42432 7.96722V27.6658C8.42432 28.218 8.57962 28.6445 8.84798 28.9184L8.91422 28.9785L20.2356 17.9445V17.684L8.91422 6.65005L8.84798 6.71463Z" fill="white"/>
<path d="M25.3757 21.6243L21.6061 17.9444V17.6839L25.3803 14.0041L25.4648 14.0519L29.9344 16.5315C31.21 17.2352 31.21 18.3931 29.9344 19.1013L25.4648 21.5764L25.3757 21.6243Z" fill="white"/>
<path d="M24.7794 22.2618L20.9207 18.4995L9.53308 29.6036C9.95675 30.0378 10.6476 30.0902 11.4333 29.6559L24.7794 22.2618Z" fill="white"/>
<path d="M24.7794 13.367L11.4333 5.97282C10.6476 5.54305 9.95675 5.59537 9.53308 6.02961L20.9207 17.1292L24.7794 13.367Z" fill="white"/>
<path d="M43.3196 9.12443C43.3196 9.86819 43.0912 10.4639 42.6413 10.9081C42.124 11.4348 41.4502 11.6998 40.6246 11.6998C39.8355 11.6998 39.1617 11.4303 38.609 10.8992C38.0552 10.3603 37.7788 9.69895 37.7788 8.90731C37.7788 8.11568 38.0552 7.45431 38.609 6.91987C39.1617 6.38432 39.8355 6.11487 40.6246 6.11487C41.0174 6.11487 41.392 6.19392 41.7494 6.34089C42.1057 6.48898 42.3958 6.68939 42.6059 6.93657L42.1285 7.40643C41.762 6.98445 41.2629 6.77624 40.6246 6.77624C40.049 6.77624 39.55 6.9722 39.1263 7.36746C38.7072 7.76384 38.4971 8.27712 38.4971 8.90731C38.4971 9.53751 38.7072 10.0552 39.1263 10.4516C39.55 10.8424 40.049 11.0428 40.6246 11.0428C41.2355 11.0428 41.7494 10.8424 42.1548 10.4472C42.422 10.1855 42.5739 9.82477 42.6139 9.36381H40.6246V8.72026H43.2785C43.3105 8.85944 43.3196 8.99416 43.3196 9.12443Z" fill="white" stroke="white" stroke-width="0.119595" stroke-miterlimit="10"/>
<path d="M47.5302 6.89294H45.0373V8.58533H47.2847V9.22888H45.0373V10.9213H47.5302V11.5771H44.3315V6.23714H47.5302V6.89294Z" fill="white" stroke="white" stroke-width="0.119595" stroke-miterlimit="10"/>
<path d="M50.5014 11.5771H49.7957V6.89294H48.2666V6.23714H52.0317V6.89294H50.5014V11.5771Z" fill="white" stroke="white" stroke-width="0.119595" stroke-miterlimit="10"/>
<path d="M54.7562 11.5771V6.23714H55.4608V11.5771H54.7562Z" fill="white" stroke="white" stroke-width="0.119595" stroke-miterlimit="10"/>
<path d="M58.5842 11.5771H57.8842V6.89294H56.3494V6.23714H60.119V6.89294H58.5842V11.5771Z" fill="white" stroke="white" stroke-width="0.119595" stroke-miterlimit="10"/>
<path d="M67.2471 10.8903C66.707 11.4303 66.0378 11.6998 65.2396 11.6998C64.4368 11.6998 63.7676 11.4303 63.2274 10.8903C62.6884 10.3514 62.42 9.69004 62.42 8.90731C62.42 8.12458 62.6884 7.46321 63.2274 6.92432C63.7676 6.38431 64.4368 6.11487 65.2396 6.11487C66.0332 6.11487 66.7024 6.38431 67.2426 6.92877C67.7861 7.47212 68.0545 8.12904 68.0545 8.90731C68.0545 9.69004 67.7861 10.3514 67.2471 10.8903ZM63.7493 10.4427C64.1558 10.8424 64.6503 11.0428 65.2396 11.0428C65.8242 11.0428 66.3233 10.8424 66.7253 10.4427C67.1306 10.043 67.3362 9.52971 67.3362 8.90731C67.3362 8.28491 67.1306 7.77163 66.7253 7.37191C66.3233 6.9722 65.8242 6.77178 65.2396 6.77178C64.6503 6.77178 64.1558 6.9722 63.7493 7.37191C63.3439 7.77163 63.1383 8.28491 63.1383 8.90731C63.1383 9.52971 63.3439 10.043 63.7493 10.4427Z" fill="white" stroke="white" stroke-width="0.119595" stroke-miterlimit="10"/>
<path d="M69.0447 11.5771V6.23714H69.9012L72.5642 10.3902H72.595L72.5642 9.36361V6.23714H73.2688V11.5771H72.5334L69.7447 7.21917H69.7139L69.7447 8.25019V11.5771H69.0447Z" fill="white" stroke="white" stroke-width="0.119595" stroke-miterlimit="10"/>
<path d="M62.2463 19.3756C60.1005 19.3756 58.3476 20.9678 58.3476 23.1646C58.3476 25.3435 60.1005 26.9524 62.2463 26.9524C64.3966 26.9524 66.1495 25.3435 66.1495 23.1646C66.1495 20.9678 64.3966 19.3756 62.2463 19.3756ZM62.2463 25.4604C61.0689 25.4604 60.056 24.5129 60.056 23.1646C60.056 21.7984 61.0689 20.8676 62.2463 20.8676C63.4236 20.8676 64.4411 21.7984 64.4411 23.1646C64.4411 24.5129 63.4236 25.4604 62.2463 25.4604ZM53.7398 19.3756C51.5894 19.3756 49.8411 20.9678 49.8411 23.1646C49.8411 25.3435 51.5894 26.9524 53.7398 26.9524C55.8889 26.9524 57.6384 25.3435 57.6384 23.1646C57.6384 20.9678 55.8889 19.3756 53.7398 19.3756ZM53.7398 25.4604C52.5613 25.4604 51.5449 24.5129 51.5449 23.1646C51.5449 21.7984 52.5613 20.8676 53.7398 20.8676C54.9171 20.8676 55.9301 21.7984 55.9301 23.1646C55.9301 24.5129 54.9171 25.4604 53.7398 25.4604ZM43.6174 20.5369V22.1469H47.5606C47.4453 23.0465 47.1369 23.7079 46.6642 24.1689C46.0886 24.7256 45.1922 25.3435 43.6174 25.3435C41.1907 25.3435 39.2905 23.434 39.2905 21.068C39.2905 18.702 41.1907 16.7925 43.6174 16.7925C44.9295 16.7925 45.8842 17.2924 46.5888 17.9404L47.7524 16.8058C46.7669 15.8884 45.456 15.1836 43.6174 15.1836C40.2897 15.1836 37.493 17.8235 37.493 21.068C37.493 24.3125 40.2897 26.9524 43.6174 26.9524C45.416 26.9524 46.7669 26.3779 47.829 25.3001C48.9172 24.239 49.2564 22.747 49.2564 21.5423C49.2564 21.1682 49.2244 20.8242 49.1673 20.5369H43.6174ZM85.009 21.785C84.6881 20.9377 83.698 19.3756 81.6813 19.3756C79.6829 19.3756 78.0191 20.911 78.0191 23.1646C78.0191 25.2867 79.6658 26.9524 81.8732 26.9524C83.6581 26.9524 84.6881 25.8913 85.1118 25.2734L83.7871 24.4127C83.3452 25.0429 82.7434 25.4604 81.8732 25.4604C81.0087 25.4604 80.3886 25.0741 79.9912 24.3125L85.1883 22.2159L85.009 21.785ZM79.7103 23.0465C79.6658 21.5857 80.874 20.8375 81.7396 20.8375C82.4179 20.8375 82.9935 21.1682 83.1853 21.6414L79.7103 23.0465ZM75.4862 26.7219H77.1946V15.5878H75.4862V26.7219ZM72.6884 20.2196H72.6313C72.2476 19.7764 71.5156 19.3756 70.5883 19.3756C68.6424 19.3756 66.8632 21.0413 66.8632 23.1768C66.8632 25.3001 68.6424 26.9524 70.5883 26.9524C71.5156 26.9524 72.2476 26.5482 72.6313 26.0917H72.6884V26.6351C72.6884 28.0836 71.8947 28.8619 70.6146 28.8619C69.5708 28.8619 68.9233 28.1271 68.6561 27.5091L67.1704 28.1137C67.5986 29.118 68.7326 30.3539 70.6146 30.3539C72.6176 30.3539 74.3077 29.2048 74.3077 26.4091V19.6061H72.6884V20.2196ZM70.7345 25.4604C69.5571 25.4604 68.5716 24.4995 68.5716 23.1768C68.5716 21.8418 69.5571 20.8676 70.7345 20.8676C71.8947 20.8676 72.8094 21.8418 72.8094 23.1768C72.8094 24.4995 71.8947 25.4604 70.7345 25.4604ZM93.0073 15.5878H88.9214V26.7219H90.6252V22.5032H93.0073C94.8996 22.5032 96.7553 21.1682 96.7553 19.0449C96.7553 16.9228 94.895 15.5878 93.0073 15.5878ZM93.0519 20.9544H90.6252V17.1365H93.0519C94.324 17.1365 95.0503 18.1664 95.0503 19.0449C95.0503 19.9067 94.324 20.9544 93.0519 20.9544ZM103.584 19.3545C102.353 19.3545 101.073 19.8844 100.547 21.0591L102.059 21.677C102.384 21.0591 102.982 20.8587 103.615 20.8587C104.499 20.8587 105.395 21.3764 105.409 22.2905V22.4074C105.101 22.2337 104.441 21.9765 103.629 21.9765C102 21.9765 100.341 22.8506 100.341 24.4817C100.341 25.9737 101.675 26.9346 103.174 26.9346C104.321 26.9346 104.953 26.4302 105.351 25.8434H105.409V26.7041H107.055V22.433C107.055 20.459 105.543 19.3545 103.584 19.3545ZM103.379 25.456C102.821 25.456 102.045 25.1865 102.045 24.5129C102.045 23.6511 103.013 23.3204 103.851 23.3204C104.602 23.3204 104.953 23.4819 105.409 23.6945C105.275 24.7256 104.365 25.456 103.379 25.456ZM113.05 19.5983L111.091 24.4249H111.033L109.009 19.5983H107.171L110.213 26.3434L108.478 30.0967H110.258L114.946 19.5983H113.05ZM97.6917 26.7219H99.4001V15.5878H97.6917V26.7219Z" fill="white"/>
</svg>
