<svg width="23" stroke="#ED695D" height="20" viewBox="0 0 23 20" fill="none" xmlns="http://www.w3.org/2000/svg">
<path d="M21.3987 6.02529C21.3987 7.30435 20.9135 8.59444 19.9322 9.5758L18.3003 11.2077L11.2764 18.2315C11.2434 18.2646 11.2323 18.2756 11.1993 18.2977C11.1662 18.2756 11.1552 18.2646 11.1221 18.2315L2.46633 9.5758C1.48498 8.59444 0.999817 7.31538 0.999817 6.02529C0.999817 4.7352 1.48498 3.44511 2.46633 2.46376C4.42904 0.512081 7.60464 0.512081 9.56734 2.46376L11.1882 4.09566L12.8201 2.46376C14.7828 0.512081 17.9474 0.512081 19.9101 2.46376C20.9135 3.44511 21.3987 4.72417 21.3987 6.02529Z"  stroke-width="1.5" stroke-linecap="round" stroke-linejoin="round"/>
</svg>
