<svg width="32" height="32" viewBox="0 0 32 32" fill="none" xmlns="http://www.w3.org/2000/svg">
<path opacity="0.978" fill-rule="evenodd" clip-rule="evenodd" d="M5.65614 2.59376C5.94241 2.56959 6.21324 2.62168 6.46864 2.75001C8.92346 3.9965 10.7464 5.86108 11.9374 8.34376C12.7755 10.3946 12.9421 12.4988 12.4374 14.6563C11.9358 16.2406 11.04 17.5531 9.74989 18.5938C9.08127 17.9444 8.68546 17.1527 8.56239 16.2188C8.45833 14.9371 8.63539 13.6976 9.09364 12.5C6.00776 13.7202 4.44526 16.0014 4.40614 19.3438C2.72336 18.506 1.92127 17.1519 1.99989 15.2813C2.26736 14.5963 2.68402 14.0129 3.24989 13.5313C4.29769 12.3116 5.08936 10.9366 5.62489 9.40626C6.03147 7.97982 6.07313 6.54232 5.74989 5.09376C5.55153 4.49867 5.35362 3.90492 5.15614 3.31251C5.17799 2.96514 5.34466 2.72556 5.65614 2.59376Z" fill="#F25656"/>
<path opacity="0.968" fill-rule="evenodd" clip-rule="evenodd" d="M28.5938 3.78122C29.2725 3.70922 29.8246 3.93838 30.25 4.46872C31.4606 6.23702 31.7523 8.15366 31.125 10.2187C30.8535 11.1067 30.4682 11.94 29.9688 12.7187C29.5891 12.2032 29.1725 11.7136 28.7188 11.25C28.3419 10.9785 27.9669 10.7077 27.5938 10.4375C28.0845 9.52678 28.2825 8.55803 28.1875 7.53122C28.1377 7.31916 28.0752 7.11085 28 6.90622C27.8125 6.61453 27.625 6.32291 27.4375 6.03122C27.1128 4.90977 27.4982 4.15977 28.5938 3.78122Z" fill="#F25656"/>
<path opacity="0.989" fill-rule="evenodd" clip-rule="evenodd" d="M24.0313 11.5938C26.6659 11.6557 28.2805 12.9682 28.8751 15.5312C29.209 17.987 28.6256 20.1953 27.1251 22.1562C21.2893 28.2466 14.279 30.2154 6.09384 28.0625C4.35657 27.5379 2.79407 26.7046 1.40634 25.5625C0.90538 25.1329 0.572046 24.6016 0.406336 23.9688C0.402491 23.7119 0.527491 23.5557 0.781336 23.5C2.01 23.4996 3.23917 23.4579 4.46884 23.375C7.78427 23.0898 10.7426 21.9231 13.3438 19.875C15.3238 18.2702 17.0426 16.4264 18.5001 14.3438C19.933 12.6013 21.7768 11.6846 24.0313 11.5938Z" fill="#F25656"/>
</svg>
