<svg width="21" height="22" viewBox="0 0 21 22" fill="none" xmlns="http://www.w3.org/2000/svg">
<path d="M10.5 2.5C13.25 2.5 13.625 2.5 14.75 2.5C15.75 2.5 16.25 2.75 16.625 2.875C17.125 3.125 17.5 3.25 17.875 3.625C18.25 4 18.5 4.375 18.625 4.875C18.75 5.25 18.875 5.75 19 6.75C19 7.875 19 8.125 19 11C19 13.875 19 14.125 19 15.25C19 16.25 18.75 16.75 18.625 17.125C18.375 17.625 18.25 18 17.875 18.375C17.5 18.75 17.125 19 16.625 19.125C16.25 19.25 15.75 19.375 14.75 19.5C13.625 19.5 13.375 19.5 10.5 19.5C7.625 19.5 7.375 19.5 6.25 19.5C5.25 19.5 4.75 19.25 4.375 19.125C3.875 18.875 3.5 18.75 3.125 18.375C2.75 18 2.5 17.625 2.375 17.125C2.25 16.75 2.125 16.25 2 15.25C2 14.125 2 13.875 2 11C2 8.125 2 7.875 2 6.75C2 5.75 2.25 5.25 2.375 4.875C2.625 4.375 2.75 4 3.125 3.625C3.5 3.25 3.875 3 4.375 2.875C4.75 2.75 5.25 2.625 6.25 2.5C7.375 2.5 7.75 2.5 10.5 2.5ZM10.5 0.625C7.625 0.625 7.375 0.625 6.25 0.625C5.125 0.625 4.375 0.875001 3.75 1.125C3.125 1.375 2.5 1.75 1.875 2.375C1.25 3 1 3.5 0.625001 4.25C0.375001 4.875 0.25 5.625 0.125 6.75C0.125 7.875 0.125 8.25 0.125 11C0.125 13.875 0.125 14.125 0.125 15.25C0.125 16.375 0.375001 17.125 0.625001 17.75C0.875001 18.375 1.25 19 1.875 19.625C2.5 20.25 3 20.5 3.75 20.875C4.375 21.125 5.125 21.25 6.25 21.375C7.375 21.375 7.75 21.375 10.5 21.375C13.25 21.375 13.625 21.375 14.75 21.375C15.875 21.375 16.625 21.125 17.25 20.875C17.875 20.625 18.5 20.25 19.125 19.625C19.75 19 20 18.5 20.375 17.75C20.625 17.125 20.75 16.375 20.875 15.25C20.875 14.125 20.875 13.75 20.875 11C20.875 8.25 20.875 7.875 20.875 6.75C20.875 5.625 20.625 4.875 20.375 4.25C20.125 3.625 19.75 3 19.125 2.375C18.5 1.75 18 1.5 17.25 1.125C16.625 0.875001 15.875 0.75 14.75 0.625C13.625 0.625 13.375 0.625 10.5 0.625Z" fill="white"/>
<path d="M10.5 5.625C7.5 5.625 5.125 8 5.125 11C5.125 14 7.5 16.375 10.5 16.375C13.5 16.375 15.875 14 15.875 11C15.875 8 13.5 5.625 10.5 5.625ZM10.5 14.5C8.625 14.5 7 13 7 11C7 9.125 8.5 7.5 10.5 7.5C12.375 7.5 14 9 14 11C14 12.875 12.375 14.5 10.5 14.5Z" fill="white"/>
<path d="M16 6.75C16.6904 6.75 17.25 6.19036 17.25 5.5C17.25 4.80964 16.6904 4.25 16 4.25C15.3096 4.25 14.75 4.80964 14.75 5.5C14.75 6.19036 15.3096 6.75 16 6.75Z" fill="white"/>
</svg>
