<svg width="41" height="40" viewBox="0 0 41 40" fill="none" xmlns="http://www.w3.org/2000/svg">
<path d="M39.1032 30.8236L38.5612 26.4868L37.9685 1.57996L37.9536 1.5805C37.9507 1.45458 37.9221 1.33001 37.8426 1.22902C37.7304 1.08429 37.5576 1 37.3747 1H13.6248C13.3523 1 13.1148 1.18581 13.0488 1.45008L11.8613 6.20006C11.8167 6.37766 11.8571 6.56532 11.9695 6.70899C12.0729 6.84152 12.2285 6.91495 12.3946 6.92741L11.6347 17.6251H4.43373C3.89459 17.6251 3.41962 17.9856 3.28017 18.4998L1.79688 23.8388C1.69537 24.195 1.76534 24.5691 1.98986 24.8665C2.21835 25.1699 2.56823 25.3439 2.94942 25.3439H2.98919L3.47664 30.6876H2.9375C2.28252 30.6876 1.75 31.2201 1.75 31.8751V37.8125C1.75 38.4675 2.28252 39 2.9375 39H38.5623C39.2173 39 39.7498 38.4675 39.7498 37.8125V31.8751C39.7498 31.416 39.4855 31.0213 39.1032 30.8236ZM36.8859 5.99744L37.3747 26.5445C37.3747 26.5646 37.3765 26.5843 37.3789 26.6044L37.8894 30.687H34.4844L34.9986 26.5658L36.1533 6.93678H36.1872C36.4597 6.93678 36.6972 6.75096 36.7632 6.48669L36.8859 5.99744ZM35.7236 5.74988H27.2808V2.18739H36.6139L35.7236 5.74988ZM22.5308 2.18739H26.0933V7.16429L25.7649 7.00047C25.5982 6.91671 25.401 6.91671 25.2335 7.00047L24.3122 7.46116L23.3899 7.00047C23.2232 6.91671 23.0261 6.91671 22.8585 7.00047L22.5309 7.16429L22.5308 2.18739ZM13.5846 6.93737H20.1561C20.4838 6.93737 20.7499 6.67204 20.7499 6.34362C20.7499 6.01521 20.4838 5.74988 20.1561 5.74988H13.1981L14.0888 2.18739H21.344V8.12487C21.344 8.33083 21.4508 8.52141 21.6255 8.63009C21.8006 8.73877 22.0196 8.74777 22.2034 8.65633L23.1252 8.19485L24.0474 8.65553C24.2141 8.7393 24.4113 8.7393 24.5788 8.65553L25.5002 8.19485L26.4224 8.65553C26.5062 8.69794 26.5968 8.71862 26.6877 8.71862C26.7964 8.71862 26.9045 8.68893 27 8.63009C27.1747 8.52141 27.2815 8.33082 27.2815 8.12487V6.93737H34.9649L33.8177 26.4571L33.2887 30.687H20.212L20.6994 25.3433H20.7391C21.1204 25.3433 21.47 25.1694 21.6992 24.8659C21.9229 24.5685 21.9937 24.1937 21.8933 23.8422L20.4094 18.5014C20.2684 17.985 19.7934 17.6246 19.2543 17.6246H12.8264L13.5846 6.93737ZM4.43344 18.8124L19.2636 18.8171L20.7379 24.1561H3.53142L2.93952 24.1608L4.43344 18.8124ZM10.0621 25.3436H13.6246V26.5311H10.0621V25.3436ZM8.8746 25.3436V26.5311C8.8746 27.186 9.40712 27.7186 10.0621 27.7186H13.6246C14.2795 27.7186 14.8121 27.186 14.8121 26.5311V25.3436H19.4998L18.9683 30.6872L4.66883 30.6868L4.1819 25.3436H8.8746ZM38.562 37.8122H2.93713V31.8747H23.7183V34.2497H17.7808V33.0622C17.7808 32.7338 17.5146 32.4685 17.1871 32.4685C16.8594 32.4685 16.5933 32.7338 16.5933 33.0622V34.2497C16.5933 34.9048 17.1258 35.4372 17.7808 35.4372H23.7183C24.3732 35.4372 24.9058 34.9048 24.9058 34.2497V31.8747H38.562V37.8122Z" fill="#FBBB1F" stroke="#FBBB1F" stroke-width="0.47619"/>
</svg>
