<svg width="40" height="40" viewBox="0 0 40 40" fill="none" xmlns="http://www.w3.org/2000/svg">
<g clip-path="url(#clip0_45_17654)">
<g clip-path="url(#clip1_45_17654)">
<path d="M16 40C24.8366 40 32 32.8366 32 24C32 15.1634 24.8366 8 16 8C7.16344 8 0 15.1634 0 24C0 32.8366 7.16344 40 16 40Z" fill="#E31E24" fill-opacity="0.1"/>
<g clip-path="url(#clip2_45_17654)">
<path opacity="0.949" fill-rule="evenodd" clip-rule="evenodd" d="M16.6562 0.96875C16.8645 0.96875 17.0729 0.96875 17.2812 0.96875C18.8784 1.80382 20.493 2.61632 22.125 3.40625C22.9804 2.60285 23.8242 1.79035 24.6562 0.96875C24.8645 0.96875 25.0729 0.96875 25.2812 0.96875C26.1133 1.79035 26.957 2.60285 27.8125 3.40625C29.4445 2.61632 31.059 1.80382 32.6562 0.96875C32.8645 0.96875 33.0729 0.96875 33.2812 0.96875C33.6033 1.19771 33.7179 1.51021 33.625 1.90625C32.701 3.78545 31.7531 5.65004 30.7812 7.5C30.6979 7.54169 30.6145 7.58331 30.5312 7.625C26.8229 7.66669 23.1145 7.66669 19.4062 7.625C19.3229 7.58331 19.2395 7.54169 19.1562 7.5C18.1843 5.65004 17.2364 3.78545 16.3125 1.90625C16.2195 1.51021 16.3341 1.19771 16.6562 0.96875ZM24.9062 2.65625C24.9524 2.64806 24.9941 2.65848 25.0312 2.6875C25.783 3.46019 26.5538 4.21019 27.3437 4.9375C27.552 4.97917 27.7604 4.97917 27.9687 4.9375C29.0856 4.35809 30.2106 3.81642 31.3437 3.3125C30.8437 4.29167 30.3437 5.27083 29.8437 6.25C26.5937 6.29167 23.3437 6.29167 20.0937 6.25C19.5937 5.27083 19.0937 4.29167 18.5937 3.3125C19.6852 3.79557 20.7685 4.31641 21.8437 4.875C22.1371 4.99574 22.4288 4.99574 22.7187 4.875C23.4605 4.14366 24.1897 3.40407 24.9062 2.65625Z" fill="#E31E24"/>
<path opacity="0.964" fill-rule="evenodd" clip-rule="evenodd" d="M19.3438 8.96876C23.0939 8.95832 26.8439 8.96876 30.5938 9.00001C30.8722 9.12945 30.9972 9.3482 30.9688 9.65626C30.9592 9.98945 30.7925 10.2082 30.4688 10.3125C26.8022 10.3542 23.1355 10.3542 19.4688 10.3125C18.9651 10.0972 18.8297 9.73257 19.0626 9.21876C19.1499 9.12063 19.2437 9.03726 19.3438 8.96876Z" fill="#E31E24"/>
<path opacity="0.95" fill-rule="evenodd" clip-rule="evenodd" d="M26.3436 32.9688C25.4269 32.9688 24.5103 32.9688 23.5936 32.9688C20.6269 32.7142 17.981 31.6621 15.6561 29.8125C13.9123 28.3563 12.8185 26.5126 12.3749 24.2813C12.135 22.9077 12.3225 21.5952 12.9374 20.3438C13.8333 18.5086 14.9167 16.8003 16.1874 15.2188C17.1186 14.0268 18.1081 12.881 19.1561 11.7813C19.2444 11.6996 19.3486 11.6475 19.4686 11.625C23.1353 11.5833 26.8019 11.5833 30.4686 11.625C30.5887 11.6475 30.6929 11.6996 30.7811 11.7813C32.5501 13.6849 34.1647 15.7058 35.6249 17.8438C38.6749 22.223 38.227 26.2125 34.2811 29.8125C31.9561 31.6622 29.3102 32.7143 26.3436 32.9688ZM19.9686 12.9688C23.302 12.9583 26.6354 12.9688 29.9686 13C32.2341 15.3542 34.1403 17.9688 35.6874 20.8438C36.433 22.342 36.4747 23.8628 35.8124 25.4063C35.0169 27.1808 33.7981 28.5871 32.1561 29.625C28.653 31.6403 24.9447 32.1195 21.0311 31.0625C18.9941 30.4873 17.2337 29.456 15.7499 27.9688C14.4699 26.5888 13.772 24.9534 13.6561 23.0625C13.7743 21.9578 14.1181 20.9266 14.6874 19.9688C16.1971 17.4483 17.9576 15.115 19.9686 12.9688Z" fill="#E31E24"/>
</g>
</g>
</g>
<defs>
<clipPath id="clip0_45_17654">
<rect width="40" height="40" fill="white"/>
</clipPath>
<clipPath id="clip1_45_17654">
<rect width="40" height="40" fill="white"/>
</clipPath>
<clipPath id="clip2_45_17654">
<rect width="32" height="32" fill="white" transform="translate(9 1)"/>
</clipPath>
</defs>
</svg>
