<svg width="300" height="155" viewBox="0 0 300 155" fill="none" xmlns="http://www.w3.org/2000/svg">
<g clip-path="url(#clip0_18_28240)">
<path d="M50.3415 145.437C50.1012 145.448 49.8632 145.386 49.6599 145.258C49.4566 145.131 49.2978 144.945 49.2049 144.726C49.1121 144.506 49.0898 144.264 49.1409 144.031C49.1921 143.799 49.3143 143.588 49.491 143.426L49.5714 143.11C49.5608 143.085 49.5502 143.06 49.5395 143.034C49.2973 142.469 48.8916 141.987 48.3731 141.649C47.8547 141.31 47.2468 141.131 46.6257 141.134C46.0045 141.136 45.398 141.319 44.8821 141.661C44.3662 142.003 43.9641 142.488 43.7262 143.056C42.7754 145.319 41.5649 147.587 41.2668 149.981C41.1355 151.039 41.1909 152.111 41.4305 153.15C39.1973 148.335 38.0377 143.101 38.0303 137.803C38.0298 136.474 38.1045 135.146 38.2541 133.824C38.3776 132.741 38.5491 131.666 38.7684 130.598C39.9654 124.806 42.5352 119.376 46.2669 114.756C48.0731 113.782 49.5337 112.284 50.452 110.464C50.7847 109.809 51.0199 109.111 51.1501 108.39C50.9464 108.416 50.3819 105.349 50.5356 105.161C50.2516 104.735 49.7434 104.523 49.4334 104.107C47.8911 102.04 45.7663 102.401 44.657 105.21C42.2874 106.392 42.2644 108.353 43.7184 110.239C44.6435 111.439 44.7706 113.062 45.5822 114.347C45.4987 114.452 45.4119 114.555 45.3284 114.66C43.8019 116.601 42.4715 118.684 41.3562 120.881C41.6275 118.42 41.3038 115.93 40.4118 113.617C39.5077 111.461 37.8132 109.645 36.321 107.781C34.5286 105.543 30.8532 106.52 30.5374 109.358C30.5343 109.385 30.5314 109.412 30.5285 109.44C30.7501 109.564 30.9671 109.695 31.1793 109.834C31.446 110.01 31.6527 110.261 31.7722 110.556C31.8917 110.85 31.9186 111.173 31.8492 111.482C31.7798 111.792 31.6175 112.074 31.3834 112.29C31.1494 112.507 30.8545 112.649 30.5375 112.697L30.5051 112.702C30.584 113.492 30.7236 114.274 30.9226 115.043C29.0083 122.362 33.1411 125.027 39.0423 125.147C39.1726 125.213 39.2995 125.279 39.4298 125.342C38.3093 128.481 37.6064 131.751 37.3389 135.069C37.1875 137.027 37.1964 138.994 37.3656 140.95L37.3556 140.881C36.928 138.705 35.7542 136.742 34.0322 135.324C31.4747 133.247 27.8614 132.482 25.1022 130.812C24.809 130.626 24.468 130.527 24.1196 130.526C23.7711 130.525 23.4297 130.623 23.1355 130.808C22.8414 130.992 22.6068 131.256 22.4595 131.569C22.3121 131.881 22.2581 132.228 22.3039 132.569C22.3076 132.594 22.3114 132.618 22.3152 132.642C22.7265 132.808 23.127 132.999 23.5143 133.214C23.7359 133.337 23.9529 133.468 24.1652 133.607C24.4318 133.783 24.6385 134.035 24.758 134.329C24.8775 134.623 24.9044 134.946 24.835 135.256C24.7656 135.566 24.6033 135.847 24.3692 136.064C24.1352 136.281 23.8403 136.423 23.5234 136.471L23.4909 136.476C23.4675 136.479 23.4475 136.482 23.4241 136.486C24.1269 138.145 25.1132 139.671 26.34 140.999C27.537 147.388 32.678 147.994 38.1773 146.134H38.1806C38.784 148.726 39.6582 151.249 40.7892 153.662H50.108C50.1415 153.56 50.1715 153.454 50.2016 153.352C49.339 153.405 48.4731 153.354 47.623 153.2C48.3144 152.361 49.0058 151.516 49.6972 150.677C49.7127 150.662 49.7272 150.645 49.7407 150.628C50.0914 150.199 50.4454 149.773 50.7961 149.343L50.7963 149.343C50.815 148.027 50.6623 146.714 50.3419 145.437L50.3415 145.437Z" fill="#F7F7F7" fill-opacity="0.1"/>
<path d="M244.98 145.437C245.221 145.448 245.459 145.386 245.662 145.258C245.865 145.131 246.024 144.945 246.117 144.726C246.21 144.506 246.232 144.264 246.181 144.031C246.13 143.799 246.008 143.588 245.831 143.426L245.751 143.11C245.761 143.085 245.772 143.06 245.783 143.034C246.025 142.469 246.43 141.987 246.949 141.649C247.467 141.31 248.075 141.131 248.696 141.134C249.317 141.136 249.924 141.319 250.44 141.661C250.956 142.003 251.358 142.488 251.596 143.056C252.547 145.319 253.757 147.587 254.055 149.981C254.186 151.039 254.131 152.111 253.892 153.15C256.125 148.335 257.284 143.101 257.292 137.803C257.292 136.474 257.218 135.146 257.068 133.824C256.944 132.741 256.773 131.666 256.554 130.598C255.357 124.806 252.787 119.376 249.055 114.756C247.249 113.782 245.788 112.284 244.87 110.464C244.537 109.809 244.302 109.111 244.172 108.39C244.376 108.416 244.94 105.349 244.786 105.161C245.07 104.735 245.579 104.523 245.889 104.107C247.431 102.04 249.556 102.401 250.665 105.21C253.035 106.392 253.058 108.353 251.604 110.239C250.679 111.439 250.551 113.062 249.74 114.347C249.823 114.452 249.91 114.555 249.994 114.66C251.52 116.601 252.85 118.684 253.966 120.881C253.695 118.42 254.018 115.93 254.91 113.617C255.814 111.461 257.509 109.645 259.001 107.781C260.793 105.543 264.469 106.52 264.785 109.358C264.788 109.385 264.791 109.412 264.794 109.44C264.572 109.564 264.355 109.695 264.143 109.834C263.876 110.01 263.669 110.261 263.55 110.556C263.43 110.85 263.403 111.173 263.473 111.482C263.542 111.792 263.705 112.074 263.939 112.29C264.173 112.507 264.468 112.649 264.784 112.697L264.817 112.702C264.738 113.492 264.598 114.274 264.399 115.043C266.314 122.362 262.181 125.027 256.28 125.147C256.149 125.213 256.022 125.279 255.892 125.342C257.013 128.481 257.716 131.751 257.983 135.069C258.135 137.027 258.126 138.994 257.956 140.95L257.966 140.881C258.394 138.705 259.568 136.742 261.29 135.324C263.847 133.247 267.461 132.482 270.22 130.812C270.513 130.626 270.854 130.527 271.202 130.526C271.551 130.525 271.892 130.623 272.187 130.808C272.481 130.992 272.715 131.256 272.863 131.569C273.01 131.881 273.064 132.228 273.018 132.569C273.014 132.594 273.011 132.618 273.007 132.642C272.596 132.808 272.195 132.999 271.808 133.214C271.586 133.337 271.369 133.468 271.157 133.607C270.89 133.783 270.684 134.035 270.564 134.329C270.444 134.623 270.418 134.946 270.487 135.256C270.556 135.566 270.719 135.847 270.953 136.064C271.187 136.281 271.482 136.423 271.799 136.471L271.831 136.476C271.855 136.479 271.875 136.482 271.898 136.486C271.195 138.145 270.209 139.671 268.982 140.999C267.785 147.388 262.644 147.994 257.145 146.134H257.141C256.538 148.726 255.664 151.249 254.533 153.662H245.214C245.181 153.56 245.151 153.454 245.12 153.352C245.983 153.405 246.849 153.354 247.699 153.2C247.008 152.361 246.316 151.516 245.625 150.677C245.609 150.662 245.595 150.645 245.581 150.628C245.231 150.199 244.877 149.773 244.526 149.343L244.526 149.343C244.507 148.027 244.66 146.714 244.98 145.437L244.98 145.437Z" fill="#F7F7F7" fill-opacity="0.1"/>
<path d="M61.0605 153.455H76.0982C78.6701 144.895 76.1119 124.663 79.5019 116.393C86.0058 100.538 94.3146 83.8082 109.823 76.0663C116.444 72.7606 123.664 71.4694 131.037 71.5397C141.222 71.6352 151.694 74.3381 161.281 77.9201C165.203 79.3821 169.089 80.9897 172.959 82.6325C187.542 88.827 201.966 95.5742 217.648 97.3978C237.492 99.7038 260.823 90.927 266.243 72.022C270.379 57.5481 262.93 42.5216 255.117 29.595C247.304 16.6685 238.571 2.83765 239.997 -12.1286C240.002 -12.1788 240.007 -12.2341 240.018 -12.2843C240.555 -17.6599 243.801 -21.5232 248.337 -24H228.59C228.329 -10.0385 236.5 2.28504 243.853 14.4529C251.665 27.3745 259.115 42.406 254.979 56.8799C249.559 75.7799 204.68 53.6252 184.836 51.3142C179.232 50.6661 188.133 52.9721 182.79 51.3142C174.41 48.7168 173.481 72.5395 165.325 69.0429C160.248 66.8625 155.166 64.6972 150.017 62.773C147.885 61.9742 145.706 61.2256 143.503 60.5323C143.498 60.5323 143.498 60.5323 143.492 60.5273C128.695 55.8953 112.512 54.0917 98.8397 60.7886C98.7477 60.8338 98.6505 60.879 98.5585 60.9242C83.0504 68.661 74.7416 85.3907 68.2377 101.246C62.8638 114.354 63.7091 139.629 61.0605 153.455Z" fill="#F7F7F7" fill-opacity="0.1"/>
<path d="M144.932 153C183.555 153 214.865 121.884 214.865 83.5C214.865 45.1162 183.555 14 144.932 14C106.31 14 75 45.1162 75 83.5C75 121.884 106.31 153 144.932 153Z" fill="white"/>
<path d="M145.846 151.944C77.5121 153.496 76.0137 121.402 76.0137 83.2289C76.0137 45.0562 107.429 14 146.044 14C184.658 14 216.074 45.0562 216.074 83.2289C216.074 121.402 184.461 151.944 145.846 151.944ZM146.044 15.9049C108.491 15.9049 78.573 46.1116 77.9406 83.2289C77.3524 117.753 114.452 160.833 146.044 150.554C162.985 132.109 210.884 112.243 214.147 83.2289C218.296 46.3337 183.596 15.9049 146.044 15.9049V15.9049Z" fill="#F5F5F5"/>
<path d="M125.946 135C124.247 135 122.573 134.61 121.054 133.86C119.535 133.111 118.214 132.022 117.195 130.682L90.3664 95.3848C89.5037 94.2509 88.8759 92.9604 88.5189 91.5871C88.1618 90.2137 88.0825 88.7844 88.2854 87.3808C88.4883 85.9771 88.9696 84.6267 89.7016 83.4067C90.4336 82.1866 91.402 81.1208 92.5516 80.2701C93.7012 79.4195 95.0093 78.8006 96.4014 78.4489C97.7934 78.0973 99.242 78.0196 100.664 78.2205C102.087 78.4214 103.455 78.8969 104.691 79.6197C105.928 80.3425 107.007 81.2986 107.869 82.4333L125.421 105.524L170.502 38.8019C172.112 36.4216 174.615 34.7696 177.459 34.2091C180.303 33.6486 183.256 34.2254 185.669 35.8129C188.083 37.4003 189.758 39.8683 190.328 42.6743C190.897 45.4803 190.314 48.3947 188.706 50.7766L135.049 130.193C134.078 131.63 132.772 132.815 131.242 133.651C129.711 134.487 127.999 134.948 126.25 134.996C126.149 134.998 126.047 135 125.946 135Z" fill="#8F8F8F" fill-opacity="0.13"/>
<path d="M2.20182e-06 153.508C-0.000192627 153.573 0.012544 153.637 0.0374757 153.697C0.0624074 153.757 0.0990444 153.811 0.145278 153.857C0.191512 153.902 0.246426 153.938 0.30687 153.963C0.367314 153.988 0.432096 154 0.497478 154H299.503C299.634 154 299.761 153.948 299.854 153.856C299.948 153.764 300 153.639 300 153.508C300 153.378 299.948 153.253 299.854 153.161C299.761 153.068 299.634 153.017 299.503 153.017H0.497478C0.432097 153.016 0.36732 153.029 0.306877 153.054C0.246434 153.078 0.191518 153.115 0.145285 153.16C0.0990513 153.206 0.0624146 153.26 0.0374821 153.32C0.0125496 153.38 -0.000190408 153.444 2.20182e-06 153.508Z" fill="#F7F7F7" fill-opacity="0.1"/>
<path d="M158.967 119C157.152 119 155.361 118.583 153.737 117.781C152.113 116.98 150.7 115.816 149.611 114.383L120.923 76.6411C120.001 75.4287 119.33 74.0488 118.948 72.5803C118.566 71.1119 118.481 69.5836 118.698 68.0827C118.915 66.5819 119.43 65.138 120.213 63.8334C120.995 62.5288 122.031 61.3892 123.26 60.4796C124.489 59.57 125.888 58.9083 127.376 58.5323C128.865 58.1563 130.414 58.0733 131.935 58.2881C133.456 58.5029 134.919 59.0112 136.241 59.7841C137.563 60.557 138.717 61.5793 139.638 62.7926L158.407 87.4821L206.611 16.1394C207.463 14.8783 208.558 13.7951 209.835 12.9518C211.111 12.1084 212.543 11.5214 214.049 11.2241C215.556 10.9269 217.107 10.9253 218.613 11.2194C220.12 11.5135 221.554 12.0976 222.832 12.9384C224.11 13.7791 225.208 14.86 226.062 16.1193C226.917 17.3786 227.512 18.7918 227.813 20.278C228.115 21.7642 228.116 23.2944 227.818 24.7812C227.52 26.268 226.928 27.6823 226.076 28.9434L168.701 113.86C167.663 115.396 166.267 116.664 164.63 117.558C162.993 118.451 161.163 118.944 159.293 118.996C159.185 118.998 159.076 119 158.967 119Z" fill="#6EB06D"/>
</g>
<defs>
<clipPath id="clip0_18_28240">
<rect width="300" height="155" fill="white"/>
</clipPath>
</defs>
</svg>
