<svg width="300" height="155" viewBox="0 0 300 155" fill="none" xmlns="http://www.w3.org/2000/svg">
<g clip-path="url(#clip0_18_28484)">
<path d="M50.3415 146.436C50.1012 146.447 49.8632 146.385 49.6599 146.257C49.4566 146.13 49.2978 145.944 49.2049 145.725C49.1121 145.505 49.0898 145.263 49.1409 145.03C49.1921 144.798 49.3143 144.587 49.491 144.425L49.5714 144.109C49.5608 144.084 49.5502 144.059 49.5395 144.033C49.2973 143.468 48.8916 142.986 48.3731 142.648C47.8547 142.309 47.2468 142.13 46.6257 142.133C46.0045 142.135 45.398 142.319 44.8821 142.66C44.3662 143.002 43.9641 143.488 43.7262 144.055C42.7754 146.318 41.5649 148.586 41.2668 150.98C41.1355 152.038 41.1909 153.11 41.4305 154.149C39.1973 149.334 38.0377 144.1 38.0303 138.802C38.0298 137.473 38.1045 136.145 38.2541 134.823C38.3776 133.74 38.5491 132.665 38.7684 131.598C39.9654 125.805 42.5352 120.375 46.2669 115.755C48.0731 114.781 49.5337 113.283 50.452 111.463C50.7847 110.808 51.0199 110.11 51.1501 109.389C50.9464 109.415 50.3819 106.348 50.5356 106.16C50.2516 105.734 49.7434 105.522 49.4334 105.106C47.8911 103.039 45.7663 103.4 44.657 106.209C42.2874 107.392 42.2644 109.352 43.7184 111.238C44.6435 112.438 44.7706 114.061 45.5822 115.346C45.4987 115.451 45.4119 115.554 45.3284 115.659C43.8019 117.6 42.4715 119.683 41.3562 121.88C41.6275 119.419 41.3038 116.929 40.4118 114.616C39.5077 112.46 37.8132 110.644 36.321 108.78C34.5286 106.542 30.8532 107.519 30.5374 110.357C30.5343 110.384 30.5314 110.412 30.5285 110.439C30.7501 110.563 30.9671 110.694 31.1793 110.833C31.446 111.009 31.6527 111.26 31.7722 111.555C31.8917 111.849 31.9186 112.172 31.8492 112.481C31.7798 112.791 31.6175 113.073 31.3834 113.289C31.1494 113.506 30.8545 113.648 30.5375 113.696L30.5051 113.701C30.584 114.491 30.7236 115.274 30.9226 116.042C29.0083 123.361 33.1411 126.026 39.0423 126.146C39.1726 126.212 39.2995 126.278 39.4298 126.341C38.3093 129.48 37.6064 132.75 37.3389 136.068C37.1875 138.026 37.1964 139.993 37.3656 141.949L37.3556 141.88C36.928 139.704 35.7542 137.741 34.0322 136.323C31.4747 134.246 27.8614 133.481 25.1022 131.811C24.809 131.625 24.468 131.526 24.1196 131.525C23.7711 131.524 23.4297 131.622 23.1355 131.807C22.8414 131.991 22.6068 132.255 22.4595 132.568C22.3121 132.88 22.2581 133.227 22.3039 133.569C22.3076 133.593 22.3114 133.617 22.3152 133.641C22.7265 133.807 23.127 133.998 23.5143 134.213C23.7359 134.336 23.9529 134.467 24.1652 134.606C24.4318 134.782 24.6385 135.034 24.758 135.328C24.8775 135.622 24.9044 135.946 24.835 136.255C24.7656 136.565 24.6033 136.846 24.3692 137.063C24.1352 137.28 23.8403 137.422 23.5234 137.47L23.4909 137.475C23.4675 137.478 23.4475 137.481 23.4241 137.485C24.1269 139.144 25.1132 140.67 26.34 141.998C27.537 148.387 32.678 148.993 38.1773 147.133H38.1806C38.784 149.725 39.6582 152.248 40.7892 154.661H50.108C50.1415 154.559 50.1715 154.453 50.2016 154.351C49.339 154.404 48.4731 154.353 47.623 154.199C48.3144 153.36 49.0058 152.515 49.6972 151.676C49.7127 151.661 49.7272 151.644 49.7407 151.627C50.0914 151.198 50.4454 150.772 50.7961 150.342L50.7963 150.342C50.815 149.026 50.6623 147.713 50.3419 146.436L50.3415 146.436Z" fill="#F7F7F7" fill-opacity="0.1"/>
<path d="M244.98 146.436C245.221 146.447 245.459 146.385 245.662 146.257C245.865 146.13 246.024 145.944 246.117 145.725C246.21 145.505 246.232 145.263 246.181 145.03C246.13 144.798 246.008 144.587 245.831 144.425L245.751 144.109C245.761 144.084 245.772 144.059 245.783 144.033C246.025 143.468 246.43 142.986 246.949 142.648C247.467 142.309 248.075 142.13 248.696 142.133C249.317 142.135 249.924 142.319 250.44 142.66C250.956 143.002 251.358 143.488 251.596 144.055C252.547 146.318 253.757 148.586 254.055 150.98C254.186 152.038 254.131 153.11 253.892 154.149C256.125 149.334 257.284 144.1 257.292 138.802C257.292 137.473 257.218 136.145 257.068 134.823C256.944 133.74 256.773 132.665 256.554 131.598C255.357 125.805 252.787 120.375 249.055 115.755C247.249 114.781 245.788 113.283 244.87 111.463C244.537 110.808 244.302 110.11 244.172 109.389C244.376 109.415 244.94 106.348 244.786 106.16C245.07 105.734 245.579 105.522 245.889 105.106C247.431 103.039 249.556 103.4 250.665 106.209C253.035 107.392 253.058 109.352 251.604 111.238C250.679 112.438 250.551 114.061 249.74 115.346C249.823 115.451 249.91 115.554 249.994 115.659C251.52 117.6 252.85 119.683 253.966 121.88C253.695 119.419 254.018 116.929 254.91 114.616C255.814 112.46 257.509 110.644 259.001 108.78C260.793 106.542 264.469 107.519 264.785 110.357C264.788 110.384 264.791 110.412 264.794 110.439C264.572 110.563 264.355 110.694 264.143 110.833C263.876 111.009 263.669 111.26 263.55 111.555C263.43 111.849 263.403 112.172 263.473 112.481C263.542 112.791 263.705 113.073 263.939 113.289C264.173 113.506 264.468 113.648 264.784 113.696L264.817 113.701C264.738 114.491 264.598 115.274 264.399 116.042C266.314 123.361 262.181 126.026 256.28 126.146C256.149 126.212 256.022 126.278 255.892 126.341C257.013 129.48 257.716 132.75 257.983 136.068C258.135 138.026 258.126 139.993 257.956 141.949L257.966 141.88C258.394 139.704 259.568 137.741 261.29 136.323C263.847 134.246 267.461 133.481 270.22 131.811C270.513 131.625 270.854 131.526 271.202 131.525C271.551 131.524 271.892 131.622 272.187 131.807C272.481 131.991 272.715 132.255 272.863 132.568C273.01 132.88 273.064 133.227 273.018 133.569C273.014 133.593 273.011 133.617 273.007 133.641C272.596 133.807 272.195 133.998 271.808 134.213C271.586 134.336 271.369 134.467 271.157 134.606C270.89 134.782 270.684 135.034 270.564 135.328C270.444 135.622 270.418 135.946 270.487 136.255C270.556 136.565 270.719 136.846 270.953 137.063C271.187 137.28 271.482 137.422 271.799 137.47L271.831 137.475C271.855 137.478 271.875 137.481 271.898 137.485C271.195 139.144 270.209 140.67 268.982 141.998C267.785 148.387 262.644 148.993 257.145 147.133H257.141C256.538 149.725 255.664 152.248 254.533 154.661H245.214C245.181 154.559 245.151 154.453 245.12 154.351C245.983 154.404 246.849 154.353 247.699 154.199C247.008 153.36 246.316 152.515 245.625 151.676C245.609 151.661 245.595 151.644 245.581 151.627C245.231 151.198 244.877 150.772 244.526 150.342L244.526 150.342C244.507 149.026 244.66 147.713 244.98 146.436L244.98 146.436Z" fill="#F7F7F7" fill-opacity="0.1"/>
<path d="M61 154H76.0111C78.5785 146.571 76.0248 129.013 79.4089 121.837C85.9012 108.077 94.1954 93.5585 109.676 86.84C116.286 83.9712 123.493 82.8507 130.853 82.9117C141.02 82.9945 151.474 85.3401 161.044 88.4487C164.959 89.7175 168.838 91.1126 172.701 92.5383C187.258 97.914 201.657 103.769 217.311 105.352C237.12 107.353 260.41 99.7365 265.821 83.3303C269.95 70.7694 262.513 57.7291 254.714 46.5111C246.915 35.2931 238.197 23.2904 239.621 10.3023C239.626 10.2587 239.631 10.2107 239.642 10.1671C240.178 5.50207 243.419 2.14941 247.946 0H228.234C227.974 12.1161 236.13 22.8108 243.47 33.3704C251.269 44.584 258.705 57.6288 254.576 70.1896C249.166 86.5914 204.366 67.3651 184.557 65.3595C178.963 64.7971 187.849 66.7982 182.515 65.3595C174.15 63.1054 173.222 83.7793 165.081 80.7449C160.013 78.8527 154.939 76.9735 149.799 75.3037C147.671 74.6105 145.497 73.9609 143.297 73.3592C143.292 73.3592 143.292 73.3592 143.287 73.3548C128.515 69.3351 112.361 67.7698 98.7126 73.5816C98.6207 73.6208 98.5237 73.66 98.4318 73.6993C82.9511 80.4135 74.657 94.9319 68.1645 108.692C62.8001 120.067 63.6439 142.002 61 154Z" fill="#F7F7F7" fill-opacity="0.1"/>
<path d="M144.932 154C183.555 154 214.865 122.884 214.865 84.5C214.865 46.1162 183.555 15 144.932 15C106.31 15 75 46.1162 75 84.5C75 122.884 106.31 154 144.932 154Z" fill="white"/>
<path d="M145.846 152.944C77.5121 154.496 76.0137 122.402 76.0137 84.2289C76.0137 46.0562 107.429 15 146.044 15C184.658 15 216.074 46.0562 216.074 84.2289C216.074 122.402 184.461 152.944 145.846 152.944ZM146.044 16.9049C108.491 16.9049 78.573 47.1116 77.9406 84.2289C77.3524 118.753 114.452 161.833 146.044 151.554C162.985 133.109 210.884 113.243 214.147 84.2289C218.296 47.3337 183.596 16.9049 146.044 16.9049V16.9049Z" fill="#F5F5F5"/>
<path d="M2.20182e-06 154.508C-0.000192627 154.573 0.012544 154.637 0.0374757 154.697C0.0624074 154.757 0.0990444 154.811 0.145278 154.857C0.191512 154.902 0.246426 154.938 0.30687 154.963C0.367314 154.988 0.432096 155 0.497478 155H299.503C299.634 155 299.761 154.948 299.854 154.856C299.948 154.764 300 154.639 300 154.508C300 154.378 299.948 154.253 299.854 154.161C299.761 154.068 299.634 154.017 299.503 154.017H0.497478C0.432097 154.016 0.36732 154.029 0.306877 154.054C0.246434 154.078 0.191518 154.115 0.145285 154.16C0.0990513 154.206 0.0624146 154.26 0.0374821 154.32C0.0125496 154.38 -0.000190408 154.444 2.20182e-06 154.508Z" fill="#F7F7F7" fill-opacity="0.1"/>
<path d="M153.249 36.6756L116.926 90.4347L117.349 114.184C118.758 114.146 120.382 113.771 121.616 113.098C122.849 112.424 123.901 111.469 124.683 110.312L167.916 46.3239C169.212 44.4047 169.682 42.0566 169.223 39.7957C168.764 37.5348 167.414 35.5463 165.469 34.2673C163.525 32.9883 161.145 32.5235 158.854 32.9751C156.562 33.4267 154.546 34.7578 153.249 36.6756Z" fill="#F5F5F5"/>
<path d="M115.671 124.013L151.994 70.2538L151.571 46.504C150.162 46.543 148.538 46.9175 147.304 47.5909C146.071 48.2643 145.019 49.2196 144.237 50.3769L101.003 114.365C99.7082 116.284 99.2384 118.632 99.6973 120.893C100.156 123.154 101.506 125.142 103.451 126.421C105.395 127.7 107.774 128.165 110.066 127.713C112.358 127.262 114.374 125.931 115.671 124.013Z" fill="#F5F5F5"/>
<path d="M101.343 48.2646L138.046 101.63L160.477 110.085C160.972 108.777 161.234 107.146 161.068 105.763C160.902 104.379 160.404 103.058 159.614 101.909L115.927 38.3907C114.616 36.487 112.592 35.1813 110.298 34.7608C108.005 34.3403 105.631 34.8393 103.697 36.1483C101.764 37.4572 100.43 39.4688 99.9887 41.7409C99.5473 44.013 100.035 46.3595 101.343 48.2646Z" fill="#F5F5F5"/>
<path d="M169.126 115.271L132.424 61.9054L109.993 53.4502C109.497 54.7584 109.236 56.3893 109.401 57.7725C109.567 59.1557 110.066 60.4772 110.856 61.6261L154.542 125.144C155.853 127.048 157.878 128.354 160.171 128.774C162.465 129.195 164.839 128.696 166.772 127.387C168.706 126.078 170.04 124.066 170.481 121.794C170.922 119.522 170.435 117.176 169.126 115.271Z" fill="#F5F5F5"/>
<path d="M188.266 13.6142L144.645 78.1754L145.152 106.697C146.845 106.651 148.796 106.201 150.277 105.392C151.758 104.583 153.021 103.436 153.961 102.046L205.881 25.2012C207.437 22.8963 208.001 20.0764 207.45 17.3612C206.899 14.646 205.277 12.2579 202.942 10.7219C200.607 9.18592 197.749 8.62775 194.997 9.17011C192.245 9.71248 189.824 11.311 188.266 13.6142Z" fill="#E17373"/>
<path d="M142.91 118.341L186.307 53.6009L185.802 25C184.119 25.0469 182.178 25.498 180.704 26.3089C179.231 27.1198 177.974 28.2703 177.04 29.664L125.386 106.722C123.838 109.033 123.277 111.861 123.825 114.583C124.373 117.306 125.986 119.701 128.309 121.241C130.632 122.781 133.475 123.341 136.213 122.797C138.951 122.253 141.36 120.65 142.91 118.341Z" fill="#E17373"/>
<path d="M125.933 27.5331L170.011 91.6213L196.949 101.775C197.544 100.204 197.858 98.2457 197.659 96.5846C197.46 94.9234 196.861 93.3364 195.912 91.9567L143.447 15.6752C141.873 13.3889 139.442 11.8209 136.688 11.3158C133.933 10.8108 131.082 11.4102 128.76 12.9821C126.438 14.554 124.836 16.9699 124.306 19.6985C123.776 22.4271 124.361 25.2452 125.933 27.5331Z" fill="#E17373"/>
<path d="M207.279 108.145L163.069 44.3775L136.132 34.2195C135.542 35.7781 135.233 37.7223 135.437 39.3726C135.641 41.0228 136.244 42.6005 137.195 43.9734L189.818 119.874C191.397 122.149 193.83 123.712 196.582 124.221C199.335 124.731 202.182 124.143 204.496 122.588C206.811 121.034 208.404 118.639 208.926 115.93C209.448 113.222 208.856 110.422 207.279 108.145Z" fill="#E17373"/>
</g>
<defs>
<clipPath id="clip0_18_28484">
<rect width="300" height="155" fill="white"/>
</clipPath>
</defs>
</svg>
