<svg width="24" height="24" fill="white" viewBox="0 0 24 24" xmlns="http://www.w3.org/2000/svg">
<path fill-rule="evenodd" clip-rule="evenodd" d="M10.3887 9.20142C10.7268 8.8603 10.8473 8.36415 10.7015 7.89962L10.7011 7.89833C10.4241 7.05944 10.2834 6.17909 10.2834 5.2814C10.2834 4.57475 9.70865 4 9.00203 4H6.28132C5.57475 4 5 4.57475 5 5.28133C5 12.846 11.154 19 18.7186 19C19.4253 19 20 18.4253 20 17.7186V15.0056C20 14.299 19.4252 13.7242 18.7186 13.7242C17.8214 13.7242 16.9408 13.5839 16.1065 13.3083C15.6574 13.1553 15.1436 13.2705 14.8417 13.5738L13.2285 14.7915C11.3609 13.7847 10.2007 12.6248 9.20757 10.7715L10.3887 9.20142Z" />
</svg>
