<svg width="100" height="100" viewBox="0 0 100 100" fill="none" xmlns="http://www.w3.org/2000/svg">
<rect opacity="0.2" width="100" height="100" rx="8" fill="url(#paint0_linear_2845_8478)"/>
<path d="M59.7937 38.0859C59.9796 38.4375 60.0286 38.6816 60.0286 39.3066C60.0286 40.293 59.8328 40.6836 58.8738 41.6699L58.1887 42.3828H57.2688C56.7697 42.3828 56.3587 42.3535 56.3587 42.3145C56.3587 42.2754 56.8774 41.7285 57.5037 41.0938L58.6487 39.9512L58.6878 39.3848C58.727 38.8672 58.6976 38.7793 58.4627 38.4961C57.9049 37.832 57.2492 37.7148 56.5446 38.1738C56.3097 38.3301 55.2332 39.3359 54.1567 40.4199L52.1995 42.3828H50.6923H49.1755L47.0127 40.2441C45.2315 38.4766 44.7911 38.0859 44.4486 37.9785C43.9104 37.8223 43.4015 37.9688 43.0002 38.3789C42.736 38.6523 42.7066 38.75 42.7066 39.3066V39.9414L43.8614 41.084C44.4878 41.7187 45.0064 42.2754 45.0064 42.3145C45.0064 42.3535 44.5954 42.3828 44.1061 42.3828H43.2057L43.881 43.0664L44.5563 43.75H46.2004H47.8445V45.459V47.168H42.7849H37.7156L38.7431 48.1934L39.7707 49.2285L39.8001 48.877L39.8294 48.5352H43.8419H47.8445V56.0059V63.4863L44.1257 63.457L40.4068 63.4277L45.4175 68.4277L50.389 73.3887L51.4655 73.4375C55.3702 73.4375 59.8622 72.041 63.4832 69.6973C69.218 66.0059 73.1717 59.7754 73.984 53.1445L74.121 51.9043L66.8399 44.8926C61.3889 39.4629 59.6273 37.7539 59.7937 38.0859ZM52.1505 53.6133V63.4766H50.6826H49.2146V53.6133V43.75H50.6826H52.1505V53.6133ZM63.7474 45.459V47.1191L58.6389 47.1484L53.5206 47.168V45.459V43.75L58.6389 43.7695L63.7474 43.7988V45.459ZM61.5455 55.6445C61.5455 62.0508 61.5259 62.7734 61.3889 62.9785C61.0561 63.4473 60.8311 63.4766 57.0437 63.4766H53.5206V56.0059V48.5352H57.533H61.5455V55.6445Z" fill="#E13336"/>
<path d="M47.8249 26.7091C42.5892 27.3438 37.6471 29.7657 33.9772 33.506C30.2388 37.3146 28.0662 41.7579 27.3322 47.1192C27.1365 48.5938 27.1854 52.0606 27.4301 53.6134C28.1836 58.3399 30.4051 62.8224 33.6836 66.2013C37.1382 69.7755 41.2485 72.0216 46.0536 72.9981C47.3845 73.2618 49.244 73.4669 49.929 73.4181L50.389 73.3888L45.2903 68.3106C42.4913 65.5177 40.1132 63.1544 40.0154 63.0567C39.9175 62.9591 39.8099 62.7442 39.7805 62.5782C39.7511 62.4122 39.7218 59.3263 39.7218 55.7228V49.1603L38.6453 48.0958L37.5688 47.0411V45.4005V43.7501H41.0625H44.5563L43.0785 42.256C41.865 41.0255 41.5812 40.6935 41.454 40.2931C40.9842 38.9161 41.5421 37.4903 42.7947 36.8458C43.2057 36.631 43.421 36.5821 44.0278 36.5919C44.4976 36.5919 44.8988 36.6505 45.1532 36.7579C45.4175 36.8751 46.3863 37.7638 48.1185 39.4825L50.6826 42.0313L53.2564 39.4825C54.9788 37.7638 55.9476 36.8751 56.2119 36.7579C56.8088 36.504 57.9539 36.5235 58.5117 36.8067C58.8248 36.963 61.2029 39.2677 66.5072 44.5606C72.4671 50.4981 74.0818 52.0509 74.1308 51.9142C74.1699 51.8263 74.1699 50.7716 74.1406 49.5802C74.1014 47.8419 74.0427 47.129 73.8372 45.9864C72.9271 40.879 70.5392 36.4454 66.7812 32.9103C63.1504 29.4825 58.5313 27.3243 53.5206 26.7091C52.0624 26.5333 49.3027 26.5333 47.8249 26.7091Z" fill="url(#paint1_linear_2845_8478)"/>
<path d="M48.2163 39.6484L50.6825 42.1387L53.1584 39.6484L55.6246 37.1582L53.1584 39.5996L50.6825 42.041L48.2163 39.5996L45.7404 37.1582L48.2163 39.6484Z" fill="#EC9696"/>
<path d="M42.0704 41.2402C42.0704 41.2598 42.2169 41.3965 42.3927 41.5625L42.7052 41.8457L42.422 41.5234C42.1486 41.2305 42.0704 41.1621 42.0704 41.2402Z" fill="#EC9696"/>
<path d="M41.3175 39.306C41.3175 39.5209 41.337 39.599 41.3565 39.4721C41.3761 39.3549 41.3761 39.1791 41.3565 39.0814C41.3272 38.9935 41.3077 39.0912 41.3175 39.306Z" fill="#ECC1C1"/>
<path d="M37.6085 43.877C37.5889 43.9453 37.5791 44.707 37.5889 45.5566L37.6183 47.1191H42.7072H47.7961V45.4297L47.8059 43.75L47.7766 45.4102L47.7472 47.0703H42.6974H37.6574L37.6868 45.4102C37.7064 44.4922 37.7064 43.75 37.6868 43.75C37.677 43.75 37.6379 43.8086 37.6085 43.877Z" fill="#ECC1C1"/>
<path d="M53.5698 45.459V47.1191H58.6588H63.7477L63.7771 45.5176C63.7868 44.6289 63.7673 43.877 63.7281 43.8379C63.6792 43.7891 63.6596 44.502 63.6792 45.4102L63.7086 47.0703H58.6686H53.6188L53.5894 45.4297L53.5601 43.7988L53.5698 45.459Z" fill="#ECC1C1"/>
<path d="M47.7955 55.9564C47.7955 60.0677 47.8053 61.7474 47.8151 59.6966C47.8346 57.6361 47.8346 54.2767 47.8151 52.2259C47.8053 50.1654 47.7955 51.8451 47.7955 55.9564Z" fill="#ECC1C1"/>
<path d="M53.5696 55.9564C53.5696 60.0677 53.5793 61.7474 53.5891 59.6966C53.6086 57.6361 53.6086 54.2767 53.5891 52.2259C53.5793 50.1654 53.5696 51.8451 53.5696 55.9564Z" fill="#ECC1C1"/>
<path d="M43.284 36.7285C42.7457 36.8848 42.0411 37.4316 41.7279 37.9297C41.4931 38.3203 41.4343 38.5352 41.3952 39.1309C41.3463 40.166 41.5322 40.5762 42.4913 41.5723L43.2742 42.3828H44.0864C44.5366 42.3828 44.9085 42.3535 44.9085 42.3047C44.9085 42.2656 44.4192 41.748 43.832 41.1621C43.0687 40.4102 42.7164 39.9805 42.6381 39.7266C42.3151 38.6621 43.2742 37.6367 44.3605 37.8906C44.6834 37.959 45.0944 38.3203 46.9637 40.1758L49.1754 42.3828H50.6825H52.1896L54.4013 40.1855C56.8088 37.793 56.9654 37.6855 57.7189 37.8906C58.1887 38.0176 58.678 38.5352 58.7661 39.0234C58.8835 39.668 58.6878 40.0098 57.533 41.1621C56.9458 41.748 56.4565 42.2656 56.4565 42.3047C56.4565 42.3535 56.8186 42.3828 57.2687 42.3828H58.0908L58.8346 41.6113C59.7545 40.6641 59.9698 40.2344 59.9796 39.2969C59.9796 38.75 59.9306 38.5059 59.7251 38.1055C59.1379 36.9336 57.8168 36.3867 56.4956 36.7676C55.9378 36.9238 55.8399 37.0117 53.3052 39.5312L50.6825 42.1289L48.0695 39.5312C45.6131 37.0996 45.4174 36.9238 44.9183 36.7773C44.3311 36.6113 43.7537 36.5918 43.284 36.7285Z" fill="white"/>
<path d="M37.7351 43.8184C37.696 43.8477 37.6666 44.5996 37.6666 45.4785V47.0703H42.7066H47.7466V45.4102V43.75H42.7751C40.0349 43.75 37.7645 43.7793 37.7351 43.8184Z" fill="white"/>
<path d="M49.2831 43.8086C49.244 43.8477 49.2146 48.2715 49.2146 53.6328V63.3789H50.6826H52.1505L52.1309 53.584L52.1016 43.7988L50.7217 43.7695C49.9682 43.7598 49.3223 43.7793 49.2831 43.8086Z" fill="white"/>
<path d="M53.6184 45.4102V47.0703H58.6584H63.6984L63.6788 45.4297L63.6495 43.7988L58.6388 43.7695L53.6184 43.75V45.4102Z" fill="white"/>
<path d="M39.8392 55.6738L39.8685 62.8125L40.1915 63.0957L40.5046 63.3789H44.1256H47.7466V55.957V48.5352H43.7831H39.8196L39.8392 55.6738Z" fill="white"/>
<path d="M53.6184 55.957V63.3789H57.2394H60.8603L61.1735 63.0957L61.4965 62.8125L61.5258 55.6738L61.5454 48.5352H57.5819H53.6184V55.957Z" fill="white"/>
<defs>
<linearGradient id="paint0_linear_2845_8478" x1="98.0226" y1="97.2561" x2="-3.87558" y2="9.28565" gradientUnits="userSpaceOnUse">
<stop stop-color="#ED695D"/>
<stop offset="1" stop-color="#ED695D"/>
</linearGradient>
<linearGradient id="paint1_linear_2845_8478" x1="73.2331" y1="27.8627" x2="25.4807" y2="69.1779" gradientUnits="userSpaceOnUse">
<stop stop-color="#ED695D"/>
<stop offset="1" stop-color="#ED695D"/>
</linearGradient>
</defs>
</svg>
