<svg width="65" height="32" viewBox="0 0 65 32" fill="none" xmlns="http://www.w3.org/2000/svg">
<path d="M0.5 6.96533L4.3752 13.892V18.1171L0.504533 25.0301L0.5 6.96533Z" fill="#5B57A2"/>
<path d="M15.3792 11.3717L19.0103 9.14609L26.4418 9.13916L15.3792 15.9162V11.3717Z" fill="#D90751"/>
<path d="M15.3586 6.92453L15.3791 16.0952L11.4949 13.7085V0L15.3589 6.92453H15.3586Z" fill="#FAB718"/>
<path d="M26.4418 9.13892L19.0101 9.14586L15.3586 6.92453L11.4949 0L26.4415 9.13892H26.4418Z" fill="#ED6F26"/>
<path d="M15.3791 25.0685V20.6192L11.4949 18.2778L11.497 32L15.3791 25.0685Z" fill="#63B22F"/>
<path d="M19.0013 22.8632L4.37493 13.892L0.5 6.96533L26.4261 22.8541L19.001 22.8632H19.0013Z" fill="#1487C9"/>
<path d="M11.4973 32.0001L15.3789 25.0686L19.001 22.8633L26.4258 22.8542L11.4973 32.0001Z" fill="#017F36"/>
<path d="M0.504639 25.03L11.5268 18.278L7.82116 16.0044L4.3753 18.1169L0.504639 25.03Z" fill="#984995"/>
<path fill-rule="evenodd" clip-rule="evenodd" d="M42.8693 17.0877C45.3701 17.0877 47.2271 15.5544 47.2271 13.2299C47.2271 10.9799 45.857 9.51922 43.5671 9.51922C42.5103 9.51922 41.6383 9.89109 40.9815 10.533C41.1383 9.20646 42.2602 8.23771 43.4953 8.23771C43.7805 8.23771 45.9266 8.23328 45.9266 8.23328L47.1402 5.91089C47.1402 5.91089 44.4459 5.97235 43.1932 5.97235C40.3314 6.02209 38.3983 8.62339 38.3983 11.7828C38.3983 15.4637 40.2836 17.0877 42.8693 17.0877ZM42.8845 11.5762C43.813 11.5762 44.4567 12.1864 44.4567 13.2296C44.4567 14.1684 43.8848 14.9421 42.8845 14.9442C41.9276 14.9442 41.2839 14.2273 41.2839 13.2455C41.2839 12.202 41.9276 11.5762 42.8845 11.5762ZM56.8836 8.98458V16.808H54.09V11.32H51.4001V16.808H48.6065V8.98406L56.8836 8.98458ZM34.4793 14.6411C35.4647 14.5692 36.1244 14.1887 36.1244 14.1887L37.1582 16.1015C36.4961 16.5268 35.4098 16.8033 34.6223 16.8325C31.805 16.8843 29.8452 15.17 29.8452 12.6723C29.8452 10.2062 31.9302 8.45099 34.6223 8.45099C35.689 8.45099 36.606 8.73719 37.2946 9.25906C37.1496 9.51583 36.9526 9.87156 36.7654 10.2119L36.4655 10.7583L36.1927 11.2572C36.1927 11.2572 35.2007 10.7374 34.4508 10.7374C33.2279 10.7374 32.3373 11.4481 32.3373 12.688C32.3373 13.9593 33.3465 14.6747 34.4793 14.6411ZM32.3381 22.0731C32.2528 22.182 32.1405 22.2643 32.0059 22.3197C31.8676 22.376 31.7198 22.4046 31.5706 22.4038C31.4223 22.4059 31.2748 22.3812 31.1352 22.3309C31.0098 22.2854 30.8952 22.2143 30.7986 22.1223C30.7033 22.0301 30.6284 21.9189 30.5789 21.7958C30.5253 21.6611 30.4986 21.5171 30.5003 21.3721C30.5003 21.2281 30.525 21.0947 30.5765 20.9684C30.6258 20.8419 30.6976 20.7333 30.7874 20.6421C30.8282 20.5999 30.8726 20.5622 30.9202 20.5283L30.9494 20.5085C30.98 20.4885 31.0119 20.4697 31.045 20.4525L31.0805 20.4348L31.1062 20.4226C31.2296 20.3692 31.3642 20.3403 31.5123 20.3403C31.6716 20.3403 31.8197 20.3604 31.9543 20.4002C32.0394 20.4252 32.1162 20.4609 32.1849 20.5072C32.2253 20.5346 32.2628 20.5656 32.2976 20.6002L32.1339 20.8775C32.0546 20.8057 31.9614 20.7512 31.8599 20.7174C31.7636 20.6864 31.6628 20.6708 31.5616 20.671C31.4719 20.671 31.3866 20.6887 31.3037 20.7221C31.222 20.7549 31.1473 20.8031 31.0838 20.8643C31.0187 20.9268 30.9675 21.0025 30.9332 21.0861C30.8952 21.1723 30.8772 21.2679 30.8772 21.3744C30.8772 21.483 30.8973 21.5807 30.9354 21.665C30.9739 21.7515 31.0253 21.8249 31.0904 21.8869C31.1554 21.9492 31.2317 21.9955 31.3192 22.0268C31.3548 22.0403 31.3913 22.051 31.4285 22.0588C31.4828 22.0702 31.5391 22.0757 31.5976 22.0757C31.7187 22.0757 31.8288 22.051 31.9229 22.0044C31.9723 21.9804 32.019 21.9518 32.0625 21.9187C32.1011 21.8893 32.137 21.8564 32.1698 21.8205L32.3381 22.0731ZM32.8003 22.3572V20.3825H33.1548V21.8538L34.3082 20.3825H34.6629V22.3575H34.3082V20.8864L33.1548 22.3575L32.8003 22.3572ZM37.0123 22.0731C36.925 22.183 36.8106 22.2679 36.6802 22.3197C36.6011 22.3518 36.5186 22.3749 36.4347 22.3887C36.372 22.3989 36.3085 22.4041 36.2448 22.4038C36.1853 22.4046 36.1259 22.4012 36.0672 22.3934C35.9795 22.382 35.8931 22.3611 35.8095 22.3309C35.7809 22.3205 35.7528 22.3088 35.7253 22.2958C35.6921 22.2799 35.6598 22.2622 35.6285 22.2429C35.5728 22.2083 35.5206 22.1679 35.4728 22.1223C35.3774 22.0301 35.3025 21.9189 35.253 21.7958C35.1995 21.6611 35.1727 21.5171 35.1744 21.3721C35.1744 21.2281 35.1991 21.0947 35.2507 20.9684C35.3003 20.8419 35.3719 20.7333 35.4616 20.6421C35.5515 20.5489 35.6591 20.4781 35.7802 20.4226C35.9081 20.3663 36.0466 20.3382 36.1864 20.3403C36.2791 20.3403 36.3677 20.3471 36.4522 20.3606L36.5018 20.3692C36.5206 20.3729 36.5392 20.377 36.5576 20.3814L36.5903 20.3895L36.6285 20.4002C36.7632 20.44 36.8775 20.5067 36.9719 20.6002L36.808 20.8775C36.7289 20.8057 36.6357 20.7512 36.5344 20.7174C36.5101 20.7096 36.4854 20.7025 36.4606 20.6966C36.4435 20.6926 36.4263 20.6893 36.409 20.6861C36.3927 20.6833 36.3763 20.6807 36.3599 20.6786L36.3237 20.6747C36.2946 20.6721 36.2653 20.6708 36.236 20.671C36.0577 20.6715 35.8865 20.7408 35.7578 20.8643C35.7412 20.8807 35.7254 20.8976 35.7106 20.9156C35.693 20.9367 35.6767 20.9591 35.6619 20.9822C35.6408 21.0153 35.6226 21.0499 35.6074 21.0861C35.5991 21.1049 35.5918 21.1242 35.5854 21.1439C35.578 21.1666 35.5719 21.1898 35.567 21.2135C35.5565 21.2643 35.5515 21.3176 35.5515 21.3744C35.5515 21.4257 35.5559 21.4744 35.5646 21.5205C35.5698 21.5479 35.5765 21.5739 35.5845 21.5992C35.5918 21.6221 35.6003 21.6439 35.6098 21.665C35.6339 21.7197 35.6633 21.7692 35.6981 21.8137C35.7184 21.8398 35.7405 21.864 35.7645 21.8869C35.8296 21.9492 35.9061 21.9955 35.9935 22.0268C36.081 22.0577 36.1731 22.0757 36.2716 22.0757C36.313 22.0757 36.3529 22.0729 36.3913 22.0671C36.4653 22.0564 36.5336 22.0351 36.597 22.0044C36.6903 21.9593 36.7741 21.8968 36.8439 21.8205L37.0123 22.0731ZM37.1962 20.3825H39.0138V20.7333H38.2823V22.3572H37.9278V20.7333H37.1962V20.3825ZM41.0177 22.1421C40.919 22.2307 40.8047 22.2952 40.6699 22.3374C40.5401 22.3794 40.4047 22.401 40.2684 22.4018C40.2137 22.4025 40.1591 22.3997 40.105 22.3934C40.01 22.3822 39.9166 22.3606 39.8263 22.3286C39.6938 22.2799 39.5818 22.2109 39.4897 22.12C39.3957 22.0278 39.3223 21.9166 39.2742 21.7939C39.2249 21.6674 39.1979 21.5255 39.1979 21.37C39.1966 21.2322 39.2202 21.0955 39.2676 20.9663C39.3107 20.8447 39.3787 20.7338 39.4671 20.64C39.5093 20.5965 39.5554 20.557 39.6047 20.5221C39.6619 20.4817 39.7233 20.4476 39.7882 20.4202C39.8621 20.3895 39.9422 20.3669 40.0288 20.3533C40.0917 20.3434 40.158 20.3382 40.2279 20.3382C40.269 20.338 40.31 20.3403 40.3505 20.3452C40.3873 20.3497 40.4237 20.3562 40.4597 20.3645C40.5035 20.3749 40.5469 20.3885 40.5892 20.4049C40.6992 20.4458 40.8 20.5083 40.8854 20.589C40.9073 20.6101 40.9279 20.632 40.9473 20.6551C40.9633 20.6742 40.9785 20.6937 40.9929 20.714C41.0149 20.745 41.0349 20.7778 41.0526 20.8114C41.0636 20.8322 41.0736 20.8536 41.0828 20.8752C41.1031 20.921 41.1193 20.9687 41.1313 21.0184C41.1483 21.089 41.1569 21.164 41.1569 21.2437C41.1569 21.3346 41.1503 21.4122 41.1345 21.4809H39.5996C39.6154 21.6676 39.6849 21.8137 39.8127 21.9182C39.9406 22.0226 40.1022 22.0734 40.2974 22.0734C40.364 22.0734 40.4276 22.0682 40.4879 22.0577C40.5456 22.0479 40.6004 22.0333 40.6521 22.0137C40.7574 21.9736 40.8449 21.9249 40.91 21.8671L41.0177 22.1421ZM40.2121 20.6689C40.0281 20.6689 39.8823 20.7176 39.7724 20.8174C39.6637 20.9156 39.5944 21.0497 39.5772 21.1947H40.789C40.7798 21.0307 40.7263 20.902 40.6252 20.8088C40.6084 20.7932 40.5905 20.7791 40.5718 20.7663C40.5541 20.7541 40.5354 20.7432 40.5159 20.7333C40.5012 20.7257 40.4858 20.7189 40.4699 20.7127C40.3951 20.6835 40.3089 20.6689 40.2121 20.6689ZM41.6393 20.3825H41.9625L42.73 21.3611L43.4569 20.3825H43.7711V22.3575H43.4167V20.9174L42.7254 21.8338H42.7119L41.994 20.9171V22.3572H41.6393V20.3825ZM44.5809 20.4421C44.6311 20.4208 44.683 20.4031 44.7358 20.3893C44.8503 20.3583 44.9692 20.3406 45.0951 20.3406C45.2176 20.3406 45.3245 20.3538 45.4155 20.3804C45.4763 20.3981 45.5301 20.4218 45.5766 20.4512C45.621 20.4791 45.6587 20.5124 45.6897 20.5512C45.7397 20.6124 45.7785 20.6851 45.8064 20.7689C45.8423 20.877 45.86 21.0036 45.86 21.1484V22.3598H45.5281V22.1046C45.4697 22.1801 45.3889 22.2465 45.2878 22.3044C45.187 22.3619 45.0544 22.3908 44.8884 22.3908C44.7681 22.3908 44.6633 22.3682 44.5738 22.3229C44.5543 22.313 44.5356 22.302 44.5175 22.29C44.5052 22.2817 44.4932 22.2729 44.4817 22.2637C44.4688 22.2536 44.4563 22.2426 44.4442 22.2312C44.332 22.1247 44.2758 21.9736 44.2758 21.7807C44.2748 21.6877 44.2947 21.596 44.3343 21.5119C44.3712 21.4354 44.4249 21.3679 44.4913 21.3148C44.5564 21.2614 44.6371 21.2213 44.7313 21.1947C44.7499 21.1895 44.7688 21.1846 44.7878 21.1801L44.8164 21.1739L44.8486 21.1682C44.9069 21.158 44.9672 21.1525 45.03 21.1525C45.1159 21.1536 45.2014 21.1624 45.2857 21.1794C45.3728 21.1945 45.4555 21.2286 45.5281 21.2794C45.5281 21.24 45.5272 21.202 45.5254 21.1653L45.5219 21.1114C45.5195 21.0822 45.5164 21.0538 45.5124 21.0262C45.5012 20.9486 45.4809 20.8822 45.4495 20.8288C45.4347 20.8038 45.4169 20.7807 45.3961 20.7604C45.3863 20.7507 45.3759 20.7416 45.3647 20.7333C45.3572 20.7278 45.3492 20.7223 45.3409 20.7174C45.3319 20.7119 45.3225 20.707 45.3126 20.7023C45.2521 20.6713 45.1735 20.6554 45.0748 20.6554C44.9513 20.6554 44.8481 20.6689 44.7673 20.6979L44.7244 20.7137L44.688 20.7275L44.6455 20.745C44.6052 20.7619 44.5651 20.7801 44.5249 20.7999L44.4307 20.52C44.4788 20.4903 44.5291 20.4643 44.5809 20.4421ZM45.0121 22.0734C45.1422 22.0734 45.2478 22.0471 45.3287 21.9893C45.4014 21.9408 45.4679 21.8833 45.5259 21.8182V21.5674C45.4867 21.5393 45.4449 21.5158 45.4005 21.4968C45.3757 21.4861 45.35 21.477 45.3236 21.4695C45.3052 21.4643 45.2865 21.4596 45.2673 21.4554C45.2455 21.4507 45.2231 21.4471 45.2001 21.4442C45.1607 21.4393 45.1197 21.4367 45.0772 21.4367C45.0233 21.4367 44.9719 21.4432 44.9201 21.4564C44.8944 21.4627 44.8694 21.4713 44.8455 21.4822C44.824 21.4919 44.8031 21.5033 44.7833 21.5166C44.7452 21.5432 44.7116 21.5765 44.6867 21.6187L44.6817 21.6278C44.6779 21.6348 44.6745 21.6419 44.6715 21.6492C44.6681 21.6572 44.6653 21.6656 44.6628 21.6742C44.6604 21.682 44.6585 21.69 44.6568 21.6984C44.6528 21.7184 44.6508 21.7398 44.6508 21.7627C44.6508 21.8559 44.6822 21.9314 44.7452 21.989C44.7814 22.021 44.8266 22.0442 44.8804 22.058C44.9197 22.0682 44.9637 22.0734 45.0121 22.0734ZM49.1926 19.5174C49.1297 19.5994 49.0625 19.6549 48.9908 19.688C48.9188 19.7213 48.8404 19.7437 48.7551 19.7614C48.691 19.7747 48.6241 19.7869 48.5539 19.7997L48.4836 19.8127C48.3772 19.8322 48.2738 19.8658 48.1761 19.9124C48.1389 19.9283 48.1034 19.9476 48.0699 19.9697C48.046 19.9856 48.0231 20.0028 48.0013 20.0216L47.9751 20.0452L47.9593 20.0611L47.9427 20.0786C47.9306 20.0929 47.9189 20.1075 47.9077 20.1223C47.8853 20.1518 47.8647 20.1822 47.846 20.214C47.8271 20.246 47.81 20.2794 47.7948 20.314C47.7564 20.4002 47.7274 20.4916 47.707 20.5869C47.687 20.6825 47.6758 20.7755 47.6689 20.8663H47.678C47.7094 20.7955 47.7542 20.7333 47.8081 20.6775C47.8632 20.6213 47.9258 20.5729 47.9943 20.5335C48.0093 20.5249 48.0244 20.5166 48.0397 20.5085C48.057 20.4997 48.0746 20.4913 48.0925 20.4835C48.1333 20.4656 48.1755 20.4505 48.2188 20.4382C48.2996 20.4161 48.3826 20.4049 48.4679 20.4049C48.5512 20.4038 48.6341 20.413 48.7149 20.432C48.762 20.4432 48.8083 20.4577 48.8537 20.4757C48.9652 20.52 49.0656 20.5885 49.1478 20.6757C49.2298 20.7648 49.2926 20.8697 49.3318 20.984C49.3745 21.1041 49.3969 21.2393 49.3969 21.3877C49.3969 21.5255 49.3721 21.6562 49.3206 21.7783C49.2994 21.8309 49.2738 21.8812 49.2444 21.9286C49.2057 21.9911 49.1606 22.0484 49.1096 22.1002C49.0175 22.1939 48.9076 22.2684 48.7865 22.3197C48.6609 22.3731 48.5218 22.402 48.3714 22.402C48.2076 22.402 48.0617 22.3731 47.9315 22.3156C47.8014 22.258 47.6913 22.1778 47.5994 22.0713C47.5073 21.9669 47.438 21.8385 47.3884 21.6851C47.3391 21.532 47.3145 21.3614 47.3145 21.1726C47.3145 21.0262 47.3233 20.8734 47.3414 20.7135C47.359 20.5567 47.3944 20.4028 47.4468 20.2541C47.4985 20.1075 47.5748 19.9744 47.6714 19.857C47.7679 19.7393 47.8956 19.6463 48.0551 19.5773L48.0899 19.5622C48.1069 19.5551 48.1241 19.5484 48.1414 19.5421C48.1729 19.5307 48.2047 19.5202 48.2369 19.5109C48.2561 19.5054 48.2755 19.5002 48.2951 19.4955C48.3195 19.4895 48.3443 19.4843 48.3692 19.4799L48.4919 19.4588L48.5577 19.4473L48.6249 19.4354C48.6643 19.4286 48.7034 19.4195 48.7418 19.408C48.772 19.3992 48.8018 19.389 48.8313 19.3775C48.8475 19.3713 48.8634 19.3632 48.8788 19.3541L48.8988 19.3411C48.935 19.3158 48.9686 19.282 48.9996 19.24L49.1926 19.5174ZM47.6938 21.2393C47.6917 21.3564 47.7083 21.4734 47.743 21.5854C47.7727 21.6801 47.819 21.7687 47.8798 21.8473C47.9379 21.9176 48.0107 21.9744 48.0931 22.0137C48.1761 22.0536 48.266 22.0736 48.3646 22.0736C48.4392 22.0736 48.5077 22.0635 48.5715 22.0429L48.5947 22.0351C48.6072 22.0307 48.6195 22.0257 48.6318 22.0202C48.7094 21.9874 48.7796 21.939 48.8382 21.8786C48.8968 21.8179 48.9426 21.746 48.9729 21.6674C49.004 21.5877 49.0223 21.501 49.0223 21.4057C49.0223 21.2127 48.9684 21.0528 48.8582 20.9244C48.8214 20.8817 48.7792 20.8463 48.7314 20.8179C48.6922 20.7945 48.6492 20.776 48.6025 20.7622C48.5367 20.7429 48.4636 20.7333 48.3826 20.7333C48.2151 20.732 48.0521 20.7874 47.9203 20.8908C47.862 20.9377 47.8126 20.9908 47.7745 21.0507C47.7612 21.0705 47.7492 21.0911 47.7387 21.1124C47.7302 21.1296 47.7225 21.1471 47.7159 21.1648C47.7068 21.189 47.6994 21.214 47.6938 21.2393ZM51.762 20.3827H52.1167V22.3577H51.762V20.3827ZM50.263 20.3827H49.9083H49.9063V22.3598H50.5503C50.5826 22.3598 50.6136 22.3588 50.6435 22.357C50.6624 22.3559 50.6807 22.3544 50.6987 22.3525C50.7149 22.351 50.7307 22.3492 50.7462 22.3468C50.8198 22.3364 50.8858 22.3197 50.9452 22.2978C50.9702 22.2885 50.994 22.2786 51.0167 22.2679L51.0457 22.2533L51.0686 22.2411C51.0848 22.2317 51.1003 22.2218 51.115 22.2114C51.1245 22.2049 51.1336 22.1981 51.1425 22.1913C51.1533 22.1827 51.1637 22.1739 51.1737 22.1648C51.1832 22.1562 51.1923 22.1471 51.2009 22.138C51.2638 22.0713 51.3111 21.9981 51.338 21.914C51.3552 21.864 51.3671 21.814 51.3737 21.7632C51.3784 21.7281 51.3806 21.6924 51.3806 21.6562C51.3806 21.6372 51.38 21.6184 51.3787 21.5997C51.3776 21.5833 51.3761 21.5671 51.3741 21.551C51.3678 21.4999 51.3572 21.4502 51.3425 21.401C51.3177 21.3192 51.275 21.246 51.2145 21.1838C51.1539 21.1215 51.0732 21.0708 50.9721 21.0327C50.871 20.9952 50.7455 20.9752 50.5908 20.9752H50.263V20.3827ZM50.5211 22.0291H50.263V21.3057V21.301H50.5257C50.5587 21.301 50.59 21.302 50.6195 21.3044C50.6649 21.308 50.7059 21.3145 50.7427 21.3236C50.7705 21.3304 50.7957 21.339 50.8186 21.3489C50.8477 21.3617 50.8727 21.3768 50.8938 21.3945C50.9176 21.4153 50.9376 21.439 50.9538 21.4661C50.9716 21.4958 50.9849 21.5294 50.9931 21.5666C51 21.5976 51.0035 21.6312 51.0035 21.6674C51.0035 21.7851 50.9678 21.8736 50.8958 21.9359C50.8645 21.963 50.8229 21.9843 50.7712 21.9997C50.7046 22.0192 50.621 22.0291 50.5211 22.0291ZM54.4617 22.0731C54.3764 22.182 54.2642 22.2643 54.1296 22.3197C53.9913 22.3757 53.8435 22.4044 53.6943 22.4038C53.546 22.4059 53.3984 22.3812 53.2589 22.3309C53.1335 22.2854 53.0189 22.2143 52.9223 22.1223C52.8857 22.0869 52.8521 22.0486 52.8218 22.008L52.7971 21.9734C52.7883 21.9604 52.7798 21.9471 52.7716 21.9335L52.7603 21.9145C52.7529 21.9018 52.7458 21.8887 52.7391 21.8755C52.73 21.858 52.7214 21.8403 52.7133 21.8221L52.7024 21.7958C52.649 21.6611 52.6223 21.5171 52.624 21.3721C52.624 21.2281 52.6484 21.0947 52.7001 20.9684C52.7495 20.8419 52.8212 20.7333 52.9111 20.6421C53.0009 20.5489 53.1085 20.4781 53.2298 20.4226C53.3577 20.3663 53.4962 20.3382 53.6359 20.3403C53.7951 20.3403 53.9434 20.3604 54.078 20.4002C54.2128 20.44 54.3271 20.5067 54.4212 20.6002L54.2576 20.8775C54.2244 20.8473 54.1887 20.8202 54.1509 20.7965C54.1323 20.7848 54.1132 20.7739 54.0935 20.7637C54.0781 20.7559 54.0625 20.7486 54.0465 20.7416L54.0165 20.7294L53.9836 20.7174C53.8872 20.6864 53.7865 20.6708 53.6853 20.671C53.6492 20.671 53.6138 20.6739 53.5789 20.6794C53.5272 20.6877 53.4768 20.7023 53.4271 20.7221C53.3454 20.7549 53.2708 20.8033 53.2074 20.8643C53.1866 20.8846 53.1672 20.9062 53.1494 20.9288L53.1337 20.9494C53.103 20.9919 53.0772 21.0377 53.0569 21.0861C53.0189 21.1723 53.0009 21.2679 53.0009 21.3744C53.0009 21.483 53.021 21.5807 53.0591 21.665C53.0973 21.7515 53.149 21.8249 53.2141 21.8869C53.279 21.9492 53.3553 21.9955 53.4428 22.0268C53.5306 22.0577 53.6225 22.0757 53.7212 22.0757C53.7941 22.0757 53.8621 22.0669 53.9258 22.0494C53.9418 22.045 53.9576 22.04 53.9731 22.0346C53.9983 22.026 54.0228 22.0158 54.0466 22.0044C54.1399 21.9593 54.2237 21.8968 54.2935 21.8205L54.4617 22.0731ZM54.6457 20.3825H56.4634V20.7333H55.7316V22.3572H55.3772V20.7333H54.6457V20.3825ZM56.8492 20.383H57.2039V20.6158C57.2711 20.5356 57.3676 20.4718 57.4911 20.4184C57.6146 20.365 57.7447 20.3385 57.8836 20.3385C57.9061 20.338 57.9285 20.3385 57.9509 20.3398C57.9961 20.3424 58.0409 20.3481 58.085 20.357C58.1474 20.3695 58.2085 20.3885 58.2673 20.4137C58.3781 20.4601 58.4772 20.5307 58.5569 20.6202C58.6383 20.7122 58.7008 20.8192 58.741 20.9351C58.7617 20.9945 58.7776 21.0567 58.7885 21.1221C58.8001 21.1913 58.806 21.2637 58.806 21.3393C58.806 21.4877 58.7813 21.6278 58.7319 21.7583C58.6826 21.8893 58.6129 22.0002 58.521 22.096C58.4275 22.1913 58.3163 22.2674 58.1935 22.32C58.0655 22.3731 57.9241 22.4018 57.7671 22.4018C57.6615 22.4018 57.5583 22.3908 57.4596 22.3687C57.3609 22.3465 57.2757 22.3132 57.2039 22.2666V23.2361H56.8492V20.383ZM57.7807 20.6689C57.6617 20.6689 57.5518 20.6958 57.4508 20.7492C57.35 20.8023 57.2668 20.8666 57.2042 20.9419V21.9205C57.2845 21.9744 57.3732 22.015 57.4665 22.0406C57.5518 22.0627 57.6418 22.0736 57.738 22.0736C57.8374 22.0755 57.9359 22.0564 58.0276 22.0182C58.1098 21.9846 58.184 21.9338 58.2452 21.8695C58.3061 21.8044 58.3529 21.7273 58.3823 21.6432C58.4135 21.5544 58.4316 21.459 58.4316 21.3525C58.4316 21.3301 58.431 21.308 58.4296 21.2864L58.4266 21.2512L58.4237 21.2262L58.4198 21.2005L58.4152 21.1757L58.409 21.1468C58.4034 21.1231 58.3967 21.0999 58.3889 21.0773C58.362 20.9932 58.3194 20.9221 58.2634 20.8598C58.207 20.7979 58.1398 20.7512 58.0591 20.7179C57.9759 20.6846 57.8839 20.6689 57.7807 20.6689ZM61.1711 20.3827H61.5258V22.3575H61.1711V20.3827ZM59.6701 20.3827H59.3154H59.3133V22.3596H59.9572C60.1143 22.3596 60.2444 22.3374 60.3522 22.2978C60.4599 22.2577 60.5452 22.2046 60.6079 22.138C60.6708 22.0713 60.718 21.9981 60.7449 21.9137C60.774 21.8296 60.7874 21.745 60.7874 21.6562C60.7874 21.5674 60.774 21.4833 60.7492 21.401C60.7247 21.3192 60.682 21.2458 60.6215 21.1838C60.5609 21.1215 60.4802 21.0705 60.379 21.0327C60.278 20.9952 60.1525 20.9752 59.9975 20.9752H59.6701V20.3827ZM59.9306 22.0291H59.6724V21.3057V21.301H59.935C60.1055 21.301 60.2289 21.3322 60.3031 21.3945C60.3749 21.4567 60.4129 21.5473 60.4129 21.6674C60.4129 21.7851 60.377 21.8736 60.3052 21.9356C60.2335 21.9981 60.1077 22.0291 59.9306 22.0291ZM63.2268 21.3346L63.9852 22.3575H63.55L62.9642 21.5585L62.3695 22.3575H61.9566L62.7105 21.352L62.0014 20.3825H62.437L62.9777 21.1281L63.5273 20.3825H63.9404L63.2268 21.3346ZM32.0757 24.7981H30.9874V26.4447H30.6327V24.47H32.4301V26.4447H32.0757V24.7981ZM34.4429 24.8202H33.7429L33.7202 25.1531C33.7047 25.3304 33.6857 25.4856 33.662 25.6195C33.6479 25.6984 33.6323 25.77 33.6149 25.8343C33.5676 26.0075 33.5093 26.1406 33.4421 26.2338C33.3749 26.327 33.2961 26.3913 33.2063 26.4226C33.1136 26.4562 33.0155 26.4726 32.917 26.4713L32.89 26.1294C32.9282 26.1314 32.9729 26.1228 33.0223 26.1007C33.0719 26.0786 33.1213 26.0296 33.1681 25.9567C33.2154 25.8809 33.2581 25.7744 33.2961 25.6369C33.3343 25.4971 33.3591 25.3153 33.3724 25.0864L33.4085 24.4718H34.7976V26.4468H34.4429V24.8202ZM35.4481 24.6051C35.5356 24.5497 35.6388 24.5054 35.7534 24.4744C35.8703 24.4421 35.991 24.4257 36.1124 24.4257C36.3951 24.4257 36.5948 24.4963 36.7071 24.6364C36.8214 24.7762 36.8778 24.976 36.8778 25.2333V26.4447H36.5455V26.1895C36.487 26.265 36.4063 26.3317 36.3055 26.3893C36.2043 26.4471 36.0722 26.476 35.906 26.476C35.722 26.476 35.5737 26.4226 35.4617 26.3161C35.4002 26.258 35.3556 26.1864 35.3278 26.1018C35.3048 26.0317 35.2934 25.9531 35.2934 25.8658C35.2933 25.8518 35.2935 25.8377 35.2943 25.8236C35.296 25.7926 35.3 25.7622 35.3064 25.7322C35.3162 25.6856 35.3313 25.6403 35.3516 25.5971C35.3886 25.5205 35.4422 25.4531 35.5086 25.3999C35.544 25.3708 35.584 25.3458 35.6283 25.3247C35.6655 25.307 35.7058 25.2921 35.7489 25.2799C35.843 25.2531 35.942 25.2377 36.0473 25.2377C36.1332 25.2387 36.2188 25.2476 36.303 25.2643C36.3353 25.27 36.367 25.2783 36.3977 25.289C36.45 25.3072 36.4998 25.3325 36.5455 25.364C36.5455 25.2731 36.5409 25.189 36.5297 25.1111C36.5237 25.07 36.5153 25.032 36.5039 24.9973C36.4981 24.9796 36.4916 24.9627 36.4843 24.9468C36.4789 24.9353 36.4732 24.9242 36.4671 24.9137C36.4356 24.8603 36.3908 24.8161 36.33 24.7872C36.2905 24.7671 36.2436 24.7533 36.1883 24.7463L36.1612 24.7434C36.1393 24.7416 36.1163 24.7406 36.0921 24.7406C35.9689 24.7406 35.8654 24.7541 35.7847 24.7827C35.7612 24.7911 35.7378 24.7999 35.7143 24.809C35.6572 24.8314 35.5999 24.8564 35.5425 24.8848L35.4481 24.6051ZM36.0318 26.1585C36.1132 26.1585 36.1849 26.1481 36.2469 26.1262C36.2841 26.113 36.3179 26.0958 36.3481 26.0739C36.421 26.0257 36.4874 25.9682 36.5457 25.9031V25.6523C36.4223 25.5637 36.2718 25.5218 36.0969 25.5218C36.0765 25.5218 36.056 25.5226 36.0357 25.5244C36.0034 25.5275 35.9714 25.5333 35.9399 25.5413C35.888 25.5549 35.8412 25.5747 35.803 25.6015C35.7649 25.6281 35.731 25.6614 35.7065 25.7036C35.6817 25.7458 35.6705 25.7924 35.6705 25.8478C35.6705 25.9408 35.702 26.0163 35.7649 26.0739C35.8276 26.1296 35.915 26.1585 36.0318 26.1585ZM37.2276 24.47H39.0453V24.8205H38.3136V26.4447H37.9591V24.8208H37.2276V24.47ZM40.8616 26.359C40.8116 26.3851 40.7584 26.407 40.7015 26.4247C40.5668 26.4669 40.4322 26.4893 40.2996 26.4893C40.1491 26.4911 39.9995 26.4663 39.8577 26.4158C39.7253 26.3671 39.6129 26.2981 39.521 26.2072C39.4289 26.1163 39.3551 26.0075 39.3055 25.8812C39.2561 25.7544 39.2292 25.6127 39.2292 25.4572C39.228 25.3195 39.2516 25.1827 39.2989 25.0533C39.319 24.9968 39.3446 24.9426 39.375 24.8913C39.4099 24.8325 39.4513 24.7773 39.4986 24.7273C39.5896 24.633 39.6989 24.5583 39.8197 24.5075C39.9474 24.4541 40.0933 24.4255 40.2594 24.4255C40.383 24.4247 40.5055 24.4473 40.6207 24.4921C40.7308 24.533 40.8314 24.5958 40.9167 24.6762C41.0012 24.7575 41.0684 24.8549 41.1143 24.9624C41.1637 25.0734 41.1884 25.1955 41.1884 25.3307C41.1884 25.4218 41.1815 25.4997 41.166 25.5682H39.6311C39.6469 25.7546 39.7162 25.9012 39.8442 26.0054C39.9722 26.1096 40.1337 26.1606 40.3289 26.1606C40.4591 26.1606 40.578 26.1408 40.6834 26.101C40.789 26.0609 40.8765 26.0122 40.9416 25.9541L41.0492 26.2294C40.9922 26.2804 40.93 26.3236 40.8616 26.359ZM40.2416 24.7538C40.0574 24.7538 39.9116 24.8028 39.8017 24.9025C39.6931 25.0005 39.6237 25.1346 39.6065 25.2799H40.8182C40.8093 25.1156 40.7554 24.9869 40.6546 24.8937C40.5535 24.8028 40.4167 24.7538 40.2416 24.7538ZM41.81 24.47H41.3612L42.0948 25.4218L41.3276 26.4447H41.7628L42.4943 25.4221L41.81 24.47ZM42.9365 24.47H42.5818V26.4447H42.9365V24.47ZM43.4233 25.4218L44.2042 26.4447H43.7645L43.0238 25.4218L43.7126 24.4697H44.1528L43.4233 25.4218ZM46.1721 26.2294C46.0735 26.3179 45.9591 26.3825 45.8244 26.4247C45.6945 26.4663 45.5591 26.4882 45.4228 26.4893C45.2723 26.4911 45.1225 26.4663 44.9807 26.4158C44.8482 26.3671 44.7362 26.2981 44.6442 26.2072C44.5521 26.1163 44.478 26.0075 44.4287 25.8812C44.3793 25.7544 44.3525 25.6127 44.3525 25.4572C44.3511 25.3195 44.3746 25.1827 44.422 25.0533C44.4651 24.932 44.5332 24.8208 44.6218 24.7273C44.7126 24.633 44.8219 24.5583 44.9426 24.5075C45.0706 24.4541 45.2164 24.4255 45.3823 24.4255C45.5059 24.4247 45.6284 24.4473 45.7436 24.4921C45.8538 24.533 45.9544 24.5958 46.0399 24.6762C46.1242 24.7575 46.1913 24.8549 46.2373 24.9624C46.2869 25.0734 46.3113 25.1955 46.3113 25.3307C46.3113 25.4218 46.3047 25.4997 46.2889 25.5682H44.7541C44.7698 25.7546 44.8393 25.9012 44.9671 26.0054C45.0951 26.1096 45.2567 26.1606 45.4518 26.1606C45.582 26.1606 45.7009 26.1408 45.8065 26.101C45.9119 26.0609 45.9994 26.0122 46.0645 25.9541L46.1721 26.2294ZM45.3647 24.7538C45.1807 24.7538 45.0348 24.8028 44.9248 24.9025C44.816 25.0005 44.7466 25.1346 44.7294 25.2799H45.9413C45.9324 25.1156 45.8785 24.9869 45.7775 24.8937C45.6764 24.8028 45.5375 24.7538 45.3647 24.7538ZM47.504 23.7158C47.5611 23.7762 47.6432 23.8064 47.75 23.8064C47.9474 23.8064 48.0574 23.6911 48.0732 23.4604H48.4052C48.4052 23.5489 48.3895 23.6288 48.3581 23.7044C48.3268 23.7799 48.2818 23.8442 48.2258 23.8973C48.2007 23.9202 48.1738 23.9416 48.1451 23.9609C48.107 23.9864 48.0654 24.0083 48.0194 24.026C47.9737 24.0447 47.9251 24.0577 47.8732 24.0658C47.8333 24.0718 47.7915 24.0747 47.7477 24.0747C47.7054 24.0747 47.665 24.0723 47.6267 24.0676C47.5655 24.0601 47.5094 24.0465 47.4583 24.026C47.3754 23.9929 47.3034 23.9507 47.2474 23.8973C47.2136 23.8653 47.1845 23.8288 47.1604 23.7885C47.1447 23.7622 47.131 23.734 47.1194 23.7044C47.1031 23.6624 47.0912 23.6189 47.0837 23.5734C47.0777 23.5372 47.0746 23.4997 47.0746 23.4604H47.409C47.4177 23.5731 47.4495 23.6583 47.504 23.7158ZM47.1462 26.4447H46.7917V24.4697H47.1462V25.9408L48.2996 24.4697H48.6543V26.4447H48.2996V24.9734L47.1462 26.4447Z" fill="black"/>
</svg>
