<svg width="21" height="18" viewBox="0 0 21 18" fill="none" xmlns="http://www.w3.org/2000/svg">
<path d="M1.6249 7.63537C6.99359 5.29631 10.5736 3.75426 12.3648 3.00922C17.4792 0.881975 18.5419 0.51245 19.2346 0.500118C19.3869 0.497565 19.7276 0.53532 19.9482 0.714361C20.1345 0.86554 20.1858 1.06976 20.2103 1.2131C20.2348 1.35643 20.2654 1.68295 20.2411 1.93808C19.964 4.85012 18.7647 11.9169 18.1546 15.1784C17.8965 16.5585 17.3882 17.0212 16.8961 17.0665C15.8266 17.1649 15.0145 16.3597 13.9787 15.6807C12.3578 14.6182 11.4421 13.9568 9.86879 12.92C8.05053 11.7218 9.22923 11.0633 10.2654 9.98699C10.5366 9.70533 15.2487 5.41933 15.3399 5.03052C15.3513 4.98189 15.3619 4.80063 15.2542 4.70492C15.1465 4.60921 14.9876 4.64194 14.8729 4.66797C14.7104 4.70487 12.121 6.41634 7.10486 9.80237C6.36988 10.3071 5.70416 10.553 5.1077 10.5401C4.45015 10.5259 3.18528 10.1683 2.24498 9.86264C1.09166 9.48774 0.175027 9.28953 0.254845 8.65284C0.296419 8.32121 0.753103 7.98205 1.6249 7.63537Z" fill="white"/>
</svg>
