<svg width="31" height="31" viewBox="0 0 31 31" fill="" xmlns="http://www.w3.org/2000/svg">
<path d="M15.375 15.3067C18.0388 15.3067 20.1984 12.5697 20.1984 9.19343C20.1984 5.81708 19.4893 3.08008 15.375 3.08008C11.2607 3.08008 10.5515 5.81708 10.5515 9.19343C10.5515 12.5697 12.7111 15.3067 15.375 15.3067Z" fill=""/>
<path d="M24.4749 23.9251C24.3856 18.0435 23.6495 16.3676 18.0163 15.3068C18.0163 15.3068 17.2234 16.3611 15.3752 16.3611C13.5269 16.3611 12.7339 15.3068 12.7339 15.3068C7.16218 16.356 6.38128 18.0071 6.2786 23.734C6.27018 24.2017 6.26628 24.2263 6.26477 24.172C6.26511 24.2737 6.26552 24.4618 6.26552 24.7899C6.26552 24.7899 7.60664 27.611 15.3752 27.611C23.1435 27.611 24.4848 24.7899 24.4848 24.7899C24.4848 24.5791 24.4849 24.4325 24.4851 24.3328C24.4836 24.3664 24.4806 24.3013 24.4749 23.9251Z" fill=""/>
<path d="M15.3755 27.7168C15.3738 27.6588 15.3746 27.5109 15.3755 27.7168V27.7168Z" fill=""/>
<path d="M15.3743 27.9038C15.3752 27.5128 15.3769 27.8474 15.3743 27.9038V27.9038Z" fill=""/>
</svg>
