<svg width="44" height="46" viewBox="0 0 44 46" fill="none" xmlns="http://www.w3.org/2000/svg">
<path d="M9.46662 0.990653C8.55951 1.25454 7.37202 2.17814 6.84425 3.01928C6.44842 3.679 6.34946 4.04184 6.28349 5.04791C6.20103 6.79615 6.51439 7.48885 8.1307 9.17113L9.45013 10.54H10.819C11.5777 10.54 12.2044 10.4906 12.2044 10.4081C12.2044 10.3421 11.3798 9.468 10.3902 8.47843C9.10378 7.20847 8.51003 6.48279 8.37809 6.05397C7.83383 4.25625 9.45013 2.52449 11.2808 2.95331C11.8251 3.06876 12.5178 3.679 15.668 6.81264L19.3953 10.54H21.9353H24.4752L28.2025 6.82914C32.2598 2.78838 32.5237 2.60696 33.7936 2.95331C34.5853 3.16772 35.4099 4.04184 35.5584 4.86648C35.7563 5.95501 35.4264 6.53227 33.4803 8.47843C32.4907 9.468 31.6661 10.3421 31.6661 10.4081C31.6661 10.4906 32.2763 10.54 33.035 10.54H34.4204L35.6738 9.2371C37.2242 7.63729 37.587 6.9116 37.6035 5.32828C37.6035 4.40468 37.521 3.99236 37.1747 3.31615C36.1851 1.337 33.9586 0.413403 31.732 1.05663C30.7919 1.32051 30.627 1.46895 26.3553 5.72411L21.9353 10.1112L17.5316 5.72411C13.3919 1.61738 13.0621 1.32051 12.2209 1.07312C11.2314 0.792739 10.2583 0.759753 9.46662 0.990653Z" fill="white"/>
<path d="M0.11545 12.9649C0.0494787 13.0144 0 14.2843 0 15.7687V18.457H8.49384H16.9877V15.6532V12.8494H8.60929C3.99128 12.8494 0.164929 12.8989 0.11545 12.9649Z" fill="white"/>
<path d="M19.5764 12.9482C19.5104 13.0142 19.4609 20.4855 19.4609 29.5401V46H21.9349H24.4088L24.3758 29.4576L24.3263 12.9318L22.0008 12.8823C20.7309 12.8658 19.6424 12.8988 19.5764 12.9482Z" fill="white"/>
<path d="M26.8828 15.6532V18.457H35.3767H43.8705L43.8375 15.6862L43.788 12.9319L35.3437 12.8824L26.8828 12.8494V15.6532Z" fill="white"/>
<path d="M3.66189 32.9871L3.71137 45.0434L4.25564 45.5217L4.78341 46H10.8858H16.9881V33.4654V20.9308H10.3085H3.62891L3.66189 32.9871Z" fill="white"/>
<path d="M26.8828 33.4654V46H32.9852H39.0876L39.6153 45.5217L40.1596 45.0434L40.2091 32.9871L40.2421 20.9308H33.5624H26.8828V33.4654Z" fill="white"/>
</svg>
