<svg width="143" height="99" viewBox="0 0 143 99" fill="none" xmlns="http://www.w3.org/2000/svg">
<path d="M113.595 81.0453C113.294 81.0292 112.839 81.1822 112.591 81.38C112.402 81.537 112.334 81.6358 112.208 81.9319C111.999 82.4498 112.021 82.6915 112.33 83.3686L112.583 83.9199L112.996 84.0642C113.224 84.1442 113.418 84.1953 113.427 84.1705C113.434 84.1506 113.278 83.8004 113.084 83.398C112.83 82.8799 112.728 82.5988 112.733 82.4557C112.759 81.8569 113.428 81.5056 113.934 81.8277C114.086 81.9198 114.231 82.1766 114.849 83.4525L115.579 84.968L116.344 85.2357L117.109 85.5034L118.623 84.7784C120.271 83.9889 120.37 83.9621 120.716 84.2002C120.931 84.3482 121.088 84.6984 121.045 84.9625C120.99 85.3112 120.83 85.4503 120.039 85.8314C119.637 86.0252 119.296 86.2016 119.289 86.2215C119.28 86.2463 119.459 86.3255 119.687 86.4055L120.105 86.5515L120.62 86.2911C121.255 85.9726 121.441 85.7923 121.613 85.3171C121.71 85.0389 121.729 84.906 121.696 84.6658C121.606 83.9654 121.033 83.4525 120.294 83.4116C119.983 83.3921 119.918 83.4194 118.183 84.2509L116.389 85.1066L115.525 83.321C114.711 81.6477 114.643 81.5236 114.416 81.3604C114.147 81.1717 113.858 81.0592 113.595 81.0453Z" fill="white" fill-opacity="0.28"/>
<path d="M109.516 83.6665C109.491 83.6744 109.342 84.0517 109.186 84.4988L108.902 85.3086L111.461 86.2037L114.019 87.0989L114.315 86.2543L114.61 85.4098L112.087 84.5268C110.696 84.0401 109.538 83.6518 109.516 83.6665Z" fill="white" fill-opacity="0.28"/>
<path d="M115.38 85.7109C115.353 85.7238 114.551 87.969 113.597 90.6964L111.862 95.6543L112.607 95.915L113.353 96.1757L115.086 91.1895L116.813 86.2065L116.118 85.9465C115.737 85.8077 115.405 85.7029 115.38 85.7109Z" fill="white" fill-opacity="0.28"/>
<path d="M117.295 87.2971L117 88.1416L119.558 89.0367L122.117 89.9319L122.399 89.0938L122.674 88.259L120.136 87.3541L117.591 86.4525L117.295 87.2971Z" fill="white" fill-opacity="0.28"/>
<path d="M108.474 90.0711L107.218 93.7079L107.332 93.9093L107.441 94.109L109.279 94.7521L111.117 95.3952L112.438 91.6196L113.759 87.844L111.747 87.1401L109.735 86.4361L108.474 90.0711Z" fill="white" fill-opacity="0.28"/>
<path d="M115.419 92.6609L114.098 96.4365L115.936 97.0796L117.774 97.7227L117.983 97.6343L118.198 97.5476L119.483 93.9213L120.764 90.2933L118.752 89.5893L116.74 88.8854L115.419 92.6609Z" fill="white" fill-opacity="0.28"/>
<path d="M130.909 45.013C130.62 45.1012 130.246 45.4012 130.081 45.6719C129.958 45.8842 129.928 46.0004 129.911 46.3217C129.893 46.8799 129.996 47.0996 130.519 47.6292L130.946 48.0601L131.383 48.054C131.625 48.0507 131.825 48.0321 131.824 48.0058C131.824 47.9847 131.557 47.7095 131.237 47.3981C130.821 46.9986 130.628 46.7697 130.584 46.6334C130.402 46.0622 130.91 45.5025 131.496 45.6312C131.671 45.6656 131.894 45.8572 132.913 46.8431L134.119 48.0159L134.93 48.0047L135.74 47.9934L136.913 46.7927C138.19 45.4854 138.273 45.4263 138.68 45.5312C138.933 45.5961 139.2 45.8714 139.251 46.1338C139.319 46.4803 139.217 46.6659 138.604 47.2956C138.293 47.6157 138.034 47.8983 138.034 47.9194C138.034 47.9457 138.229 47.9588 138.471 47.9554L138.914 47.9492L139.308 47.5279C139.795 47.0106 139.908 46.7774 139.906 46.2721C139.902 45.9774 139.874 45.8462 139.76 45.632C139.436 45.0048 138.721 44.72 138.014 44.9351C137.715 45.0235 137.663 45.0716 136.319 46.4484L134.928 47.8678L133.503 46.4875C132.164 45.1955 132.057 45.1022 131.788 45.027C131.471 44.942 131.16 44.9358 130.909 45.013Z" fill="white" fill-opacity="0.28"/>
<path d="M127.978 48.8759C127.957 48.892 127.947 49.2975 127.954 49.7711L127.966 50.6289L130.676 50.5912L133.386 50.5535L133.374 49.6588L133.361 48.7642L130.688 48.8014C129.214 48.8219 127.994 48.8547 127.978 48.8759Z" fill="white" fill-opacity="0.28"/>
<path d="M134.188 48.7842C134.167 48.8055 134.185 51.1897 134.225 54.0789L134.298 59.3311L135.087 59.3201L135.877 59.3091L135.793 54.0308L135.704 48.7578L134.961 48.7524C134.556 48.7528 134.209 48.7681 134.188 48.7842Z" fill="white" fill-opacity="0.28"/>
<path d="M136.531 49.6141L136.544 50.5088L139.254 50.4711L141.964 50.4334L141.942 49.5494L141.914 48.6707L139.219 48.6924L136.519 48.7195L136.531 49.6141Z" fill="white" fill-opacity="0.28"/>
<path d="M129.199 55.249L129.268 59.0958L129.444 59.246L129.614 59.3962L131.562 59.3691L133.509 59.3421L133.453 55.3424L133.398 51.3428L131.266 51.3725L129.135 51.4021L129.199 55.249Z" fill="white" fill-opacity="0.28"/>
<path d="M136.61 55.2982L136.666 59.2979L138.613 59.2708L140.56 59.2437L140.727 59.0887L140.898 58.9337L140.86 55.0865L140.817 51.2393L138.686 51.269L136.555 51.2986L136.61 55.2982Z" fill="white" fill-opacity="0.28"/>
<path d="M91.0211 12.2024C90.7328 12.2906 90.358 12.5906 90.1933 12.8614C90.0699 13.0736 90.04 13.1898 90.0234 13.5112C90.0048 14.0694 90.1079 14.289 90.6311 14.8186L91.0582 15.2496L91.495 15.2435C91.7371 15.2401 91.9368 15.2215 91.9365 15.1952C91.9362 15.1742 91.6692 14.8989 91.349 14.5876C90.9329 14.188 90.7402 13.9591 90.6962 13.8229C90.5146 13.2517 91.0226 12.6919 91.6087 12.8206C91.7829 12.855 92.0066 13.0467 93.0257 14.0326L94.2316 15.2054L95.042 15.1941L95.8525 15.1828L97.0254 13.9822C98.302 12.6748 98.3854 12.6158 98.7922 12.7207C99.0457 12.7856 99.3128 13.0608 99.3638 13.3233C99.4318 13.6697 99.3291 13.8554 98.7167 14.485C98.4054 14.8052 98.1461 15.0878 98.1464 15.1088C98.1468 15.1351 98.3417 15.1482 98.5838 15.1448L99.0259 15.1387L99.42 14.7174C99.9076 14.2 100.02 13.9668 100.018 13.4616C100.014 13.1668 99.9862 13.0356 99.8726 12.8214C99.5481 12.1943 98.8335 11.9095 98.1259 12.1246C97.8271 12.213 97.7752 12.2611 96.431 13.6378L95.0401 15.0573L93.6155 13.677C92.2764 12.385 92.1698 12.2917 91.9003 12.2165C91.5833 12.1314 91.2726 12.1252 91.0211 12.2024Z" fill="white" fill-opacity="0.28"/>
<path d="M88.0906 16.0654C88.0697 16.0815 88.0596 16.4869 88.0662 16.9605L88.0781 17.8184L90.7884 17.7806L93.4987 17.7429L93.4862 16.8483L93.4738 15.9536L90.8003 15.9908C89.3268 16.0113 88.1061 16.0441 88.0906 16.0654Z" fill="white" fill-opacity="0.28"/>
<path d="M94.3002 15.9736C94.2795 15.995 94.2969 18.3792 94.3371 21.2684L94.4102 26.5205L95.1996 26.5095L95.989 26.4985L95.905 21.2202L95.8158 15.9473L95.0736 15.9418C94.6683 15.9422 94.3211 15.9576 94.3002 15.9736Z" fill="white" fill-opacity="0.28"/>
<path d="M96.6438 16.8036L96.6562 17.6982L99.3665 17.6605L102.077 17.6228L102.054 16.7388L102.026 15.8602L99.3312 15.8819L96.6314 15.9089L96.6438 16.8036Z" fill="white" fill-opacity="0.28"/>
<path d="M89.3111 22.4384L89.3805 26.2852L89.5563 26.4354L89.7268 26.5857L91.674 26.5586L93.6211 26.5315L93.5655 22.5319L93.5098 18.5323L91.3785 18.5619L89.2471 18.5916L89.3111 22.4384Z" fill="white" fill-opacity="0.28"/>
<path d="M96.7227 22.4877L96.7783 26.4873L98.7255 26.4602L100.673 26.4331L100.839 26.2782L101.011 26.1231L100.973 22.2759L100.93 18.4288L98.7984 18.4584L96.667 18.4881L96.7227 22.4877Z" fill="white" fill-opacity="0.28"/>
<path d="M37.5512 20.0702C37.3556 20.2996 37.2008 20.754 37.2075 21.0708C37.2176 21.3161 37.2548 21.4302 37.4136 21.7101C37.698 22.1907 37.903 22.3205 38.6289 22.4858L39.2207 22.6196L39.5857 22.3796C39.788 22.2467 39.9465 22.1236 39.932 22.1016C39.9205 22.084 39.5473 21.9955 39.11 21.905C38.5443 21.7919 38.2588 21.7024 38.1485 21.6112C37.6882 21.2272 37.8157 20.4821 38.379 20.2756C38.5444 20.211 38.8361 20.2523 40.2254 20.5357L41.8727 20.8763L42.55 20.4311L43.2273 19.9859L43.5708 18.343C43.9445 16.5543 43.9831 16.4597 44.3824 16.3294C44.6311 16.2478 45.0042 16.3364 45.1884 16.5303C45.432 16.7858 45.4452 16.9976 45.2673 17.8577C45.1769 18.295 45.1102 18.6727 45.1218 18.6903C45.1362 18.7123 45.3076 18.6185 45.51 18.4855L45.8794 18.2427L45.9853 17.6755C46.1183 16.9772 46.0878 16.72 45.8147 16.2949C45.6528 16.0486 45.5585 15.9531 45.3476 15.8335C44.7368 15.4792 43.9812 15.6232 43.5002 16.185C43.2958 16.4202 43.2778 16.4887 42.8846 18.3721L42.4749 20.3168L40.5316 19.9188C38.7078 19.5493 38.5678 19.5279 38.3002 19.6094C37.9871 19.7081 37.7219 19.8699 37.5512 20.0702Z" fill="white" fill-opacity="0.28"/>
<path d="M37.156 24.9029C37.1471 24.9277 37.3565 25.275 37.6167 25.6708L38.0879 26.3877L40.3529 24.8989L42.6179 23.41L42.1265 22.6623L41.635 21.9147L39.4008 23.3833C38.1693 24.1927 37.1576 24.8766 37.156 24.9029Z" fill="white" fill-opacity="0.28"/>
<path d="M42.3428 21.4873C42.3367 21.5164 43.6332 23.5174 45.2203 25.932L48.1055 30.3213L48.7652 29.8876L49.4249 29.454L46.5165 25.0485L43.6065 20.6503L42.9777 21.0447C42.6362 21.2629 42.3517 21.4625 42.3428 21.4873Z" fill="white" fill-opacity="0.28"/>
<path d="M44.7654 20.9281L45.2568 21.6758L47.5219 20.1869L49.7869 18.6981L49.2924 17.965L48.7964 17.2392L46.5359 18.7062L44.2739 20.1804L44.7654 20.9281Z" fill="white" fill-opacity="0.28"/>
<path d="M41.6116 29.6208L43.7381 32.8271L43.9671 32.8593L44.1917 32.8943L45.8189 31.8247L47.4462 30.755L45.2491 27.4125L43.052 24.0699L41.2708 25.2407L39.4895 26.4116L41.6116 29.6208Z" fill="white" fill-opacity="0.28"/>
<path d="M47.8878 25.678L50.085 29.0205L51.7123 27.9509L53.3395 26.8812L53.3964 26.6611L53.4577 26.4382L51.3577 23.2145L49.2532 19.9937L47.4719 21.1646L45.6907 22.3354L47.8878 25.678Z" fill="white" fill-opacity="0.28"/>
<path d="M43.0002 62.7589C42.8469 62.9387 42.7255 63.295 42.7308 63.5434C42.7387 63.7357 42.7679 63.8251 42.8923 64.0445C43.1153 64.4213 43.276 64.5231 43.8451 64.6527L44.3091 64.7575L44.5952 64.5694C44.7538 64.4652 44.8781 64.3687 44.8667 64.3515C44.8577 64.3377 44.5651 64.2682 44.2223 64.1974C43.7788 64.1086 43.555 64.0385 43.4685 63.967C43.1076 63.666 43.2076 63.0818 43.6492 62.9199C43.7789 62.8692 44.0075 62.9016 45.0967 63.1239L46.3882 63.3909L46.9192 63.0419L47.4502 62.6928L47.7194 61.4048C48.0124 60.0025 48.0426 59.9283 48.3557 59.8262C48.5507 59.7623 48.8432 59.8317 48.9875 59.9837C49.1785 60.1841 49.1889 60.3501 49.0494 61.0244C48.9785 61.3672 48.9263 61.6633 48.9353 61.6771C48.9467 61.6943 49.081 61.6208 49.2396 61.5165L49.5293 61.3262L49.6123 60.8815C49.7165 60.334 49.6927 60.1325 49.4785 59.7992C49.3516 59.6061 49.2777 59.5312 49.1124 59.4375C48.6335 59.1597 48.0411 59.2726 47.6641 59.713C47.5038 59.8974 47.4897 59.9511 47.1814 61.4276L46.8602 62.9522L45.3368 62.6402C43.907 62.3505 43.7972 62.3338 43.5874 62.3976C43.342 62.475 43.134 62.6018 43.0002 62.7589Z" fill="white" fill-opacity="0.28"/>
<path d="M42.6903 66.5479C42.6833 66.5673 42.8475 66.8396 43.0515 67.1499L43.4209 67.7119L45.1966 66.5447L46.9723 65.3775L46.587 64.7913L46.2017 64.2052L44.4502 65.3565C43.4847 65.9911 42.6916 66.5273 42.6903 66.5479Z" fill="white" fill-opacity="0.28"/>
<path d="M46.7566 63.8693C46.7519 63.8922 47.7683 65.4609 49.0125 67.3538L51.2744 70.7949L51.7916 70.455L52.3088 70.115L50.0287 66.6612L47.7474 63.2132L47.2544 63.5224C46.9867 63.6934 46.7636 63.8499 46.7566 63.8693Z" fill="white" fill-opacity="0.28"/>
<path d="M48.6557 63.4314L49.041 64.0176L50.8167 62.8504L52.5924 61.6832L52.2048 61.1084L51.8159 60.5394L50.0438 61.6895L48.2704 62.8453L48.6557 63.4314Z" fill="white" fill-opacity="0.28"/>
<path d="M46.1835 70.2457L47.8506 72.7594L48.0301 72.7846L48.2062 72.8121L49.4819 71.9735L50.7577 71.1349L49.0352 68.5144L47.3127 65.894L45.9163 66.8119L44.5199 67.7298L46.1835 70.2457Z" fill="white" fill-opacity="0.28"/>
<path d="M51.1037 67.1549L52.8262 69.7754L54.1019 68.9368L55.3777 68.0982L55.4223 67.9257L55.4703 67.7509L53.8239 65.2237L52.1741 62.6987L50.7776 63.6166L49.3812 64.5345L51.1037 67.1549Z" fill="white" fill-opacity="0.28"/>
<path d="M27.7095 82.6271C27.4741 82.6482 27.138 82.8177 26.9679 82.9987C26.839 83.1416 26.7972 83.2259 26.7325 83.4697C26.628 83.8949 26.6715 84.0801 26.9872 84.5709L27.2452 84.9706L27.5812 85.0366C27.7675 85.0731 27.9237 85.0912 27.9277 85.0709C27.9309 85.0548 27.7706 84.8004 27.5753 84.5098C27.3207 84.136 27.2099 83.9293 27.1982 83.8176C27.1513 83.3501 27.6315 83.0028 28.0603 83.1963C28.1883 83.2509 28.3289 83.4341 28.9512 84.3552L29.6866 85.4499L30.3102 85.5723L30.9337 85.6948L32.0276 84.9634C33.2184 84.167 33.2919 84.1352 33.587 84.2814C33.771 84.3722 33.9313 84.6265 33.928 84.8361C33.9241 85.1129 33.8153 85.2387 33.2437 85.6227C32.9531 85.8179 32.7085 85.9928 32.7053 86.009C32.7014 86.0292 32.8488 86.0708 33.035 86.1073L33.3751 86.1741L33.7457 85.9147C34.2034 85.5966 34.3274 85.436 34.4078 85.0481C34.4523 84.8213 34.4519 84.7161 34.3995 84.5335C34.2519 83.9999 33.7499 83.6658 33.1723 83.7164C32.9288 83.7359 32.8811 83.7644 31.6274 84.6031L30.3308 85.4671L29.4612 84.1778C28.6429 82.9701 28.5762 82.8814 28.3817 82.7801C28.1522 82.6636 27.915 82.6086 27.7095 82.6271Z" fill="white" fill-opacity="0.28"/>
<path d="M24.837 85.1163C24.8184 85.1252 24.7451 85.4346 24.6735 85.799L24.5439 86.459L26.6291 86.8684L28.7143 87.2778L28.8494 86.5894L28.9845 85.9011L26.9277 85.4973C25.794 85.2747 24.8523 85.1025 24.837 85.1163Z" fill="white" fill-opacity="0.28"/>
<path d="M29.6145 86.0499C29.5952 86.0629 29.2229 87.8946 28.7865 90.1174L27.9932 94.1582L28.6005 94.2774L29.2078 94.3967L29.997 90.3341L30.7814 86.2747L30.2129 86.1505C29.9019 86.0853 29.6331 86.0409 29.6145 86.0499Z" fill="white" fill-opacity="0.28"/>
<path d="M31.2787 87.0666L31.1436 87.7549L33.2287 88.1643L35.3139 88.5737L35.4393 87.8919L35.5599 87.2133L33.4893 86.7942L31.4138 86.3783L31.2787 87.0666Z" fill="white" fill-opacity="0.28"/>
<path d="M24.7417 90.2025L24.1728 93.1646L24.2834 93.3083L24.3899 93.4512L25.8879 93.7453L27.386 94.0394L27.9902 90.9623L28.5943 87.8851L26.9545 87.5632L25.3147 87.2412L24.7417 90.2025Z" fill="white" fill-opacity="0.28"/>
<path d="M30.4196 91.4395L29.8154 94.5166L31.3135 94.8107L32.8116 95.1048L32.9642 95.0129L33.1209 94.9217L33.7141 91.9644L34.3033 89.0062L32.6635 88.6843L31.0237 88.3623L30.4196 91.4395Z" fill="white" fill-opacity="0.28"/>
<path d="M7.04511 49.4949C6.88531 49.6691 6.75112 50.0207 6.74736 50.2691C6.74828 50.4616 6.77419 50.552 6.8906 50.7758C7.09978 51.1604 7.25668 51.268 7.82068 51.4181L8.28052 51.5397L8.57334 51.3621C8.73563 51.2637 8.86327 51.1718 8.85257 51.1542C8.84401 51.1401 8.5542 51.0601 8.21414 50.9768C7.7742 50.872 7.55304 50.7938 7.46918 50.7192C7.11952 50.4053 7.24058 49.8252 7.68782 49.6794C7.81922 49.6335 8.04657 49.6741 9.12697 49.9357L10.4079 50.2495L10.9512 49.9199L11.4945 49.5904L11.8103 48.313C12.154 46.9223 12.1869 46.8492 12.5035 46.7586C12.7006 46.7017 12.9904 46.7817 13.1292 46.9388C13.3127 47.146 13.3171 47.3123 13.1533 47.9811C13.07 48.3211 13.007 48.6151 13.0156 48.6292C13.0263 48.6469 13.1632 48.5783 13.3255 48.4798L13.6218 48.3001L13.7209 47.8588C13.845 47.3154 13.8285 47.1131 13.6266 46.7723C13.5067 46.5747 13.4356 46.4972 13.2738 46.3975C12.8053 46.1025 12.2092 46.1939 11.8164 46.6203C11.6495 46.7987 11.6335 46.8519 11.2719 48.3163L10.8955 49.8282L9.3844 49.4611C7.96607 49.1197 7.857 49.099 7.64498 49.1552C7.39692 49.2236 7.18449 49.3428 7.04511 49.4949Z" fill="white" fill-opacity="0.28"/>
<path d="M6.59828 53.2702C6.59058 53.2893 6.74476 53.5674 6.93735 53.8849L7.28613 54.46L9.10303 53.358L10.9199 52.256L10.5562 51.6562L10.1924 51.0565L8.40019 52.1435C7.41237 52.7426 6.6003 53.2496 6.59828 53.2702Z" fill="white" fill-opacity="0.28"/>
<path d="M10.759 50.7412C10.7535 50.7639 11.7122 52.3684 12.8869 54.3053L15.0225 57.8262L15.5517 57.5052L16.0808 57.1842L13.9276 53.65L11.7729 50.1214L11.2691 50.4125C10.9953 50.5738 10.7667 50.722 10.759 50.7412Z" fill="white" fill-opacity="0.28"/>
<path d="M12.6724 50.3719L13.0361 50.9717L14.853 49.8697L16.6699 48.7677L16.3034 48.1793L15.9355 47.5965L14.1227 48.6815L12.3086 49.7722L12.6724 50.3719Z" fill="white" fill-opacity="0.28"/>
<path d="M9.9545 57.093L11.5293 59.6655L11.7078 59.6972L11.8827 59.7311L13.188 58.9394L14.4934 58.1476L12.8671 55.4664L11.2409 52.7851L9.81208 53.6518L8.38326 54.5184L9.9545 57.093Z" fill="white" fill-opacity="0.28"/>
<path d="M14.9841 54.182L16.6104 56.8633L17.9157 56.0716L19.221 55.2798L19.2719 55.1091L19.3262 54.9361L17.7726 52.3508L16.2155 49.7676L14.7867 50.6342L13.3579 51.5008L14.9841 54.182Z" fill="white" fill-opacity="0.28"/>
<path d="M10.1466 -0.564928C9.76347 -0.596605 9.17778 -0.418339 8.85482 -0.175436C8.6084 0.0177111 8.518 0.141218 8.34656 0.513991C8.06087 1.16644 8.07919 1.4753 8.44875 2.34982L8.75106 3.06206L9.27133 3.26121C9.55968 3.37159 9.80507 3.44396 9.81707 3.41262C9.82667 3.38755 9.64042 2.93535 9.40829 2.41528C9.10412 1.74546 8.98403 1.38327 8.99627 1.20109C9.05096 0.43866 9.91721 0.0156306 10.5506 0.44495C10.7407 0.568011 10.9152 0.900719 11.6565 2.55001L12.5309 4.50894L13.4962 4.87846L14.4615 5.24798L16.4181 4.37988C18.548 3.4344 18.6747 3.40384 19.1069 3.72024C19.3766 3.9169 19.5629 4.3691 19.4993 4.70411C19.4162 5.14662 19.2068 5.31802 18.184 5.77455C17.6639 6.00668 17.2233 6.21893 17.2137 6.24401C17.2017 6.27535 17.4265 6.38293 17.7148 6.49331L18.2414 6.69487L18.9073 6.38203C19.7293 5.99954 19.9728 5.77653 20.2094 5.17716C20.3438 4.82613 20.3724 4.65743 20.3392 4.35003C20.251 3.45386 19.5391 2.7789 18.5993 2.69944C18.2036 2.66296 18.1194 2.69539 15.8768 3.69116L13.5586 4.71548L12.5232 2.40744C11.5473 0.244346 11.4651 0.0835254 11.1814 -0.132873C10.8461 -0.383404 10.4811 -0.53751 10.1466 -0.564928Z" fill="white" fill-opacity="0.28"/>
<path d="M4.85072 2.62474C4.81845 2.63395 4.61488 3.10942 4.39893 3.67357L4.00781 4.69531L7.23602 5.93104L10.4642 7.16677L10.8721 6.10115L11.2801 5.03553L8.09572 3.8166C6.34058 3.14474 4.87912 2.60687 4.85072 2.62474Z" fill="white" fill-opacity="0.28"/>
<path d="M12.2489 5.45108C12.2142 5.46656 11.1085 8.29893 9.79116 11.7403L7.39648 17.9961L8.33674 18.356L9.27699 18.7159L11.6711 12.424L14.0566 6.13587L13.18 5.77873C12.6997 5.58771 12.2812 5.44188 12.2489 5.45108Z" fill="white" fill-opacity="0.28"/>
<path d="M14.6325 7.54082L14.2246 8.60645L17.4528 9.84218L20.681 11.0779L21.0716 10.02L21.4535 8.96601L18.2513 7.71867L15.0404 6.4752L14.6325 7.54082Z" fill="white" fill-opacity="0.28"/>
<path d="M3.28561 10.7505L1.55039 15.3398L1.68767 15.6008L1.81867 15.8594L4.13796 16.7472L6.45726 17.635L8.28086 12.871L10.1045 8.10707L7.56578 7.13528L5.02709 6.16349L3.28561 10.7505Z" fill="white" fill-opacity="0.28"/>
<path d="M12.0414 14.3112L10.2178 19.0752L12.5371 19.963L14.8564 20.8508L15.1265 20.7458L15.403 20.6432L17.1758 16.0682L18.9424 11.4909L16.4037 10.5191L13.865 9.54728L12.0414 14.3112Z" fill="white" fill-opacity="0.28"/>
</svg>
