<svg width="31" height="31" viewBox="0 0 31 31" fill="none" xmlns="http://www.w3.org/2000/svg">
<path fill-rule="evenodd" clip-rule="evenodd" d="M10.5625 9.59169L8.21958 9.63041C7.11516 9.64866 6.23464 10.5588 6.25289 11.6632L6.47358 25.0176C6.49184 26.122 7.40194 27.0025 8.50636 26.9843L21.8775 26.7633C22.9819 26.745 23.8624 25.8349 23.8442 24.7305L23.6235 11.3761C23.6052 10.2717 22.6951 9.39119 21.5907 9.40944L19.2478 9.44816L10.5625 9.59169Z" fill="#FBBB1F"/>
<path d="M10.5983 11.7609L10.5625 9.59169M19.2836 11.6174L19.2478 9.44816M10.5625 9.59169L8.21958 9.63041C7.11516 9.64866 6.23464 10.5588 6.25289 11.6632L6.47358 25.0176C6.49184 26.122 7.40194 27.0025 8.50636 26.9843L21.8775 26.7633C22.9819 26.745 23.8624 25.8349 23.8442 24.7305L23.6235 11.3761C23.6052 10.2717 22.6951 9.39119 21.5907 9.40944L19.2478 9.44816M10.5625 9.59169L19.2478 9.44816M10.5625 9.59169L10.5266 7.42246C10.487 5.02546 12.4037 3.05179 14.7976 3.01223C17.1969 2.97258 19.1724 4.88735 19.2119 7.27893L19.2478 9.44816" stroke="#FBBB1F" stroke-width="1.5" stroke-linecap="round"/>
<path d="M13.9169 19.6563L12.1582 17.9775" stroke="white" stroke-width="1.5" stroke-linecap="round" stroke-linejoin="round"/>
<path d="M17.4389 16.2933L13.9163 19.6561" stroke="white" stroke-width="1.5" stroke-linecap="round" stroke-linejoin="round"/>
</svg>
