<svg width="31" height="30" viewBox="0 0 31 30" fill="none" xmlns="http://www.w3.org/2000/svg">
<path opacity="0.97" fill-rule="evenodd" clip-rule="evenodd" d="M21.7227 2.13882C22.3677 2.02254 22.8872 2.22306 23.2812 2.74039C23.6381 3.21722 23.8933 3.74586 24.0469 4.32632C24.6055 5.55855 25.5443 6.3333 26.8633 6.65054C27.4249 6.88985 27.8715 7.26353 28.2031 7.77164C28.4305 8.52955 28.23 9.14932 27.6016 9.63101C27.2929 10.1455 27.2747 10.6742 27.5469 11.2169C27.786 12.5252 27.303 13.4549 26.0977 14.006C25.2017 13.7683 24.3085 13.5222 23.418 13.2677C23.7206 12.9835 24.0031 12.6827 24.2656 12.3654C24.8543 11.2677 24.7176 10.2742 23.8555 9.38492C23.1612 8.86976 22.3956 8.72391 21.5586 8.94742C21.4368 8.8072 21.3365 8.65227 21.2578 8.48257C21.0466 7.97649 20.8461 7.46604 20.6562 6.95132C20.3372 6.54571 19.9179 6.34522 19.3984 6.34976C18.6357 6.4278 17.9066 6.62828 17.2109 6.95132C17.1687 6.94339 17.1322 6.92518 17.1016 6.89664C16.8822 6.03718 16.6543 5.18041 16.418 4.32632C17.1028 2.92684 18.1784 2.49845 19.6445 3.04117C20.2775 3.15224 20.7879 2.95171 21.1758 2.4396C21.3544 2.32314 21.5367 2.22288 21.7227 2.13882ZM22.4336 3.94351C22.9449 3.93615 23.0908 4.16401 22.8711 4.6271C22.4038 4.8088 22.1942 4.65385 22.2422 4.16226C22.2799 4.06108 22.3437 3.98816 22.4336 3.94351ZM23.1992 5.20132C23.2685 5.23358 23.3414 5.26093 23.418 5.28335C23.9838 6.06814 24.6856 6.69703 25.5234 7.17007C25.7055 7.53254 25.6053 7.76956 25.2227 7.88101C24.1721 7.39538 23.37 6.64797 22.8164 5.63882C22.8677 5.4236 22.9953 5.27777 23.1992 5.20132Z" fill="#E31E24"/>
<path opacity="0.979" fill-rule="evenodd" clip-rule="evenodd" d="M15.9258 5.91223C16.004 5.93305 16.0496 5.98774 16.0625 6.07629C16.3541 7.20652 16.6458 8.33669 16.9375 9.46692C17.6907 13.2545 16.7974 16.5904 14.2578 19.4747C12.643 21.1078 11.0115 22.721 9.36328 24.3146C8.27429 25.0311 7.14412 25.104 5.97265 24.5333C5.14855 23.8735 4.37381 23.1535 3.64844 22.3732C2.59115 20.9878 2.59115 19.6023 3.64844 18.2169C7.75191 14.1226 11.8443 10.021 15.9258 5.91223ZM14.5586 8.75598C15.0699 8.7486 15.2158 8.97648 14.9961 9.43958C14.5288 9.62125 14.3192 9.46632 14.3672 8.97473C14.4049 8.87356 14.4687 8.80061 14.5586 8.75598ZM13.4648 9.84973C13.9557 9.82862 14.1106 10.0474 13.9297 10.506C12.7539 11.6818 11.5781 12.8575 10.4023 14.0333C9.84633 14.2065 9.65493 14.0151 9.82812 13.4591C11.0346 12.2435 12.2468 11.0403 13.4648 9.84973ZM14.5586 14.006C15.0699 13.9986 15.2158 14.2265 14.9961 14.6896C14.5288 14.8712 14.3192 14.7163 14.3672 14.2247C14.4049 14.1236 14.4687 14.0506 14.5586 14.006ZM10.6211 18.381C11.1324 18.3736 11.2783 18.6015 11.0586 19.0646C10.5913 19.2462 10.3817 19.0913 10.4297 18.5997C10.4674 18.4986 10.5312 18.4256 10.6211 18.381ZM7.12109 19.6935C7.63242 19.6861 7.77827 19.914 7.55859 20.3771C7.09135 20.5587 6.88172 20.4038 6.92969 19.9122C6.9674 19.8111 7.03121 19.7381 7.12109 19.6935Z" fill="#E31E24"/>
<path opacity="0.95" fill-rule="evenodd" clip-rule="evenodd" d="M19.207 7.17001C19.4953 7.14168 19.7505 7.21458 19.9727 7.38876C20.1726 8.10763 20.4826 8.77301 20.9023 9.38485C20.6919 9.60448 20.4732 9.81409 20.2461 10.0138C19.4647 9.63811 18.6444 9.52873 17.7852 9.68563C17.6782 9.06663 17.5324 8.45593 17.3477 7.8536C17.5221 7.70245 17.7226 7.59307 17.9492 7.52548C18.3644 7.36546 18.7837 7.24695 19.207 7.17001Z" fill="#E31E24"/>
<path opacity="0.95" fill-rule="evenodd" clip-rule="evenodd" d="M21.9961 9.68566C23.2801 9.61156 23.8725 10.2131 23.7734 11.4903C23.7155 11.6609 23.6426 11.8249 23.5547 11.9825C23.2174 12.3198 22.8802 12.657 22.543 12.9943C22.3957 13.0178 22.2499 13.0086 22.1055 12.9669C22.0644 11.977 21.6816 11.1475 20.957 10.4786C21.237 10.1153 21.5834 9.85098 21.9961 9.68566Z" fill="#E31E24"/>
<path opacity="0.948" fill-rule="evenodd" clip-rule="evenodd" d="M18.1133 10.4513C19.3507 10.2949 20.3077 10.7324 20.9844 11.7638C21.1455 12.074 21.2458 12.4021 21.2852 12.7482C20.2033 12.5309 19.1187 12.4944 18.0312 12.6388C18.0328 11.9317 18.0054 11.2207 17.9492 10.506C18.0198 10.519 18.0745 10.5008 18.1133 10.4513Z" fill="#E31E24"/>
<path opacity="0.968" fill-rule="evenodd" clip-rule="evenodd" d="M18.8789 13.3497C19.707 13.3557 20.5273 13.4377 21.3398 13.5958C22.365 13.8433 23.3859 14.1077 24.4023 14.3888C24.4807 14.4015 24.508 14.438 24.4844 14.4982C20.3357 18.665 16.1704 22.8121 11.9883 26.9396C10.6426 27.7859 9.33009 27.7312 8.05078 26.7755C7.7127 26.4466 7.38458 26.1094 7.06641 25.7638C8.11449 25.8207 9.06239 25.5382 9.91016 24.9161C11.651 23.1753 13.3919 21.4343 15.1328 19.6935C16.6681 17.9164 17.5978 15.8565 17.9219 13.5138C18.2412 13.4322 18.5602 13.3775 18.8789 13.3497ZM19.3711 15.756C19.8824 15.7486 20.0283 15.9765 19.8086 16.4396C19.3413 16.6212 19.1317 16.4663 19.1797 15.9747C19.2174 15.8736 19.2812 15.8006 19.3711 15.756ZM17.1836 18.8185C17.6949 18.8111 17.8408 19.039 17.6211 19.5021C17.1538 19.6837 16.9442 19.5288 16.9922 19.0372C17.0299 18.9361 17.0937 18.8631 17.1836 18.8185Z" fill="#E31E24"/>
<path d="M15.6255 28.9594C15.6238 28.9014 15.6246 28.7536 15.6255 28.9594V28.9594Z" fill="#E31E24"/>
<path d="M15.6243 29.1463C15.6252 28.7553 15.6269 29.09 15.6243 29.1463V29.1463Z" fill="#E31E24"/>
</svg>
