<svg width="112" height="34" viewBox="0 0 112 34" fill="none" xmlns="http://www.w3.org/2000/svg">
<path d="M111.377 30.079C111.377 31.8909 109.951 33.3586 108.188 33.3586H3.81509C2.05238 33.3586 0.621582 31.8909 0.621582 30.079V3.92546C0.621582 2.11441 2.05238 0.641602 3.81509 0.641602H108.187C109.951 0.641602 111.376 2.11441 111.376 3.92546L111.377 30.079Z" fill="#262626"/>
<path d="M107.851 0.681065C109.772 0.681065 111.335 2.28225 111.335 4.25V29.75C111.335 31.7178 109.772 33.3189 107.851 33.3189H4.14766C2.22707 33.3189 0.664252 31.7178 0.664252 29.75V4.25C0.664252 2.28225 2.22707 0.681065 4.14766 0.681065H107.851ZM107.851 3.8147e-06H4.14766C1.86722 3.8147e-06 -0.000488281 1.91357 -0.000488281 4.25V29.75C-0.000488281 32.0864 1.86722 34 4.14766 34H107.851C110.132 34 112 32.0864 112 29.75V4.25C112 1.91357 110.132 3.8147e-06 107.851 3.8147e-06Z" fill="#262626"/>
<path d="M24.9948 16.8165C24.9708 14.0769 27.1842 12.7441 27.2854 12.6821C26.0319 10.8095 24.0889 10.5537 23.4061 10.5333C21.7742 10.3573 20.1913 11.5337 19.36 11.5337C18.5121 11.5337 17.232 10.5503 15.8523 10.5792C14.0769 10.6072 12.416 11.6604 11.5051 13.2958C9.62512 16.6303 11.0272 21.5306 12.8283 24.2259C13.7293 25.546 14.7821 27.0199 16.1601 26.968C17.5083 26.9111 18.0118 26.0874 19.6388 26.0874C21.2507 26.0874 21.7236 26.968 23.129 26.9349C24.5759 26.9111 25.4868 25.6089 26.3563 24.2769C27.3974 22.7639 27.8156 21.2739 27.8322 21.1974C27.7982 21.1855 25.0222 20.1 24.9948 16.8165Z" fill="white"/>
<path d="M22.34 8.7602C23.0651 7.83115 23.5612 6.5672 23.4235 5.28455C22.374 5.33215 21.0616 6.0283 20.3058 6.93695C19.6371 7.73765 19.0398 9.05005 19.1941 10.2842C20.373 10.3743 21.5834 9.6748 22.34 8.7602Z" fill="white"/>
<path d="M37.8369 10.1804C37.5358 10.1804 37.2682 10.1288 37.034 10.0256C36.8012 9.92248 36.6172 9.77889 36.4819 9.59488C36.3467 9.41087 36.2749 9.19827 36.2665 8.9571H37.0528C37.0598 9.07281 37.0981 9.17388 37.1678 9.26031C37.2375 9.34535 37.3302 9.41156 37.4459 9.45896C37.5616 9.50636 37.6913 9.53006 37.8348 9.53006C37.9882 9.53006 38.1241 9.50357 38.2426 9.4506C38.3611 9.39623 38.4538 9.32095 38.5207 9.22476C38.5876 9.12857 38.6204 9.01775 38.619 8.89228C38.6204 8.76264 38.5869 8.64832 38.5186 8.54935C38.4503 8.45037 38.3513 8.373 38.2217 8.31724C38.0934 8.26148 37.9387 8.2336 37.7575 8.2336H37.379V7.63555H37.7575C37.9066 7.63555 38.037 7.60976 38.1485 7.55818C38.2614 7.5066 38.3499 7.43411 38.4141 7.34071C38.4782 7.24592 38.5096 7.13649 38.5082 7.01242C38.5096 6.89114 38.4824 6.78589 38.4266 6.69667C38.3722 6.60605 38.2949 6.53566 38.1945 6.48547C38.0955 6.43528 37.9791 6.41019 37.8453 6.41019C37.7143 6.41019 37.593 6.43389 37.4815 6.48129C37.3699 6.52869 37.28 6.5963 37.2117 6.68412C37.1434 6.77055 37.1072 6.87371 37.103 6.9936H36.3565C36.362 6.75382 36.431 6.54332 36.5635 6.3621C36.6973 6.17948 36.8757 6.03729 37.0988 5.93552C37.3218 5.83236 37.5721 5.78078 37.8495 5.78078C38.1353 5.78078 38.3834 5.83445 38.5939 5.94179C38.8058 6.04774 38.9696 6.19063 39.0853 6.37046C39.201 6.55029 39.2589 6.74894 39.2589 6.96641C39.2603 7.20758 39.1892 7.40972 39.0456 7.57282C38.9034 7.73592 38.7166 7.84257 38.4852 7.89275V7.92621C38.7863 7.96803 39.017 8.07956 39.1773 8.26078C39.339 8.44061 39.4192 8.66436 39.4178 8.93201C39.4178 9.17179 39.3495 9.38647 39.2129 9.57606C39.0776 9.76425 38.8908 9.91202 38.6525 10.0194C38.4155 10.1267 38.1436 10.1804 37.8369 10.1804ZM40.7273 10.1218H39.8992L41.4069 5.83933H42.3646L43.8744 10.1218H43.0463L41.9025 6.71758H41.869L40.7273 10.1218ZM40.7545 8.4427H43.0128V9.06584H40.7545V8.4427ZM47.1923 5.83933V6.48965H45.2142V10.1218H44.4384V5.83933H47.1923ZM47.8484 10.1218V5.83933H49.4544C49.7833 5.83933 50.0594 5.90067 50.2824 6.02335C50.5069 6.14602 50.6762 6.3147 50.7905 6.52938C50.9062 6.74267 50.9641 6.98523 50.9641 7.25707C50.9641 7.5317 50.9062 7.77565 50.7905 7.98894C50.6748 8.20223 50.5041 8.37021 50.2782 8.49289C50.0524 8.61417 49.7743 8.67481 49.4439 8.67481H48.3795V8.03704H49.3393C49.5317 8.03704 49.6892 8.00358 49.8119 7.93667C49.9346 7.86975 50.0252 7.77775 50.0838 7.66065C50.1437 7.54355 50.1737 7.40902 50.1737 7.25707C50.1737 7.10512 50.1437 6.97129 50.0838 6.85559C50.0252 6.73988 49.9339 6.64997 49.8098 6.58584C49.6872 6.52032 49.5289 6.48756 49.3352 6.48756H48.6242V10.1218H47.8484ZM52.0206 10.1804V9.52796H52.2653C52.3754 9.52796 52.466 9.51193 52.5371 9.47987C52.6082 9.44781 52.6654 9.4018 52.7086 9.34186C52.7532 9.28192 52.7901 9.21221 52.8194 9.13275L52.8759 8.98847L51.3452 5.83933H52.1565L53.223 8.13114L54.1451 5.83933H54.9439L53.4676 9.3314C53.3993 9.48196 53.3206 9.62206 53.2313 9.75171C53.1421 9.87996 53.0257 9.98382 52.8821 10.0633C52.7399 10.1413 52.5545 10.1804 52.3259 10.1804H52.0206ZM56.9916 10.1804C56.6905 10.1804 56.4228 10.1288 56.1886 10.0256C55.9558 9.92248 55.7718 9.77889 55.6366 9.59488C55.5014 9.41087 55.4296 9.19827 55.4212 8.9571H56.2074C56.2144 9.07281 56.2527 9.17388 56.3224 9.26031C56.3921 9.34535 56.4849 9.41156 56.6006 9.45896C56.7163 9.50636 56.8459 9.53006 56.9895 9.53006C57.1428 9.53006 57.2788 9.50357 57.3973 9.4506C57.5157 9.39623 57.6084 9.32095 57.6754 9.22476C57.7423 9.12857 57.775 9.01775 57.7736 8.89228C57.775 8.76264 57.7416 8.64832 57.6733 8.54935C57.605 8.45037 57.506 8.373 57.3763 8.31724C57.2481 8.26148 57.0933 8.2336 56.9121 8.2336H56.5336V7.63555H56.9121C57.0613 7.63555 57.1916 7.60976 57.3032 7.55818C57.4161 7.5066 57.5046 7.43411 57.5687 7.34071C57.6328 7.24592 57.6642 7.13649 57.6628 7.01242C57.6642 6.89114 57.637 6.78589 57.5813 6.69667C57.5269 6.60605 57.4495 6.53566 57.3492 6.48547C57.2502 6.43528 57.1338 6.41019 56.9999 6.41019C56.8689 6.41019 56.7476 6.43389 56.6361 6.48129C56.5246 6.52869 56.4347 6.5963 56.3664 6.68412C56.298 6.77055 56.2618 6.87371 56.2576 6.9936H55.5111C55.5167 6.75382 55.5857 6.54332 55.7181 6.3621C55.852 6.17948 56.0304 6.03729 56.2534 5.93552C56.4765 5.83236 56.7267 5.78078 57.0041 5.78078C57.2899 5.78078 57.538 5.83445 57.7485 5.94179C57.9604 6.04774 58.1242 6.19063 58.2399 6.37046C58.3557 6.55029 58.4135 6.74894 58.4135 6.96641C58.4149 7.20758 58.3438 7.40972 58.2002 7.57282C58.058 7.73592 57.8712 7.84257 57.6398 7.89275V7.92621C57.9409 7.96803 58.1716 8.07956 58.332 8.26078C58.4937 8.44061 58.5738 8.66436 58.5724 8.93201C58.5724 9.17179 58.5041 9.38647 58.3675 9.57606C58.2323 9.76425 58.0455 9.91202 57.8071 10.0194C57.5701 10.1267 57.2983 10.1804 56.9916 10.1804ZM59.332 5.83933H60.1015V8.75845H60.1412L62.1549 5.83933H62.8513V10.1218H62.0755V7.2048H62.0399L60.02 10.1218H59.332V5.83933ZM63.5084 6.48965V5.83933H66.9252V6.48965H65.6015V10.1218H64.832V6.48965H63.5084ZM67.5839 10.1218V5.83933H70.3692V6.48965H68.3596V7.65228H70.2249V8.3026H68.3596V9.47151H70.3859V10.1218H67.5839ZM72.6212 10.1218V5.83933H74.2606C74.5701 5.83933 74.8273 5.88812 75.0322 5.98571C75.2385 6.08189 75.3926 6.21363 75.4943 6.38092C75.5975 6.5482 75.6491 6.73779 75.6491 6.94969C75.6491 7.12394 75.6156 7.2731 75.5487 7.39717C75.4818 7.51985 75.3919 7.61952 75.279 7.69619C75.166 7.77287 75.0399 7.82793 74.9005 7.86139V7.90321C75.0524 7.91157 75.1981 7.95827 75.3375 8.04331C75.4783 8.12695 75.5933 8.24545 75.6825 8.39879C75.7718 8.55214 75.8164 8.73754 75.8164 8.95501C75.8164 9.17667 75.7627 9.37601 75.6554 9.55306C75.548 9.72871 75.3863 9.86741 75.1702 9.96918C74.9542 10.0709 74.6823 10.1218 74.3547 10.1218H72.6212ZM73.397 9.4736H74.2313C74.5129 9.4736 74.7158 9.41993 74.8398 9.31259C74.9653 9.20385 75.028 9.06445 75.028 8.89437C75.028 8.76752 74.9967 8.6532 74.9339 8.55144C74.8712 8.44828 74.782 8.36743 74.6663 8.30888C74.5506 8.24893 74.4126 8.21896 74.2523 8.21896H73.397V9.4736ZM73.397 7.66065H74.1644C74.2983 7.66065 74.4188 7.63625 74.5262 7.58746C74.6335 7.53727 74.7179 7.46687 74.7792 7.37626C74.8419 7.28426 74.8733 7.17552 74.8733 7.05006C74.8733 6.88417 74.8147 6.74755 74.6976 6.64021C74.5819 6.53287 74.4098 6.4792 74.1812 6.4792H73.397V7.66065Z" fill="white"/>
<path d="M44.505 26.7786H42.6209L41.5888 23.4559H38.0015L37.0184 26.7786H35.1841L38.7382 15.4668H40.9334L44.505 26.7786ZM41.2777 22.0619L40.3444 19.1082C40.2457 18.8064 40.0606 18.0958 39.7877 16.9772H39.7545C39.6458 17.4583 39.4708 18.1689 39.2302 19.1082L38.3134 22.0619H41.2777Z" fill="white"/>
<path d="M53.6446 22.5997C53.6446 23.9869 53.2788 25.0834 52.547 25.8883C51.8916 26.6049 51.0778 26.9627 50.1063 26.9627C49.0576 26.9627 48.3043 26.5768 47.8455 25.805H47.8123V30.1018H46.0436V21.3068C46.0436 20.4347 46.0212 19.5397 45.978 18.6217H47.5336L47.6323 19.9145H47.6655C48.2554 18.9404 49.1505 18.4542 50.3518 18.4542C51.291 18.4542 52.075 18.8342 52.7022 19.5949C53.331 20.3565 53.6446 21.3578 53.6446 22.5997ZM51.8427 22.666C51.8427 21.8721 51.6685 21.2176 51.3184 20.7025C50.9359 20.1653 50.4223 19.8967 49.7786 19.8967C49.3422 19.8967 48.9456 20.0463 48.5914 20.3412C48.2363 20.6387 48.004 21.0272 47.8953 21.5083C47.8405 21.7327 47.8132 21.9163 47.8132 22.0608V23.4208C47.8132 24.0141 47.9907 24.5147 48.3458 24.9236C48.7009 25.3324 49.1621 25.5364 49.7296 25.5364C50.3958 25.5364 50.9143 25.2729 51.2852 24.7476C51.6568 24.2215 51.8427 23.5279 51.8427 22.666Z" fill="white"/>
<path d="M62.801 22.5997C62.801 23.9869 62.4352 25.0834 61.7026 25.8883C61.048 26.6049 60.2342 26.9627 59.2627 26.9627C58.214 26.9627 57.4607 26.5768 57.0027 25.805H56.9696V30.1018H55.2008V21.3068C55.2008 20.4347 55.1784 19.5397 55.1353 18.6217H56.6908L56.7895 19.9145H56.8227C57.4118 18.9404 58.3069 18.4542 59.5091 18.4542C60.4474 18.4542 61.2314 18.8342 61.8602 19.5949C62.4866 20.3565 62.801 21.3578 62.801 22.5997ZM60.9991 22.666C60.9991 21.8721 60.824 21.2176 60.4739 20.7025C60.0915 20.1653 59.5796 19.8967 58.935 19.8967C58.4977 19.8967 58.102 20.0463 57.7469 20.3412C57.3918 20.6387 57.1604 21.0272 57.0517 21.5083C56.9978 21.7327 56.9696 21.9163 56.9696 22.0608V23.4208C56.9696 24.0141 57.1471 24.5147 57.5005 24.9236C57.8556 25.3316 58.3169 25.5364 58.886 25.5364C59.5522 25.5364 60.0707 25.2729 60.4416 24.7476C60.8132 24.2215 60.9991 23.5279 60.9991 22.666Z" fill="white"/>
<path d="M73.0389 23.6064C73.0389 24.5686 72.7128 25.3514 72.0583 25.9558C71.339 26.6162 70.3376 26.946 69.0508 26.946C67.8628 26.946 66.9104 26.7114 66.1895 26.2414L66.5993 24.7309C67.3758 25.212 68.2279 25.4534 69.1562 25.4534C69.8224 25.4534 70.3409 25.2987 70.7134 24.991C71.0843 24.6833 71.2693 24.2702 71.2693 23.7551C71.2693 23.2961 71.1166 22.9094 70.8105 22.5957C70.506 22.2821 69.9975 21.9905 69.2873 21.7211C67.3543 20.9824 66.3886 19.9004 66.3886 18.4775C66.3886 17.5476 66.7271 16.7851 67.4049 16.1918C68.0802 15.5977 68.9812 15.301 70.1078 15.301C71.1125 15.301 71.9471 15.4804 72.6133 15.8382L72.1711 17.3155C71.5489 16.9687 70.8453 16.7953 70.058 16.7953C69.4358 16.7953 68.9496 16.9526 68.6012 17.2654C68.3067 17.545 68.159 17.8859 68.159 18.2896C68.159 18.7367 68.3274 19.1065 68.6659 19.3972C68.9604 19.6658 69.4955 19.9565 70.2721 20.2701C71.222 20.662 71.9197 21.1201 72.3685 21.6454C72.8157 22.169 73.0389 22.8244 73.0389 23.6064Z" fill="white"/>
<path d="M78.8874 19.9819H76.9378V23.9421C76.9378 24.9493 77.2813 25.4525 77.9698 25.4525C78.2859 25.4525 78.5481 25.4245 78.7555 25.3684L78.8045 26.7445C78.456 26.878 77.9972 26.9451 77.4289 26.9451C76.7304 26.9451 76.1845 26.7267 75.7904 26.2906C75.398 25.8537 75.2005 25.121 75.2005 24.0917V19.9802H74.0391V18.6202H75.2005V17.1268L76.9378 16.5896V18.6202H78.8874V19.9819Z" fill="white"/>
<path d="M87.6834 22.6332C87.6834 23.8869 87.3333 24.9163 86.6348 25.7212C85.9022 26.55 84.9299 26.9631 83.7178 26.9631C82.5497 26.9631 81.6197 26.5661 80.9261 25.7722C80.2325 24.9783 79.8857 23.9762 79.8857 22.7683C79.8857 21.5044 80.2425 20.4691 80.9585 19.6641C81.6728 18.8583 82.6368 18.4554 83.8489 18.4554C85.017 18.4554 85.957 18.8524 86.6663 19.6471C87.3449 20.4181 87.6834 21.4134 87.6834 22.6332ZM85.8483 22.6918C85.8483 21.9396 85.6915 21.2944 85.3737 20.7564C85.0029 20.1053 84.4728 19.7806 83.7858 19.7806C83.0748 19.7806 82.5347 20.1061 82.1639 20.7564C81.8462 21.2953 81.6894 21.9506 81.6894 22.7258C81.6894 23.4781 81.8462 24.1232 82.1639 24.6604C82.5464 25.3115 83.0806 25.6362 83.7701 25.6362C84.4454 25.6362 84.9755 25.3047 85.358 24.6434C85.684 24.0952 85.8483 23.4432 85.8483 22.6918Z" fill="white"/>
<path d="M93.4337 20.2154C93.2586 20.1823 93.0719 20.1653 92.8761 20.1653C92.2539 20.1653 91.7727 20.4058 91.4342 20.8878C91.1397 21.3128 90.992 21.85 90.992 22.4985V26.7783H89.2241L89.2407 21.1904C89.2407 20.2503 89.2183 19.3943 89.1743 18.6225H90.7149L90.7797 20.1831H90.8286C91.0153 19.6468 91.3098 19.215 91.713 18.8911C92.1071 18.5996 92.5327 18.4542 92.9915 18.4542C93.1549 18.4542 93.3026 18.4661 93.4337 18.4874V20.2154Z" fill="white"/>
<path d="M101.344 22.314C101.344 22.6387 101.323 22.9124 101.279 23.1359H95.9731C95.9938 23.9417 96.2502 24.558 96.743 24.983C97.1902 25.3629 97.7684 25.5533 98.4786 25.5533C99.2642 25.5533 99.981 25.425 100.626 25.1674L100.903 26.4254C100.149 26.762 99.2601 26.9295 98.2338 26.9295C96.9994 26.9295 96.0303 26.5572 95.3252 25.8134C94.6216 25.0697 94.269 24.0709 94.269 22.818C94.269 21.5881 94.5968 20.5638 95.253 19.747C95.9399 18.8749 96.8683 18.4388 98.0364 18.4388C99.1838 18.4388 100.052 18.8749 100.642 19.747C101.109 20.4397 101.344 21.2965 101.344 22.314ZM99.6575 21.8439C99.6691 21.3067 99.5538 20.8426 99.314 20.4508C99.0079 19.9467 98.5375 19.6951 97.9045 19.6951C97.3262 19.6951 96.8558 19.9408 96.4966 20.4338C96.2021 20.8256 96.027 21.2957 95.9731 21.8431H99.6575V21.8439Z" fill="white"/>
</svg>
