<svg width="24" height="24" viewBox="0 0 24 24" fill="none" xmlns="http://www.w3.org/2000/svg">
<rect width="24" height="24" fill="white"/>
<g clip-path="url(#clip0_14_10586)">
<path opacity="0.992" fill-rule="evenodd" clip-rule="evenodd" d="M11.1211 1.48047C11.694 1.48047 12.2669 1.48047 12.8398 1.48047C16.3914 1.90195 19.0542 3.65976 20.8281 6.75391C21.4547 7.97563 21.8388 9.26469 21.9805 10.6211C21.9805 11.194 21.9805 11.7669 21.9805 12.3398C21.4928 16.2581 19.4616 19.0511 15.8867 20.7188C14.903 21.1209 13.8873 21.3748 12.8398 21.4805C12.2669 21.4805 11.694 21.4805 11.1211 21.4805C7.20285 20.9928 4.40988 18.9616 2.74219 15.3867C2.34 14.403 2.08609 13.3873 1.98047 12.3398C1.98047 11.7669 1.98047 11.194 1.98047 10.6211C2.46813 6.70285 4.49938 3.90988 8.07422 2.24219C9.05797 1.84 10.0736 1.58609 11.1211 1.48047ZM8.26953 6.28516C8.39254 6.27387 8.50973 6.2934 8.62109 6.34375C9.27863 7.00129 9.93621 7.65887 10.5938 8.31641C10.6301 8.39293 10.6627 8.47105 10.6914 8.55078C10.6627 8.63051 10.6301 8.70863 10.5938 8.78516C10.2031 9.17578 9.8125 9.56641 9.42188 9.95703C9.20051 10.267 9.14844 10.6056 9.26562 10.9727C10.1445 12.2161 11.2057 13.2773 12.4492 14.1562C12.808 14.3482 13.1596 14.3352 13.5039 14.1172C13.9075 13.7136 14.3112 13.3099 14.7148 12.9062C14.8711 12.8281 15.0273 12.8281 15.1836 12.9062C15.8683 13.5779 16.5389 14.2615 17.1953 14.957C17.2214 15.0612 17.2214 15.1654 17.1953 15.2695C16.8133 15.782 16.338 16.1791 15.7695 16.4609C15.3198 16.658 14.8511 16.7232 14.3633 16.6562C13.1521 16.3696 12.0454 15.8618 11.043 15.1328C9.48074 14.0057 8.25027 12.593 7.35156 10.8945C7.10113 10.3807 6.90582 9.84688 6.76562 9.29297C6.65512 8.5441 6.82441 7.86703 7.27344 7.26172C7.57547 6.90105 7.9075 6.57555 8.26953 6.28516Z" fill="#FBBB1F"/>
</g>
<defs>
<clipPath id="clip0_14_10586">
<rect width="20" height="20" fill="white" transform="translate(2 1.5)"/>
</clipPath>
</defs>
</svg>
