<svg width="24" height="25" viewBox="0 0 24 25" fill="none" xmlns="http://www.w3.org/2000/svg">
<g clip-path="url(#clip0_29_5987)">
<path opacity="0.992" fill-rule="evenodd" clip-rule="evenodd" d="M10.9688 0.5C11.6563 0.5 12.3437 0.5 13.0312 0.5C17.2932 1.00578 20.4885 3.11515 22.6172 6.82812C23.3691 8.29419 23.83 9.84106 24 11.4688C24 12.1563 24 12.8437 24 13.5312C23.4148 18.2331 20.9773 21.5847 16.6875 23.5859C15.507 24.0686 14.2882 24.3732 13.0312 24.5C12.3437 24.5 11.6563 24.5 10.9688 24.5C6.26686 23.9148 2.9153 21.4773 0.914062 17.1875C0.431434 16.007 0.126747 14.7882 0 13.5312C0 12.8437 0 12.1563 0 11.4688C0.585197 6.76686 3.0227 3.4153 7.3125 1.41406C8.493 0.931434 9.71175 0.626747 10.9688 0.5ZM7.54688 6.26562C7.69448 6.25208 7.83511 6.27552 7.96875 6.33594C8.7578 7.12498 9.54689 7.91408 10.3359 8.70312C10.3796 8.79495 10.4186 8.8887 10.4531 8.98438C10.4186 9.08005 10.3796 9.1738 10.3359 9.26562C9.86719 9.73438 9.39844 10.2031 8.92969 10.6719C8.66405 11.0439 8.60156 11.4501 8.74219 11.8906C9.79688 13.3828 11.0703 14.6562 12.5625 15.7109C12.9931 15.9413 13.415 15.9257 13.8281 15.6641C14.3125 15.1797 14.7969 14.6953 15.2812 14.2109C15.4688 14.1172 15.6562 14.1172 15.8438 14.2109C16.6654 15.017 17.4701 15.8373 18.2578 16.6719C18.2891 16.7969 18.2891 16.9219 18.2578 17.0469C17.7994 17.6619 17.2291 18.1384 16.5469 18.4766C16.0072 18.7131 15.4447 18.7912 14.8594 18.7109C13.406 18.3669 12.0779 17.7575 10.875 16.8828C9.00033 15.5303 7.52377 13.835 6.44531 11.7969C6.1448 11.1803 5.91042 10.5397 5.74219 9.875C5.60958 8.97636 5.81273 8.16388 6.35156 7.4375C6.714 7.0047 7.11244 6.61409 7.54688 6.26562Z" fill="#E31E24"/>
</g>
<defs>
<clipPath id="clip0_29_5987">
<rect width="24" height="24" fill="white" transform="translate(0 0.5)"/>
</clipPath>
</defs>
</svg>
