<svg width="24" height="24" viewBox="0 0 24 24" fill="none" xmlns="http://www.w3.org/2000/svg">
<rect width="24" height="24" fill="white"/>
<path opacity="0.927" fill-rule="evenodd" clip-rule="evenodd" d="M5.45752 2.0664C5.63823 2.03516 5.78797 2.08725 5.90673 2.22265C5.96244 2.62321 5.98197 3.02686 5.96533 3.43359C5.73095 3.43359 5.49658 3.43359 5.2622 3.43359C5.2557 3.04274 5.26221 2.65212 5.28173 2.26171C5.32177 2.17628 5.38037 2.11118 5.45752 2.0664Z" fill="#E31E24"/>
<path opacity="0.989" fill-rule="evenodd" clip-rule="evenodd" d="M14.6367 2.18359C16.8761 2.7825 19.1156 3.38145 21.3555 3.98047C21.3555 9.60547 21.3555 15.2305 21.3555 20.8555C19.6628 20.8555 17.97 20.8555 16.2773 20.8555C16.2839 16.8971 16.2773 12.9388 16.2578 8.98047C16.1975 8.90711 16.1259 8.84852 16.043 8.80469C15.5744 8.78516 15.1057 8.77863 14.6367 8.78516C14.6367 6.58465 14.6367 4.38411 14.6367 2.18359Z" fill="#E31E24"/>
<path opacity="0.972" fill-rule="evenodd" clip-rule="evenodd" d="M3.89453 4.05859C5.69141 4.05859 7.48828 4.05859 9.28516 4.05859C9.28516 5.6341 9.28516 7.20965 9.28516 8.78516C8.81621 8.77863 8.34746 8.78516 7.87891 8.80469C7.71469 8.85266 7.63008 8.96332 7.625 9.13672C7.60547 10.1393 7.59895 11.1418 7.60547 12.1445C6.36848 12.1445 5.13151 12.1445 3.89453 12.1445C3.89453 9.44922 3.89453 6.75391 3.89453 4.05859ZM5.18359 5.11328C5.45734 5.10679 5.73078 5.1133 6.00391 5.13281C6.20379 5.20046 6.27539 5.33718 6.21875 5.54297C6.18621 5.62762 6.12762 5.68621 6.04297 5.71875C5.74349 5.7448 5.44401 5.7448 5.14453 5.71875C4.93937 5.5982 4.9003 5.43543 5.02734 5.23047C5.08209 5.1906 5.13417 5.15154 5.18359 5.11328ZM7.17578 5.11328C7.46254 5.10679 7.74898 5.11329 8.03516 5.13281C8.32508 5.30921 8.33809 5.50453 8.07422 5.71875C7.76172 5.7448 7.44922 5.7448 7.13672 5.71875C6.87867 5.49926 6.89168 5.29743 7.17578 5.11328ZM5.22266 6.44141C5.51254 6.42613 5.79899 6.44566 6.08203 6.5C6.28684 6.67922 6.28684 6.86152 6.08203 7.04688C5.75651 7.125 5.43099 7.125 5.10547 7.04688C4.87661 6.79148 4.91567 6.58965 5.22266 6.44141ZM7.21484 6.44141C7.47559 6.43492 7.73602 6.44141 7.99609 6.46094C8.25187 6.57469 8.31047 6.75047 8.17188 6.98828C7.9959 7.08129 7.80711 7.12035 7.60547 7.10547C7.41488 7.1148 7.23262 7.08227 7.05859 7.00781C6.89773 6.76254 6.9498 6.57375 7.21484 6.44141ZM5.14453 7.80859C5.44429 7.80211 5.74377 7.80859 6.04297 7.82812C6.31379 8.03988 6.30078 8.2352 6.00391 8.41406C5.73047 8.44012 5.45703 8.44012 5.18359 8.41406C4.88894 8.2252 4.87592 8.02336 5.14453 7.80859ZM7.13672 7.80859C7.44949 7.80211 7.76199 7.80859 8.07422 7.82812C8.34148 8.06199 8.31547 8.2573 7.99609 8.41406C7.73566 8.44012 7.47527 8.44012 7.21484 8.41406C7.06363 8.37348 6.97246 8.27582 6.94141 8.12109C6.97543 7.99625 7.04055 7.89207 7.13672 7.80859Z" fill="#E31E24"/>
<path opacity="0.983" fill-rule="evenodd" clip-rule="evenodd" d="M8.26953 9.44922C10.7305 9.44922 13.1914 9.44922 15.6523 9.44922C15.6523 13.2513 15.6523 17.0534 15.6523 20.8555C13.1914 20.8555 10.7305 20.8555 8.26953 20.8555C8.26953 17.0534 8.26953 13.2513 8.26953 9.44922ZM9.55859 10.4648C10.0405 10.4583 10.5223 10.4648 11.0039 10.4844C11.0956 10.4979 11.1672 10.5435 11.2188 10.6211C11.2817 11.1392 11.2947 11.66 11.2578 12.1836C11.2263 12.3193 11.1417 12.4039 11.0039 12.4375C10.5221 12.4636 10.0404 12.4636 9.55859 12.4375C9.42188 12.405 9.33723 12.3203 9.30469 12.1836C9.27863 11.7018 9.27863 11.22 9.30469 10.7383C9.34445 10.601 9.4291 10.5098 9.55859 10.4648ZM12.8789 10.4648C13.3739 10.4583 13.8687 10.4648 14.3633 10.4844C14.5275 10.5323 14.6121 10.643 14.6172 10.8164C14.6432 11.2461 14.6432 11.6758 14.6172 12.1055C14.6121 12.2789 14.5275 12.3895 14.3633 12.4375C13.8815 12.4636 13.3997 12.4636 12.918 12.4375C12.8263 12.424 12.7546 12.3784 12.7031 12.3008C12.6395 11.7706 12.6264 11.2368 12.6641 10.6992C12.7172 10.6007 12.7888 10.5225 12.8789 10.4648ZM9.48047 13.1602C10.0145 13.1536 10.5483 13.1602 11.082 13.1797C11.169 13.2276 11.2276 13.2993 11.2578 13.3945C11.2839 13.8893 11.2839 14.3841 11.2578 14.8789C11.214 14.9619 11.1554 15.0335 11.082 15.0938C10.5482 15.1198 10.0143 15.1198 9.48047 15.0938C9.43488 15.0482 9.38934 15.0026 9.34375 14.957C9.2809 14.452 9.26789 13.9441 9.30469 13.4336C9.34 13.3268 9.39859 13.2357 9.48047 13.1602ZM12.8398 13.1602C13.3608 13.1536 13.8817 13.1602 14.4023 13.1797C14.4721 13.2104 14.5307 13.2559 14.5781 13.3164C14.6562 13.8633 14.6562 14.4102 14.5781 14.957C14.5456 14.9896 14.513 15.0221 14.4805 15.0547C14.1979 15.0989 13.9115 15.1185 13.6211 15.1133C13.3607 15.1068 13.1003 15.1003 12.8398 15.0938C12.7494 15.0504 12.6908 14.9788 12.6641 14.8789C12.638 14.3841 12.638 13.8893 12.6641 13.3945C12.6955 13.2912 12.7541 13.213 12.8398 13.1602ZM9.55859 15.8164C10.0405 15.8099 10.5223 15.8164 11.0039 15.8359C11.0956 15.8495 11.1672 15.895 11.2188 15.9727C11.2817 16.4908 11.2947 17.0116 11.2578 17.5352C11.2443 17.6269 11.1987 17.6985 11.1211 17.75C10.603 17.8129 10.0821 17.8259 9.55859 17.7891C9.46687 17.7755 9.39527 17.73 9.34375 17.6523C9.28082 17.1342 9.26781 16.6134 9.30469 16.0898C9.34445 15.9525 9.4291 15.8614 9.55859 15.8164ZM12.918 15.8164C13.3999 15.8099 13.8817 15.8164 14.3633 15.8359C14.5275 15.8839 14.6121 15.9946 14.6172 16.168C14.6432 16.5977 14.6432 17.0273 14.6172 17.457C14.6121 17.6304 14.5275 17.7411 14.3633 17.7891C13.8685 17.8151 13.3737 17.8151 12.8789 17.7891C12.8091 17.7584 12.7505 17.7129 12.7031 17.6523C12.6395 17.1222 12.6264 16.5883 12.6641 16.0508C12.7202 15.9359 12.8048 15.8577 12.918 15.8164Z" fill="#E31E24"/>
<path opacity="0.907" fill-rule="evenodd" clip-rule="evenodd" d="M9.94922 11.0898C10.1836 11.0898 10.418 11.0898 10.6523 11.0898C10.6523 11.3242 10.6523 11.5586 10.6523 11.793C10.418 11.793 10.1836 11.793 9.94922 11.793C9.94922 11.5586 9.94922 11.3242 9.94922 11.0898Z" fill="#E31E24"/>
<path opacity="0.907" fill-rule="evenodd" clip-rule="evenodd" d="M13.2695 11.0898C13.5039 11.0898 13.7383 11.0898 13.9727 11.0898C13.9727 11.3242 13.9727 11.5586 13.9727 11.793C13.7383 11.793 13.5039 11.793 13.2695 11.793C13.2695 11.5586 13.2695 11.3242 13.2695 11.0898Z" fill="#E31E24"/>
<path opacity="0.991" fill-rule="evenodd" clip-rule="evenodd" d="M2.56641 12.7695C4.24609 12.7695 5.92578 12.7695 7.60547 12.7695C7.60547 15.4648 7.60547 18.1602 7.60547 20.8555C5.92578 20.8555 4.24609 20.8555 2.56641 20.8555C2.56641 18.1602 2.56641 15.4648 2.56641 12.7695Z" fill="#E31E24"/>
<path opacity="0.907" fill-rule="evenodd" clip-rule="evenodd" d="M9.94922 13.7852C10.1836 13.7852 10.418 13.7852 10.6523 13.7852C10.6523 14.0195 10.6523 14.2539 10.6523 14.4883C10.418 14.4883 10.1836 14.4883 9.94922 14.4883C9.94922 14.2539 9.94922 14.0195 9.94922 13.7852Z" fill="#E31E24"/>
<path opacity="0.907" fill-rule="evenodd" clip-rule="evenodd" d="M13.2695 13.7852C13.5039 13.7852 13.7383 13.7852 13.9727 13.7852C13.9727 14.0195 13.9727 14.2539 13.9727 14.4883C13.7383 14.4883 13.5039 14.4883 13.2695 14.4883C13.2695 14.2539 13.2695 14.0195 13.2695 13.7852Z" fill="#E31E24"/>
<path opacity="0.907" fill-rule="evenodd" clip-rule="evenodd" d="M9.94922 16.4805C10.1836 16.4805 10.418 16.4805 10.6523 16.4805C10.6523 16.7148 10.6523 16.9492 10.6523 17.1836C10.418 17.1836 10.1836 17.1836 9.94922 17.1836C9.94922 16.9492 9.94922 16.7148 9.94922 16.4805Z" fill="#E31E24"/>
<path opacity="0.907" fill-rule="evenodd" clip-rule="evenodd" d="M13.2695 16.4805C13.5039 16.4805 13.7383 16.4805 13.9727 16.4805C13.9727 16.7148 13.9727 16.9492 13.9727 17.1836C13.7383 17.1836 13.5039 17.1836 13.2695 17.1836C13.2695 16.9492 13.2695 16.7148 13.2695 16.4805Z" fill="#E31E24"/>
</svg>
