<svg width="112" height="34" viewBox="0 0 112 34" fill="none" xmlns="http://www.w3.org/2000/svg">
<path d="M107.852 34H4.14815C1.8677 34 0 32.0864 0 29.75V4.25C0 1.91356 1.8677 -9.53674e-07 4.14815 -9.53674e-07H107.852C110.132 -9.53674e-07 112 1.91356 112 4.25V29.75C112 32.0864 110.132 34 107.852 34Z" fill="#262626"/>
<path d="M107.852 0.681061C109.772 0.681061 111.335 2.28225 111.335 4.25V29.75C111.335 31.7177 109.772 33.3189 107.852 33.3189H4.14815C2.22756 33.3189 0.664741 31.7177 0.664741 29.75V4.25C0.664741 2.28225 2.22756 0.681061 4.14815 0.681061H107.852ZM107.852 -9.53674e-07H4.14815C1.8677 -9.53674e-07 0 1.91356 0 4.25V29.75C0 32.0864 1.8677 34 4.14815 34H107.852C110.132 34 112 32.0864 112 29.75V4.25C112 1.91356 110.132 -9.53674e-07 107.852 -9.53674e-07Z" fill="#262626"/>
<path d="M8.03513 6.40756C7.79143 6.66894 7.65039 7.07588 7.65039 7.60288V26.4006C7.65039 26.9276 7.79143 27.3346 8.03513 27.5959L8.09528 27.6533L18.3765 17.1239V16.8753L8.09528 6.34594L8.03513 6.40756Z" fill="white"/>
<path d="M23.0444 20.6355L19.6211 17.1239V16.8753L23.0485 13.3637L23.1252 13.4094L27.1842 15.7756C28.3426 16.4471 28.3426 17.5521 27.1842 18.2279L23.1252 20.5898L23.0444 20.6355Z" fill="white"/>
<path d="M22.5027 21.2438L18.9986 17.6536L8.65723 28.2499C9.04197 28.6643 9.66937 28.7142 10.3829 28.2999L22.5027 21.2438Z" fill="white"/>
<path d="M22.5027 12.7558L10.3829 5.6997C9.66937 5.28957 9.04197 5.33951 8.65723 5.75388L18.9986 16.3459L22.5027 12.7558Z" fill="white"/>
<path d="M34.1443 11.033V9.36641H34.4308C34.5269 9.28974 34.6169 9.1817 34.7005 9.04229C34.7841 8.90289 34.8552 8.71191 34.9138 8.46934C34.9723 8.22678 35.0128 7.91312 35.0351 7.52836L35.148 5.71751H37.8852V9.36641H38.362V11.0288H37.6175V10H34.8887V11.033H34.1443ZM35.3341 9.36641H37.1408V6.36783H35.8464L35.7795 7.52836C35.7614 7.81972 35.7321 8.08041 35.6917 8.31042C35.6512 8.54044 35.6004 8.74327 35.539 8.91892C35.4777 9.09318 35.4094 9.24234 35.3341 9.36641ZM42.8206 7.85875C42.8206 8.32018 42.7342 8.71539 42.5613 9.04438C42.3899 9.37198 42.1557 9.62291 41.8587 9.79717C41.5632 9.97142 41.2279 10.0585 40.8529 10.0585C40.4779 10.0585 40.142 9.97142 39.845 9.79717C39.5495 9.62152 39.3153 9.36989 39.1424 9.04229C38.971 8.7133 38.8852 8.31879 38.8852 7.85875C38.8852 7.39733 38.971 7.00281 39.1424 6.67521C39.3153 6.34622 39.5495 6.09459 39.845 5.92034C40.142 5.74608 40.4779 5.65896 40.8529 5.65896C41.2279 5.65896 41.5632 5.74608 41.8587 5.92034C42.1557 6.09459 42.3899 6.34622 42.5613 6.67521C42.7342 7.00281 42.8206 7.39733 42.8206 7.85875ZM42.0407 7.85875C42.0407 7.53394 41.9898 7.26001 41.888 7.03697C41.7876 6.81252 41.6482 6.64315 41.4698 6.52884C41.2914 6.41313 41.0857 6.35528 40.8529 6.35528C40.6201 6.35528 40.4145 6.41313 40.2361 6.52884C40.0576 6.64315 39.9175 6.81252 39.8158 7.03697C39.7154 7.26001 39.6652 7.53394 39.6652 7.85875C39.6652 8.18356 39.7154 8.45819 39.8158 8.68263C39.9175 8.90568 40.0576 9.07505 40.2361 9.19076C40.4145 9.30507 40.6201 9.36223 40.8529 9.36223C41.0857 9.36223 41.2914 9.30507 41.4698 9.19076C41.6482 9.07505 41.7876 8.90568 41.888 8.68263C41.9898 8.45819 42.0407 8.18356 42.0407 7.85875ZM47.2197 7.16243H46.4376C46.4153 7.03418 46.3742 6.92056 46.3143 6.82159C46.2543 6.72122 46.1797 6.63618 46.0905 6.56648C46.0013 6.49677 45.8995 6.4445 45.7852 6.40965C45.6723 6.3734 45.5503 6.35528 45.4193 6.35528C45.1865 6.35528 44.9802 6.41383 44.8003 6.53093C44.6205 6.64663 44.4797 6.81671 44.3779 7.04115C44.2762 7.26419 44.2253 7.53673 44.2253 7.85875C44.2253 8.18635 44.2762 8.46237 44.3779 8.68681C44.4811 8.90986 44.6219 9.07854 44.8003 9.19285C44.9802 9.30577 45.1858 9.36223 45.4172 9.36223C45.5454 9.36223 45.6653 9.3455 45.7769 9.31204C45.8898 9.27719 45.9908 9.22631 46.0801 9.15939C46.1707 9.09248 46.2467 9.01023 46.308 8.91265C46.3707 8.81507 46.4139 8.70354 46.4376 8.57808L47.2197 8.58226C47.1904 8.78579 47.127 8.97677 47.0294 9.15521C46.9332 9.33365 46.8071 9.49117 46.6509 9.62779C46.4948 9.76301 46.3122 9.86896 46.1031 9.94563C45.894 10.0209 45.6619 10.0585 45.4067 10.0585C45.0304 10.0585 44.6944 9.97142 44.3988 9.79717C44.1033 9.62291 43.8705 9.37129 43.7004 9.04229C43.5304 8.7133 43.4453 8.31879 43.4453 7.85875C43.4453 7.39733 43.5311 7.00281 43.7025 6.67521C43.874 6.34622 44.1075 6.09459 44.403 5.92034C44.6986 5.74608 45.0331 5.65896 45.4067 5.65896C45.6451 5.65896 45.8668 5.69241 46.0717 5.75933C46.2766 5.82624 46.4592 5.92452 46.6196 6.05417C46.7799 6.18242 46.9116 6.33994 47.0148 6.52675C47.1193 6.71215 47.1876 6.92405 47.2197 7.16243ZM47.7419 6.36783V5.71751H51.1587V6.36783H49.8351V10H49.0656V6.36783H47.7419ZM52.2001 10.0585V9.40614H52.4447C52.5549 9.40614 52.6455 9.39011 52.7166 9.35804C52.7877 9.32598 52.8448 9.27998 52.888 9.22003C52.9326 9.16009 52.9696 9.09039 52.9989 9.01093L53.0553 8.86664L51.5247 5.71751H52.336L53.4024 8.00931L54.3246 5.71751H55.1234L53.6471 9.20958C53.5788 9.36014 53.5 9.50024 53.4108 9.62988C53.3216 9.75813 53.2052 9.86199 53.0616 9.94145C52.9194 10.0195 52.734 10.0585 52.5054 10.0585H52.2001ZM59.1701 5.71751V10H58.4006V6.36155H56.527V10H55.7575V5.71751H59.1701ZM60.098 10V5.71751H60.8738V7.53046H62.8582V5.71751H63.6361V10H62.8582V8.18078H60.8738V10H60.098ZM68.3065 7.85875C68.3065 8.32018 68.2201 8.71539 68.0472 9.04438C67.8757 9.37198 67.6415 9.62291 67.3446 9.79717C67.0491 9.97142 66.7138 10.0585 66.3388 10.0585C65.9638 10.0585 65.6278 9.97142 65.3309 9.79717C65.0354 9.62152 64.8012 9.36989 64.6283 9.04229C64.4568 8.7133 64.3711 8.31879 64.3711 7.85875C64.3711 7.39733 64.4568 7.00281 64.6283 6.67521C64.8012 6.34622 65.0354 6.09459 65.3309 5.92034C65.6278 5.74608 65.9638 5.65896 66.3388 5.65896C66.7138 5.65896 67.0491 5.74608 67.3446 5.92034C67.6415 6.09459 67.8757 6.34622 68.0472 6.67521C68.2201 7.00281 68.3065 7.39733 68.3065 7.85875ZM67.5265 7.85875C67.5265 7.53394 67.4756 7.26001 67.3739 7.03697C67.2735 6.81252 67.1341 6.64315 66.9557 6.52884C66.7772 6.41313 66.5716 6.35528 66.3388 6.35528C66.106 6.35528 65.9004 6.41313 65.7219 6.52884C65.5435 6.64315 65.4034 6.81252 65.3016 7.03697C65.2013 7.26001 65.1511 7.53394 65.1511 7.85875C65.1511 8.18356 65.2013 8.45819 65.3016 8.68263C65.4034 8.90568 65.5435 9.07505 65.7219 9.19076C65.9004 9.30507 66.106 9.36223 66.3388 9.36223C66.5716 9.36223 66.7772 9.30507 66.9557 9.19076C67.1341 9.07505 67.2735 8.90568 67.3739 8.68263C67.4756 8.45819 67.5265 8.18356 67.5265 7.85875ZM70.5005 10V5.71751H72.1399C72.4494 5.71751 72.7066 5.7663 72.9115 5.86388C73.1178 5.96007 73.2719 6.09181 73.3736 6.25909C73.4768 6.42638 73.5284 6.61597 73.5284 6.82786C73.5284 7.00211 73.4949 7.15128 73.428 7.27535C73.3611 7.39802 73.2712 7.4977 73.1583 7.57437C73.0453 7.65104 72.9192 7.70611 72.7798 7.73956V7.78138C72.9317 7.78975 73.0774 7.83645 73.2168 7.92148C73.3576 8.00513 73.4726 8.12362 73.5618 8.27697C73.6511 8.43031 73.6957 8.61572 73.6957 8.83319C73.6957 9.05484 73.642 9.25419 73.5347 9.43123C73.4273 9.60688 73.2656 9.74559 73.0495 9.84735C72.8335 9.94912 72.5616 10 72.234 10H70.5005ZM71.2763 9.35177H72.1106C72.3922 9.35177 72.5951 9.2981 72.7191 9.19076C72.8446 9.08202 72.9073 8.94262 72.9073 8.77255C72.9073 8.64569 72.876 8.53138 72.8132 8.42961C72.7505 8.32645 72.6613 8.2456 72.5456 8.18705C72.4299 8.12711 72.2919 8.09713 72.1316 8.09713H71.2763V9.35177ZM71.2763 7.53882H72.0437C72.1776 7.53882 72.2981 7.51442 72.4055 7.46563C72.5128 7.41545 72.5972 7.34505 72.6585 7.25444C72.7212 7.16243 72.7526 7.05369 72.7526 6.92823C72.7526 6.76234 72.6941 6.62572 72.577 6.51838C72.4612 6.41104 72.2891 6.35737 72.0605 6.35737H71.2763V7.53882Z" fill="white"/>
<path d="M56.5271 18.4897C54.5786 18.4897 52.9867 20.0091 52.9867 22.1054C52.9867 24.1847 54.5786 25.72 56.5271 25.72C58.4799 25.72 60.0717 24.1847 60.0717 22.1054C60.0717 20.0091 58.4799 18.4897 56.5271 18.4897ZM56.5271 24.2963C55.458 24.2963 54.5381 23.3921 54.5381 22.1054C54.5381 20.8017 55.458 19.9134 56.5271 19.9134C57.5963 19.9134 58.5203 20.8017 58.5203 22.1054C58.5203 23.3921 57.5963 24.2963 56.5271 24.2963ZM48.8023 18.4897C46.8495 18.4897 45.2618 20.0091 45.2618 22.1054C45.2618 24.1847 46.8495 25.72 48.8023 25.72C50.754 25.72 52.3427 24.1847 52.3427 22.1054C52.3427 20.0091 50.754 18.4897 48.8023 18.4897ZM48.8023 24.2963C47.732 24.2963 46.8091 23.3921 46.8091 22.1054C46.8091 20.8017 47.732 19.9134 48.8023 19.9134C49.8714 19.9134 50.7913 20.8017 50.7913 22.1054C50.7913 23.3921 49.8714 24.2963 48.8023 24.2963ZM39.61 19.5979V21.1343H43.1909C43.0861 21.9928 42.8061 22.6239 42.3768 23.0638C41.8541 23.595 41.04 24.1847 39.61 24.1847C37.4063 24.1847 35.6806 22.3625 35.6806 20.1047C35.6806 17.8469 37.4063 16.0247 39.61 16.0247C40.8015 16.0247 41.6685 16.5018 42.3083 17.1201L43.3651 16.0374C42.4701 15.1619 41.2796 14.4894 39.61 14.4894C36.588 14.4894 34.0483 17.0086 34.0483 20.1047C34.0483 23.2008 36.588 25.72 39.61 25.72C41.2433 25.72 42.4701 25.1718 43.4346 24.1433C44.4229 23.1307 44.7309 21.7069 44.7309 20.5573C44.7309 20.2003 44.7018 19.872 44.65 19.5979H39.61ZM77.1984 20.7889C76.907 19.9804 76.0079 18.4897 74.1765 18.4897C72.3617 18.4897 70.8507 19.9549 70.8507 22.1054C70.8507 24.1305 72.3461 25.72 74.3507 25.72C75.9716 25.72 76.907 24.7074 77.2917 24.1178L76.0888 23.2964C75.6874 23.8978 75.1409 24.2963 74.3507 24.2963C73.5657 24.2963 73.0025 23.9276 72.6417 23.2008L77.3612 21.2001L77.1984 20.7889ZM72.3866 21.9928C72.3461 20.5988 73.4433 19.8848 74.2294 19.8848C74.8454 19.8848 75.368 20.2003 75.5423 20.6519L72.3866 21.9928ZM68.5505 25.5001H70.102V14.8751H68.5505V25.5001ZM66.0098 19.2951H65.958C65.6095 18.8722 64.9448 18.4897 64.1027 18.4897C62.3356 18.4897 60.7199 20.0792 60.7199 22.1171C60.7199 24.1433 62.3356 25.72 64.1027 25.72C64.9448 25.72 65.6095 25.3343 65.958 24.8987H66.0098V25.4172C66.0098 26.7995 65.2891 27.5422 64.1266 27.5422C63.1787 27.5422 62.5907 26.8409 62.348 26.2513L60.9988 26.8282C61.3877 27.7866 62.4175 28.9659 64.1266 28.9659C65.9455 28.9659 67.4803 27.8694 67.4803 25.2015V18.7096H66.0098V19.2951ZM64.2354 24.2963C63.1663 24.2963 62.2713 23.3793 62.2713 22.1171C62.2713 20.8431 63.1663 19.9134 64.2354 19.9134C65.2891 19.9134 66.1197 20.8431 66.1197 22.1171C66.1197 23.3793 65.2891 24.2963 64.2354 24.2963ZM84.4618 14.8751H80.7513V25.5001H82.2985V21.4743H84.4618C86.1802 21.4743 87.8654 20.2003 87.8654 18.1741C87.8654 16.149 86.176 14.8751 84.4618 14.8751ZM84.5023 19.9963H82.2985V16.353H84.5023C85.6575 16.353 86.3171 17.3358 86.3171 18.1741C86.3171 18.9965 85.6575 19.9963 84.5023 19.9963ZM94.0668 18.4695C92.9489 18.4695 91.7864 18.9753 91.3083 20.0962L92.6814 20.6859C92.9769 20.0962 93.5203 19.9049 94.0948 19.9049C94.8975 19.9049 95.7116 20.399 95.724 21.2713V21.3829C95.444 21.2171 94.8446 20.9717 94.1073 20.9717C92.6285 20.9717 91.1217 21.8058 91.1217 23.3623C91.1217 24.7861 92.3329 25.703 93.6945 25.703C94.7357 25.703 95.3102 25.2217 95.6711 24.6618H95.724V25.4831H97.2184V21.4073C97.2184 19.5235 95.8454 18.4695 94.0668 18.4695ZM93.8802 24.292C93.3741 24.292 92.6689 24.0349 92.6689 23.3921C92.6689 22.5697 93.5483 22.2541 94.3095 22.2541C94.9908 22.2541 95.3102 22.4082 95.724 22.6111C95.6027 23.595 94.7762 24.292 93.8802 24.292ZM102.663 18.7022L100.884 23.3081H100.831L98.9928 18.7022H97.3242L100.087 25.1388L98.5105 28.7205H100.127L104.384 18.7022H102.663ZM88.7157 25.5001H90.2671V14.8751H88.7157V25.5001Z" fill="white"/>
</svg>
