<svg width="25" fill="#C0C0C0" height="25" viewBox="0 0 25 25" xmlns="http://www.w3.org/2000/svg">
<path d="M24 11.3305V18.7105C24 21.0752 22.152 23 19.875 23H15.75V17.7207C15.75 17.0167 15.178 16.4448 14.474 16.4448H11.526C10.822 16.4448 10.261 17.0167 10.261 17.7207V23H6.125C3.848 23 2 21.0752 2 18.7105V11.3305C2 10.0656 2.539 8.86677 3.463 8.04187L10.338 2.01462C11.889 0.661792 14.122 0.661792 15.662 2.01462L22.537 8.04187C23.472 8.86677 24 10.0656 24 11.3305Z" />
<defs>
<linearGradient id="paint0_linear_2102_14547" x1="13" y1="1" x2="13" y2="23" gradientUnits="userSpaceOnUse">
<stop stop-color="#F25E2B"/>
<stop offset="1" stop-color="#ED695D"/>
</linearGradient>
</defs>
</svg>
