<svg width="24" height="24" viewBox="0 0 24 24" fill="none" xmlns="http://www.w3.org/2000/svg">
<rect width="24" height="24" fill="white"/>
<path d="M12 1.5C6.49 1.5 2 5.99 2 11.5C2 17.01 6.49 21.5 12 21.5C17.51 21.5 22 17.01 22 11.5C22 5.99 17.51 1.5 12 1.5ZM11.8 6.27C13.58 6.27 15.02 7.71 15.02 9.49C15.02 11.26 13.58 12.71 11.8 12.71C10.03 12.71 8.59 11.26 8.59 9.49C8.59 7.71 10.03 6.27 11.8 6.27ZM17.93 17.58C17.48 18.03 16.97 18.42 16.43 18.75C15.14 19.55 13.62 20 12 20C10.38 20 8.86001 19.55 7.57001 18.75C7.03001 18.42 6.52001 18.03 6.07001 17.58V17.39C6.07001 15.34 7.74 13.67 9.78 13.67H14.22C16.26 13.67 17.93 15.34 17.93 17.39V17.58Z" fill="#FBBB1F"/>
</svg>
