<svg width="31" height="34" viewBox="0 0 31 34" fill="none" xmlns="http://www.w3.org/2000/svg">
<path fill-rule="evenodd" clip-rule="evenodd" d="M10.5627 12.5918L8.21982 12.6305C7.1154 12.6488 6.23489 13.5589 6.25314 14.6633L6.47383 28.0177C6.49208 29.1221 7.40218 30.0026 8.5066 29.9844L21.8777 29.7634C22.9822 29.7452 23.8627 28.8351 23.8444 27.7306L23.6237 14.3762C23.6055 13.2718 22.6954 12.3913 21.591 12.4096L19.248 12.4483L10.5627 12.5918Z" fill="#C0C0C0"/>
<path d="M10.5986 14.761L10.5627 12.5918M19.2839 14.6175L19.248 12.4483M10.5627 12.5918L8.21982 12.6305C7.1154 12.6488 6.23489 13.5589 6.25314 14.6633L6.47383 28.0177C6.49208 29.1221 7.40218 30.0026 8.5066 29.9844L21.8777 29.7634C22.9822 29.7452 23.8627 28.8351 23.8444 27.7306L23.6237 14.3762C23.6055 13.2718 22.6954 12.3913 21.591 12.4096L19.248 12.4483M10.5627 12.5918L19.248 12.4483M10.5627 12.5918L10.5269 10.4226C10.4873 8.02558 12.404 6.05191 14.7978 6.01235C17.1972 5.9727 19.1727 7.88747 19.2122 10.2791L19.248 12.4483" stroke="#C0C0C0" stroke-width="1.5" stroke-linecap="round"/>
<path d="M13.9172 22.6561L12.1586 20.9773" stroke="white" stroke-opacity="0.9" stroke-width="1.5" stroke-linecap="round" stroke-linejoin="round"/>
<path d="M17.4398 19.2933L13.9172 22.6561" stroke="white" stroke-opacity="0.9" stroke-width="1.5" stroke-linecap="round" stroke-linejoin="round"/>
</svg>
