<svg width="80" height="24" viewBox="0 0 80 24" fill="none" xmlns="http://www.w3.org/2000/svg">
<path fill-rule="evenodd" clip-rule="evenodd" d="M37.5608 9.96601C38.342 9.96601 39.0598 10.0281 39.6087 10.2358C40.77 10.672 41.5089 11.6477 41.5089 13.0592C41.5089 14.4506 40.7278 15.5093 39.5666 15.9452C39.0175 16.1528 38.2787 16.2359 37.2863 16.2359H30.1499V6.35352H40.6855V8.63715H33.2113V9.96601H37.5608ZM37.3918 13.7446C37.6874 13.7446 37.9197 13.7237 38.0886 13.6616C38.4475 13.537 38.5953 13.2254 38.5953 12.9347C38.5953 12.825 38.5772 12.7238 38.541 12.634C38.5194 12.5804 38.4912 12.5307 38.4567 12.4853C38.396 12.4062 38.3155 12.3405 38.2153 12.2912C38.1846 12.2763 38.1526 12.2628 38.1193 12.2511C38.0658 12.2323 38.0088 12.2177 37.9485 12.206C37.7875 12.1748 37.6019 12.1666 37.3918 12.1666H33.2113V13.7446H37.3918ZM45.6169 6.35352H50.0928L54.21 16.2359H50.7685L50.1773 14.8034H45.5324L44.9624 16.2359H41.4997L45.6169 6.35352ZM47.7494 8.63715L46.2924 12.6234H49.4384L47.9815 8.63715H47.7494ZM58.1506 12.5613V16.2359H55.0893V6.35352H58.1506V9.96601H63.07V6.35352H66.1316V16.2359H63.07V12.5613H58.1506ZM70.9773 16.2359V12.4988H71.8219L75.4745 16.2359H79.5494L74.461 11.0872L79.3593 6.35352H75.5168L71.8219 10.07H70.9773V6.35352H67.9159V16.2359H70.9773Z" fill="#333333"/>
<path d="M0 0.000244141H24.4068V12.0705C24.4068 15.1648 22.7281 18.0241 20.0031 19.5714L12.2034 24.0002L4.40371 19.5714C1.67866 18.0241 0 15.1648 0 12.0705V0.000244141Z" fill="#FFDD2D"/>
<path fill-rule="evenodd" clip-rule="evenodd" d="M6.69824 6.35352V10.1076C7.2203 9.52792 8.1695 9.13558 9.25478 9.13558H10.4342V13.4997C10.4342 14.6607 10.1134 15.677 9.63737 16.236H14.7675C14.2925 15.6764 13.9724 14.6615 13.9724 13.5019V9.13558H15.1519C16.2372 9.13558 17.1863 9.52792 17.7084 10.1076V6.35352H6.69824Z" fill="#333333"/>
</svg>
