<svg width="31" height="31" viewBox="0 0 31 31"  fill="#C0C0C0" xmlns="http://www.w3.org/2000/svg">
<path d="M15.125 15.3067C17.7888 15.3067 19.9484 12.5697 19.9484 9.19343C19.9484 5.81708 19.2393 3.08008 15.125 3.08008C11.0107 3.08008 10.3015 5.81708 10.3015 9.19343C10.3015 12.5697 12.4611 15.3067 15.125 15.3067Z" />
<path d="M24.2249 23.925C24.1356 18.0434 23.3995 16.3675 17.7663 15.3066C17.7663 15.3066 16.9734 16.361 15.1252 16.361C13.2769 16.361 12.4839 15.3066 12.4839 15.3066C6.91218 16.3559 6.13128 18.007 6.0286 23.7339C6.02018 24.2016 6.01628 24.2261 6.01477 24.1719C6.01511 24.2736 6.01552 24.4617 6.01552 24.7898C6.01552 24.7898 7.35664 27.6109 15.1252 27.6109C22.8935 27.6109 24.2348 24.7898 24.2348 24.7898C24.2348 24.579 24.2349 24.4324 24.2351 24.3327C24.2336 24.3663 24.2306 24.3012 24.2249 23.925Z" />
<path d="M15.1255 27.7169C15.1238 27.6589 15.1246 27.511 15.1255 27.7169V27.7169Z"/>
<path d="M15.1243 27.9038C15.1252 27.5128 15.1269 27.8474 15.1243 27.9038V27.9038Z" />
</svg>
