<svg width="50" height="50" viewBox="0 0 50 50" fill="none" xmlns="http://www.w3.org/2000/svg">
<rect width="50" height="50" rx="100" fill="#393939"/>
<path d="M28.4925 22.3V19.6C28.4925 17.6118 26.9289 16 25 16C23.0711 16 21.5075 17.6118 21.5075 19.6V22.3M17.6588 23.5168L17.1349 29.2768C16.9859 30.9145 16.9115 31.7334 17.1751 32.3658C17.4067 32.9215 17.8125 33.3809 18.3276 33.6704C18.9139 34 19.7118 34 21.3076 34H28.6924C30.2882 34 31.0861 34 31.6724 33.6704C32.1875 33.3809 32.5933 32.9215 32.8249 32.3658C33.0885 31.7334 33.0141 30.9145 32.8651 29.2768L32.3412 23.5168C32.2155 22.1338 32.1526 21.4423 31.8508 20.9195C31.5851 20.4591 31.1925 20.0906 30.723 19.8609C30.1899 19.6 29.5161 19.6 28.1685 19.6L21.8315 19.6C20.4839 19.6 19.8101 19.6 19.277 19.8609C18.8075 20.0906 18.4149 20.4591 18.1492 20.9195C17.8474 21.4423 17.7845 22.1338 17.6588 23.5168Z" stroke="#FFFFFF" stroke-width="1.5" stroke-linecap="round" stroke-linejoin="round"/>
</svg>
